  0
SECTION
  2
HEADER
  9
$ACADVER
  1
AC1027
  9
$ACADMAINTVER
 70
   105
  9
$DWGCODEPAGE
  3
ANSI_1252
  9
$REQUIREDVERSIONS
160
                 0
  9
$LASTSAVEDBY
  1
tuansusam
  9
$INSBASE
 10
0.0
 20
0.0
 30
0.0
  9
$EXTMIN
 10
25.41422561614592
 20
43.11025431073029
 30
0.0
  9
$EXTMAX
 10
571.9303462792062
 20
580.900104112102
 30
0.0
  9
$LIMMIN
 10
0.0
 20
0.0
  9
$LIMMAX
 10
609.0
 20
609.0
  9
$ORTHOMODE
 70
     0
  9
$REGENMODE
 70
     1
  9
$FILLMODE
 70
     1
  9
$QTEXTMODE
 70
     0
  9
$MIRRTEXT
 70
     1
  9
$LTSCALE
 40
1.0
  9
$ATTMODE
 70
     1
  9
$TEXTSIZE
 40
3.174999999999999
  9
$TRACEWID
 40
1.0
  9
$TEXTSTYLE
  7
Standard
  9
$CLAYER
  8
0
  9
$CELTYPE
  6
ByLayer
  9
$CECOLOR
 62
   256
  9
$CELTSCALE
 40
1.0
  9
$DISPSILH
 70
     0
  9
$DIMSCALE
 40
1.0
  9
$DIMASZ
 40
3.301999999999999
  9
$DIMEXO
 40
1.27
  9
$DIMDLI
 40
3.75
  9
$DIMRND
 40
0.0
  9
$DIMDLE
 40
0.0
  9
$DIMEXE
 40
3.174999999999999
  9
$DIMTP
 40
0.0
  9
$DIMTM
 40
0.0
  9
$DIMTXT
 40
3.174999999999999
  9
$DIMCEN
 40
2.5
  9
$DIMTSZ
 40
0.0
  9
$DIMTOL
 70
     0
  9
$DIMLIM
 70
     0
  9
$DIMTIH
 70
     1
  9
$DIMTOH
 70
     1
  9
$DIMSE1
 70
     0
  9
$DIMSE2
 70
     0
  9
$DIMTAD
 70
     0
  9
$DIMZIN
 70
     0
  9
$DIMBLK
  1

  9
$DIMASO
 70
     1
  9
$DIMSHO
 70
     1
  9
$DIMPOST
  1

  9
$DIMAPOST
  1

  9
$DIMALT
 70
     0
  9
$DIMALTD
 70
     3
  9
$DIMALTF
 40
0.0393700787401575
  9
$DIMLFAC
 40
1.0
  9
$DIMTOFL
 70
     1
  9
$DIMTVP
 40
0.0
  9
$DIMTIX
 70
     0
  9
$DIMSOXD
 70
     0
  9
$DIMSAH
 70
     0
  9
$DIMBLK1
  1

  9
$DIMBLK2
  1

  9
$DIMSTYLE
  2
ISO-25
  9
$DIMCLRD
 70
     0
  9
$DIMCLRE
 70
     0
  9
$DIMCLRT
 70
     0
  9
$DIMTFAC
 40
1.0
  9
$DIMGAP
 40
1.524
  9
$DIMJUST
 70
     0
  9
$DIMSD1
 70
     0
  9
$DIMSD2
 70
     0
  9
$DIMTOLJ
 70
     0
  9
$DIMTZIN
 70
     0
  9
$DIMALTZ
 70
     0
  9
$DIMALTTZ
 70
     0
  9
$DIMUPT
 70
     0
  9
$DIMDEC
 70
     2
  9
$DIMTDEC
 70
     2
  9
$DIMALTU
 70
     2
  9
$DIMALTTD
 70
     3
  9
$DIMTXSTY
  7
Standard
  9
$DIMAUNIT
 70
     0
  9
$DIMADEC
 70
     2
  9
$DIMALTRND
 40
0.0
  9
$DIMAZIN
 70
     0
  9
$DIMDSEP
 70
    44
  9
$DIMATFIT
 70
     3
  9
$DIMFRAC
 70
     0
  9
$DIMLDRBLK
  1

  9
$DIMLUNIT
 70
     2
  9
$DIMLWD
 70
    -2
  9
$DIMLWE
 70
    -2
  9
$DIMTMOVE
 70
     0
  9
$DIMFXL
 40
1.0
  9
$DIMFXLON
 70
     0
  9
$DIMJOGANG
 40
0.7853981633974483
  9
$DIMTFILL
 70
     0
  9
$DIMTFILLCLR
 70
     0
  9
$DIMARCSYM
 70
     0
  9
$DIMLTYPE
  6

  9
$DIMLTEX1
  6

  9
$DIMLTEX2
  6

  9
$DIMTXTDIRECTION
 70
     0
  9
$LUNITS
 70
     2
  9
$LUPREC
 70
     2
  9
$SKETCHINC
 40
1.0
  9
$FILLETRAD
 40
10.0
  9
$AUNITS
 70
     0
  9
$AUPREC
 70
     2
  9
$MENU
  1
.
  9
$ELEVATION
 40
0.0
  9
$PELEVATION
 40
0.0
  9
$THICKNESS
 40
0.0
  9
$LIMCHECK
 70
     0
  9
$CHAMFERA
 40
10.0
  9
$CHAMFERB
 40
10.0
  9
$CHAMFERC
 40
20.0
  9
$CHAMFERD
 40
0.0
  9
$SKPOLY
 70
     0
  9
$TDCREATE
 40
2456279.749756944
  9
$TDUCREATE
 40
2456279.624756944
  9
$TDUPDATE
 40
2457800.699113877
  9
$TDUUPDATE
 40
2457800.574113877
  9
$TDINDWG
 40
0.0173878472
  9
$TDUSRTIMER
 40
2457800.558315937
  9
$USRTIMER
 70
     1
  9
$ANGBASE
 50
0.0
  9
$ANGDIR
 70
     0
  9
$PDMODE
 70
     0
  9
$PDSIZE
 40
-1.0
  9
$PLINEWID
 40
0.0
  9
$SPLFRAME
 70
     0
  9
$SPLINETYPE
 70
     6
  9
$SPLINESEGS
 70
     8
  9
$HANDSEED
  5
1BD8
  9
$SURFTAB1
 70
     6
  9
$SURFTAB2
 70
     6
  9
$SURFTYPE
 70
     6
  9
$SURFU
 70
     6
  9
$SURFV
 70
     6
  9
$UCSBASE
  2

  9
$UCSNAME
  2

  9
$UCSORG
 10
0.0
 20
0.0
 30
0.0
  9
$UCSXDIR
 10
1.0
 20
0.0
 30
0.0
  9
$UCSYDIR
 10
0.0
 20
1.0
 30
0.0
  9
$UCSORTHOREF
  2

  9
$UCSORTHOVIEW
 70
     0
  9
$UCSORGTOP
 10
0.0
 20
0.0
 30
0.0
  9
$UCSORGBOTTOM
 10
0.0
 20
0.0
 30
0.0
  9
$UCSORGLEFT
 10
0.0
 20
0.0
 30
0.0
  9
$UCSORGRIGHT
 10
0.0
 20
0.0
 30
0.0
  9
$UCSORGFRONT
 10
0.0
 20
0.0
 30
0.0
  9
$UCSORGBACK
 10
0.0
 20
0.0
 30
0.0
  9
$PUCSBASE
  2

  9
$PUCSNAME
  2

  9
$PUCSORG
 10
0.0
 20
0.0
 30
0.0
  9
$PUCSXDIR
 10
1.0
 20
0.0
 30
0.0
  9
$PUCSYDIR
 10
0.0
 20
1.0
 30
0.0
  9
$PUCSORTHOREF
  2

  9
$PUCSORTHOVIEW
 70
     0
  9
$PUCSORGTOP
 10
0.0
 20
0.0
 30
0.0
  9
$PUCSORGBOTTOM
 10
0.0
 20
0.0
 30
0.0
  9
$PUCSORGLEFT
 10
0.0
 20
0.0
 30
0.0
  9
$PUCSORGRIGHT
 10
0.0
 20
0.0
 30
0.0
  9
$PUCSORGFRONT
 10
0.0
 20
0.0
 30
0.0
  9
$PUCSORGBACK
 10
0.0
 20
0.0
 30
0.0
  9
$USERI1
 70
     0
  9
$USERI2
 70
     0
  9
$USERI3
 70
     0
  9
$USERI4
 70
     0
  9
$USERI5
 70
     0
  9
$USERR1
 40
0.0
  9
$USERR2
 40
0.0
  9
$USERR3
 40
0.0
  9
$USERR4
 40
0.0
  9
$USERR5
 40
0.0
  9
$WORLDVIEW
 70
     1
  9
$SHADEDGE
 70
     3
  9
$SHADEDIF
 70
    70
  9
$TILEMODE
 70
     1
  9
$MAXACTVP
 70
    64
  9
$PINSBASE
 10
0.0
 20
0.0
 30
0.0
  9
$PLIMCHECK
 70
     0
  9
$PEXTMIN
 10
1.000000000000000E+20
 20
1.000000000000000E+20
 30
1.000000000000000E+20
  9
$PEXTMAX
 10
-1.000000000000000E+20
 20
-1.000000000000000E+20
 30
-1.000000000000000E+20
  9
$PLIMMIN
 10
0.0
 20
0.0
  9
$PLIMMAX
 10
0.0
 20
0.0
  9
$UNITMODE
 70
     0
  9
$VISRETAIN
 70
     1
  9
$PLINEGEN
 70
     0
  9
$PSLTSCALE
 70
     1
  9
$TREEDEPTH
 70
  3020
  9
$CMLSTYLE
  2
Standard
  9
$CMLJUST
 70
     0
  9
$CMLSCALE
 40
20.0
  9
$PROXYGRAPHICS
 70
     1
  9
$MEASUREMENT
 70
     1
  9
$CELWEIGHT
370
    -1
  9
$ENDCAPS
280
     0
  9
$JOINSTYLE
280
     0
  9
$LWDISPLAY
290
     1
  9
$INSUNITS
 70
     4
  9
$HYPERLINKBASE
  1

  9
$STYLESHEET
  1

  9
$XEDIT
290
     1
  9
$CEPSNTYPE
380
     0
  9
$PSTYLEMODE
290
     1
  9
$FINGERPRINTGUID
  2
{F6B23577-C1E4-4F76-AA86-5934FB4F67CA}
  9
$VERSIONGUID
  2
{273EAE93-F6C3-43D5-A968-640027A5DEEC}
  9
$EXTNAMES
290
     1
  9
$PSVPSCALE
 40
0.0
  9
$OLESTARTUP
290
     0
  9
$SORTENTS
280
   127
  9
$INDEXCTL
280
     0
  9
$HIDETEXT
280
     1
  9
$XCLIPFRAME
280
     2
  9
$HALOGAP
280
     0
  9
$OBSCOLOR
 70
   257
  9
$OBSLTYPE
280
     0
  9
$INTERSECTIONDISPLAY
280
     0
  9
$INTERSECTIONCOLOR
 70
   257
  9
$DIMASSOC
280
     2
  9
$PROJECTNAME
  1

  9
$CAMERADISPLAY
290
     0
  9
$LENSLENGTH
 40
50.0
  9
$CAMERAHEIGHT
 40
0.0
  9
$STEPSPERSEC
 40
2.0
  9
$STEPSIZE
 40
6.0
  9
$3DDWFPREC
 40
2.0
  9
$PSOLWIDTH
 40
0.25
  9
$PSOLHEIGHT
 40
4.0
  9
$LOFTANG1
 40
1.570796326794896
  9
$LOFTANG2
 40
1.570796326794896
  9
$LOFTMAG1
 40
0.0
  9
$LOFTMAG2
 40
0.0
  9
$LOFTPARAM
 70
     7
  9
$LOFTNORMALS
280
     1
  9
$LATITUDE
 40
37.795
  9
$LONGITUDE
 40
-122.394
  9
$NORTHDIRECTION
 40
0.0
  9
$TIMEZONE
 70
 -8000
  9
$LIGHTGLYPHDISPLAY
280
     1
  9
$TILEMODELIGHTSYNCH
280
     1
  9
$CMATERIAL
347
3A2
  9
$SOLIDHIST
280
     1
  9
$SHOWHIST
280
     1
  9
$DWFFRAME
280
     2
  9
$DGNFRAME
280
     2
  9
$REALWORLDSCALE
290
     1
  9
$INTERFERECOLOR
 62
   256
  9
$INTERFEREOBJVS
345
3AE
  9
$INTERFEREVPVS
346
3AB
  9
$CSHADOW
280
     0
  9
$SHADOWPLANELOCATION
 40
0.0
  0
ENDSEC
  0
SECTION
  2
CLASSES
  0
CLASS
  1
ACDBDICTIONARYWDFLT
  2
AcDbDictionaryWithDefault
  3
ObjectDBX Classes
 90
        0
 91
        4
280
     0
281
     0
  0
CLASS
  1
VISUALSTYLE
  2
AcDbVisualStyle
  3
ObjectDBX Classes
 90
     4095
 91
        4
280
     0
281
     0
  0
CLASS
  1
MATERIAL
  2
AcDbMaterial
  3
ObjectDBX Classes
 90
     1153
 91
        4
280
     0
281
     0
  0
CLASS
  1
SCALE
  2
AcDbScale
  3
ObjectDBX Classes
 90
     1153
 91
        4
280
     0
281
     0
  0
CLASS
  1
TABLESTYLE
  2
AcDbTableStyle
  3
ObjectDBX Classes
 90
     4095
 91
        4
280
     0
281
     0
  0
CLASS
  1
RASTERVARIABLES
  2
AcDbRasterVariables
  3
ISM
 90
        0
 91
        4
280
     0
281
     0
  0
CLASS
  1
DICTIONARYVAR
  2
AcDbDictionaryVar
  3
ObjectDBX Classes
 90
        0
 91
        4
280
     0
281
     0
  0
CLASS
  1
MLEADERSTYLE
  2
AcDbMLeaderStyle
  3
ACDB_MLEADERSTYLE_CLASS
 90
     4095
 91
        4
280
     0
281
     0
  0
CLASS
  1
CELLSTYLEMAP
  2
AcDbCellStyleMap
  3
ObjectDBX Classes
 90
     1152
 91
        4
280
     0
281
     0
  0
CLASS
  1
SUN
  2
AcDbSun
  3
SCENEOE
 90
     1153
 91
        4
280
     0
281
     0
  0
ENDSEC
  0
SECTION
  2
TABLES
  0
TABLE
  2
VPORT
  5
8
330
0
100
AcDbSymbolTable
 70
     1
  0
VPORT
  5
29
330
8
100
AcDbSymbolTableRecord
100
AcDbViewportTableRecord
  2
*Active
 70
     0
 10
0.0
 20
0.0
 11
1.0
 21
1.0
 12
266.6306130397418
 22
283.8881644165883
 13
0.0
 23
0.0
 14
10.0
 24
10.0
 15
10.0
 25
10.0
 16
0.0
 26
0.0
 36
1.0
 17
0.0
 27
0.0
 37
0.0
 40
630.9559493265857
 41
1.5
 42
50.0
 43
0.0
 44
0.0
 50
0.0
 51
0.0
 71
    16
 72
  2000
 73
     1
 74
     3
 75
     0
 76
     0
 77
     0
 78
     0
281
     0
 65
     1
110
0.0
120
0.0
130
0.0
111
1.0
121
0.0
131
0.0
112
0.0
122
1.0
132
0.0
 79
     0
146
0.0
348
3AA
 60
     3
 61
     5
292
     1
282
     1
141
0.0
142
0.0
 63
   256
361
1BD0
  0
ENDTAB
  0
TABLE
  2
LTYPE
  5
5
330
0
100
AcDbSymbolTable
 70
     6
  0
LTYPE
  5
14
330
5
100
AcDbSymbolTableRecord
100
AcDbLinetypeTableRecord
  2
ByBlock
 70
     0
  3

 72
    65
 73
     0
 40
0.0
  0
LTYPE
  5
15
330
5
100
AcDbSymbolTableRecord
100
AcDbLinetypeTableRecord
  2
ByLayer
 70
     0
  3

 72
    65
 73
     0
 40
0.0
  0
LTYPE
  5
16
330
5
100
AcDbSymbolTableRecord
100
AcDbLinetypeTableRecord
  2
Continuous
 70
     0
  3
Solid line
 72
    65
 73
     0
 40
0.0
  0
LTYPE
  5
3F
330
5
100
AcDbSymbolTableRecord
100
AcDbLinetypeTableRecord
  2
HIDDEN
 70
     0
  3
Hidden __ __ __ __ __ __ __ __ __ __ __ __ __ __
 72
    65
 73
     2
 40
1.905
 49
1.27
 74
     0
 49
-0.635
 74
     0
  0
LTYPE
  5
40
330
5
100
AcDbSymbolTableRecord
100
AcDbLinetypeTableRecord
  2
PHANTOM
 70
     0
  3
Phantom ______  __  __  ______  __  __  ______
 72
    65
 73
     6
 40
12.7
 49
6.349999999999999
 74
     0
 49
-1.27
 74
     0
 49
1.27
 74
     0
 49
-1.27
 74
     0
 49
1.27
 74
     0
 49
-1.27
 74
     0
  0
LTYPE
  5
41
330
5
100
AcDbSymbolTableRecord
100
AcDbLinetypeTableRecord
  2
CENTER
 70
     0
  3
Center ____ _ ____ _ ____ _ ____ _ ____ _ ____
 72
    65
 73
     4
 40
10.16
 49
6.349999999999999
 74
     0
 49
-1.27
 74
     0
 49
1.27
 74
     0
 49
-1.27
 74
     0
  0
LTYPE
  5
42
330
5
100
AcDbSymbolTableRecord
100
AcDbLinetypeTableRecord
  2
CENTERX2
 70
     0
  3
Center (2x) ________  __  ________  __  _____
 72
    65
 73
     4
 40
20.32
 49
12.7
 74
     0
 49
-2.54
 74
     0
 49
2.54
 74
     0
 49
-2.54
 74
     0
  0
LTYPE
  5
43
330
5
100
AcDbSymbolTableRecord
100
AcDbLinetypeTableRecord
  2
DOT2
 70
     0
  3
Dot (.5x) ........................................
 72
    65
 73
     2
 40
0.635
 49
0.0
 74
     0
 49
-0.635
 74
     0
  0
ENDTAB
  0
TABLE
  2
LAYER
  5
2
330
0
100
AcDbSymbolTable
 70
     2
  0
LAYER
  5
10
330
2
100
AcDbSymbolTableRecord
100
AcDbLayerTableRecord
  2
0
 70
     0
 62
     7
  6
Continuous
370
    -3
390
F
347
3A4
348
0
  0
LAYER
  5
44
330
2
100
AcDbSymbolTableRecord
100
AcDbLayerTableRecord
  2
FORMAT
 70
     0
 62
     7
  6
Continuous
370
    -3
390
F
347
3A4
348
0
  0
ENDTAB
  0
TABLE
  2
STYLE
  5
3
330
0
100
AcDbSymbolTable
 70
     1
  0
STYLE
  5
11
330
3
100
AcDbSymbolTableRecord
100
AcDbTextStyleTableRecord
  2
Standard
 70
     0
 40
0.0
 41
1.0
 50
0.0
 71
     0
 42
3.174999999999999
  3
txt
  4

  0
ENDTAB
  0
TABLE
  2
VIEW
  5
6
330
0
100
AcDbSymbolTable
 70
     0
  0
ENDTAB
  0
TABLE
  2
UCS
  5
7
330
0
100
AcDbSymbolTable
 70
     0
  0
ENDTAB
  0
TABLE
  2
APPID
  5
9
330
0
100
AcDbSymbolTable
 70
     1
  0
APPID
  5
12
330
9
100
AcDbSymbolTableRecord
100
AcDbRegAppTableRecord
  2
ACAD
 70
     0
  0
ENDTAB
  0
TABLE
  2
DIMSTYLE
  5
A
330
0
100
AcDbSymbolTable
 70
     1
100
AcDbDimStyleTable
  0
DIMSTYLE
105
27
330
A
100
AcDbSymbolTableRecord
100
AcDbDimStyleTableRecord
  2
ISO-25
 70
     0
 41
2.5
 42
0.625
 43
3.75
 44
1.25
 73
     0
 74
     0
 77
     1
 78
     8
140
2.5
141
2.5
143
0.03937007874016
147
0.625
171
     3
172
     1
178
     0
271
     2
272
     2
274
     3
278
    44
283
     0
284
     8
340
11
  0
ENDTAB
  0
TABLE
  2
BLOCK_RECORD
  5
1
330
0
100
AcDbSymbolTable
 70
     1
  0
BLOCK_RECORD
  5
1F
330
1
100
AcDbSymbolTableRecord
100
AcDbBlockTableRecord
  2
*Model_Space
340
22
 70
     0
280
     1
281
     0
  0
BLOCK_RECORD
  5
1B
330
1
100
AcDbSymbolTableRecord
100
AcDbBlockTableRecord
  2
*Paper_Space
340
1E
 70
     0
280
     1
281
     0
  0
BLOCK_RECORD
  5
23
330
1
100
AcDbSymbolTableRecord
100
AcDbBlockTableRecord
  2
*Paper_Space0
340
26
 70
     0
280
     1
281
     0
  0
ENDTAB
  0
ENDSEC
  0
SECTION
  2
BLOCKS
  0
BLOCK
  5
20
330
1F
100
AcDbEntity
  8
0
100
AcDbBlockBegin
  2
*Model_Space
 70
     0
 10
0.0
 20
0.0
 30
0.0
  3
*Model_Space
  1

  0
ENDBLK
  5
21
330
1F
100
AcDbEntity
  8
0
100
AcDbBlockEnd
  0
BLOCK
  5
1C
330
1B
100
AcDbEntity
 67
     1
  8
0
100
AcDbBlockBegin
  2
*Paper_Space
 70
     0
 10
0.0
 20
0.0
 30
0.0
  3
*Paper_Space
  1

  0
ENDBLK
  5
1D
330
1B
100
AcDbEntity
 67
     1
  8
0
100
AcDbBlockEnd
  0
BLOCK
  5
24
330
23
100
AcDbEntity
  8
0
100
AcDbBlockBegin
  2
*Paper_Space0
 70
     0
 10
0.0
 20
0.0
 30
0.0
  3
*Paper_Space0
  1

  0
ENDBLK
  5
25
330
23
100
AcDbEntity
  8
0
100
AcDbBlockEnd
  0
ENDSEC
  0
SECTION
  2
ENTITIES
  0
CIRCLE
  5
A5
330
1F
100
AcDbEntity
  8
0
  6
Continuous
 62
     7
370
    15
100
AcDbCircle
 10
114.8875131441311
 20
309.9105441256111
 30
0.0
 40
1.600000000000022
  0
CIRCLE
  5
A6
330
1F
100
AcDbEntity
  8
0
  6
Continuous
 62
     7
370
    15
100
AcDbCircle
 10
219.3875131441311
 20
436.910544125611
 30
0.0
 40
1.600000000000022
  0
CIRCLE
  5
A7
330
1F
100
AcDbEntity
  8
0
  6
Continuous
 62
     7
370
    15
100
AcDbCircle
 10
319.3875131441311
 20
414.4105441256111
 30
0.0
 40
1.599999999999965
  0
CIRCLE
  5
A8
330
1F
100
AcDbEntity
  8
0
  6
Continuous
 62
     7
370
    15
100
AcDbCircle
 10
289.3875131441312
 20
414.4105441256111
 30
0.0
 40
1.599999999999965
  0
CIRCLE
  5
A9
330
1F
100
AcDbEntity
  8
0
  6
Continuous
 62
     7
370
    15
100
AcDbCircle
 10
219.3875131441311
 20
391.9105441256111
 30
0.0
 40
1.600000000000022
  0
CIRCLE
  5
AA
330
1F
100
AcDbEntity
  8
0
  6
Continuous
 62
     7
370
    15
100
AcDbCircle
 10
119.3875131441311
 20
379.4105441256111
 30
0.0
 40
1.600000000000022
  0
CIRCLE
  5
AB
330
1F
100
AcDbEntity
  8
0
  6
Continuous
 62
     7
370
    15
100
AcDbCircle
 10
149.3875131441311
 20
379.4105441256111
 30
0.0
 40
1.599999999999965
  0
CIRCLE
  5
AC
330
1F
100
AcDbEntity
  8
0
  6
Continuous
 62
     7
370
    15
100
AcDbCircle
 10
149.3875131441311
 20
449.4105441256111
 30
0.0
 40
1.600000000000079
  0
CIRCLE
  5
AD
330
1F
100
AcDbEntity
  8
0
  6
Continuous
 62
     7
370
    15
100
AcDbCircle
 10
119.3875131441311
 20
449.410544125611
 30
0.0
 40
1.600000000000022
  0
CIRCLE
  5
AE
330
1F
100
AcDbEntity
  8
0
  6
Continuous
 62
     7
370
    15
100
AcDbCircle
 10
114.8875131441311
 20
518.910544125611
 30
0.0
 40
1.599999999999909
  0
CIRCLE
  5
AF
330
1F
100
AcDbEntity
  8
0
  6
Continuous
 62
     7
370
    15
100
AcDbCircle
 10
323.8875131441311
 20
518.910544125611
 30
0.0
 40
1.599999999999909
  0
CIRCLE
  5
B0
330
1F
100
AcDbEntity
  8
0
  6
Continuous
 62
     7
370
    15
100
AcDbCircle
 10
323.8875131441311
 20
309.9105441256111
 30
0.0
 40
1.600000000000022
  0
CIRCLE
  5
B1
330
1F
100
AcDbEntity
  8
0
  6
Continuous
 62
     7
370
    15
100
AcDbCircle
 10
55.11422561614581
 20
264.0751041121021
 30
0.0
 40
1.599999999999994
  0
LINE
  5
B2
330
1F
100
AcDbEntity
  8
0
  6
Continuous
 62
     7
370
    15
100
AcDbLine
 10
76.46422561614565
 20
243.4001041121021
 30
0.0
 11
82.81422561614566
 21
243.4001041121021
 31
0.0
  0
LINE
  5
B3
330
1F
100
AcDbEntity
  8
0
  6
Continuous
 62
     7
370
    15
100
AcDbLine
 10
82.81422561614566
 20
243.4001041121021
 30
0.0
 11
82.81422561614566
 21
249.4001041121021
 31
0.0
  0
LINE
  5
B4
330
1F
100
AcDbEntity
  8
0
  6
Continuous
 62
     7
370
    15
100
AcDbLine
 10
82.81422561614566
 20
249.4001041121021
 30
0.0
 11
76.46422561614565
 21
249.4001041121021
 31
0.0
  0
LINE
  5
B5
330
1F
100
AcDbEntity
  8
0
  6
Continuous
 62
     7
370
    15
100
AcDbLine
 10
76.46422561614565
 20
249.4001041121021
 30
0.0
 11
76.46422561614565
 21
243.4001041121021
 31
0.0
  0
LINE
  5
B6
330
1F
100
AcDbEntity
  8
0
  6
Continuous
 62
     7
370
    15
100
AcDbLine
 10
82.81422561614566
 20
228.4001041121021
 30
0.0
 11
76.46422561614565
 21
228.4001041121021
 31
0.0
  0
LINE
  5
B7
330
1F
100
AcDbEntity
  8
0
  6
Continuous
 62
     7
370
    15
100
AcDbLine
 10
76.46422561614565
 20
228.4001041121021
 30
0.0
 11
76.46422561614565
 21
222.4001041121021
 31
0.0
  0
LINE
  5
B8
330
1F
100
AcDbEntity
  8
0
  6
Continuous
 62
     7
370
    15
100
AcDbLine
 10
76.46422561614565
 20
222.4001041121021
 30
0.0
 11
82.81422561614566
 21
222.4001041121021
 31
0.0
  0
LINE
  5
B9
330
1F
100
AcDbEntity
  8
0
  6
Continuous
 62
     7
370
    15
100
AcDbLine
 10
82.81422561614566
 20
222.4001041121021
 30
0.0
 11
82.81422561614566
 21
228.4001041121021
 31
0.0
  0
LINE
  5
BA
330
1F
100
AcDbEntity
  8
0
  6
Continuous
 62
     7
370
    15
100
AcDbLine
 10
33.76422561614598
 20
222.4001041121021
 30
0.0
 11
33.76422561614598
 21
228.4001041121021
 31
0.0
  0
LINE
  5
BB
330
1F
100
AcDbEntity
  8
0
  6
Continuous
 62
     7
370
    15
100
AcDbLine
 10
33.76422561614598
 20
228.4001041121021
 30
0.0
 11
27.41422561614596
 21
228.4001041121021
 31
0.0
  0
LINE
  5
BC
330
1F
100
AcDbEntity
  8
0
  6
Continuous
 62
     7
370
    15
100
AcDbLine
 10
27.41422561614596
 20
228.4001041121021
 30
0.0
 11
27.41422561614596
 21
222.4001041121021
 31
0.0
  0
LINE
  5
BD
330
1F
100
AcDbEntity
  8
0
  6
Continuous
 62
     7
370
    15
100
AcDbLine
 10
27.41422561614596
 20
222.4001041121021
 30
0.0
 11
33.76422561614598
 21
222.4001041121021
 31
0.0
  0
LINE
  5
BE
330
1F
100
AcDbEntity
  8
0
  6
Continuous
 62
     7
370
    15
100
AcDbLine
 10
33.76422561614598
 20
243.4001041121021
 30
0.0
 11
33.76422561614598
 21
249.4001041121021
 31
0.0
  0
LINE
  5
BF
330
1F
100
AcDbEntity
  8
0
  6
Continuous
 62
     7
370
    15
100
AcDbLine
 10
33.76422561614598
 20
249.4001041121021
 30
0.0
 11
27.41422561614598
 21
249.4001041121021
 31
0.0
  0
LINE
  5
C0
330
1F
100
AcDbEntity
  8
0
  6
Continuous
 62
     7
370
    15
100
AcDbLine
 10
27.41422561614598
 20
249.4001041121021
 30
0.0
 11
27.41422561614596
 21
243.4001041121021
 31
0.0
  0
LINE
  5
C1
330
1F
100
AcDbEntity
  8
0
  6
Continuous
 62
     7
370
    15
100
AcDbLine
 10
27.41422561614596
 20
243.4001041121021
 30
0.0
 11
33.76422561614598
 21
243.4001041121021
 31
0.0
  0
LINE
  5
C2
330
1F
100
AcDbEntity
  8
0
  6
Continuous
 62
     7
370
    15
100
AcDbLine
 10
62.61422561614585
 20
267.2501041121021
 30
0.0
 11
62.61422561614585
 21
260.9001041121021
 31
0.0
  0
LINE
  5
C3
330
1F
100
AcDbEntity
  8
0
  6
Continuous
 62
     7
370
    15
100
AcDbLine
 10
62.61422561614585
 20
260.9001041121021
 30
0.0
 11
68.61422561614586
 21
260.9001041121021
 31
0.0
  0
LINE
  5
C4
330
1F
100
AcDbEntity
  8
0
  6
Continuous
 62
     7
370
    15
100
AcDbLine
 10
68.61422561614586
 20
260.9001041121021
 30
0.0
 11
68.61422561614586
 21
267.2501041121021
 31
0.0
  0
LINE
  5
C5
330
1F
100
AcDbEntity
  8
0
  6
Continuous
 62
     7
370
    15
100
AcDbLine
 10
68.61422561614586
 20
267.2501041121021
 30
0.0
 11
62.61422561614585
 21
267.2501041121021
 31
0.0
  0
LINE
  5
C6
330
1F
100
AcDbEntity
  8
0
  6
Continuous
 62
     7
370
    15
100
AcDbLine
 10
41.61422561614585
 20
267.2501041121021
 30
0.0
 11
41.61422561614585
 21
260.9001041121021
 31
0.0
  0
LINE
  5
C7
330
1F
100
AcDbEntity
  8
0
  6
Continuous
 62
     7
370
    15
100
AcDbLine
 10
41.61422561614585
 20
260.9001041121021
 30
0.0
 11
47.61422561614583
 21
260.9001041121021
 31
0.0
  0
LINE
  5
C8
330
1F
100
AcDbEntity
  8
0
  6
Continuous
 62
     7
370
    15
100
AcDbLine
 10
47.61422561614583
 20
260.9001041121021
 30
0.0
 11
47.61422561614583
 21
267.2501041121021
 31
0.0
  0
LINE
  5
C9
330
1F
100
AcDbEntity
  8
0
  6
Continuous
 62
     7
370
    15
100
AcDbLine
 10
47.61422561614583
 20
267.2501041121021
 30
0.0
 11
41.61422561614585
 21
267.2501041121021
 31
0.0
  0
CIRCLE
  5
CA
330
1F
100
AcDbEntity
  8
0
  6
Continuous
 62
     7
370
    15
100
AcDbCircle
 10
100.2392256161459
 20
555.900104112102
 30
0.0
 40
1.599999999999994
  0
CIRCLE
  5
CB
330
1F
100
AcDbEntity
  8
0
  6
Continuous
 62
     7
370
    15
100
AcDbCircle
 10
100.2392256161459
 20
395.9001041121021
 30
0.0
 40
1.599999999999994
  0
LINE
  5
CC
330
1F
100
AcDbEntity
  8
0
  6
Continuous
 62
     7
370
    15
100
AcDbLine
 10
381.414225616146
 20
218.9001041121021
 30
0.0
 11
389.414225616146
 21
218.9001041121021
 31
0.0
  0
ARC
  5
CD
330
1F
100
AcDbEntity
  8
0
  6
Continuous
 62
     7
370
    15
100
AcDbCircle
 10
389.414225616146
 20
222.9001041121021
 30
0.0
 40
4.0
100
AcDbArc
 50
270.0000000000007
 51
90.0
  0
LINE
  5
CE
330
1F
100
AcDbEntity
  8
0
  6
Continuous
 62
     7
370
    15
100
AcDbLine
 10
389.414225616146
 20
226.9001041121021
 30
0.0
 11
381.414225616146
 21
226.9001041121021
 31
0.0
  0
ARC
  5
CF
330
1F
100
AcDbEntity
  8
0
  6
Continuous
 62
     7
370
    15
100
AcDbCircle
 10
381.414225616146
 20
222.9001041121021
 30
0.0
 40
4.0
100
AcDbArc
 50
90.0
 51
270.0000000000007
  0
LINE
  5
EA
330
1F
100
AcDbEntity
  8
0
  6
Continuous
 62
     7
370
    15
100
AcDbLine
 10
51.41422561614586
 20
218.9001041121021
 30
0.0
 11
59.41422561614587
 21
218.9001041121021
 31
0.0
  0
ARC
  5
EB
330
1F
100
AcDbEntity
  8
0
  6
Continuous
 62
     7
370
    15
100
AcDbCircle
 10
59.41422561614587
 20
222.9001041121021
 30
0.0
 40
4.0
100
AcDbArc
 50
270.0000000000007
 51
90.0
  0
LINE
  5
EC
330
1F
100
AcDbEntity
  8
0
  6
Continuous
 62
     7
370
    15
100
AcDbLine
 10
59.41422561614587
 20
226.9001041121021
 30
0.0
 11
51.41422561614586
 21
226.9001041121021
 31
0.0
  0
ARC
  5
ED
330
1F
100
AcDbEntity
  8
0
  6
Continuous
 62
     7
370
    15
100
AcDbCircle
 10
51.41422561614586
 20
222.9001041121021
 30
0.0
 40
4.0
100
AcDbArc
 50
90.0
 51
270.0000000000007
  0
LINE
  5
EE
330
1F
100
AcDbEntity
  8
0
  6
Continuous
 62
     7
370
    15
100
AcDbLine
 10
103.4142256161459
 20
563.4001041121022
 30
0.0
 11
103.4142256161459
 21
569.4001041121022
 31
0.0
  0
LINE
  5
EF
330
1F
100
AcDbEntity
  8
0
  6
Continuous
 62
     7
370
    15
100
AcDbLine
 10
103.4142256161459
 20
569.4001041121022
 30
0.0
 11
97.06422561614598
 21
569.4001041121022
 31
0.0
  0
LINE
  5
F0
330
1F
100
AcDbEntity
  8
0
  6
Continuous
 62
     7
370
    15
100
AcDbLine
 10
97.06422561614598
 20
569.4001041121022
 30
0.0
 11
97.06422561614598
 21
563.4001041121022
 31
0.0
  0
LINE
  5
F1
330
1F
100
AcDbEntity
  8
0
  6
Continuous
 62
     7
370
    15
100
AcDbLine
 10
97.06422561614598
 20
563.4001041121022
 30
0.0
 11
103.4142256161459
 21
563.4001041121022
 31
0.0
  0
LINE
  5
F2
330
1F
100
AcDbEntity
  8
0
  6
Continuous
 62
     7
370
    15
100
AcDbLine
 10
97.06422561614598
 20
542.4001041121022
 30
0.0
 11
103.4142256161459
 21
542.4001041121022
 31
0.0
  0
LINE
  5
F3
330
1F
100
AcDbEntity
  8
0
  6
Continuous
 62
     7
370
    15
100
AcDbLine
 10
103.4142256161459
 20
542.4001041121022
 30
0.0
 11
103.4142256161459
 21
548.4001041121022
 31
0.0
  0
LINE
  5
F4
330
1F
100
AcDbEntity
  8
0
  6
Continuous
 62
     7
370
    15
100
AcDbLine
 10
103.4142256161459
 20
548.4001041121022
 30
0.0
 11
97.06422561614596
 21
548.4001041121022
 31
0.0
  0
LINE
  5
F5
330
1F
100
AcDbEntity
  8
0
  6
Continuous
 62
     7
370
    15
100
AcDbLine
 10
97.06422561614596
 20
548.4001041121022
 30
0.0
 11
97.06422561614598
 21
542.4001041121022
 31
0.0
  0
LINE
  5
F6
330
1F
100
AcDbEntity
  8
0
  6
Continuous
 62
     7
370
    15
100
AcDbLine
 10
103.4142256161459
 20
243.4001041121021
 30
0.0
 11
103.4142256161459
 21
249.400104112102
 31
0.0
  0
LINE
  5
F7
330
1F
100
AcDbEntity
  8
0
  6
Continuous
 62
     7
370
    15
100
AcDbLine
 10
103.4142256161459
 20
249.400104112102
 30
0.0
 11
97.06422561614598
 21
249.400104112102
 31
0.0
  0
LINE
  5
F8
330
1F
100
AcDbEntity
  8
0
  6
Continuous
 62
     7
370
    15
100
AcDbLine
 10
97.06422561614598
 20
249.400104112102
 30
0.0
 11
97.06422561614598
 21
243.4001041121021
 31
0.0
  0
LINE
  5
F9
330
1F
100
AcDbEntity
  8
0
  6
Continuous
 62
     7
370
    15
100
AcDbLine
 10
97.06422561614598
 20
243.4001041121021
 30
0.0
 11
103.4142256161459
 21
243.4001041121021
 31
0.0
  0
LINE
  5
FA
330
1F
100
AcDbEntity
  8
0
  6
Continuous
 62
     7
370
    15
100
AcDbLine
 10
103.4142256161459
 20
228.4001041121021
 30
0.0
 11
97.06422561614598
 21
228.4001041121021
 31
0.0
  0
LINE
  5
FB
330
1F
100
AcDbEntity
  8
0
  6
Continuous
 62
     7
370
    15
100
AcDbLine
 10
97.06422561614598
 20
228.4001041121021
 30
0.0
 11
97.06422561614598
 21
222.4001041121021
 31
0.0
  0
LINE
  5
FC
330
1F
100
AcDbEntity
  8
0
  6
Continuous
 62
     7
370
    15
100
AcDbLine
 10
97.06422561614598
 20
222.4001041121021
 30
0.0
 11
103.4142256161459
 21
222.4001041121021
 31
0.0
  0
LINE
  5
FD
330
1F
100
AcDbEntity
  8
0
  6
Continuous
 62
     7
370
    15
100
AcDbLine
 10
103.4142256161459
 20
222.4001041121021
 30
0.0
 11
103.4142256161459
 21
228.4001041121021
 31
0.0
  0
LINE
  5
FE
330
1F
100
AcDbEntity
  8
0
  6
Continuous
 62
     7
370
    15
100
AcDbLine
 10
103.4142256161459
 20
403.4001041121021
 30
0.0
 11
103.4142256161459
 21
409.4001041121021
 31
0.0
  0
LINE
  5
FF
330
1F
100
AcDbEntity
  8
0
  6
Continuous
 62
     7
370
    15
100
AcDbLine
 10
103.4142256161459
 20
409.4001041121021
 30
0.0
 11
97.064225616146
 21
409.4001041121021
 31
0.0
  0
LINE
  5
100
330
1F
100
AcDbEntity
  8
0
  6
Continuous
 62
     7
370
    15
100
AcDbLine
 10
97.064225616146
 20
409.4001041121021
 30
0.0
 11
97.064225616146
 21
403.4001041121021
 31
0.0
  0
LINE
  5
101
330
1F
100
AcDbEntity
  8
0
  6
Continuous
 62
     7
370
    15
100
AcDbLine
 10
97.064225616146
 20
403.4001041121021
 30
0.0
 11
103.4142256161459
 21
403.4001041121021
 31
0.0
  0
LINE
  5
102
330
1F
100
AcDbEntity
  8
0
  6
Continuous
 62
     7
370
    15
100
AcDbLine
 10
103.4142256161459
 20
388.4001041121022
 30
0.0
 11
97.064225616146
 21
388.4001041121022
 31
0.0
  0
LINE
  5
103
330
1F
100
AcDbEntity
  8
0
  6
Continuous
 62
     7
370
    15
100
AcDbLine
 10
97.064225616146
 20
388.4001041121022
 30
0.0
 11
97.064225616146
 21
382.4001041121021
 31
0.0
  0
LINE
  5
104
330
1F
100
AcDbEntity
  8
0
  6
Continuous
 62
     7
370
    15
100
AcDbLine
 10
97.064225616146
 20
382.4001041121021
 30
0.0
 11
103.4142256161459
 21
382.4001041121021
 31
0.0
  0
LINE
  5
105
330
1F
100
AcDbEntity
  8
0
  6
Continuous
 62
     7
370
    15
100
AcDbLine
 10
103.4142256161459
 20
382.4001041121021
 30
0.0
 11
103.4142256161459
 21
388.4001041121022
 31
0.0
  0
CIRCLE
  5
106
330
1F
100
AcDbEntity
  8
0
  6
Continuous
 62
     7
370
    15
100
AcDbCircle
 10
100.2392256161459
 20
235.9001041121021
 30
0.0
 40
1.599999999999994
  0
CIRCLE
  5
139
330
1F
100
AcDbEntity
  8
0
  6
Continuous
 62
     7
370
    15
100
AcDbCircle
 10
79.63922561614567
 20
235.9001041121021
 30
0.0
 40
1.599999999999994
  0
CIRCLE
  5
13A
330
1F
100
AcDbEntity
  8
0
  6
Continuous
 62
     7
370
    15
100
AcDbCircle
 10
30.58922561614597
 20
235.9001041121021
 30
0.0
 40
1.599999999999987
  0
LINE
  5
13B
330
1F
100
AcDbEntity
  8
0
  6
Continuous
 62
     7
370
    15
100
AcDbLine
 10
337.4142256161459
 20
388.4001041121022
 30
0.0
 11
343.7642256161459
 21
388.4001041121022
 31
0.0
  0
LINE
  5
13C
330
1F
100
AcDbEntity
  8
0
  6
Continuous
 62
     7
370
    15
100
AcDbLine
 10
337.4142256161459
 20
382.4001041121021
 30
0.0
 11
337.4142256161459
 21
388.4001041121022
 31
0.0
  0
LINE
  5
13D
330
1F
100
AcDbEntity
  8
0
  6
Continuous
 62
     7
370
    15
100
AcDbLine
 10
343.7642256161459
 20
382.4001041121021
 30
0.0
 11
337.4142256161459
 21
382.4001041121021
 31
0.0
  0
LINE
  5
13E
330
1F
100
AcDbEntity
  8
0
  6
Continuous
 62
     7
370
    15
100
AcDbLine
 10
343.7642256161459
 20
388.4001041121022
 30
0.0
 11
343.7642256161459
 21
382.4001041121021
 31
0.0
  0
LINE
  5
13F
330
1F
100
AcDbEntity
  8
0
  6
Continuous
 62
     7
370
    15
100
AcDbLine
 10
337.4142256161459
 20
563.4001041121022
 30
0.0
 11
337.4142256161459
 21
569.4001041121022
 31
0.0
  0
LINE
  5
140
330
1F
100
AcDbEntity
  8
0
  6
Continuous
 62
     7
370
    15
100
AcDbLine
 10
343.7642256161459
 20
563.4001041121022
 30
0.0
 11
337.4142256161459
 21
563.4001041121022
 31
0.0
  0
LINE
  5
141
330
1F
100
AcDbEntity
  8
0
  6
Continuous
 62
     7
370
    15
100
AcDbLine
 10
343.7642256161459
 20
569.4001041121022
 30
0.0
 11
343.7642256161459
 21
563.4001041121022
 31
0.0
  0
LINE
  5
142
330
1F
100
AcDbEntity
  8
0
  6
Continuous
 62
     7
370
    15
100
AcDbLine
 10
337.4142256161459
 20
569.4001041121022
 30
0.0
 11
343.7642256161459
 21
569.4001041121022
 31
0.0
  0
LINE
  5
143
330
1F
100
AcDbEntity
  8
0
  6
Continuous
 62
     7
370
    15
100
AcDbLine
 10
343.7642256161459
 20
542.4001041121022
 30
0.0
 11
337.4142256161459
 21
542.4001041121022
 31
0.0
  0
LINE
  5
144
330
1F
100
AcDbEntity
  8
0
  6
Continuous
 62
     7
370
    15
100
AcDbLine
 10
343.7642256161459
 20
548.4001041121022
 30
0.0
 11
343.7642256161459
 21
542.4001041121022
 31
0.0
  0
LINE
  5
145
330
1F
100
AcDbEntity
  8
0
  6
Continuous
 62
     7
370
    15
100
AcDbLine
 10
337.4142256161459
 20
548.4001041121022
 30
0.0
 11
343.7642256161459
 21
548.4001041121022
 31
0.0
  0
LINE
  5
146
330
1F
100
AcDbEntity
  8
0
  6
Continuous
 62
     7
370
    15
100
AcDbLine
 10
337.4142256161459
 20
542.4001041121022
 30
0.0
 11
337.4142256161459
 21
548.4001041121022
 31
0.0
  0
LINE
  5
147
330
1F
100
AcDbEntity
  8
0
  6
Continuous
 62
     7
370
    15
100
AcDbLine
 10
337.4142256161459
 20
243.4001041121021
 30
0.0
 11
337.4142256161459
 21
249.400104112102
 31
0.0
  0
LINE
  5
148
330
1F
100
AcDbEntity
  8
0
  6
Continuous
 62
     7
370
    15
100
AcDbLine
 10
343.7642256161459
 20
243.4001041121021
 30
0.0
 11
337.4142256161459
 21
243.4001041121021
 31
0.0
  0
LINE
  5
149
330
1F
100
AcDbEntity
  8
0
  6
Continuous
 62
     7
370
    15
100
AcDbLine
 10
343.7642256161459
 20
249.400104112102
 30
0.0
 11
343.7642256161459
 21
243.4001041121021
 31
0.0
  0
LINE
  5
14A
330
1F
100
AcDbEntity
  8
0
  6
Continuous
 62
     7
370
    15
100
AcDbLine
 10
337.4142256161459
 20
249.400104112102
 30
0.0
 11
343.7642256161459
 21
249.400104112102
 31
0.0
  0
LINE
  5
14B
330
1F
100
AcDbEntity
  8
0
  6
Continuous
 62
     7
370
    15
100
AcDbLine
 10
337.4142256161459
 20
228.4001041121021
 30
0.0
 11
343.7642256161459
 21
228.4001041121021
 31
0.0
  0
LINE
  5
14C
330
1F
100
AcDbEntity
  8
0
  6
Continuous
 62
     7
370
    15
100
AcDbLine
 10
337.4142256161459
 20
222.4001041121021
 30
0.0
 11
337.4142256161459
 21
228.4001041121021
 31
0.0
  0
LINE
  5
14D
330
1F
100
AcDbEntity
  8
0
  6
Continuous
 62
     7
370
    15
100
AcDbLine
 10
343.7642256161459
 20
222.4001041121021
 30
0.0
 11
337.4142256161459
 21
222.4001041121021
 31
0.0
  0
LINE
  5
14E
330
1F
100
AcDbEntity
  8
0
  6
Continuous
 62
     7
370
    15
100
AcDbLine
 10
343.7642256161459
 20
228.4001041121021
 30
0.0
 11
343.7642256161459
 21
222.4001041121021
 31
0.0
  0
LINE
  5
14F
330
1F
100
AcDbEntity
  8
0
  6
Continuous
 62
     7
370
    15
100
AcDbLine
 10
337.4142256161459
 20
403.4001041121021
 30
0.0
 11
337.4142256161459
 21
409.4001041121021
 31
0.0
  0
LINE
  5
150
330
1F
100
AcDbEntity
  8
0
  6
Continuous
 62
     7
370
    15
100
AcDbLine
 10
343.7642256161459
 20
403.4001041121021
 30
0.0
 11
337.4142256161459
 21
403.4001041121021
 31
0.0
  0
LINE
  5
151
330
1F
100
AcDbEntity
  8
0
  6
Continuous
 62
     7
370
    15
100
AcDbLine
 10
343.7642256161459
 20
409.4001041121021
 30
0.0
 11
343.7642256161459
 21
403.4001041121021
 31
0.0
  0
LINE
  5
152
330
1F
100
AcDbEntity
  8
0
  6
Continuous
 62
     7
370
    15
100
AcDbLine
 10
337.4142256161459
 20
409.4001041121021
 30
0.0
 11
343.7642256161459
 21
409.4001041121021
 31
0.0
  0
CIRCLE
  5
153
330
1F
100
AcDbEntity
  8
0
  6
Continuous
 62
     7
370
    15
100
AcDbCircle
 10
340.5892256161458
 20
555.900104112102
 30
0.0
 40
1.599999999999965
  0
CIRCLE
  5
154
330
1F
100
AcDbEntity
  8
0
  6
Continuous
 62
     7
370
    15
100
AcDbCircle
 10
340.5892256161458
 20
235.9001041121021
 30
0.0
 40
1.599999999999965
  0
CIRCLE
  5
155
330
1F
100
AcDbEntity
  8
0
  6
Continuous
 62
     7
370
    15
100
AcDbCircle
 10
340.5892256161458
 20
395.9001041121021
 30
0.0
 40
1.599999999999965
  0
LINE
  5
156
330
1F
100
AcDbEntity
  8
0
  6
Continuous
 62
     7
370
    15
100
AcDbLine
 10
378.2142256161459
 20
267.2501041121021
 30
0.0
 11
378.2142256161459
 21
260.9001041121021
 31
0.0
  0
LINE
  5
157
330
1F
100
AcDbEntity
  8
0
  6
Continuous
 62
     7
370
    15
100
AcDbLine
 10
372.2142256161459
 20
267.2501041121021
 30
0.0
 11
378.2142256161459
 21
267.2501041121021
 31
0.0
  0
LINE
  5
158
330
1F
100
AcDbEntity
  8
0
  6
Continuous
 62
     7
370
    15
100
AcDbLine
 10
372.2142256161459
 20
260.9001041121021
 30
0.0
 11
372.2142256161459
 21
267.2501041121021
 31
0.0
  0
LINE
  5
159
330
1F
100
AcDbEntity
  8
0
  6
Continuous
 62
     7
370
    15
100
AcDbLine
 10
378.2142256161459
 20
260.9001041121021
 30
0.0
 11
372.2142256161459
 21
260.9001041121021
 31
0.0
  0
LINE
  5
15A
330
1F
100
AcDbEntity
  8
0
  6
Continuous
 62
     7
370
    15
100
AcDbLine
 10
399.2142256161459
 20
267.2501041121021
 30
0.0
 11
399.2142256161459
 21
260.9001041121021
 31
0.0
  0
LINE
  5
15B
330
1F
100
AcDbEntity
  8
0
  6
Continuous
 62
     7
370
    15
100
AcDbLine
 10
393.2142256161459
 20
267.2501041121021
 30
0.0
 11
399.2142256161459
 21
267.2501041121021
 31
0.0
  0
LINE
  5
15C
330
1F
100
AcDbEntity
  8
0
  6
Continuous
 62
     7
370
    15
100
AcDbLine
 10
393.2142256161459
 20
260.9001041121021
 30
0.0
 11
393.2142256161459
 21
267.2501041121021
 31
0.0
  0
LINE
  5
15D
330
1F
100
AcDbEntity
  8
0
  6
Continuous
 62
     7
370
    15
100
AcDbLine
 10
399.2142256161459
 20
260.9001041121021
 30
0.0
 11
393.2142256161459
 21
260.9001041121021
 31
0.0
  0
LINE
  5
15E
330
1F
100
AcDbEntity
  8
0
  6
Continuous
 62
     7
370
    15
100
AcDbLine
 10
364.3642256161462
 20
243.4001041121021
 30
0.0
 11
358.0142256161462
 21
243.4001041121021
 31
0.0
  0
LINE
  5
15F
330
1F
100
AcDbEntity
  8
0
  6
Continuous
 62
     7
370
    15
100
AcDbLine
 10
364.3642256161462
 20
249.4001041121021
 30
0.0
 11
364.3642256161462
 21
243.4001041121021
 31
0.0
  0
LINE
  5
160
330
1F
100
AcDbEntity
  8
0
  6
Continuous
 62
     7
370
    15
100
AcDbLine
 10
358.0142256161462
 20
249.4001041121021
 30
0.0
 11
364.3642256161462
 21
249.4001041121021
 31
0.0
  0
LINE
  5
161
330
1F
100
AcDbEntity
  8
0
  6
Continuous
 62
     7
370
    15
100
AcDbLine
 10
358.0142256161462
 20
243.4001041121021
 30
0.0
 11
358.0142256161462
 21
249.4001041121021
 31
0.0
  0
LINE
  5
162
330
1F
100
AcDbEntity
  8
0
  6
Continuous
 62
     7
370
    15
100
AcDbLine
 10
407.0642256161458
 20
243.4001041121021
 30
0.0
 11
407.0642256161458
 21
249.4001041121021
 31
0.0
  0
LINE
  5
163
330
1F
100
AcDbEntity
  8
0
  6
Continuous
 62
     7
370
    15
100
AcDbLine
 10
413.4142256161458
 20
243.4001041121021
 30
0.0
 11
407.0642256161458
 21
243.4001041121021
 31
0.0
  0
LINE
  5
164
330
1F
100
AcDbEntity
  8
0
  6
Continuous
 62
     7
370
    15
100
AcDbLine
 10
413.4142256161458
 20
249.4001041121021
 30
0.0
 11
413.4142256161458
 21
243.4001041121021
 31
0.0
  0
LINE
  5
165
330
1F
100
AcDbEntity
  8
0
  6
Continuous
 62
     7
370
    15
100
AcDbLine
 10
407.0642256161458
 20
249.4001041121021
 30
0.0
 11
413.4142256161458
 21
249.4001041121021
 31
0.0
  0
LINE
  5
166
330
1F
100
AcDbEntity
  8
0
  6
Continuous
 62
     7
370
    15
100
AcDbLine
 10
407.0642256161458
 20
222.4001041121021
 30
0.0
 11
407.0642256161458
 21
228.4001041121021
 31
0.0
  0
LINE
  5
167
330
1F
100
AcDbEntity
  8
0
  6
Continuous
 62
     7
370
    15
100
AcDbLine
 10
413.4142256161458
 20
222.4001041121021
 30
0.0
 11
407.0642256161458
 21
222.4001041121021
 31
0.0
  0
LINE
  5
168
330
1F
100
AcDbEntity
  8
0
  6
Continuous
 62
     7
370
    15
100
AcDbLine
 10
413.4142256161458
 20
228.4001041121021
 30
0.0
 11
413.4142256161458
 21
222.4001041121021
 31
0.0
  0
LINE
  5
169
330
1F
100
AcDbEntity
  8
0
  6
Continuous
 62
     7
370
    15
100
AcDbLine
 10
407.0642256161458
 20
228.4001041121021
 30
0.0
 11
413.4142256161458
 21
228.4001041121021
 31
0.0
  0
LINE
  5
16A
330
1F
100
AcDbEntity
  8
0
  6
Continuous
 62
     7
370
    15
100
AcDbLine
 10
358.0142256161462
 20
228.4001041121021
 30
0.0
 11
364.3642256161462
 21
228.4001041121021
 31
0.0
  0
LINE
  5
16B
330
1F
100
AcDbEntity
  8
0
  6
Continuous
 62
     7
370
    15
100
AcDbLine
 10
358.0142256161462
 20
222.4001041121021
 30
0.0
 11
358.0142256161462
 21
228.4001041121021
 31
0.0
  0
LINE
  5
16C
330
1F
100
AcDbEntity
  8
0
  6
Continuous
 62
     7
370
    15
100
AcDbLine
 10
364.3642256161462
 20
222.4001041121021
 30
0.0
 11
358.0142256161462
 21
222.4001041121021
 31
0.0
  0
LINE
  5
16D
330
1F
100
AcDbEntity
  8
0
  6
Continuous
 62
     7
370
    15
100
AcDbLine
 10
364.3642256161462
 20
228.4001041121021
 30
0.0
 11
364.3642256161462
 21
222.4001041121021
 31
0.0
  0
CIRCLE
  5
16E
330
1F
100
AcDbEntity
  8
0
  6
Continuous
 62
     7
370
    15
100
AcDbCircle
 10
410.2392256161458
 20
235.9001041121021
 30
0.0
 40
1.600000000000022
  0
CIRCLE
  5
16F
330
1F
100
AcDbEntity
  8
0
  6
Continuous
 62
     7
370
    15
100
AcDbCircle
 10
385.714225616146
 20
264.0751041121021
 30
0.0
 40
1.600000000000022
  0
CIRCLE
  5
170
330
1F
100
AcDbEntity
  8
0
  6
Continuous
 62
     7
370
    15
100
AcDbCircle
 10
361.1892256161461
 20
235.9001041121021
 30
0.0
 40
1.599999999999965
  0
CIRCLE
  5
1C4
330
1F
100
AcDbEntity
  8
0
  6
Continuous
 62
     7
370
    15
100
AcDbCircle
 10
511.1103462792063
 20
280.9001041121022
 30
0.0
 40
1.599999999999965
  0
CIRCLE
  5
1C5
330
1F
100
AcDbEntity
  8
0
  6
Continuous
 62
     7
370
    15
100
AcDbCircle
 10
467.9303462792062
 20
280.9001041121022
 30
0.0
 40
1.600000000000022
  0
CIRCLE
  5
1C6
330
1F
100
AcDbEntity
  8
0
  6
Continuous
 62
     7
370
    15
100
AcDbCircle
 10
467.9303462792062
 20
374.8801041121022
 30
0.0
 40
1.599999999999965
  0
CIRCLE
  5
1C7
330
1F
100
AcDbEntity
  8
0
  6
Continuous
 62
     7
370
    15
100
AcDbCircle
 10
511.1103462792063
 20
374.8801041121023
 30
0.0
 40
1.599999999999965
  0
LINE
  5
1D1
330
1F
100
AcDbEntity
  8
0
  6
Continuous
 62
     7
370
    15
100
AcDbLine
 10
51.41422561614628
 20
85.74998754118066
 30
0.0
 11
51.41422561614642
 21
70.74998754118064
 31
0.0
  0
ARC
  5
1D2
330
1F
100
AcDbEntity
  8
0
  6
Continuous
 62
     7
370
    15
100
AcDbCircle
 10
47.41422561614627
 20
85.74998754118062
 30
0.0
 40
4.000000000000007
100
AcDbArc
 50
0.0000000000008142
 51
180.0000000000012
  0
LINE
  5
1D3
330
1F
100
AcDbEntity
  8
0
  6
Continuous
 62
     7
370
    15
100
AcDbLine
 10
43.41422561614644
 20
70.74998754118054
 30
0.0
 11
43.41422561614627
 21
85.74998754118057
 31
0.0
  0
ARC
  5
1D4
330
1F
100
AcDbEntity
  8
0
  6
Continuous
 62
     7
370
    15
100
AcDbCircle
 10
47.41422561614641
 20
70.74998754118062
 30
0.0
 40
4.0
100
AcDbArc
 50
180.0000000000016
 51
0.0000000000004071
  0
CIRCLE
  5
2E9
330
1F
100
AcDbEntity
  8
0
  6
Continuous
 62
     7
370
    15
100
AcDbCircle
 10
299.2070042946478
 20
176.7745080085275
 30
0.0
 40
1.599999999999994
  0
CIRCLE
  5
2EA
330
1F
100
AcDbEntity
  8
0
  6
Continuous
 62
     7
370
    15
100
AcDbCircle
 10
330.2070042946478
 20
176.7745080085275
 30
0.0
 40
1.599999999999994
  0
CIRCLE
  5
2EB
330
1F
100
AcDbEntity
  8
0
  6
Continuous
 62
     7
370
    15
100
AcDbCircle
 10
330.2070042946478
 20
145.7745080085275
 30
0.0
 40
1.599999999999994
  0
CIRCLE
  5
2EC
330
1F
100
AcDbEntity
  8
0
  6
Continuous
 62
     7
370
    15
100
AcDbCircle
 10
299.2070042946478
 20
145.7745080085275
 30
0.0
 40
1.599999999999994
  0
CIRCLE
  5
2ED
330
1F
100
AcDbEntity
  8
0
  6
Continuous
 62
     7
370
    15
100
AcDbCircle
 10
290.182004294648
 20
165.5745080085275
 30
0.0
 40
1.599999999999994
  0
CIRCLE
  5
306
330
1F
100
AcDbEntity
  8
0
  6
Continuous
 62
     7
370
    15
100
AcDbCircle
 10
314.7070042946479
 20
161.2745080085275
 30
0.0
 40
11.5
  0
CIRCLE
  5
307
330
1F
100
AcDbEntity
  8
0
  6
Continuous
 62
     7
370
    15
100
AcDbCircle
 10
297.7070042946478
 20
161.2745080085275
 30
0.0
 40
4.0
  0
CIRCLE
  5
318
330
1F
100
AcDbEntity
  8
0
  6
Continuous
 62
     7
370
    15
100
AcDbCircle
 10
339.2320042946477
 20
165.5745080085275
 30
0.0
 40
1.599999999999994
  0
CIRCLE
  5
31B
330
1F
100
AcDbEntity
  8
0
  6
Continuous
 62
     7
370
    15
100
AcDbCircle
 10
368.8991904186325
 20
176.7745080085275
 30
0.0
 40
1.599999999999994
  0
CIRCLE
  5
31C
330
1F
100
AcDbEntity
  8
0
  6
Continuous
 62
     7
370
    15
100
AcDbCircle
 10
399.8991904186325
 20
176.7745080085275
 30
0.0
 40
1.599999999999994
  0
CIRCLE
  5
31D
330
1F
100
AcDbEntity
  8
0
  6
Continuous
 62
     7
370
    15
100
AcDbCircle
 10
399.8991904186325
 20
145.7745080085275
 30
0.0
 40
1.599999999999994
  0
CIRCLE
  5
31E
330
1F
100
AcDbEntity
  8
0
  6
Continuous
 62
     7
370
    15
100
AcDbCircle
 10
368.8991904186325
 20
145.7745080085275
 30
0.0
 40
1.599999999999994
  0
CIRCLE
  5
31F
330
1F
100
AcDbEntity
  8
0
  6
Continuous
 62
     7
370
    15
100
AcDbCircle
 10
359.8741904186326
 20
165.5745080085275
 30
0.0
 40
1.599999999999994
  0
CIRCLE
  5
338
330
1F
100
AcDbEntity
  8
0
  6
Continuous
 62
     7
370
    15
100
AcDbCircle
 10
384.3991904186325
 20
161.2745080085275
 30
0.0
 40
11.5
  0
CIRCLE
  5
339
330
1F
100
AcDbEntity
  8
0
  6
Continuous
 62
     7
370
    15
100
AcDbCircle
 10
367.3991904186324
 20
161.2745080085275
 30
0.0
 40
4.0
  0
CIRCLE
  5
34A
330
1F
100
AcDbEntity
  8
0
  6
Continuous
 62
     7
370
    15
100
AcDbCircle
 10
408.9241904186323
 20
165.5745080085275
 30
0.0
 40
1.599999999999994
  0
CIRCLE
  5
361
330
1F
100
AcDbEntity
  8
0
  6
Continuous
 62
     7
370
    15
100
AcDbCircle
 10
557.5990513229617
 20
127.2074230523072
 30
0.0
 40
1.599999999999994
  0
CIRCLE
  5
362
330
1F
100
AcDbEntity
  8
0
  6
Continuous
 62
     7
370
    15
100
AcDbCircle
 10
514.5990513229618
 20
151.0324230523073
 30
0.0
 40
1.599999999999994
  0
CIRCLE
  5
363
330
1F
100
AcDbEntity
  8
0
  6
Continuous
 62
     7
370
    15
100
AcDbCircle
 10
495.4740513229616
 20
183.5074230523072
 30
0.0
 40
4.0
  0
CIRCLE
  5
364
330
1F
100
AcDbEntity
  8
0
  6
Continuous
 62
     7
370
    15
100
AcDbCircle
 10
512.4740513229616
 20
183.5074230523072
 30
0.0
 40
5.0
  0
CIRCLE
  5
366
330
1F
100
AcDbEntity
  8
0
  6
Continuous
 62
     7
370
    15
100
AcDbCircle
 10
492.1749233414375
 20
111.1102543107304
 30
0.0
 40
1.599999999999994
  0
CIRCLE
  5
37C
330
1F
100
AcDbEntity
  8
0
  6
Continuous
 62
     7
370
    15
100
AcDbCircle
 10
449.1749233414374
 20
87.28525431073038
 30
0.0
 40
1.599999999999994
  0
CIRCLE
  5
37D
330
1F
100
AcDbEntity
  8
0
  6
Continuous
 62
     7
370
    15
100
AcDbCircle
 10
430.0499233414373
 20
54.81025431073037
 30
0.0
 40
4.0
  0
CIRCLE
  5
37E
330
1F
100
AcDbEntity
  8
0
  6
Continuous
 62
     7
370
    15
100
AcDbCircle
 10
447.0499233414374
 20
54.81025431073037
 30
0.0
 40
5.000000000000056
  0
LWPOLYLINE
  5
3BA
330
1F
100
AcDbEntity
  8
0
  6
Continuous
 62
     7
370
    15
100
AcDbPolyline
 90
       50
 70
     1
 43
0.0
 10
59.98922561614591
 20
566.5501041121022
 10
59.98922561614591
 20
568.5501041121021
 10
58.73922561614591
 20
568.5501041121021
 10
58.73922561614591
 20
574.5501041121022
 10
79.06422561614593
 20
574.5501041121022
 10
79.06422561614599
 20
580.900104112102
 10
361.7642256161458
 20
580.900104112102
 10
361.7642256161458
 20
574.5501041121022
 10
382.0892256161459
 20
574.5501041121022
 10
382.0892256161459
 20
568.5501041121021
 10
380.8392256161459
 20
568.5501041121021
 10
380.8392256161459
 20
566.5501041121022
 10
382.0892256161459
 20
566.5501041121022
 10
382.0892256161459
 20
563.900104112102
 10
385.0892256161458
 20
563.900104112102
 10
385.0892256161458
 20
566.5501041121022
 10
386.3392256161459
 20
566.5501041121022
 10
386.3392256161459
 20
568.5501041121021
 10
385.0892256161458
 20
568.5501041121021
 10
385.0892256161458
 20
574.5501041121022
 10
405.4142256161457
 20
574.5501041121022
 10
405.4142256161457
 20
580.900104112102
 10
415.4142256161458
 20
580.900104112102
 10
415.4142256161458
 20
565.9001041121021
 42
0.3419987131196476
 10
409.4142256161458
 20
558.1541374196873
 10
409.4142256161459
 20
274.996070804517
 42
0.3419987131196506
 10
415.414225616146
 20
267.2501041121021
 10
415.4142256161459
 20
215.9001041121022
 42
-0.4142135623730909
 10
410.4142256161459
 20
210.9001041121021
 10
390.4142256161461
 20
210.9001041121021
 10
388.4142256161462
 20
212.9001041121021
 10
52.4142256161458
 20
212.9001041121021
 10
50.41422561614584
 20
210.9001041121021
 10
30.41422561614596
 20
210.9001041121021
 42
-0.4142135623730992
 10
25.41422561614593
 20
215.9001041121021
 10
25.41422561614596
 20
267.2501041121021
 42
0.3419987131196422
 10
31.41422561614596
 20
274.9960708045169
 10
31.41422561614596
 20
558.1541374196872
 42
0.3419987131196467
 10
25.41422561614596
 20
565.9001041121021
 10
25.41422561614596
 20
580.900104112102
 10
35.41422561614596
 20
580.900104112102
 10
35.41422561614596
 20
574.5501041121022
 10
55.73922561614597
 20
574.5501041121022
 10
55.73922561614597
 20
568.5501041121021
 10
54.48922561614597
 20
568.5501041121021
 10
54.48922561614597
 20
566.5501041121022
 10
55.73922561614597
 20
566.5501041121022
 10
55.739225616146
 20
563.900104112102
 10
58.73922561614588
 20
563.900104112102
 10
58.73922561614591
 20
566.5501041121022
  0
LWPOLYLINE
  5
413
330
1F
100
AcDbEntity
  8
0
  6
Continuous
 62
     7
370
    15
100
AcDbPolyline
 90
       88
 70
     1
 43
0.0
 10
437.930346279206
 20
212.9001041121021
 10
539.930346279207
 20
212.9001041121021
 10
541.930346279207
 20
210.9001041121021
 10
571.9303462792061
 20
210.9001041121021
 10
571.9303462792062
 20
232.8001041121021
 42
0.4142135623730951
 10
567.9303462792062
 20
236.8001041121021
 10
516.9303462792063
 20
236.8001041121021
 42
-1.000000000000007
 10
516.9303462792062
 20
245.0001041121021
 10
567.9303462792061
 20
245.0001041121021
 42
0.414213562373093
 10
571.9303462792061
 20
249.0001041121022
 10
571.9303462792061
 20
257.2720186257733
 42
0.0780326270894439
 10
571.7378468016497
 20
258.4979630664361
 10
469.9749283225497
 20
574.5501041121021
 10
460.080346279206
 20
574.5501041121021
 10
460.080346279206
 20
568.5501041121021
 10
461.330346279206
 20
568.5501041121021
 10
461.330346279206
 20
566.5501041121022
 10
460.080346279206
 20
566.5501041121022
 10
460.080346279206
 20
563.900104112102
 10
457.0803462792061
 20
563.900104112102
 10
457.0803462792061
 20
566.5501041121022
 10
455.8303462792061
 20
566.5501041121022
 10
455.8303462792061
 20
568.5501041121021
 10
457.0803462792061
 20
568.5501041121021
 10
457.0803462792061
 20
574.5501041121021
 10
448.5803462792061
 20
574.5501041121021
 10
448.5803462792061
 20
580.900104112102
 10
437.930346279206
 20
580.900104112102
 10
437.930346279206
 20
569.3001041121021
 10
431.580346279206
 20
569.3001041121021
 10
431.580346279206
 20
563.5001041121021
 10
437.930346279206
 20
563.5001041121021
 10
437.930346279206
 20
557.4001041121022
 10
443.9303462792061
 20
557.4001041121022
 10
443.9303462792061
 20
558.6501041121021
 10
445.930346279206
 20
558.6501041121019
 10
445.930346279206
 20
557.4001041121022
 10
448.5803462792061
 20
557.4001041121022
 10
448.5803462792061
 20
554.4001041121021
 10
445.930346279206
 20
554.4001041121021
 10
445.930346279206
 20
553.1501041121023
 10
443.9303462792061
 20
553.1501041121022
 10
443.9303462792061
 20
554.4001041121021
 10
437.930346279206
 20
554.4001041121021
 10
437.930346279206
 20
548.3001041121021
 10
431.580346279206
 20
548.3001041121021
 10
431.580346279206
 20
542.5001041121021
 10
437.930346279206
 20
542.5001041121021
 10
437.930346279206
 20
409.3001041121021
 10
431.580346279206
 20
409.3001041121021
 10
431.580346279206
 20
403.500104112102
 10
437.930346279206
 20
403.500104112102
 10
437.930346279206
 20
397.4001041121022
 10
443.9303462792061
 20
397.4001041121022
 10
443.9303462792061
 20
398.6501041121021
 10
445.9303462792061
 20
398.6501041121021
 10
445.9303462792061
 20
397.4001041121022
 10
448.5803462792061
 20
397.4001041121022
 10
448.5803462792061
 20
394.4001041121022
 10
445.9303462792061
 20
394.4001041121022
 10
445.9303462792061
 20
393.1501041121021
 10
443.9303462792061
 20
393.1501041121021
 10
443.9303462792061
 20
394.4001041121022
 10
437.930346279206
 20
394.4001041121022
 10
437.9303462792061
 20
388.3001041121021
 10
431.5803462792061
 20
388.3001041121021
 10
431.580346279206
 20
382.5001041121021
 10
437.930346279206
 20
382.5001041121021
 10
437.930346279206
 20
249.3001041121021
 10
431.580346279206
 20
249.3001041121021
 10
431.5803462792082
 20
243.500104112102
 10
437.930346279206
 20
243.5001041121021
 10
437.930346279206
 20
237.4001041121021
 10
443.9303462792061
 20
237.4001041121021
 10
443.9303462792061
 20
238.6501041121021
 10
445.930346279206
 20
238.6501041121021
 10
445.930346279206
 20
237.4001041121021
 10
448.5803462792061
 20
237.4001041121021
 10
448.5803462792061
 20
234.4001041121021
 10
445.930346279206
 20
234.4001041121021
 10
445.930346279206
 20
233.1501041121021
 10
443.9303462792061
 20
233.1501041121021
 10
443.9303462792061
 20
234.4001041121021
 10
437.930346279206
 20
234.4001041121021
 10
437.930346279206
 20
228.3001041121021
 10
431.5803462792083
 20
228.300104112102
 10
431.580346279206
 20
222.5001041121021
 10
437.930346279206
 20
222.5001041121021
  0
LWPOLYLINE
  5
5DA
330
1F
100
AcDbEntity
  8
0
  6
Continuous
 62
     7
370
    15
100
AcDbPolyline
 90
        4
 70
     1
 43
0.0
 10
455.9303462792061
 20
218.9001041121021
 10
470.9303462792062
 20
218.9001041121021
 42
0.9999999999999927
 10
470.9303462792061
 20
226.9001041121021
 10
455.9303462792061
 20
226.9001041121021
 42
1.000000000000007
  0
LWPOLYLINE
  5
5ED
330
1F
100
AcDbEntity
  8
0
  6
Continuous
 62
     7
370
    15
100
AcDbPolyline
 90
       21
 70
     1
 43
0.0
 10
536.4240513229616
 20
147.8574230523072
 10
554.4240513229616
 20
147.8574230523072
 10
554.4240513229616
 20
137.2074230523072
 10
560.7740513229617
 20
137.2074230523072
 10
560.7740513229617
 20
147.8574230523072
 10
570.7740513229618
 20
147.8574230523072
 10
570.7740513229618
 20
139.8734468751231
 42
-0.1097463961725259
 10
569.6451584092584
 20
134.7922038462699
 10
560.7740513229617
 20
115.8128410089636
 10
554.4240513229616
 20
115.8128410089636
 10
491.3406639547003
 20
134.6494454279768
 42
-0.33156304921822
 10
482.7740513229617
 20
146.1477866639753
 10
482.7740513229617
 20
147.8574230523072
 10
492.7740513229617
 20
147.8574230523072
 10
492.7740513229617
 20
154.2074230523072
 10
482.7740513229617
 20
154.2074230523072
 10
482.7740513229617
 20
183.2074230523073
 42
-0.4142135623730951
 10
494.7740513229617
 20
195.2074230523073
 10
514.9183035861461
 20
195.2074230523072
 42
-0.3290399882185508
 10
526.3849271312615
 20
186.7452959265928
 10
536.4240513229616
 20
154.2074230523072
  0
LWPOLYLINE
  5
A25
330
1F
100
AcDbEntity
  8
0
  6
Continuous
 62
     7
370
    15
100
AcDbPolyline
 90
       21
 70
     1
 43
0.0
 10
429.3499233414376
 20
43.11025431073036
 42
-0.4142135623730992
 10
417.3499233414374
 20
55.11025431073036
 10
417.3499233414374
 20
84.11025431073038
 10
427.3499233414375
 20
84.11025431073038
 10
427.3499233414375
 20
90.46025431073038
 10
417.3499233414374
 20
90.46025431073038
 10
417.3499233414374
 20
92.16989069906231
 42
-0.331563049218216
 10
425.916535973176
 20
103.6682319350608
 10
488.9999233414374
 20
122.504836354074
 10
495.3499233414374
 20
122.504836354074
 10
504.2210304277342
 20
103.5254735167677
 42
-0.1097463961725279
 10
505.3499233414375
 20
98.44423048791458
 10
505.3499233414375
 20
90.46025431073038
 10
495.3499233414374
 20
90.46025431073038
 10
495.3499233414374
 20
101.1102543107303
 10
488.9999233414374
 20
101.1102543107303
 10
488.9999233414374
 20
90.46025431073038
 10
470.9999233414375
 20
90.46025431073038
 10
470.9999233414375
 20
84.11025431073038
 10
460.9607991497372
 20
51.57238143644477
 42
-0.3290399882185507
 10
449.4941756046219
 20
43.11025431073029
  0
LWPOLYLINE
  5
A8D
330
1F
100
AcDbEntity
  8
0
  6
Continuous
 62
     7
370
    15
100
AcDbPolyline
 90
       88
 70
     1
 43
0.0
 10
37.41422561614661
 20
52.74998754118046
 10
37.41422561614554
 20
154.7499875411813
 10
35.41422561614552
 20
156.7499875411813
 10
35.41422561614521
 20
186.7499875411805
 10
57.31422561614522
 20
186.7499875411808
 42
-0.4142135623730971
 10
61.31422561614524
 20
182.7499875411808
 10
61.31422561614576
 20
131.7499875411807
 42
0.9999999999999962
 10
69.51422561614577
 20
131.7499875411809
 10
69.51422561614525
 20
182.7499875411808
 42
-0.4142135623731013
 10
73.51422561614524
 20
186.7499875411809
 10
81.78614012981633
 20
186.749987541181
 42
-0.078032627089449
 10
83.01208457047923
 20
186.5574880636245
 10
399.0642256161462
 20
84.7945695845279
 10
399.0642256161464
 20
74.89998754118425
 10
393.0642256161464
 20
74.89998754118419
 10
393.0642256161464
 20
76.14998754118419
 10
391.0642256161464
 20
76.14998754118417
 10
391.0642256161464
 20
74.89998754118417
 10
388.4142256161465
 20
74.89998754118415
 10
388.4142256161465
 20
71.89998754118413
 10
391.0642256161464
 20
71.89998754118417
 10
391.0642256161465
 20
70.64998754118417
 10
393.0642256161465
 20
70.64998754118419
 10
393.0642256161464
 20
71.89998754118419
 10
399.0642256161464
 20
71.89998754118425
 10
399.0642256161465
 20
63.39998754118425
 10
405.4142256161465
 20
63.39998754118431
 10
405.4142256161465
 20
52.74998754118431
 10
393.8142256161467
 20
52.74998754118419
 10
393.8142256161467
 20
46.39998754118419
 10
388.0142256161467
 20
46.39998754118413
 10
388.0142256161466
 20
52.74998754118414
 10
381.9142256161466
 20
52.74998754118406
 10
381.9142256161466
 20
58.74998754118407
 10
383.1642256161466
 20
58.74998754118408
 10
383.1642256161464
 20
60.74998754118408
 10
381.9142256161465
 20
60.74998754118407
 10
381.9142256161465
 20
63.39998754118406
 10
378.9142256161465
 20
63.39998754118403
 10
378.9142256161465
 20
60.74998754118404
 10
377.6642256161466
 20
60.74998754118402
 10
377.6642256161466
 20
58.74998754118402
 10
378.9142256161465
 20
58.74998754118404
 10
378.9142256161466
 20
52.74998754118404
 10
372.8142256161466
 20
52.74998754118397
 10
372.8142256161467
 20
46.39998754118397
 10
367.0142256161467
 20
46.3999875411839
 10
367.0142256161466
 20
52.74998754118391
 10
233.8142256161466
 20
52.74998754118251
 10
233.8142256161467
 20
46.39998754118251
 10
228.0142256161466
 20
46.39998754118246
 10
228.0142256161466
 20
52.74998754118246
 10
221.9142256161466
 20
52.74998754118239
 10
221.9142256161465
 20
58.74998754118239
 10
223.1642256161466
 20
58.74998754118241
 10
223.1642256161466
 20
60.74998754118242
 10
221.9142256161465
 20
60.7499875411824
 10
221.9142256161465
 20
63.39998754118242
 10
218.9142256161465
 20
63.39998754118238
 10
218.9142256161465
 20
60.74998754118238
 10
217.6642256161465
 20
60.74998754118237
 10
217.6642256161465
 20
58.74998754118234
 10
218.9142256161466
 20
58.74998754118236
 10
218.9142256161466
 20
52.74998754118236
 10
212.8142256161467
 20
52.74998754118239
 10
212.8142256161467
 20
46.39998754118241
 10
207.0142256161466
 20
46.39998754118224
 10
207.0142256161466
 20
52.74998754118223
 10
73.81422561614659
 20
52.74998754118083
 10
73.81422561614667
 20
46.39998754118084
 10
68.01422561614656
 20
46.39998754118289
 10
68.0142256161466
 20
52.74998754118078
 10
61.91422561614662
 20
52.74998754118071
 10
61.91422561614654
 20
58.74998754118071
 10
63.16422561614654
 20
58.74998754118073
 10
63.1642256161465
 20
60.74998754118073
 10
61.91422561614654
 20
60.74998754118071
 10
61.9142256161465
 20
63.39998754118073
 10
58.91422561614651
 20
63.39998754118068
 10
58.91422561614653
 20
60.74998754118069
 10
57.66422561614657
 20
60.74998754118067
 10
57.66422561614657
 20
58.74998754118067
 10
58.91422561614657
 20
58.74998754118069
 10
58.91422561614662
 20
52.74998754118068
 10
52.81422561614663
 20
52.74998754118062
 10
52.81422561614657
 20
46.39998754118295
 10
47.01422561614659
 20
46.39998754118056
 10
47.01422561614655
 20
52.74998754118056
  0
LWPOLYLINE
  5
DD4
330
1F
100
AcDbEntity
  8
0
  6
Continuous
 62
     7
370
    15
100
AcDbPolyline
 90
       26
 70
     1
 43
0.0
 10
397.8991904186325
 20
190.5745080085275
 10
397.8991904186325
 20
196.9245080085275
 10
391.8991904186325
 20
196.9245080085275
 10
391.8991904186325
 20
190.5745080085275
 10
385.8991904186325
 20
190.5745080085275
 10
385.8991904186325
 20
184.5745080085275
 10
387.1491904186324
 20
184.5745080085275
 10
387.1491904186325
 20
182.5745080085275
 10
385.8991904186325
 20
182.5745080085275
 10
385.8991904186325
 20
179.9245080085275
 10
382.8991904186326
 20
179.9245080085275
 10
382.8991904186326
 20
182.5745080085275
 10
381.6491904186325
 20
182.5745080085275
 10
381.6491904186325
 20
184.5745080085275
 10
382.8991904186325
 20
184.5745080085275
 10
382.8991904186326
 20
190.5745080085275
 10
376.8991904186325
 20
190.5745080085275
 10
376.8991904186325
 20
196.9245080085275
 10
370.8991904186325
 20
196.9245080085275
 10
370.8991904186325
 20
190.5745080085275
 10
354.6991904186326
 20
190.5745080085275
 10
354.6991904186326
 20
145.5745080085275
 42
0.4142135623730992
 10
359.6991904186326
 20
140.5745080085275
 10
409.6991904186325
 20
140.5745080085275
 42
0.4142135623730925
 10
414.6991904186326
 20
145.5745080085276
 10
414.6991904186325
 20
190.5745080085275
  0
LWPOLYLINE
  5
E95
330
1F
100
AcDbEntity
  8
0
  6
Continuous
 62
     7
370
    15
100
AcDbPolyline
 90
        4
 70
     1
 43
0.0
 10
356.6991904186326
 20
173.0745080085275
 10
363.0491904186326
 20
173.0745080085275
 10
363.0491904186326
 20
179.0745080085275
 10
356.6991904186326
 20
179.0745080085275
  0
LWPOLYLINE
  5
EAD
330
1F
100
AcDbEntity
  8
0
  6
Continuous
 62
     7
370
    15
100
AcDbPolyline
 90
        4
 70
     1
 43
0.0
 10
363.0491904186326
 20
152.0745080085275
 10
363.0491904186326
 20
158.0745080085275
 10
356.6991904186326
 20
158.0745080085275
 10
356.6991904186326
 20
152.0745080085275
  0
LWPOLYLINE
  5
EC0
330
1F
100
AcDbEntity
  8
0
  6
Continuous
 62
     7
370
    15
100
AcDbPolyline
 90
        4
 70
     1
 43
0.0
 10
405.7491904186323
 20
179.0745080085275
 10
405.7491904186323
 20
173.0745080085275
 10
412.0991904186324
 20
173.0745080085275
 10
412.0991904186324
 20
179.0745080085275
  0
LWPOLYLINE
  5
ED3
330
1F
100
AcDbEntity
  8
0
  6
Continuous
 62
     7
370
    15
100
AcDbPolyline
 90
        4
 70
     1
 43
0.0
 10
405.7491904186323
 20
152.0745080085275
 10
412.0991904186324
 20
152.0745080085275
 10
412.0991904186324
 20
158.0745080085275
 10
405.7491904186323
 20
158.0745080085275
  0
LWPOLYLINE
  5
EE6
330
1F
100
AcDbEntity
  8
0
  6
Continuous
 62
     7
370
    15
100
AcDbPolyline
 90
        4
 70
     1
 43
0.0
 10
293.357004294648
 20
173.0745080085275
 10
293.3570042946479
 20
179.0745080085275
 10
287.007004294648
 20
179.0745080085275
 10
287.007004294648
 20
173.0745080085275
  0
LWPOLYLINE
  5
EF9
330
1F
100
AcDbEntity
  8
0
  6
Continuous
 62
     7
370
    15
100
AcDbPolyline
 90
        4
 70
     1
 43
0.0
 10
293.3570042946479
 20
152.0745080085275
 10
293.357004294648
 20
158.0745080085275
 10
287.007004294648
 20
158.0745080085275
 10
287.007004294648
 20
152.0745080085275
  0
LWPOLYLINE
  5
F0C
330
1F
100
AcDbEntity
  8
0
  6
Continuous
 62
     7
370
    15
100
AcDbPolyline
 90
        4
 70
     1
 43
0.0
 10
342.4070042946478
 20
179.0745080085275
 10
336.0570042946477
 20
179.0745080085275
 10
336.0570042946477
 20
173.0745080085275
 10
342.4070042946478
 20
173.0745080085275
  0
LWPOLYLINE
  5
F1F
330
1F
100
AcDbEntity
  8
0
  6
Continuous
 62
     7
370
    15
100
AcDbPolyline
 90
        4
 70
     1
 43
0.0
 10
336.0570042946477
 20
152.0745080085275
 10
342.4070042946478
 20
152.0745080085275
 10
342.4070042946478
 20
158.0745080085275
 10
336.0570042946477
 20
158.0745080085275
  0
LWPOLYLINE
  5
F32
330
1F
100
AcDbEntity
  8
0
  6
Continuous
 62
     7
370
    15
100
AcDbPolyline
 90
       47
 70
     1
 43
0.0
 10
243.1792654275585
 20
200.5626637807904
 10
243.1792654275585
 20
194.2126637807904
 10
237.1792654275584
 20
194.2126637807904
 10
237.1792654275584
 20
188.2126637807904
 10
238.4292654275585
 20
188.2126637807904
 10
238.4292654275585
 20
186.2126637807904
 10
237.1792654275584
 20
186.2126637807904
 10
237.1792654275584
 20
183.5626637807903
 10
234.1792654275585
 20
183.5626637807903
 10
234.1792654275585
 20
186.2126637807904
 10
232.9292654275585
 20
186.2126637807904
 10
232.9292654275585
 20
188.2126637807904
 10
234.1792654275585
 20
188.2126637807904
 10
234.1792654275585
 20
194.2126637807904
 10
228.1792654275585
 20
194.2126637807904
 10
228.1792654275585
 20
200.5626637807904
 10
222.1792654275585
 20
200.5626637807904
 10
222.1792654275585
 20
194.2126637807904
 10
212.6792654275585
 20
194.2126637807904
 10
212.6792654275585
 20
193.5263722797752
 42
0.1989123673796617
 10
215.0224111780662
 20
187.8695180302827
 10
254.3361196770508
 20
148.555809531298
 42
0.1989123673796594
 10
259.9929739265434
 20
146.2126637807903
 10
260.6792654275585
 20
146.2126637807904
 10
260.6792654275585
 20
155.7126637807904
 10
267.0292654275585
 20
155.7126637807904
 10
267.0292654275585
 20
161.7126637807904
 10
260.6792654275585
 20
161.7126637807904
 10
260.6792654275585
 20
167.7126637807904
 10
254.6792654275585
 20
167.7126637807904
 10
254.6792654275585
 20
166.4626637807904
 10
252.6792654275585
 20
166.4626637807904
 10
252.6792654275585
 20
167.7126637807904
 10
250.0292654275585
 20
167.7126637807904
 10
250.0292654275585
 20
170.7126637807904
 10
252.6792654275585
 20
170.7126637807904
 10
252.6792654275585
 20
171.9626637807904
 10
254.6792654275585
 20
171.9626637807904
 10
254.6792654275585
 20
170.7126637807904
 10
260.6792654275585
 20
170.7126637807904
 10
260.6792654275585
 20
176.7126637807904
 10
267.0292654275585
 20
176.7126637807904
 10
267.0292654275585
 20
182.7126637807904
 10
260.6792654275585
 20
182.7126637807904
 10
260.6792654275585
 20
194.2126637807904
 10
249.1792654275585
 20
194.2126637807904
 10
249.1792654275585
 20
200.5626637807904
  0
LWPOLYLINE
  5
101C
330
1F
100
AcDbEntity
  8
0
  6
Continuous
 62
     7
370
    15
100
AcDbPolyline
 90
       47
 70
     1
 43
0.0
 10
149.6749938962717
 20
318.1862441026638
 10
143.6749938962717
 20
318.1862441026638
 10
143.6749938962717
 20
311.8362441026638
 10
134.1749938962717
 20
311.8362441026638
 10
134.1749938962717
 20
311.1499526016486
 42
0.198912367379661
 10
136.5181396467793
 20
305.4930983521562
 10
175.8318481457641
 20
266.1793898531714
 42
0.1989123673796587
 10
181.4887023952565
 20
263.8362441026639
 10
182.1749938962717
 20
263.8362441026639
 10
182.1749938962717
 20
273.3362441026638
 10
188.5249938962717
 20
273.3362441026638
 10
188.5249938962717
 20
279.3362441026638
 10
182.1749938962717
 20
279.3362441026638
 10
182.1749938962717
 20
285.3362441026638
 10
176.1749938962717
 20
285.3362441026638
 10
176.1749938962717
 20
284.0862441026638
 10
174.1749938962717
 20
284.0862441026638
 10
174.1749938962717
 20
285.3362441026638
 10
171.5249938962717
 20
285.3362441026638
 10
171.5249938962717
 20
288.3362441026638
 10
174.1749938962717
 20
288.3362441026638
 10
174.1749938962717
 20
289.5862441026638
 10
176.1749938962717
 20
289.5862441026638
 10
176.1749938962717
 20
288.3362441026638
 10
182.1749938962717
 20
288.3362441026638
 10
182.1749938962717
 20
294.3362441026638
 10
188.5249938962717
 20
294.3362441026638
 10
188.5249938962717
 20
300.3362441026638
 10
182.1749938962717
 20
300.3362441026638
 10
182.1749938962717
 20
311.8362441026638
 10
170.6749938962717
 20
311.8362441026638
 10
170.6749938962717
 20
318.1862441026638
 10
164.6749938962717
 20
318.1862441026638
 10
164.6749938962717
 20
311.8362441026638
 10
158.6749938962717
 20
311.8362441026638
 10
158.6749938962717
 20
305.8362441026639
 10
159.9249938962717
 20
305.8362441026639
 10
159.9249938962717
 20
303.8362441026638
 10
158.6749938962717
 20
303.8362441026638
 10
158.6749938962717
 20
301.1862441026638
 10
155.6749938962717
 20
301.1862441026638
 10
155.6749938962717
 20
303.8362441026638
 10
154.4249938962717
 20
303.8362441026638
 10
154.4249938962717
 20
305.8362441026639
 10
155.6749938962717
 20
305.8362441026639
 10
155.6749938962717
 20
311.8362441026638
 10
149.6749938962717
 20
311.8362441026638
  0
LWPOLYLINE
  5
110E
330
1F
100
AcDbEntity
  8
0
  6
Continuous
 62
     7
370
    15
100
AcDbPolyline
 90
       47
 70
     1
 43
0.0
 10
201.5456782407738
 20
318.1862441026638
 10
201.5456782407738
 20
311.8362441026638
 10
192.0456782407737
 20
311.8362441026638
 10
192.0456782407737
 20
311.1499526016486
 42
0.1989123673796617
 10
194.3888239912814
 20
305.4930983521562
 10
233.7025324902662
 20
266.1793898531714
 42
0.1989123673796587
 10
239.3593867397585
 20
263.8362441026639
 10
240.0456782407738
 20
263.8362441026639
 10
240.0456782407738
 20
273.3362441026638
 10
246.3956782407738
 20
273.3362441026638
 10
246.3956782407738
 20
279.3362441026638
 10
240.0456782407738
 20
279.3362441026638
 10
240.0456782407738
 20
285.3362441026638
 10
234.0456782407738
 20
285.3362441026638
 10
234.0456782407738
 20
284.0862441026638
 10
232.0456782407738
 20
284.0862441026638
 10
232.0456782407738
 20
285.3362441026638
 10
229.3956782407738
 20
285.3362441026638
 10
229.3956782407738
 20
288.3362441026638
 10
232.0456782407738
 20
288.3362441026638
 10
232.0456782407738
 20
289.5862441026638
 10
234.0456782407738
 20
289.5862441026638
 10
234.0456782407738
 20
288.3362441026638
 10
240.0456782407738
 20
288.3362441026638
 10
240.0456782407738
 20
294.3362441026638
 10
246.3956782407738
 20
294.3362441026638
 10
246.3956782407738
 20
300.3362441026638
 10
240.0456782407738
 20
300.3362441026638
 10
240.0456782407738
 20
311.8362441026638
 10
228.5456782407738
 20
311.8362441026638
 10
228.5456782407738
 20
318.1862441026638
 10
222.5456782407738
 20
318.1862441026638
 10
222.5456782407738
 20
311.8362441026638
 10
216.5456782407737
 20
311.8362441026638
 10
216.5456782407737
 20
305.8362441026639
 10
217.7956782407738
 20
305.8362441026639
 10
217.7956782407738
 20
303.8362441026638
 10
216.5456782407737
 20
303.8362441026638
 10
216.5456782407737
 20
301.1862441026638
 10
213.5456782407738
 20
301.1862441026638
 10
213.5456782407738
 20
303.8362441026638
 10
212.2956782407738
 20
303.8362441026638
 10
212.2956782407738
 20
305.8362441026639
 10
213.5456782407738
 20
305.8362441026639
 10
213.5456782407738
 20
311.8362441026638
 10
207.5456782407738
 20
311.8362441026638
 10
207.5456782407738
 20
318.1862441026638
  0
LWPOLYLINE
  5
11FC
330
1F
100
AcDbEntity
  8
0
  6
Continuous
 62
     7
370
    15
100
AcDbPolyline
 90
       47
 70
     1
 43
0.0
 10
280.4163625852755
 20
318.1862441026638
 10
280.4163625852755
 20
311.8362441026638
 10
274.4163625852755
 20
311.8362441026638
 10
274.4163625852755
 20
305.8362441026639
 10
275.6663625852755
 20
305.8362441026639
 10
275.6663625852755
 20
303.8362441026638
 10
274.4163625852755
 20
303.8362441026638
 10
274.4163625852755
 20
301.1862441026638
 10
271.4163625852755
 20
301.1862441026638
 10
271.4163625852755
 20
303.8362441026638
 10
270.1663625852755
 20
303.8362441026638
 10
270.1663625852755
 20
305.8362441026639
 10
271.4163625852755
 20
305.8362441026639
 10
271.4163625852755
 20
311.8362441026638
 10
265.4163625852755
 20
311.8362441026638
 10
265.4163625852755
 20
318.1862441026638
 10
259.4163625852755
 20
318.1862441026638
 10
259.4163625852755
 20
311.8362441026638
 10
249.9163625852755
 20
311.8362441026638
 10
249.9163625852755
 20
311.1499526016486
 42
0.1989123673796617
 10
252.2595083357832
 20
305.4930983521561
 10
291.5732168347679
 20
266.1793898531715
 42
0.198912367379658
 10
297.2300710842604
 20
263.8362441026639
 10
297.9163625852755
 20
263.8362441026639
 10
297.9163625852755
 20
273.3362441026638
 10
304.2663625852755
 20
273.3362441026638
 10
304.2663625852755
 20
279.3362441026638
 10
297.9163625852755
 20
279.3362441026638
 10
297.9163625852755
 20
285.3362441026638
 10
291.9163625852755
 20
285.3362441026638
 10
291.9163625852755
 20
284.0862441026638
 10
289.9163625852755
 20
284.0862441026638
 10
289.9163625852755
 20
285.3362441026638
 10
287.2663625852755
 20
285.3362441026638
 10
287.2663625852755
 20
288.3362441026638
 10
289.9163625852755
 20
288.3362441026638
 10
289.9163625852755
 20
289.5862441026638
 10
291.9163625852755
 20
289.5862441026638
 10
291.9163625852755
 20
288.3362441026638
 10
297.9163625852755
 20
288.3362441026638
 10
297.9163625852755
 20
294.3362441026638
 10
304.2663625852755
 20
294.3362441026638
 10
304.2663625852755
 20
300.3362441026638
 10
297.9163625852755
 20
300.3362441026638
 10
297.9163625852755
 20
311.8362441026638
 10
286.4163625852754
 20
311.8362441026638
 10
286.4163625852754
 20
318.1862441026638
  0
LWPOLYLINE
  5
12E6
330
1F
100
AcDbEntity
  8
0
  6
Continuous
 62
     7
370
    15
100
AcDbPolyline
 90
       48
 70
     1
 43
0.0
 10
325.6301538312504
 20
400.6531848127304
 42
0.1989123673796543
 10
327.3875131441311
 20
404.8958254998496
 10
327.3875131441311
 20
423.9252627513725
 42
0.1989123673796562
 10
325.6301538312504
 20
428.1679034384918
 10
291.1448724570119
 20
462.6531848127304
 42
-0.1989123673796617
 10
289.3875131441311
 20
466.8958254998496
 10
289.3875131441311
 20
474.9252627513725
 42
-0.1989123673796597
 10
291.1448724570119
 20
479.1679034384919
 10
327.3875131441312
 20
515.4105441256112
 42
0.9999999999999726
 10
320.3875131441312
 20
522.4105441256112
 10
299.1448724570119
 20
501.1679034384918
 42
-0.1989123673796561
 10
294.9022317698926
 20
499.410544125611
 10
143.8727945183696
 20
499.410544125611
 42
-0.198912367379658
 10
139.6301538312503
 20
501.1679034384918
 10
118.3875131441311
 20
522.4105441256112
 42
0.9999999999999865
 10
111.387513144131
 20
515.4105441256111
 10
127.6301538312504
 20
499.1679034384918
 42
-0.1989123673796598
 10
129.3875131441311
 20
494.9252627513724
 10
129.3875131441311
 20
479.8958254998496
 42
-0.1989123673796543
 10
127.6301538312504
 20
475.6531848127305
 10
113.1448724570118
 20
461.1679034384918
 42
0.1989123673796575
 10
111.3875131441311
 20
456.9252627513725
 10
111.3875131441311
 20
439.8958254998497
 42
0.198912367379663
 10
113.1448724570119
 20
435.6531848127302
 10
127.6301538312504
 20
421.1679034384919
 42
-0.1989123673796589
 10
129.3875131441311
 20
416.9252627513725
 10
129.3875131441311
 20
411.8958254998497
 42
-0.1989123673796552
 10
127.6301538312504
 20
407.6531848127304
 10
113.1448724570118
 20
393.1679034384919
 42
0.198912367379661
 10
111.387513144131
 20
388.9252627513725
 10
111.3875131441311
 20
371.8958254998497
 42
0.1989123673796612
 10
113.1448724570119
 20
367.6531848127303
 10
127.6301538312504
 20
353.1679034384918
 42
-0.198912367379658
 10
129.3875131441311
 20
348.9252627513725
 10
129.3875131441311
 20
333.8958254998498
 42
-0.1989123673796561
 10
127.6301538312504
 20
329.6531848127305
 10
111.3875131441311
 20
313.4105441256111
 42
0.9999999999999959
 10
118.3875131441311
 20
306.4105441256112
 10
139.6301538312503
 20
327.6531848127305
 42
-0.1989123673796572
 10
143.8727945183696
 20
329.4105441256112
 10
294.9022317698926
 20
329.4105441256111
 42
-0.1989123673796562
 10
299.1448724570119
 20
327.6531848127305
 10
320.3875131441311
 20
306.4105441256111
 42
0.9999999999999808
 10
327.3875131441311
 20
313.4105441256111
 10
291.1448724570119
 20
349.6531848127303
 42
-0.1989123673796634
 10
289.3875131441311
 20
353.8958254998497
 10
289.3875131441311
 20
361.9252627513725
 42
-0.198912367379658
 10
291.1448724570119
 20
366.1679034384918
  0
LWPOLYLINE
  5
14D5
330
1F
100
AcDbEntity
  8
0
  6
Continuous
 62
     7
370
    15
100
AcDbPolyline
 90
        8
 70
     1
 43
0.0
 10
244.9022317698926
 20
449.410544125611
 42
0.1989123673796589
 10
249.1448724570118
 20
451.1679034384918
 10
277.1448724570118
 20
479.1679034384919
 42
0.6681786379192963
 10
272.9022317698925
 20
489.4105441256111
 10
165.8727945183696
 20
489.410544125611
 42
0.6681786379193041
 10
161.6301538312504
 20
479.1679034384917
 10
189.6301538312504
 20
451.1679034384918
 42
0.1989123673796589
 10
193.8727945183698
 20
449.410544125611
  0
LWPOLYLINE
  5
14FC
330
1F
100
AcDbEntity
  8
0
  6
Continuous
 62
     7
370
    15
100
AcDbPolyline
 90
       16
 70
     1
 43
0.0
 10
199.3875131441311
 20
416.9252627513725
 42
0.1989123673796598
 10
197.6301538312504
 20
421.1679034384919
 10
181.1448724570118
 20
437.6531848127304
 42
0.1989123673796601
 10
176.9022317698925
 20
439.4105441256111
 10
161.8727945183696
 20
439.4105441256111
 42
0.198912367379658
 10
157.6301538312503
 20
437.6531848127304
 10
141.1448724570118
 20
421.1679034384919
 42
0.1989123673796597
 10
139.3875131441311
 20
416.9252627513725
 10
139.3875131441311
 20
411.8958254998497
 42
0.1989123673796634
 10
141.1448724570119
 20
407.6531848127303
 10
157.6301538312504
 20
391.1679034384919
 42
0.198912367379658
 10
161.8727945183697
 20
389.4105441256111
 10
176.9022317698925
 20
389.4105441256111
 42
0.1989123673796603
 10
181.1448724570118
 20
391.1679034384919
 10
197.6301538312504
 20
407.6531848127303
 42
0.1989123673796561
 10
199.3875131441311
 20
411.8958254998497
  0
LWPOLYLINE
  5
154B
330
1F
100
AcDbEntity
  8
0
  6
Continuous
 62
     7
370
    15
100
AcDbPolyline
 90
       16
 70
     1
 43
0.0
 10
266.9022317698926
 20
389.4105441256112
 42
0.1989123673796561
 10
271.1448724570118
 20
391.1679034384919
 10
277.6301538312504
 20
397.6531848127305
 42
0.1989123673796543
 10
279.3875131441311
 20
401.8958254998497
 10
279.3875131441311
 20
426.9252627513725
 42
0.1989123673796562
 10
277.6301538312504
 20
431.1679034384917
 10
271.1448724570118
 20
437.6531848127304
 42
0.1989123673796562
 10
266.9022317698925
 20
439.410544125611
 10
261.8727945183696
 20
439.410544125611
 42
0.1989123673796562
 10
257.6301538312504
 20
437.6531848127304
 10
241.1448724570118
 20
421.1679034384919
 42
0.1989123673796588
 10
239.3875131441311
 20
416.9252627513725
 10
239.3875131441311
 20
411.8958254998497
 42
0.1989123673796625
 10
241.1448724570119
 20
407.6531848127303
 10
257.6301538312504
 20
391.1679034384919
 42
0.1989123673796562
 10
261.8727945183697
 20
389.4105441256112
  0
LWPOLYLINE
  5
159A
330
1F
100
AcDbEntity
  8
0
  6
Continuous
 62
     7
370
    15
100
AcDbPolyline
 90
        8
 70
     1
 43
0.0
 10
249.1448724570119
 20
377.6531848127304
 42
0.1989123673796597
 10
244.9022317698925
 20
379.4105441256111
 10
193.8727945183697
 20
379.4105441256111
 42
0.1989123673796589
 10
189.6301538312504
 20
377.6531848127304
 10
161.6301538312504
 20
349.6531848127304
 42
0.6681786379193051
 10
165.8727945183698
 20
339.4105441256111
 10
272.9022317698925
 20
339.4105441256111
 42
0.6681786379192963
 10
277.1448724570118
 20
349.6531848127304
  0
LWPOLYLINE
  5
15C1
330
1F
100
AcDbEntity
  8
0
  6
Continuous
 62
     7
370
    15
100
AcDbPolyline
 90
       26
 70
     1
 43
0.0
 10
139.4142256161459
 20
230.9001041121021
 10
139.4142256161461
 20
243.9001041121021
 42
0.2192275103122568
 10
146.6120789365724
 20
250.900104112102
 10
190.414225616146
 20
250.900104112102
 10
212.414225616146
 20
228.9001041121021
 10
228.4142256161459
 20
228.9001041121021
 10
250.4142256161459
 20
250.900104112102
 10
294.2163722957194
 20
250.9001041121019
 42
0.2192275103122609
 10
301.4142256161459
 20
243.9001041121021
 10
301.4142256161459
 20
230.9001041121021
 42
0.9999999999999998
 10
309.4142256161459
 20
230.9001041121021
 10
309.4142256161461
 20
243.9001041121021
 42
0.3178372451957761
 10
317.4142256161459
 20
255.2138126110869
 10
317.4142256161459
 20
257.9001041121021
 10
327.414225616146
 20
257.9001041121021
 42
0.4142135623730909
 10
335.414225616146
 20
265.9001041121022
 10
335.4142256161459
 20
522.9001041121022
 42
0.4142135623730951
 10
327.4142256161459
 20
530.9001041121022
 10
113.4142256161459
 20
530.900104112102
 42
0.4142135623730951
 10
105.4142256161459
 20
522.9001041121021
 10
105.4142256161459
 20
265.9001041121021
 42
0.4142135623730992
 10
113.4142256161461
 20
257.9001041121021
 10
123.4142256161459
 20
257.9001041121021
 10
123.4142256161459
 20
255.2138126110869
 42
0.3178372451957864
 10
131.4142256161461
 20
243.9001041121021
 10
131.4142256161458
 20
230.9001041121021
 42
0.9999999999999998
  0
LWPOLYLINE
  5
1B23
330
1F
100
AcDbEntity
  8
0
  6
Continuous
 62
     7
370
    15
100
AcDbPolyline
 90
       26
 70
     1
 43
0.0
 10
328.2070042946478
 20
190.5745080085275
 10
328.2070042946478
 20
196.9245080085275
 10
322.2070042946479
 20
196.9245080085275
 10
322.2070042946479
 20
190.5745080085275
 10
316.2070042946478
 20
190.5745080085275
 10
316.2070042946478
 20
184.5745080085275
 10
317.4570042946478
 20
184.5745080085275
 10
317.4570042946478
 20
182.5745080085275
 10
316.2070042946478
 20
182.5745080085275
 10
316.2070042946479
 20
179.9245080085275
 10
313.2070042946478
 20
179.9245080085275
 10
313.2070042946478
 20
182.5745080085275
 10
311.9570042946478
 20
182.5745080085275
 10
311.9570042946478
 20
184.5745080085275
 10
313.2070042946478
 20
184.5745080085275
 10
313.2070042946478
 20
190.5745080085275
 10
307.2070042946478
 20
190.5745080085275
 10
307.2070042946478
 20
196.9245080085275
 10
301.2070042946478
 20
196.9245080085275
 10
301.2070042946478
 20
190.5745080085275
 10
285.007004294648
 20
190.5745080085275
 10
285.0070042946479
 20
145.5745080085275
 42
0.4142135623730992
 10
290.0070042946479
 20
140.5745080085275
 10
340.0070042946479
 20
140.5745080085275
 42
0.4142135623730925
 10
345.0070042946479
 20
145.5745080085276
 10
345.0070042946479
 20
190.5745080085275
  0
MTEXT
  5
1BD2
330
1F
100
AcDbEntity
  8
0
100
AcDbMText
 10
116.6874808094938
 20
553.8737715233851
 30
0.0
 40
21.0
 41
60.30095301147716
 46
33.87967269513217
 71
     4
 72
     5
  1
{\fSource Code Pro|b0|i0|c0|p0;\T1.05;kalkodon(\T0.75;)\T0.85;;}
 73
     1
 44
1.0
1001
ACAD
1000
ACAD_MTEXT_DEFINED_HEIGHT_BEGIN
1070
    46
1040
33.87967269513217
1000
ACAD_MTEXT_DEFINED_HEIGHT_END
  0
ENDSEC
  0
SECTION
  2
OBJECTS
  0
DICTIONARY
  5
C
330
0
100
AcDbDictionary
281
     1
  3
ACAD_COLOR
350
1BC0
  3
ACAD_DETAILVIEWSTYLE
350
1BD3
  3
ACAD_GROUP
350
D
  3
ACAD_IMAGE_VARS
350
3B9
  3
ACAD_LAYOUT
350
1A
  3
ACAD_MATERIAL
350
3A1
  3
ACAD_MLEADERSTYLE
350
1BBB
  3
ACAD_MLINESTYLE
350
17
  3
ACAD_PLOTSETTINGS
350
19
  3
ACAD_PLOTSTYLENAME
350
E
  3
ACAD_SCALELIST
350
37F
  3
ACAD_SECTIONVIEWSTYLE
350
1BD4
  3
ACAD_TABLESTYLE
350
3B6
  3
ACAD_VISUALSTYLE
350
3A5
  3
AcDbVariableDictionary
350
1BB8
  3
ACDB_RECOMPOSE_DATA
350
1BD7
  3
APPDATA
350
3B8
  0
SUN
  5
1BD0
330
29
100
AcDbSun
 90
        1
290
     0
 63
     7
421
 16777215
 40
1.0
291
     1
 91
  2455826
 92
 54000000
292
     0
 70
     2
 71
   256
280
     1
  0
DICTIONARY
  5
1BC0
102
{ACAD_REACTORS
330
C
102
}
330
C
100
AcDbDictionary
281
     1
  0
DICTIONARY
  5
1BD3
102
{ACAD_REACTORS
330
C
102
}
330
C
100
AcDbDictionary
281
     1
  0
DICTIONARY
  5
D
102
{ACAD_REACTORS
330
C
102
}
330
C
100
AcDbDictionary
281
     1
  0
RASTERVARIABLES
  5
3B9
102
{ACAD_REACTORS
330
C
102
}
330
C
100
AcDbRasterVariables
 90
        0
 70
     1
 71
     1
 72
     1
  0
DICTIONARY
  5
1A
102
{ACAD_REACTORS
330
C
102
}
330
C
100
AcDbDictionary
281
     1
  3
Layout1
350
1E
  3
Layout2
350
26
  3
Model
350
22
  0
DICTIONARY
  5
3A1
102
{ACAD_REACTORS
330
C
102
}
330
C
100
AcDbDictionary
281
     1
  3
ByBlock
350
3A3
  3
ByLayer
350
3A2
  3
Global
350
3A4
  0
DICTIONARY
  5
1BBB
102
{ACAD_REACTORS
330
C
102
}
330
C
100
AcDbDictionary
281
     1
  3
Standard
350
1BC1
  0
DICTIONARY
  5
17
102
{ACAD_REACTORS
330
C
102
}
330
C
100
AcDbDictionary
281
     1
  3
Standard
350
18
  0
DICTIONARY
  5
19
102
{ACAD_REACTORS
330
C
102
}
330
C
100
AcDbDictionary
281
     1
  0
ACDBDICTIONARYWDFLT
  5
E
102
{ACAD_REACTORS
330
C
102
}
330
C
100
AcDbDictionary
281
     1
  3
Normal
350
F
100
AcDbDictionaryWithDefault
340
F
  0
DICTIONARY
  5
37F
102
{ACAD_REACTORS
330
C
102
}
330
C
100
AcDbDictionary
281
     1
  3
A0
350
380
  3
A1
350
381
  3
A2
350
382
  3
A3
350
383
  3
A4
350
384
  3
A5
350
385
  3
A6
350
386
  3
A7
350
387
  3
A8
350
388
  3
A9
350
389
  3
B0
350
38A
  3
B1
350
38B
  3
B2
350
38C
  3
B3
350
38D
  3
B4
350
38E
  3
B5
350
38F
  3
B6
350
390
  3
B7
350
391
  3
B8
350
392
  3
B9
350
393
  3
C0
350
394
  3
C1
350
395
  3
C2
350
396
  3
C3
350
397
  3
C4
350
398
  3
C5
350
399
  3
C6
350
39A
  3
C7
350
39B
  3
C8
350
39C
  3
C9
350
39D
  3
D0
350
39E
  3
D1
350
39F
  3
D2
350
3A0
  0
DICTIONARY
  5
1BD4
102
{ACAD_REACTORS
330
C
102
}
330
C
100
AcDbDictionary
281
     1
  0
DICTIONARY
  5
3B6
102
{ACAD_REACTORS
330
C
102
}
330
C
100
AcDbDictionary
281
     1
  3
Standard
350
3B7
  0
DICTIONARY
  5
3A5
102
{ACAD_REACTORS
330
C
102
}
330
C
100
AcDbDictionary
281
     1
  3
2dWireframe
350
3AA
  3
3D Hidden
350
3AC
  3
3dWireframe
350
3AB
  3
Basic
350
3AD
  3
Brighten
350
3B1
  3
ColorChange
350
3B5
  3
Conceptual
350
3AF
  3
Dim
350
3B0
  3
EdgeColorOff
350
1BBF
  3
Facepattern
350
3B4
  3
Flat
350
3A6
  3
FlatWithEdges
350
3A7
  3
Gouraud
350
3A8
  3
GouraudWithEdges
350
3A9
  3
Hidden
350
1BCA
  3
JitterOff
350
1BBD
  3
Linepattern
350
3B3
  3
OverhangOff
350
1BBE
  3
Realistic
350
3AE
  3
Shaded
350
1BCF
  3
Shaded with edges
350
1BCE
  3
Shades of Gray
350
1BCB
  3
Sketchy
350
1BCC
  3
Thicken
350
3B2
  3
Wireframe
350
1BC9
  3
X-Ray
350
1BCD
  0
DICTIONARY
  5
1BB8
102
{ACAD_REACTORS
330
C
102
}
330
C
100
AcDbDictionary
281
     1
  3
CANNOSCALE
350
1BB9
  3
CMLEADERSTYLE
350
1BC5
  3
CTABLESTYLE
350
1BBA
  0
XRECORD
  5
1BD7
102
{ACAD_REACTORS
330
C
102
}
330
C
100
AcDbXrecord
280
     1
 90
        1
330
3B7
  0
DICTIONARY
  5
3B8
102
{ACAD_REACTORS
330
C
102
}
330
C
100
AcDbDictionary
281
     1
  0
LAYOUT
  5
1E
102
{ACAD_REACTORS
330
1A
102
}
330
1A
100
AcDbPlotSettings
  1

  2
none_device
  4

  6

 40
0.0
 41
0.0
 42
0.0
 43
0.0
 44
0.0
 45
0.0
 46
0.0
 47
0.0
 48
0.0
 49
0.0
140
0.0
141
0.0
142
1.0
143
1.0
 70
   688
 72
     0
 73
     0
 74
     5
  7

 75
    16
 76
     0
 77
     2
 78
   300
147
1.0
148
0.0
149
0.0
100
AcDbLayout
  1
Layout1
 70
     1
 71
     1
 10
0.0
 20
0.0
 11
0.0
 21
0.0
 12
0.0
 22
0.0
 32
0.0
 14
1.000000000000000E+20
 24
1.000000000000000E+20
 34
1.000000000000000E+20
 15
-1.000000000000000E+20
 25
-1.000000000000000E+20
 35
-1.000000000000000E+20
146
0.0
 13
0.0
 23
0.0
 33
0.0
 16
1.0
 26
0.0
 36
0.0
 17
0.0
 27
1.0
 37
0.0
 76
     0
330
1B
  0
LAYOUT
  5
26
102
{ACAD_REACTORS
330
1A
102
}
330
1A
100
AcDbPlotSettings
  1

  2
none_device
  4

  6

 40
0.0
 41
0.0
 42
0.0
 43
0.0
 44
0.0
 45
0.0
 46
0.0
 47
0.0
 48
0.0
 49
0.0
140
0.0
141
0.0
142
1.0
143
1.0
 70
   688
 72
     0
 73
     0
 74
     5
  7

 75
    16
 76
     0
 77
     2
 78
   300
147
1.0
148
0.0
149
0.0
100
AcDbLayout
  1
Layout2
 70
     1
 71
     2
 10
0.0
 20
0.0
 11
0.0
 21
0.0
 12
0.0
 22
0.0
 32
0.0
 14
0.0
 24
0.0
 34
0.0
 15
0.0
 25
0.0
 35
0.0
146
0.0
 13
0.0
 23
0.0
 33
0.0
 16
1.0
 26
0.0
 36
0.0
 17
0.0
 27
1.0
 37
0.0
 76
     0
330
23
  0
LAYOUT
  5
22
102
{ACAD_REACTORS
330
1A
102
}
330
1A
100
AcDbPlotSettings
  1

  2
none_device
  4

  6

 40
0.0
 41
0.0
 42
0.0
 43
0.0
 44
0.0
 45
0.0
 46
0.0
 47
0.0
 48
0.0
 49
0.0
140
0.0
141
0.0
142
1.0
143
1.0
 70
  1712
 72
     0
 73
     0
 74
     0
  7

 75
     0
 76
     0
 77
     2
 78
   300
147
1.0
148
0.0
149
0.0
100
AcDbLayout
  1
Model
 70
     1
 71
     0
 10
0.0
 20
0.0
 11
609.0
 21
609.0
 12
0.0
 22
0.0
 32
0.0
 14
25.41422561614593
 24
43.11025431073029
 34
0.0
 15
571.9303462792062
 25
580.900104112102
 35
0.0
146
0.0
 13
0.0
 23
0.0
 33
0.0
 16
1.0
 26
0.0
 36
0.0
 17
0.0
 27
1.0
 37
0.0
 76
     0
330
1F
331
29
  0
MATERIAL
  5
3A3
102
{ACAD_REACTORS
330
3A1
102
}
330
3A1
100
AcDbMaterial
  1
ByBlock
 72
     1
 94
      127
  0
MATERIAL
  5
3A2
102
{ACAD_REACTORS
330
3A1
102
}
330
3A1
100
AcDbMaterial
  1
ByLayer
 72
     1
 94
      127
  0
MATERIAL
  5
3A4
102
{ACAD_REACTORS
330
3A1
102
}
330
3A1
100
AcDbMaterial
  1
Global
 72
     1
 94
      127
  0
MLEADERSTYLE
  5
1BC1
102
{ACAD_REACTORS
330
1BBB
102
}
330
1BBB
100
AcDbMLeaderStyle
179
     2
170
     2
171
     1
172
     0
 90
        2
 40
0.0
 41
0.0
173
     1
 91
-1056964608
340
14
 92
       -2
290
     1
 42
2.0
291
     1
 43
0.36
  3
Standard
341
0
 44
4.0
300

342
11
174
     1
178
     6
175
     1
176
     0
 93
-1056964608
 45
4.0
292
     0
297
     0
 46
4.0
343
0
 94
-1056964608
 47
1.0
 49
1.0
140
1.0
293
     1
141
0.0
294
     1
177
     0
142
1.0
295
     1
296
     0
143
0.125
271
     0
272
     9
273
     9
298
     0
  0
MLINESTYLE
  5
18
102
{ACAD_REACTORS
330
17
102
}
330
17
100
AcDbMlineStyle
  2
STANDARD
 70
     0
  3

 62
   256
 51
90.0
 52
90.0
 71
     2
 49
0.5
 62
   256
  6
BYLAYER
 49
-0.5
 62
   256
  6
BYLAYER
  0
ACDBPLACEHOLDER
  5
F
102
{ACAD_REACTORS
330
E
102
}
330
E
  0
SCALE
  5
380
102
{ACAD_REACTORS
330
37F
102
}
330
37F
100
AcDbScale
 70
     0
300
1:1
140
1.0
141
1.0
290
     1
  0
SCALE
  5
381
102
{ACAD_REACTORS
330
37F
102
}
330
37F
100
AcDbScale
 70
     0
300
1:2
140
1.0
141
2.0
290
     0
  0
SCALE
  5
382
102
{ACAD_REACTORS
330
37F
102
}
330
37F
100
AcDbScale
 70
     0
300
1:4
140
1.0
141
4.0
290
     0
  0
SCALE
  5
383
102
{ACAD_REACTORS
330
37F
102
}
330
37F
100
AcDbScale
 70
     0
300
1:5
140
1.0
141
5.0
290
     0
  0
SCALE
  5
384
102
{ACAD_REACTORS
330
37F
102
}
330
37F
100
AcDbScale
 70
     0
300
1:8
140
1.0
141
8.0
290
     0
  0
SCALE
  5
385
102
{ACAD_REACTORS
330
37F
102
}
330
37F
100
AcDbScale
 70
     0
300
1:10
140
1.0
141
10.0
290
     0
  0
SCALE
  5
386
102
{ACAD_REACTORS
330
37F
102
}
330
37F
100
AcDbScale
 70
     0
300
1:16
140
1.0
141
16.0
290
     0
  0
SCALE
  5
387
102
{ACAD_REACTORS
330
37F
102
}
330
37F
100
AcDbScale
 70
     0
300
1:20
140
1.0
141
20.0
290
     0
  0
SCALE
  5
388
102
{ACAD_REACTORS
330
37F
102
}
330
37F
100
AcDbScale
 70
     0
300
1:30
140
1.0
141
30.0
290
     0
  0
SCALE
  5
389
102
{ACAD_REACTORS
330
37F
102
}
330
37F
100
AcDbScale
 70
     0
300
1:40
140
1.0
141
40.0
290
     0
  0
SCALE
  5
38A
102
{ACAD_REACTORS
330
37F
102
}
330
37F
100
AcDbScale
 70
     0
300
1:50
140
1.0
141
50.0
290
     0
  0
SCALE
  5
38B
102
{ACAD_REACTORS
330
37F
102
}
330
37F
100
AcDbScale
 70
     0
300
1:100
140
1.0
141
100.0
290
     0
  0
SCALE
  5
38C
102
{ACAD_REACTORS
330
37F
102
}
330
37F
100
AcDbScale
 70
     0
300
2:1
140
2.0
141
1.0
290
     0
  0
SCALE
  5
38D
102
{ACAD_REACTORS
330
37F
102
}
330
37F
100
AcDbScale
 70
     0
300
4:1
140
4.0
141
1.0
290
     0
  0
SCALE
  5
38E
102
{ACAD_REACTORS
330
37F
102
}
330
37F
100
AcDbScale
 70
     0
300
8:1
140
8.0
141
1.0
290
     0
  0
SCALE
  5
38F
102
{ACAD_REACTORS
330
37F
102
}
330
37F
100
AcDbScale
 70
     0
300
10:1
140
10.0
141
1.0
290
     0
  0
SCALE
  5
390
102
{ACAD_REACTORS
330
37F
102
}
330
37F
100
AcDbScale
 70
     0
300
100:1
140
100.0
141
1.0
290
     0
  0
SCALE
  5
391
102
{ACAD_REACTORS
330
37F
102
}
330
37F
100
AcDbScale
 70
     0
300
1/128" = 1'-0"
140
0.0078125
141
12.0
290
     0
  0
SCALE
  5
392
102
{ACAD_REACTORS
330
37F
102
}
330
37F
100
AcDbScale
 70
     0
300
1/64" = 1'-0"
140
0.015625
141
12.0
290
     0
  0
SCALE
  5
393
102
{ACAD_REACTORS
330
37F
102
}
330
37F
100
AcDbScale
 70
     0
300
1/32" = 1'-0"
140
0.03125
141
12.0
290
     0
  0
SCALE
  5
394
102
{ACAD_REACTORS
330
37F
102
}
330
37F
100
AcDbScale
 70
     0
300
1/16" = 1'-0"
140
0.0625
141
12.0
290
     0
  0
SCALE
  5
395
102
{ACAD_REACTORS
330
37F
102
}
330
37F
100
AcDbScale
 70
     0
300
3/32" = 1'-0"
140
0.09375
141
12.0
290
     0
  0
SCALE
  5
396
102
{ACAD_REACTORS
330
37F
102
}
330
37F
100
AcDbScale
 70
     0
300
1/8" = 1'-0"
140
0.125
141
12.0
290
     0
  0
SCALE
  5
397
102
{ACAD_REACTORS
330
37F
102
}
330
37F
100
AcDbScale
 70
     0
300
3/16" = 1'-0"
140
0.1875
141
12.0
290
     0
  0
SCALE
  5
398
102
{ACAD_REACTORS
330
37F
102
}
330
37F
100
AcDbScale
 70
     0
300
1/4" = 1'-0"
140
0.25
141
12.0
290
     0
  0
SCALE
  5
399
102
{ACAD_REACTORS
330
37F
102
}
330
37F
100
AcDbScale
 70
     0
300
3/8" = 1'-0"
140
0.375
141
12.0
290
     0
  0
SCALE
  5
39A
102
{ACAD_REACTORS
330
37F
102
}
330
37F
100
AcDbScale
 70
     0
300
1/2" = 1'-0"
140
0.5
141
12.0
290
     0
  0
SCALE
  5
39B
102
{ACAD_REACTORS
330
37F
102
}
330
37F
100
AcDbScale
 70
     0
300
3/4" = 1'-0"
140
0.75
141
12.0
290
     0
  0
SCALE
  5
39C
102
{ACAD_REACTORS
330
37F
102
}
330
37F
100
AcDbScale
 70
     0
300
1" = 1'-0"
140
1.0
141
12.0
290
     0
  0
SCALE
  5
39D
102
{ACAD_REACTORS
330
37F
102
}
330
37F
100
AcDbScale
 70
     0
300
1-1/2" = 1'-0"
140
1.5
141
12.0
290
     0
  0
SCALE
  5
39E
102
{ACAD_REACTORS
330
37F
102
}
330
37F
100
AcDbScale
 70
     0
300
3" = 1'-0"
140
3.0
141
12.0
290
     0
  0
SCALE
  5
39F
102
{ACAD_REACTORS
330
37F
102
}
330
37F
100
AcDbScale
 70
     0
300
6" = 1'-0"
140
6.0
141
12.0
290
     0
  0
SCALE
  5
3A0
102
{ACAD_REACTORS
330
37F
102
}
330
37F
100
AcDbScale
 70
     0
300
1'-0" = 1'-0"
140
12.0
141
12.0
290
     0
  0
TABLESTYLE
  5
3B7
102
{ACAD_REACTORS
330
3B6
102
}
102
{ACAD_XDICTIONARY
360
1BD5
102
}
330
3B6
100
AcDbTableStyle
  3
Standard
 70
     0
 71
     0
 40
1.5
 41
1.5
280
     0
281
     0
  7
Standard
140
4.5
170
     2
 62
     0
 63
   257
283
     0
 90
        4
 91
        0
  1

274
    -2
284
     1
 64
     0
275
    -2
285
     1
 65
     0
276
    -2
286
     1
 66
     0
277
    -2
287
     1
 67
     0
278
    -2
288
     1
 68
     0
279
    -2
289
     1
 69
     0
  7
Standard
140
6.0
170
     5
 62
     0
 63
   257
283
     0
 90
        4
 91
        0
  1

274
    -2
284
     1
 64
     0
275
    -2
285
     1
 65
     0
276
    -2
286
     1
 66
     0
277
    -2
287
     1
 67
     0
278
    -2
288
     1
 68
     0
279
    -2
289
     1
 69
     0
  7
Standard
140
4.5
170
     5
 62
     0
 63
   257
283
     0
 90
        4
 91
        0
  1

274
    -2
284
     1
 64
     0
275
    -2
285
     1
 65
     0
276
    -2
286
     1
 66
     0
277
    -2
287
     1
 67
     0
278
    -2
288
     1
 68
     0
279
    -2
289
     1
 69
     0
  0
VISUALSTYLE
  5
3AA
102
{ACAD_REACTORS
330
3A5
102
}
330
3A5
100
AcDbVisualStyle
  2
2dWireframe
 70
     4
177
     3
291
     0
 70
    58
 90
        0
176
     1
 90
        2
176
     1
 90
        0
176
     1
 90
        0
176
     1
 40
0.6
176
     1
 40
30.0
176
     1
 62
     7
420
 16777215
176
     1
 90
        1
176
     1
 90
        4
176
     1
 62
     7
176
     1
 62
   257
176
     1
 90
        1
176
     1
 90
        1
176
     1
 40
1.0
176
     1
 90
        0
176
     1
 62
   257
176
     1
 40
1.0
176
     1
 90
        1
176
     1
 90
        6
176
     1
 90
        2
176
     1
 62
     7
176
     1
 90
        5
176
     1
 90
        0
176
     1
 90
        0
176
     1
290
     0
176
     1
 90
        1
176
     1
 40
0.0
176
     1
 90
        0
176
     1
290
     1
176
     1
290
     1
176
     1
290
     0
176
     1
290
     0
176
     1
290
     0
176
     1
290
     0
176
     1
290
     0
176
     1
290
     0
176
     1
290
     0
176
     1
 90
       50
176
     1
 40
0.0
176
     1
 40
1.0
176
     1
 90
        0
176
     1
 62
   178
420
        0
176
     1
 90
       50
176
     1
 90
        3
176
     1
 62
     5
420
      255
176
     1
290
     0
176
     1
 90
       50
176
     1
 90
       50
176
     1
 90
       50
176
     1
290
     0
176
     1
 90
       50
176
     1
 62
   256
176
     0
 40
1.0
176
     0
 90
        2
176
     1
  1
strokes_ogs.tif
176
     1
290
     0
176
     1
 40
1.0
176
     1
 40
1.0
176
     1
  0
VISUALSTYLE
  5
3AC
102
{ACAD_REACTORS
330
3A5
102
}
330
3A5
100
AcDbVisualStyle
  2
3D Hidden
 70
     6
177
     3
291
     0
 70
    58
 90
        1
176
     1
 90
        2
176
     1
 90
        2
176
     1
 90
        0
176
     1
 40
0.6
176
     1
 40
30.0
176
     1
 62
     7
420
 16777215
176
     1
 90
        2
176
     1
 90
        2
176
     1
 62
     7
176
     1
 62
   257
176
     1
 90
        2
176
     1
 90
        1
176
     1
 40
40.0
176
     1
 90
        0
176
     1
 62
   257
176
     1
 40
1.0
176
     1
 90
        1
176
     1
 90
        6
176
     1
 90
        2
176
     1
 62
     7
176
     1
 90
        3
176
     1
 90
        0
176
     1
 90
        0
176
     1
290
     0
176
     1
 90
        1
176
     1
 40
0.0
176
     1
 90
        0
176
     1
290
     0
176
     1
290
     1
176
     1
290
     1
176
     1
290
     0
176
     1
290
     0
176
     1
290
     0
176
     1
290
     0
176
     1
290
     0
176
     1
290
     0
176
     1
 90
       50
176
     1
 40
0.0
176
     1
 40
1.0
176
     1
 90
        0
176
     1
 62
   178
420
        0
176
     1
 90
       50
176
     1
 90
        3
176
     1
 62
     5
420
      255
176
     1
290
     0
176
     1
 90
       50
176
     1
 90
       50
176
     1
 90
       50
176
     1
290
     0
176
     1
 90
       50
176
     1
 62
   256
176
     0
 40
1.0
176
     0
 90
        2
176
     1
  1
strokes_ogs.tif
176
     1
290
     0
176
     1
 40
1.0
176
     1
 40
1.0
176
     1
  0
VISUALSTYLE
  5
3AB
102
{ACAD_REACTORS
330
3A5
102
}
330
3A5
100
AcDbVisualStyle
  2
3dWireframe
 70
     5
177
     3
291
     0
 70
    58
 90
        0
176
     1
 90
        2
176
     1
 90
        0
176
     1
 90
        0
176
     1
 40
0.6
176
     1
 40
30.0
176
     1
 62
     7
420
 16777215
176
     1
 90
        1
176
     1
 90
        4
176
     1
 62
     7
176
     1
 62
   257
176
     1
 90
        1
176
     1
 90
        1
176
     1
 40
1.0
176
     1
 90
        0
176
     1
 62
   257
176
     1
 40
1.0
176
     1
 90
        1
176
     1
 90
        6
176
     1
 90
        2
176
     1
 62
     7
176
     1
 90
        5
176
     1
 90
        0
176
     1
 90
        0
176
     1
290
     0
176
     1
 90
        1
176
     1
 40
0.0
176
     1
 90
        0
176
     1
290
     0
176
     1
290
     1
176
     1
290
     1
176
     1
290
     0
176
     1
290
     0
176
     1
290
     0
176
     1
290
     0
176
     1
290
     0
176
     1
290
     0
176
     1
 90
       50
176
     1
 40
0.0
176
     1
 40
1.0
176
     1
 90
        0
176
     1
 62
   178
420
        0
176
     1
 90
       50
176
     1
 90
        3
176
     1
 62
     5
420
      255
176
     1
290
     0
176
     1
 90
       50
176
     1
 90
       50
176
     1
 90
       50
176
     1
290
     0
176
     1
 90
       50
176
     1
 62
   256
176
     0
 40
1.0
176
     0
 90
        2
176
     1
  1
strokes_ogs.tif
176
     1
290
     0
176
     1
 40
1.0
176
     1
 40
1.0
176
     1
  0
VISUALSTYLE
  5
3AD
102
{ACAD_REACTORS
330
3A5
102
}
330
3A5
100
AcDbVisualStyle
  2
Basic
 70
     7
177
     3
291
     1
 70
    58
 90
        1
176
     1
 90
        0
176
     1
 90
        1
176
     1
 90
        0
176
     1
 40
0.6
176
     1
 40
30.0
176
     1
 62
     7
420
 16777215
176
     1
 90
        0
176
     1
 90
        4
176
     1
 62
     7
176
     1
 62
   257
176
     1
 90
        1
176
     1
 90
        1
176
     1
 40
1.0
176
     1
 90
        8
176
     1
 62
     7
176
     1
 40
1.0
176
     1
 90
        1
176
     1
 90
        6
176
     1
 90
        2
176
     1
 62
     7
176
     1
 90
        5
176
     1
 90
        0
176
     1
 90
        0
176
     1
290
     0
176
     1
 90
        1
176
     1
 40
0.0
176
     1
 90
        0
176
     1
290
     0
176
     1
290
     1
176
     1
290
     1
176
     1
290
     0
176
     1
290
     0
176
     1
290
     0
176
     1
290
     0
176
     1
290
     0
176
     1
290
     0
176
     1
 90
       50
176
     1
 40
0.0
176
     1
 40
1.0
176
     1
 90
        0
176
     1
 62
   178
420
        0
176
     1
 90
       50
176
     1
 90
        3
176
     1
 62
     5
420
      255
176
     1
290
     0
176
     1
 90
       50
176
     1
 90
       50
176
     1
 90
       50
176
     1
290
     0
176
     1
 90
       50
176
     1
 62
   256
176
     0
 40
1.0
176
     0
 90
        2
176
     1
  1
strokes_ogs.tif
176
     1
290
     0
176
     1
 40
1.0
176
     1
 40
1.0
176
     1
  0
VISUALSTYLE
  5
3B1
102
{ACAD_REACTORS
330
3A5
102
}
330
3A5
100
AcDbVisualStyle
  2
Brighten
 70
    12
177
     3
291
     1
 70
    58
 90
        2
176
     1
 90
        2
176
     1
 90
        0
176
     1
 90
        0
176
     1
 40
0.6
176
     1
 40
30.0
176
     1
 62
     7
420
 16777215
176
     1
 90
        1
176
     1
 90
        4
176
     1
 62
     7
176
     1
 62
   257
176
     1
 90
        1
176
     1
 90
        1
176
     1
 40
1.0
176
     1
 90
        8
176
     1
 62
     7
176
     1
 40
1.0
176
     1
 90
        1
176
     1
 90
        6
176
     1
 90
        2
176
     1
 62
     7
176
     1
 90
        5
176
     1
 90
        0
176
     1
 90
        0
176
     1
290
     0
176
     1
 90
        1
176
     1
 40
50.0
176
     1
 90
        0
176
     1
290
     0
176
     1
290
     1
176
     1
290
     1
176
     1
290
     0
176
     1
290
     0
176
     1
290
     0
176
     1
290
     0
176
     1
290
     0
176
     1
290
     0
176
     1
 90
       50
176
     1
 40
0.0
176
     1
 40
1.0
176
     1
 90
        0
176
     1
 62
   178
420
        0
176
     1
 90
       50
176
     1
 90
        3
176
     1
 62
     5
420
      255
176
     1
290
     0
176
     1
 90
       50
176
     1
 90
       50
176
     1
 90
       50
176
     1
290
     0
176
     1
 90
       50
176
     1
 62
   256
176
     0
 40
1.0
176
     0
 90
        2
176
     1
  1
strokes_ogs.tif
176
     1
290
     0
176
     1
 40
1.0
176
     1
 40
1.0
176
     1
  0
VISUALSTYLE
  5
3B5
102
{ACAD_REACTORS
330
3A5
102
}
330
3A5
100
AcDbVisualStyle
  2
ColorChange
 70
    16
177
     3
291
     1
 70
    58
 90
        2
176
     1
 90
        2
176
     1
 90
        3
176
     1
 90
        0
176
     1
 40
0.6
176
     1
 40
30.0
176
     1
 62
     8
420
  8421504
176
     1
 90
        1
176
     1
 90
        4
176
     1
 62
     7
176
     1
 62
   257
176
     1
 90
        1
176
     1
 90
        1
176
     1
 40
1.0
176
     1
 90
        8
176
     1
 62
     8
420
  8421504
176
     1
 40
1.0
176
     1
 90
        1
176
     1
 90
        6
176
     1
 90
        2
176
     1
 62
     7
176
     1
 90
        5
176
     1
 90
        0
176
     1
 90
        0
176
     1
290
     0
176
     1
 90
        1
176
     1
 40
0.0
176
     1
 90
        0
176
     1
290
     0
176
     1
290
     1
176
     1
290
     1
176
     1
290
     0
176
     1
290
     0
176
     1
290
     0
176
     1
290
     0
176
     1
290
     0
176
     1
290
     0
176
     1
 90
       50
176
     1
 40
0.0
176
     1
 40
1.0
176
     1
 90
        0
176
     1
 62
   178
420
        0
176
     1
 90
       50
176
     1
 90
        3
176
     1
 62
     5
420
      255
176
     1
290
     0
176
     1
 90
       50
176
     1
 90
       50
176
     1
 90
       50
176
     1
290
     0
176
     1
 90
       50
176
     1
 62
   256
176
     0
 40
1.0
176
     0
 90
        2
176
     1
  1
strokes_ogs.tif
176
     1
290
     0
176
     1
 40
1.0
176
     1
 40
1.0
176
     1
  0
VISUALSTYLE
  5
3AF
102
{ACAD_REACTORS
330
3A5
102
}
330
3A5
100
AcDbVisualStyle
  2
Conceptual
 70
     9
177
     3
291
     0
 70
    58
 90
        3
176
     1
 90
        2
176
     1
 90
        0
176
     1
 90
        0
176
     1
 40
0.6
176
     1
 40
30.0
176
     1
 62
     7
420
 16777215
176
     1
 90
        2
176
     1
 90
        2
176
     1
 62
     7
176
     1
 62
   257
176
     1
 90
        1
176
     1
 90
        1
176
     1
 40
40.0
176
     1
 90
        8
176
     1
 62
     7
176
     1
 40
1.0
176
     1
 90
        1
176
     1
 90
        6
176
     1
 90
        2
176
     1
 62
     7
176
     1
 90
        3
176
     1
 90
        0
176
     1
 90
        0
176
     1
290
     0
176
     1
 90
        1
176
     1
 40
0.0
176
     1
 90
        0
176
     1
290
     0
176
     1
290
     1
176
     1
290
     1
176
     1
290
     0
176
     1
290
     0
176
     1
290
     0
176
     1
290
     0
176
     1
290
     0
176
     1
290
     0
176
     1
 90
       50
176
     1
 40
0.0
176
     1
 40
1.0
176
     1
 90
        0
176
     1
 62
   178
420
        0
176
     1
 90
       50
176
     1
 90
        3
176
     1
 62
     5
420
      255
176
     1
290
     0
176
     1
 90
       50
176
     1
 90
       50
176
     1
 90
       50
176
     1
290
     0
176
     1
 90
       50
176
     1
 62
   256
176
     0
 40
1.0
176
     0
 90
        2
176
     1
  1
strokes_ogs.tif
176
     1
290
     0
176
     1
 40
1.0
176
     1
 40
1.0
176
     1
  0
VISUALSTYLE
  5
3B0
102
{ACAD_REACTORS
330
3A5
102
}
330
3A5
100
AcDbVisualStyle
  2
Dim
 70
    11
177
     3
291
     1
 70
    58
 90
        2
176
     1
 90
        2
176
     1
 90
        0
176
     1
 90
        0
176
     1
 40
0.6
176
     1
 40
30.0
176
     1
 62
     7
420
 16777215
176
     1
 90
        1
176
     1
 90
        4
176
     1
 62
     7
176
     1
 62
   257
176
     1
 90
        1
176
     1
 90
        1
176
     1
 40
1.0
176
     1
 90
        8
176
     1
 62
     7
176
     1
 40
1.0
176
     1
 90
        1
176
     1
 90
        6
176
     1
 90
        2
176
     1
 62
     7
176
     1
 90
        5
176
     1
 90
        0
176
     1
 90
        0
176
     1
290
     0
176
     1
 90
        1
176
     1
 40
-50.0
176
     1
 90
        0
176
     1
290
     0
176
     1
290
     1
176
     1
290
     1
176
     1
290
     0
176
     1
290
     0
176
     1
290
     0
176
     1
290
     0
176
     1
290
     0
176
     1
290
     0
176
     1
 90
       50
176
     1
 40
0.0
176
     1
 40
1.0
176
     1
 90
        0
176
     1
 62
   178
420
        0
176
     1
 90
       50
176
     1
 90
        3
176
     1
 62
     5
420
      255
176
     1
290
     0
176
     1
 90
       50
176
     1
 90
       50
176
     1
 90
       50
176
     1
290
     0
176
     1
 90
       50
176
     1
 62
   256
176
     0
 40
1.0
176
     0
 90
        2
176
     1
  1
strokes_ogs.tif
176
     1
290
     0
176
     1
 40
1.0
176
     1
 40
1.0
176
     1
  0
VISUALSTYLE
  5
1BBF
102
{ACAD_REACTORS
330
3A5
102
}
330
3A5
100
AcDbVisualStyle
  2
EdgeColorOff
 70
    22
177
     3
291
     1
 70
    58
 90
        2
176
     0
 90
        2
176
     0
 90
        0
176
     0
 90
        0
176
     0
 40
0.6
176
     0
 40
30.0
176
     0
 62
     7
420
 16777215
176
     0
 90
        1
176
     0
 90
        4
176
     0
 62
     7
176
     0
 62
   257
176
     0
 90
        1
176
     0
 90
        1
176
     0
 40
1.0
176
     0
 90
        8
176
     2
 62
     7
176
     0
 40
1.0
176
     0
 90
        1
176
     0
 90
        6
176
     0
 90
        2
176
     0
 62
     7
176
     0
 90
        5
176
     0
 90
        0
176
     0
 90
        0
176
     0
290
     0
176
     0
 90
        1
176
     0
 40
0.0
176
     0
 90
        0
176
     0
290
     0
176
     1
290
     1
176
     1
290
     1
176
     1
290
     0
176
     1
290
     0
176
     1
290
     0
176
     1
290
     0
176
     1
290
     0
176
     1
290
     0
176
     1
 90
       50
176
     1
 40
0.0
176
     1
 40
1.0
176
     1
 90
        0
176
     1
 62
   178
420
        0
176
     1
 90
       50
176
     1
 90
        3
176
     1
 62
     5
420
      255
176
     1
290
     0
176
     1
 90
       50
176
     1
 90
       50
176
     1
 90
       50
176
     1
290
     0
176
     1
 90
       50
176
     1
 62
   256
176
     0
 40
1.0
176
     0
 90
        2
176
     1
  1
strokes_ogs.tif
176
     1
290
     0
176
     1
 40
1.0
176
     1
 40
1.0
176
     1
  0
VISUALSTYLE
  5
3B4
102
{ACAD_REACTORS
330
3A5
102
}
330
3A5
100
AcDbVisualStyle
  2
Facepattern
 70
    15
177
     3
291
     1
 70
    58
 90
        2
176
     1
 90
        2
176
     1
 90
        0
176
     1
 90
        0
176
     1
 40
0.6
176
     1
 40
30.0
176
     1
 62
     7
420
 16777215
176
     1
 90
        1
176
     1
 90
        4
176
     1
 62
     7
176
     1
 62
   257
176
     1
 90
        1
176
     1
 90
        1
176
     1
 40
1.0
176
     1
 90
        8
176
     1
 62
     7
176
     1
 40
1.0
176
     1
 90
        1
176
     1
 90
        6
176
     1
 90
        2
176
     1
 62
     7
176
     1
 90
        5
176
     1
 90
        0
176
     1
 90
        0
176
     1
290
     0
176
     1
 90
        1
176
     1
 40
0.0
176
     1
 90
        0
176
     1
290
     0
176
     1
290
     1
176
     1
290
     1
176
     1
290
     0
176
     1
290
     0
176
     1
290
     0
176
     1
290
     0
176
     1
290
     0
176
     1
290
     0
176
     1
 90
       50
176
     1
 40
0.0
176
     1
 40
1.0
176
     1
 90
        0
176
     1
 62
   178
420
        0
176
     1
 90
       50
176
     1
 90
        3
176
     1
 62
     5
420
      255
176
     1
290
     0
176
     1
 90
       50
176
     1
 90
       50
176
     1
 90
       50
176
     1
290
     0
176
     1
 90
       50
176
     1
 62
   256
176
     0
 40
1.0
176
     0
 90
        2
176
     1
  1
strokes_ogs.tif
176
     1
290
     0
176
     1
 40
1.0
176
     1
 40
1.0
176
     1
  0
VISUALSTYLE
  5
3A6
102
{ACAD_REACTORS
330
3A5
102
}
330
3A5
100
AcDbVisualStyle
  2
Flat
 70
     0
177
     3
291
     1
 70
    58
 90
        2
176
     1
 90
        1
176
     1
 90
        1
176
     1
 90
        2
176
     1
 40
0.6
176
     1
 40
30.0
176
     1
 62
     7
420
 16777215
176
     1
 90
        0
176
     1
 90
        4
176
     1
 62
     7
176
     1
 62
   257
176
     1
 90
        1
176
     1
 90
        1
176
     1
 40
1.0
176
     1
 90
        8
176
     1
 62
     7
176
     1
 40
1.0
176
     1
 90
        1
176
     1
 90
        6
176
     1
 90
        2
176
     1
 62
     7
176
     1
 90
        5
176
     1
 90
        0
176
     1
 90
        0
176
     1
290
     0
176
     1
 90
       13
176
     1
 40
0.0
176
     1
 90
        0
176
     1
290
     0
176
     1
290
     1
176
     1
290
     1
176
     1
290
     0
176
     1
290
     0
176
     1
290
     0
176
     1
290
     0
176
     1
290
     0
176
     1
290
     0
176
     1
 90
       50
176
     1
 40
0.0
176
     1
 40
1.0
176
     1
 90
        0
176
     1
 62
   178
420
        0
176
     1
 90
       50
176
     1
 90
        3
176
     1
 62
     5
420
      255
176
     1
290
     0
176
     1
 90
       50
176
     1
 90
       50
176
     1
 90
       50
176
     1
290
     0
176
     1
 90
       50
176
     1
 62
   256
176
     0
 40
1.0
176
     0
 90
        2
176
     1
  1
strokes_ogs.tif
176
     1
290
     0
176
     1
 40
1.0
176
     1
 40
1.0
176
     1
  0
VISUALSTYLE
  5
3A7
102
{ACAD_REACTORS
330
3A5
102
}
330
3A5
100
AcDbVisualStyle
  2
FlatWithEdges
 70
     1
177
     3
291
     1
 70
    58
 90
        2
176
     1
 90
        1
176
     1
 90
        1
176
     1
 90
        2
176
     1
 40
0.6
176
     1
 40
30.0
176
     1
 62
     7
420
 16777215
176
     1
 90
        1
176
     1
 90
        4
176
     1
 62
     7
176
     1
 62
   257
176
     1
 90
        1
176
     1
 90
        1
176
     1
 40
1.0
176
     1
 90
        0
176
     1
 62
   257
176
     1
 40
1.0
176
     1
 90
        1
176
     1
 90
        6
176
     1
 90
        2
176
     1
 62
     7
176
     1
 90
        5
176
     1
 90
        0
176
     1
 90
        0
176
     1
290
     0
176
     1
 90
       13
176
     1
 40
0.0
176
     1
 90
        0
176
     1
290
     0
176
     1
290
     1
176
     1
290
     1
176
     1
290
     0
176
     1
290
     0
176
     1
290
     0
176
     1
290
     0
176
     1
290
     0
176
     1
290
     0
176
     1
 90
       50
176
     1
 40
0.0
176
     1
 40
1.0
176
     1
 90
        0
176
     1
 62
   178
420
        0
176
     1
 90
       50
176
     1
 90
        3
176
     1
 62
     5
420
      255
176
     1
290
     0
176
     1
 90
       50
176
     1
 90
       50
176
     1
 90
       50
176
     1
290
     0
176
     1
 90
       50
176
     1
 62
   256
176
     0
 40
1.0
176
     0
 90
        2
176
     1
  1
strokes_ogs.tif
176
     1
290
     0
176
     1
 40
1.0
176
     1
 40
1.0
176
     1
  0
VISUALSTYLE
  5
3A8
102
{ACAD_REACTORS
330
3A5
102
}
330
3A5
100
AcDbVisualStyle
  2
Gouraud
 70
     2
177
     3
291
     1
 70
    58
 90
        2
176
     1
 90
        2
176
     1
 90
        1
176
     1
 90
        2
176
     1
 40
0.6
176
     1
 40
30.0
176
     1
 62
     7
420
 16777215
176
     1
 90
        0
176
     1
 90
        4
176
     1
 62
     7
176
     1
 62
   257
176
     1
 90
        1
176
     1
 90
        1
176
     1
 40
1.0
176
     1
 90
        0
176
     1
 62
     7
176
     1
 40
1.0
176
     1
 90
        1
176
     1
 90
        6
176
     1
 90
        2
176
     1
 62
     7
176
     1
 90
        5
176
     1
 90
        0
176
     1
 90
        0
176
     1
290
     0
176
     1
 90
       13
176
     1
 40
0.0
176
     1
 90
        0
176
     1
290
     0
176
     1
290
     1
176
     1
290
     1
176
     1
290
     0
176
     1
290
     0
176
     1
290
     0
176
     1
290
     0
176
     1
290
     0
176
     1
290
     0
176
     1
 90
       50
176
     1
 40
0.0
176
     1
 40
1.0
176
     1
 90
        0
176
     1
 62
   178
420
        0
176
     1
 90
       50
176
     1
 90
        3
176
     1
 62
     5
420
      255
176
     1
290
     0
176
     1
 90
       50
176
     1
 90
       50
176
     1
 90
       50
176
     1
290
     0
176
     1
 90
       50
176
     1
 62
   256
176
     0
 40
1.0
176
     0
 90
        2
176
     1
  1
strokes_ogs.tif
176
     1
290
     0
176
     1
 40
1.0
176
     1
 40
1.0
176
     1
  0
VISUALSTYLE
  5
3A9
102
{ACAD_REACTORS
330
3A5
102
}
330
3A5
100
AcDbVisualStyle
  2
GouraudWithEdges
 70
     3
177
     3
291
     1
 70
    58
 90
        2
176
     1
 90
        2
176
     1
 90
        1
176
     1
 90
        2
176
     1
 40
0.6
176
     1
 40
30.0
176
     1
 62
     7
420
 16777215
176
     1
 90
        1
176
     1
 90
        4
176
     1
 62
     7
176
     1
 62
   257
176
     1
 90
        1
176
     1
 90
        1
176
     1
 40
1.0
176
     1
 90
        0
176
     1
 62
   257
176
     1
 40
1.0
176
     1
 90
        1
176
     1
 90
        6
176
     1
 90
        2
176
     1
 62
     7
176
     1
 90
        5
176
     1
 90
        0
176
     1
 90
        0
176
     1
290
     0
176
     1
 90
       13
176
     1
 40
0.0
176
     1
 90
        0
176
     1
290
     0
176
     1
290
     1
176
     1
290
     1
176
     1
290
     0
176
     1
290
     0
176
     1
290
     0
176
     1
290
     0
176
     1
290
     0
176
     1
290
     0
176
     1
 90
       50
176
     1
 40
0.0
176
     1
 40
1.0
176
     1
 90
        0
176
     1
 62
   178
420
        0
176
     1
 90
       50
176
     1
 90
        3
176
     1
 62
     5
420
      255
176
     1
290
     0
176
     1
 90
       50
176
     1
 90
       50
176
     1
 90
       50
176
     1
290
     0
176
     1
 90
       50
176
     1
 62
   256
176
     0
 40
1.0
176
     0
 90
        2
176
     1
  1
strokes_ogs.tif
176
     1
290
     0
176
     1
 40
1.0
176
     1
 40
1.0
176
     1
  0
VISUALSTYLE
  5
1BCA
102
{ACAD_REACTORS
330
3A5
102
}
330
3A5
100
AcDbVisualStyle
  2
Hidden
 70
     6
177
     3
291
     0
 70
    58
 90
        1
176
     1
 90
        2
176
     1
 90
        2
176
     1
 90
        0
176
     1
 40
0.6
176
     1
 40
30.0
176
     1
 62
     7
420
 16777215
176
     1
 90
        2
176
     1
 90
        2
176
     1
 62
     7
176
     1
 62
   257
176
     1
 90
        2
176
     1
 90
        1
176
     1
 40
40.0
176
     1
 90
        0
176
     1
 62
   257
176
     1
 40
1.0
176
     1
 90
        1
176
     1
 90
        6
176
     1
 90
        2
176
     1
 62
     7
176
     1
 90
        3
176
     1
 90
        0
176
     1
 90
        0
176
     1
290
     0
176
     1
 90
        1
176
     1
 40
0.0
176
     1
 90
        0
176
     1
290
     0
176
     1
290
     1
176
     1
290
     1
176
     1
290
     0
176
     1
290
     0
176
     1
290
     0
176
     1
290
     0
176
     1
290
     0
176
     1
290
     0
176
     1
 90
       50
176
     1
 40
0.0
176
     1
 40
1.0
176
     1
 90
        0
176
     1
 62
   178
420
        0
176
     1
 90
       50
176
     1
 90
        3
176
     1
 62
     5
420
      255
176
     1
290
     0
176
     1
 90
       50
176
     1
 90
       50
176
     1
 90
       50
176
     1
290
     0
176
     1
 90
       50
176
     1
 62
   256
176
     0
 40
1.0
176
     0
 90
        2
176
     1
  1
strokes_ogs.tif
176
     1
290
     0
176
     1
 40
1.0
176
     1
 40
1.0
176
     1
  0
VISUALSTYLE
  5
1BBD
102
{ACAD_REACTORS
330
3A5
102
}
330
3A5
100
AcDbVisualStyle
  2
JitterOff
 70
    20
177
     3
291
     1
 70
    58
 90
        2
176
     0
 90
        2
176
     0
 90
        0
176
     0
 90
        0
176
     0
 40
0.6
176
     0
 40
30.0
176
     0
 62
     7
420
 16777215
176
     0
 90
        1
176
     0
 90
        4
176
     0
 62
     7
176
     0
 62
   257
176
     0
 90
        1
176
     0
 90
        1
176
     0
 40
1.0
176
     0
 90
       10
176
     2
 62
     7
176
     0
 40
1.0
176
     0
 90
        1
176
     0
 90
        6
176
     0
 90
        2
176
     0
 62
     7
176
     0
 90
        5
176
     0
 90
        0
176
     0
 90
        0
176
     0
290
     0
176
     0
 90
        1
176
     0
 40
0.0
176
     0
 90
        0
176
     0
290
     0
176
     1
290
     1
176
     1
290
     1
176
     1
290
     0
176
     1
290
     0
176
     1
290
     0
176
     1
290
     0
176
     1
290
     0
176
     1
290
     0
176
     1
 90
       50
176
     1
 40
0.0
176
     1
 40
1.0
176
     1
 90
        0
176
     1
 62
   178
420
        0
176
     1
 90
       50
176
     1
 90
        3
176
     1
 62
     5
420
      255
176
     1
290
     0
176
     1
 90
       50
176
     1
 90
       50
176
     1
 90
       50
176
     1
290
     0
176
     1
 90
       50
176
     1
 62
   256
176
     0
 40
1.0
176
     0
 90
        2
176
     1
  1
strokes_ogs.tif
176
     1
290
     0
176
     1
 40
1.0
176
     1
 40
1.0
176
     1
  0
VISUALSTYLE
  5
3B3
102
{ACAD_REACTORS
330
3A5
102
}
330
3A5
100
AcDbVisualStyle
  2
Linepattern
 70
    14
177
     3
291
     1
 70
    58
 90
        2
176
     1
 90
        2
176
     1
 90
        0
176
     1
 90
        0
176
     1
 40
0.6
176
     1
 40
30.0
176
     1
 62
     7
420
 16777215
176
     1
 90
        1
176
     1
 90
        4
176
     1
 62
     7
176
     1
 62
   257
176
     1
 90
        7
176
     1
 90
        7
176
     1
 40
1.0
176
     1
 90
        8
176
     1
 62
     7
176
     1
 40
1.0
176
     1
 90
        1
176
     1
 90
        6
176
     1
 90
        2
176
     1
 62
     7
176
     1
 90
        5
176
     1
 90
        0
176
     1
 90
        0
176
     1
290
     0
176
     1
 90
        1
176
     1
 40
0.0
176
     1
 90
        0
176
     1
290
     0
176
     1
290
     1
176
     1
290
     1
176
     1
290
     0
176
     1
290
     0
176
     1
290
     0
176
     1
290
     0
176
     1
290
     0
176
     1
290
     0
176
     1
 90
       50
176
     1
 40
0.0
176
     1
 40
1.0
176
     1
 90
        0
176
     1
 62
   178
420
        0
176
     1
 90
       50
176
     1
 90
        3
176
     1
 62
     5
420
      255
176
     1
290
     0
176
     1
 90
       50
176
     1
 90
       50
176
     1
 90
       50
176
     1
290
     0
176
     1
 90
       50
176
     1
 62
   256
176
     0
 40
1.0
176
     0
 90
        2
176
     1
  1
strokes_ogs.tif
176
     1
290
     0
176
     1
 40
1.0
176
     1
 40
1.0
176
     1
  0
VISUALSTYLE
  5
1BBE
102
{ACAD_REACTORS
330
3A5
102
}
330
3A5
100
AcDbVisualStyle
  2
OverhangOff
 70
    21
177
     3
291
     1
 70
    58
 90
        2
176
     0
 90
        2
176
     0
 90
        0
176
     0
 90
        0
176
     0
 40
0.6
176
     0
 40
30.0
176
     0
 62
     7
420
 16777215
176
     0
 90
        1
176
     0
 90
        4
176
     0
 62
     7
176
     0
 62
   257
176
     0
 90
        1
176
     0
 90
        1
176
     0
 40
1.0
176
     0
 90
        9
176
     2
 62
     7
176
     0
 40
1.0
176
     0
 90
        1
176
     0
 90
        6
176
     0
 90
        2
176
     0
 62
     7
176
     0
 90
        5
176
     0
 90
        0
176
     0
 90
        0
176
     0
290
     0
176
     0
 90
        1
176
     0
 40
0.0
176
     0
 90
        0
176
     0
290
     0
176
     1
290
     1
176
     1
290
     1
176
     1
290
     0
176
     1
290
     0
176
     1
290
     0
176
     1
290
     0
176
     1
290
     0
176
     1
290
     0
176
     1
 90
       50
176
     1
 40
0.0
176
     1
 40
1.0
176
     1
 90
        0
176
     1
 62
   178
420
        0
176
     1
 90
       50
176
     1
 90
        3
176
     1
 62
     5
420
      255
176
     1
290
     0
176
     1
 90
       50
176
     1
 90
       50
176
     1
 90
       50
176
     1
290
     0
176
     1
 90
       50
176
     1
 62
   256
176
     0
 40
1.0
176
     0
 90
        2
176
     1
  1
strokes_ogs.tif
176
     1
290
     0
176
     1
 40
1.0
176
     1
 40
1.0
176
     1
  0
VISUALSTYLE
  5
3AE
102
{ACAD_REACTORS
330
3A5
102
}
330
3A5
100
AcDbVisualStyle
  2
Realistic
 70
     8
177
     3
291
     0
 70
    58
 90
        2
176
     1
 90
        2
176
     1
 90
        0
176
     1
 90
        0
176
     1
 40
0.6
176
     1
 40
30.0
176
     1
 62
     7
420
 16777215
176
     1
 90
        1
176
     1
 90
        0
176
     1
 62
     7
176
     1
 62
   257
176
     1
 90
        1
176
     1
 90
        1
176
     1
 40
1.0
176
     1
 90
        8
176
     1
 62
     8
420
  7895160
176
     1
 40
1.0
176
     1
 90
        1
176
     1
 90
        6
176
     1
 90
        2
176
     1
 62
     7
176
     1
 90
        5
176
     1
 90
        0
176
     1
 90
        0
176
     1
290
     0
176
     1
 90
       13
176
     1
 40
0.0
176
     1
 90
        0
176
     1
290
     0
176
     1
290
     1
176
     1
290
     1
176
     1
290
     0
176
     1
290
     0
176
     1
290
     0
176
     1
290
     0
176
     1
290
     0
176
     1
290
     0
176
     1
 90
       50
176
     1
 40
0.0
176
     1
 40
1.0
176
     1
 90
        0
176
     1
 62
   178
420
        0
176
     1
 90
       50
176
     1
 90
        3
176
     1
 62
     5
420
      255
176
     1
290
     0
176
     1
 90
       50
176
     1
 90
       50
176
     1
 90
       50
176
     1
290
     0
176
     1
 90
       50
176
     1
 62
   256
176
     0
 40
1.0
176
     0
 90
        2
176
     1
  1
strokes_ogs.tif
176
     1
290
     0
176
     1
 40
1.0
176
     1
 40
1.0
176
     1
  0
VISUALSTYLE
  5
1BCF
102
{ACAD_REACTORS
330
3A5
102
}
330
3A5
100
AcDbVisualStyle
  2
Shaded
 70
    27
177
     3
291
     0
 70
    58
 90
        2
176
     1
 90
        2
176
     1
 90
        1
176
     1
 90
        2
176
     1
 40
0.6
176
     1
 40
30.0
176
     1
 62
     7
420
 16777215
176
     1
 90
        0
176
     1
 90
        4
176
     1
 62
     7
176
     1
 62
   257
176
     1
 90
        1
176
     1
 90
        1
176
     1
 40
1.0
176
     1
 90
        8
176
     1
 62
   257
176
     1
 40
1.0
176
     1
 90
        1
176
     1
 90
        6
176
     1
 90
        2
176
     1
 62
     8
420
  7895160
176
     1
 90
        3
176
     1
 90
        0
176
     1
 90
        0
176
     1
290
     0
176
     1
 90
        5
176
     1
 40
0.0
176
     1
 90
        0
176
     1
290
     0
176
     1
290
     1
176
     1
290
     1
176
     1
290
     0
176
     1
290
     0
176
     1
290
     0
176
     1
290
     0
176
     1
290
     0
176
     1
290
     0
176
     1
 90
       50
176
     1
 40
0.0
176
     1
 40
1.0
176
     1
 90
        0
176
     1
 62
   178
420
        0
176
     1
 90
       50
176
     1
 90
        3
176
     1
 62
     5
420
      255
176
     1
290
     0
176
     1
 90
       50
176
     1
 90
       50
176
     1
 90
       50
176
     1
290
     0
176
     1
 90
       50
176
     1
 62
   256
176
     0
 40
1.0
176
     0
 90
        2
176
     1
  1
strokes_ogs.tif
176
     1
290
     0
176
     1
 40
1.0
176
     1
 40
1.0
176
     1
  0
VISUALSTYLE
  5
1BCE
102
{ACAD_REACTORS
330
3A5
102
}
330
3A5
100
AcDbVisualStyle
  2
Shaded with edges
 70
    26
177
     3
291
     0
 70
    58
 90
        2
176
     1
 90
        2
176
     1
 90
        1
176
     1
 90
        2
176
     1
 40
0.6
176
     1
 40
30.0
176
     1
 62
     7
420
 16777215
176
     1
 90
        1
176
     1
 90
       10
176
     1
 62
     7
176
     1
 62
   257
176
     1
 90
        2
176
     1
 90
        1
176
     1
 40
1.0
176
     1
 90
        8
176
     1
 62
   257
176
     1
 40
1.0
176
     1
 90
        1
176
     1
 90
        6
176
     1
 90
        2
176
     1
 62
     7
176
     1
 90
        3
176
     1
 90
        0
176
     1
 90
        0
176
     1
290
     0
176
     1
 90
        5
176
     1
 40
0.0
176
     1
 90
        0
176
     1
290
     0
176
     1
290
     1
176
     1
290
     1
176
     1
290
     0
176
     1
290
     0
176
     1
290
     0
176
     1
290
     0
176
     1
290
     0
176
     1
290
     0
176
     1
 90
       50
176
     1
 40
0.0
176
     1
 40
1.0
176
     1
 90
        0
176
     1
 62
   178
420
        0
176
     1
 90
       50
176
     1
 90
        3
176
     1
 62
     5
420
      255
176
     1
290
     0
176
     1
 90
       50
176
     1
 90
       50
176
     1
 90
       50
176
     1
290
     0
176
     1
 90
       50
176
     1
 62
   256
176
     0
 40
1.0
176
     0
 90
        2
176
     1
  1
strokes_ogs.tif
176
     1
290
     0
176
     1
 40
1.0
176
     1
 40
1.0
176
     1
  0
VISUALSTYLE
  5
1BCB
102
{ACAD_REACTORS
330
3A5
102
}
330
3A5
100
AcDbVisualStyle
  2
Shades of Gray
 70
    23
177
     3
291
     0
 70
    58
 90
        2
176
     1
 90
        2
176
     1
 90
        3
176
     1
 90
        0
176
     1
 40
0.6
176
     1
 40
30.0
176
     1
 62
     7
420
 16777215
176
     1
 90
        2
176
     1
 90
        2
176
     1
 62
     7
176
     1
 62
     7
176
     1
 90
        1
176
     1
 90
        1
176
     1
 40
40.0
176
     1
 90
        8
176
     1
 62
     7
176
     1
 40
1.0
176
     1
 90
        1
176
     1
 90
        6
176
     1
 90
        2
176
     1
 62
     7
176
     1
 90
        3
176
     1
 90
        0
176
     1
 90
        0
176
     1
290
     0
176
     1
 90
        1
176
     1
 40
0.0
176
     1
 90
        0
176
     1
290
     0
176
     1
290
     1
176
     1
290
     1
176
     1
290
     0
176
     1
290
     0
176
     1
290
     0
176
     1
290
     0
176
     1
290
     0
176
     1
290
     0
176
     1
 90
       50
176
     1
 40
0.0
176
     1
 40
1.0
176
     1
 90
        0
176
     1
 62
   178
420
        0
176
     1
 90
       50
176
     1
 90
        3
176
     1
 62
     5
420
      255
176
     1
290
     0
176
     1
 90
       50
176
     1
 90
       50
176
     1
 90
       50
176
     1
290
     0
176
     1
 90
       50
176
     1
 62
   256
176
     0
 40
1.0
176
     0
 90
        2
176
     1
  1
strokes_ogs.tif
176
     1
290
     0
176
     1
 40
1.0
176
     1
 40
1.0
176
     1
  0
VISUALSTYLE
  5
1BCC
102
{ACAD_REACTORS
330
3A5
102
}
330
3A5
100
AcDbVisualStyle
  2
Sketchy
 70
    24
177
     3
291
     0
 70
    58
 90
        1
176
     1
 90
        2
176
     1
 90
        2
176
     1
 90
        0
176
     1
 40
0.6
176
     1
 40
30.0
176
     1
 62
     7
420
 16777215
176
     1
 90
        2
176
     1
 90
        2
176
     1
 62
     7
176
     1
 62
     7
176
     1
 90
        1
176
     1
 90
        1
176
     1
 40
40.0
176
     1
 90
       11
176
     1
 62
     7
176
     1
 40
1.0
176
     1
 90
        1
176
     1
 90
        6
176
     1
 90
        2
176
     1
 62
     7
176
     1
 90
        6
176
     1
 90
        0
176
     1
 90
        0
176
     1
290
     0
176
     1
 90
        1
176
     1
 40
0.0
176
     1
 90
        0
176
     1
290
     0
176
     1
290
     1
176
     1
290
     1
176
     1
290
     0
176
     1
290
     0
176
     1
290
     0
176
     1
290
     0
176
     1
290
     0
176
     1
290
     0
176
     1
 90
       50
176
     1
 40
0.0
176
     1
 40
1.0
176
     1
 90
        0
176
     1
 62
   178
420
        0
176
     1
 90
       50
176
     1
 90
        3
176
     1
 62
     5
420
      255
176
     1
290
     0
176
     1
 90
       50
176
     1
 90
       50
176
     1
 90
       50
176
     1
290
     0
176
     1
 90
       50
176
     1
 62
   256
176
     0
 40
1.0
176
     0
 90
        2
176
     1
  1
strokes_ogs.tif
176
     1
290
     0
176
     1
 40
1.0
176
     1
 40
1.0
176
     1
  0
VISUALSTYLE
  5
3B2
102
{ACAD_REACTORS
330
3A5
102
}
330
3A5
100
AcDbVisualStyle
  2
Thicken
 70
    13
177
     3
291
     1
 70
    58
 90
        2
176
     1
 90
        2
176
     1
 90
        0
176
     1
 90
        0
176
     1
 40
0.6
176
     1
 40
30.0
176
     1
 62
     7
420
 16777215
176
     1
 90
        1
176
     1
 90
        4
176
     1
 62
     7
176
     1
 62
   257
176
     1
 90
        1
176
     1
 90
        1
176
     1
 40
1.0
176
     1
 90
       12
176
     1
 62
     7
176
     1
 40
1.0
176
     1
 90
        1
176
     1
 90
        6
176
     1
 90
        2
176
     1
 62
     7
176
     1
 90
        5
176
     1
 90
        0
176
     1
 90
        0
176
     1
290
     0
176
     1
 90
        1
176
     1
 40
0.0
176
     1
 90
        0
176
     1
290
     0
176
     1
290
     1
176
     1
290
     1
176
     1
290
     0
176
     1
290
     0
176
     1
290
     0
176
     1
290
     0
176
     1
290
     0
176
     1
290
     0
176
     1
 90
       50
176
     1
 40
0.0
176
     1
 40
1.0
176
     1
 90
        0
176
     1
 62
   178
420
        0
176
     1
 90
       50
176
     1
 90
        3
176
     1
 62
     5
420
      255
176
     1
290
     0
176
     1
 90
       50
176
     1
 90
       50
176
     1
 90
       50
176
     1
290
     0
176
     1
 90
       50
176
     1
 62
   256
176
     0
 40
1.0
176
     0
 90
        2
176
     1
  1
strokes_ogs.tif
176
     1
290
     0
176
     1
 40
1.0
176
     1
 40
1.0
176
     1
  0
VISUALSTYLE
  5
1BC9
102
{ACAD_REACTORS
330
3A5
102
}
330
3A5
100
AcDbVisualStyle
  2
Wireframe
 70
     5
177
     3
291
     0
 70
    58
 90
        0
176
     1
 90
        2
176
     1
 90
        0
176
     1
 90
        0
176
     1
 40
0.6
176
     1
 40
30.0
176
     1
 62
     7
420
 16777215
176
     1
 90
        1
176
     1
 90
        4
176
     1
 62
     7
176
     1
 62
   257
176
     1
 90
        1
176
     1
 90
        1
176
     1
 40
1.0
176
     1
 90
        0
176
     1
 62
   257
176
     1
 40
1.0
176
     1
 90
        1
176
     1
 90
        6
176
     1
 90
        2
176
     1
 62
     7
176
     1
 90
        3
176
     1
 90
        0
176
     1
 90
        0
176
     1
290
     0
176
     1
 90
        1
176
     1
 40
0.0
176
     1
 90
        0
176
     1
290
     0
176
     1
290
     1
176
     1
290
     1
176
     1
290
     0
176
     1
290
     0
176
     1
290
     0
176
     1
290
     0
176
     1
290
     0
176
     1
290
     0
176
     1
 90
       50
176
     1
 40
0.0
176
     1
 40
1.0
176
     1
 90
        0
176
     1
 62
   178
420
        0
176
     1
 90
       50
176
     1
 90
        3
176
     1
 62
     5
420
      255
176
     1
290
     0
176
     1
 90
       50
176
     1
 90
       50
176
     1
 90
       50
176
     1
290
     0
176
     1
 90
       50
176
     1
 62
   256
176
     0
 40
1.0
176
     0
 90
        2
176
     1
  1
strokes_ogs.tif
176
     1
290
     0
176
     1
 40
1.0
176
     1
 40
1.0
176
     1
  0
VISUALSTYLE
  5
1BCD
102
{ACAD_REACTORS
330
3A5
102
}
330
3A5
100
AcDbVisualStyle
  2
X-Ray
 70
    25
177
     3
291
     0
 70
    58
 90
        2
176
     1
 90
        2
176
     1
 90
        1
176
     1
 90
        1
176
     1
 40
0.5
176
     1
 40
30.0
176
     1
 62
     7
420
 16777215
176
     1
 90
        1
176
     1
 90
        0
176
     1
 62
     7
176
     1
 62
   257
176
     1
 90
        1
176
     1
 90
        1
176
     1
 40
1.0
176
     1
 90
        8
176
     1
 62
     7
176
     1
 40
1.0
176
     1
 90
        1
176
     1
 90
        6
176
     1
 90
        2
176
     1
 62
     7
176
     1
 90
        3
176
     1
 90
        0
176
     1
 90
        0
176
     1
290
     0
176
     1
 90
       13
176
     1
 40
0.0
176
     1
 90
        0
176
     1
290
     0
176
     1
290
     1
176
     1
290
     1
176
     1
290
     0
176
     1
290
     0
176
     1
290
     0
176
     1
290
     0
176
     1
290
     0
176
     1
290
     0
176
     1
 90
       50
176
     1
 40
0.0
176
     1
 40
1.0
176
     1
 90
        0
176
     1
 62
   178
420
        0
176
     1
 90
       50
176
     1
 90
        3
176
     1
 62
     5
420
      255
176
     1
290
     0
176
     1
 90
       50
176
     1
 90
       50
176
     1
 90
       50
176
     1
290
     0
176
     1
 90
       50
176
     1
 62
   256
176
     0
 40
1.0
176
     0
 90
        2
176
     1
  1
strokes_ogs.tif
176
     1
290
     0
176
     1
 40
1.0
176
     1
 40
1.0
176
     1
  0
DICTIONARYVAR
  5
1BB9
102
{ACAD_REACTORS
330
1BB8
102
}
330
1BB8
100
DictionaryVariables
280
     0
  1
1:1
  0
DICTIONARYVAR
  5
1BC5
102
{ACAD_REACTORS
330
1BB8
102
}
330
1BB8
100
DictionaryVariables
280
     0
  1
Standard
  0
DICTIONARYVAR
  5
1BBA
102
{ACAD_REACTORS
330
1BB8
102
}
330
1BB8
100
DictionaryVariables
280
     0
  1
Standard
  0
DICTIONARY
  5
1BD5
330
3B7
100
AcDbDictionary
280
     1
281
     1
  3
ACAD_ROUNDTRIP_2008_TABLESTYLE_CELLSTYLEMAP
360
1BD6
  0
CELLSTYLEMAP
  5
1BD6
102
{ACAD_REACTORS
330
1BD5
102
}
330
1BD5
100
AcDbCellStyleMap
 90
        3
300
CELLSTYLE
  1
TABLEFORMAT_BEGIN
 90
        5
170
     1
 91
        0
 92
        0
 62
   257
 93
        1
300
CONTENTFORMAT
  1
CONTENTFORMAT_BEGIN
 90
        0
 91
        0
 92
        4
 93
        0
300

 40
0.0
140
1.0
 94
        5
 62
     0
340
11
144
6.0
309
CONTENTFORMAT_END
171
     1
301
MARGIN
  1
CELLMARGIN_BEGIN
 40
1.5
 40
1.5
 40
1.5
 40
1.5
 40
1.5
 40
1.5
309
CELLMARGIN_END
 94
        6
 95
        1
302
GRIDFORMAT
  1
GRIDFORMAT_BEGIN
 90
        0
 91
        1
 62
     0
 92
       -2
340
14
 93
        0
 40
0.045
309
GRIDFORMAT_END
 95
        2
302
GRIDFORMAT
  1
GRIDFORMAT_BEGIN
 90
        0
 91
        1
 62
     0
 92
       -2
340
14
 93
        0
 40
0.045
309
GRIDFORMAT_END
 95
        4
302
GRIDFORMAT
  1
GRIDFORMAT_BEGIN
 90
        0
 91
        1
 62
     0
 92
       -2
340
14
 93
        0
 40
0.045
309
GRIDFORMAT_END
 95
        8
302
GRIDFORMAT
  1
GRIDFORMAT_BEGIN
 90
        0
 91
        1
 62
     0
 92
       -2
340
14
 93
        0
 40
0.045
309
GRIDFORMAT_END
 95
       16
302
GRIDFORMAT
  1
GRIDFORMAT_BEGIN
 90
        0
 91
        1
 62
     0
 92
       -2
340
14
 93
        0
 40
0.045
309
GRIDFORMAT_END
 95
       32
302
GRIDFORMAT
  1
GRIDFORMAT_BEGIN
 90
        0
 91
        1
 62
     0
 92
       -2
340
14
 93
        0
 40
0.045
309
GRIDFORMAT_END
309
TABLEFORMAT_END
  1
CELLSTYLE_BEGIN
 90
        1
 91
        1
300
_TITLE
309
CELLSTYLE_END
300
CELLSTYLE
  1
TABLEFORMAT_BEGIN
 90
        5
170
     1
 91
        0
 92
        0
 62
   257
 93
        1
300
CONTENTFORMAT
  1
CONTENTFORMAT_BEGIN
 90
        0
 91
        0
 92
        4
 93
        0
300

 40
0.0
140
1.0
 94
        5
 62
     0
340
11
144
4.5
309
CONTENTFORMAT_END
171
     1
301
MARGIN
  1
CELLMARGIN_BEGIN
 40
1.5
 40
1.5
 40
1.5
 40
1.5
 40
1.5
 40
1.5
309
CELLMARGIN_END
 94
        6
 95
        1
302
GRIDFORMAT
  1
GRIDFORMAT_BEGIN
 90
        0
 91
        1
 62
     0
 92
       -2
340
14
 93
        0
 40
0.045
309
GRIDFORMAT_END
 95
        2
302
GRIDFORMAT
  1
GRIDFORMAT_BEGIN
 90
        0
 91
        1
 62
     0
 92
       -2
340
14
 93
        0
 40
0.045
309
GRIDFORMAT_END
 95
        4
302
GRIDFORMAT
  1
GRIDFORMAT_BEGIN
 90
        0
 91
        1
 62
     0
 92
       -2
340
14
 93
        0
 40
0.045
309
GRIDFORMAT_END
 95
        8
302
GRIDFORMAT
  1
GRIDFORMAT_BEGIN
 90
        0
 91
        1
 62
     0
 92
       -2
340
14
 93
        0
 40
0.045
309
GRIDFORMAT_END
 95
       16
302
GRIDFORMAT
  1
GRIDFORMAT_BEGIN
 90
        0
 91
        1
 62
     0
 92
       -2
340
14
 93
        0
 40
0.045
309
GRIDFORMAT_END
 95
       32
302
GRIDFORMAT
  1
GRIDFORMAT_BEGIN
 90
        0
 91
        1
 62
     0
 92
       -2
340
14
 93
        0
 40
0.045
309
GRIDFORMAT_END
309
TABLEFORMAT_END
  1
CELLSTYLE_BEGIN
 90
        2
 91
        1
300
_HEADER
309
CELLSTYLE_END
300
CELLSTYLE
  1
TABLEFORMAT_BEGIN
 90
        5
170
     1
 91
        0
 92
        0
 62
   257
 93
        1
300
CONTENTFORMAT
  1
CONTENTFORMAT_BEGIN
 90
        0
 91
        0
 92
        4
 93
        0
300

 40
0.0
140
1.0
 94
        2
 62
     0
340
11
144
4.5
309
CONTENTFORMAT_END
171
     1
301
MARGIN
  1
CELLMARGIN_BEGIN
 40
1.5
 40
1.5
 40
1.5
 40
1.5
 40
1.5
 40
1.5
309
CELLMARGIN_END
 94
        6
 95
        1
302
GRIDFORMAT
  1
GRIDFORMAT_BEGIN
 90
        0
 91
        1
 62
     0
 92
       -2
340
14
 93
        0
 40
0.045
309
GRIDFORMAT_END
 95
        2
302
GRIDFORMAT
  1
GRIDFORMAT_BEGIN
 90
        0
 91
        1
 62
     0
 92
       -2
340
14
 93
        0
 40
0.045
309
GRIDFORMAT_END
 95
        4
302
GRIDFORMAT
  1
GRIDFORMAT_BEGIN
 90
        0
 91
        1
 62
     0
 92
       -2
340
14
 93
        0
 40
0.045
309
GRIDFORMAT_END
 95
        8
302
GRIDFORMAT
  1
GRIDFORMAT_BEGIN
 90
        0
 91
        1
 62
     0
 92
       -2
340
14
 93
        0
 40
0.045
309
GRIDFORMAT_END
 95
       16
302
GRIDFORMAT
  1
GRIDFORMAT_BEGIN
 90
        0
 91
        1
 62
     0
 92
       -2
340
14
 93
        0
 40
0.045
309
GRIDFORMAT_END
 95
       32
302
GRIDFORMAT
  1
GRIDFORMAT_BEGIN
 90
        0
 91
        1
 62
     0
 92
       -2
340
14
 93
        0
 40
0.045
309
GRIDFORMAT_END
309
TABLEFORMAT_END
  1
CELLSTYLE_BEGIN
 90
        3
 91
        2
300
_DATA
309
CELLSTYLE_END
  0
ENDSEC
  0
EOF
