  0
SECTION
  2
HEADER
  9
$ACADVER
  1
AC1014
  9
$HANDSEED
  5
FFFF
  9
$MEASUREMENT
 70
     1
  0
ENDSEC
  0
SECTION
  2
TABLES
  0
TABLE
  2
VPORT
  5
8
330
0
100
AcDbSymbolTable
 70
     4
  0
VPORT
  5
2E
330
8
100
AcDbSymbolTableRecord
100
AcDbViewportTableRecord
  2
*ACTIVE
 70
     0
 10
0.0
 20
0.0
 11
1.0
 21
1.0
 12
210.0
 22
148.5
 13
0.0
 23
0.0
 14
10.0
 24
10.0
 15
10.0
 25
10.0
 16
0.0
 26
0.0
 36
1.0
 17
0.0
 27
0.0
 37
0.0
 40
341.0
 41
1.24
 42
50.0
 43
0.0
 44
0.0
 50
0.0
 51
0.0
 71
     0
 72
   100
 73
     1
 74
     3
 75
     0
 76
     0
 77
     0
 78
     0
  0
ENDTAB
  0
TABLE
  2
LTYPE
  5
5
330
0
100
AcDbSymbolTable
 70
     1
  0
LTYPE
  5
14
330
5
100
AcDbSymbolTableRecord
100
AcDbLinetypeTableRecord
  2
BYBLOCK
 70
     0
  3

 72
    65
 73
     0
 40
0.0
  0
LTYPE
  5
15
330
5
100
AcDbSymbolTableRecord
100
AcDbLinetypeTableRecord
  2
BYLAYER
 70
     0
  3

 72
    65
 73
     0
 40
0.0
  0
LTYPE
  5
16
330
5
100
AcDbSymbolTableRecord
100
AcDbLinetypeTableRecord
  2
CONTINUOUS
 70
     0
  3
Solid line
 72
    65
 73
     0
 40
0.0
  0
ENDTAB
  0
TABLE
  2
LAYER
  5
2
100
AcDbSymbolTable
 70
2
  0
LAYER
  5
50
100
AcDbSymbolTableRecord
100
AcDbLayerTableRecord
  2
0
 70
0
  6
CONTINUOUS
  0
LAYER
  5
51
100
AcDbSymbolTableRecord
100
AcDbLayerTableRecord
  2
FORMAT
 70
0
  6
CONTINUOUS
  0
ENDTAB
  0
TABLE
  2
STYLE
  5
3
330
0
100
AcDbSymbolTable
 70
     1
  0
STYLE
  5
11
330
3
100
AcDbSymbolTableRecord
100
AcDbTextStyleTableRecord
  2
STANDARD
 70
     0
 40
0.0
 41
1.0
 50
0.0
 71
     0
 42
2.5
  3
txt
  4

  0
ENDTAB
  0
TABLE
  2
VIEW
  5
6
330
0
100
AcDbSymbolTable
 70
     0
  0
ENDTAB
  0
TABLE
  2
UCS
  5
7
330
0
100
AcDbSymbolTable
 70
     0
  0
ENDTAB
  0
TABLE
  2
APPID
  5
9
330
0
100
AcDbSymbolTable
 70
     2
  0
APPID
  5
12
330
9
100
AcDbSymbolTableRecord
100
AcDbRegAppTableRecord
  2
ACAD
 70
     0
  0
ENDTAB
  0
TABLE
  2
DIMSTYLE
  5
A
330
0
100
AcDbSymbolTable
 70
     1
  0
DIMSTYLE
105
27
330
A
100
AcDbSymbolTableRecord
100
AcDbDimStyleTableRecord
  2
ISO-25
 70
     0
  3

  4

  5

  6

  7

 40
1.0
 41
2.5
 42
0.625
 43
3.75
 44
1.25
 45
0.0
 46
0.0
 47
0.0
 48
0.0
140
2.5
141
2.5
142
0.0
143
0.03937007874016
144
1.0
145
0.0
146
1.0
147
0.625
 71
     0
 72
     0
 73
     0
 74
     0
 75
     0
 76
     0
 77
     1
 78
     8
170
     0
171
     3
172
     1
173
     0
174
     0
175
     0
176
     0
177
     0
178
     0
270
     2
271
     2
272
     2
273
     2
274
     3
340
11
275
     0
280
     0
281
     0
282
     0
283
     0
284
     8
285
     0
286
     0
287
     3
288
     0
  0
ENDTAB
  0
TABLE
  2
BLOCK_RECORD
  5
1
330
0
100
AcDbSymbolTable
 70
     1
  0
BLOCK_RECORD
  5
1F
330
1
100
AcDbSymbolTableRecord
100
AcDbBlockTableRecord
  2
*MODEL_SPACE
  0
BLOCK_RECORD
  5
1B
330
1
100
AcDbSymbolTableRecord
100
AcDbBlockTableRecord
  2
*PAPER_SPACE
  0
ENDTAB
  0
ENDSEC
  0
SECTION
  2
BLOCKS
  0
BLOCK
  5
20
330
1F
100
AcDbEntity
  8
0
100
AcDbBlockBegin
  2
*MODEL_SPACE
 70
     0
 10
0.0
 20
0.0
 30
0.0
  3
*MODEL_SPACE
  1

  0
ENDBLK
  5
21
330
1F
100
AcDbEntity
  8
0
100
AcDbBlockEnd
  0
BLOCK
  5
1C
330
1B
100
AcDbEntity
 67
     1
  8
0
100
AcDbBlockBegin
  2
*PAPER_SPACE
  1

  0
ENDBLK
  5
1D
330
1B
100
AcDbEntity
 67
     1
  8
0
100
AcDbBlockEnd
  0
ENDSEC
  0
SECTION
  2
ENTITIES
  0
SPLINE
  5
100
100
AcDbEntity
  8
0
 62
7
100
AcDbSpline
 70
8
 71
3
 72
8
 73
4
 74
0
 40
0
 40
0
 40
0
 40
0
 40
1
 40
1
 40
1
 40
1
 10
116.487513
 20
309.910544
 30
0.0
 10
116.487513
 20
310.482169
 30
0.0
 10
116.182555
 20
311.010372
 30
0.0
 10
115.687513
 20
311.296185
 30
0.0
  0
SPLINE
  5
101
100
AcDbEntity
  8
0
 62
7
100
AcDbSpline
 70
8
 71
3
 72
8
 73
4
 74
0
 40
0
 40
0
 40
0
 40
0
 40
1
 40
1
 40
1
 40
1
 10
115.687513
 20
311.296185
 30
0.0
 10
115.192471
 20
311.581997
 30
0.0
 10
114.582555
 20
311.581997
 30
0.0
 10
114.087513
 20
311.296185
 30
0.0
  0
SPLINE
  5
102
100
AcDbEntity
  8
0
 62
7
100
AcDbSpline
 70
8
 71
3
 72
8
 73
4
 74
0
 40
0
 40
0
 40
0
 40
0
 40
1
 40
1
 40
1
 40
1
 10
114.087513
 20
311.296185
 30
0.0
 10
113.592472
 20
311.010372
 30
0.0
 10
113.287513
 20
310.482169
 30
0.0
 10
113.287513
 20
309.910544
 30
0.0
  0
SPLINE
  5
103
100
AcDbEntity
  8
0
 62
7
100
AcDbSpline
 70
8
 71
3
 72
8
 73
4
 74
0
 40
0
 40
0
 40
0
 40
0
 40
1
 40
1
 40
1
 40
1
 10
113.287513
 20
309.910544
 30
0.0
 10
113.287513
 20
309.338919
 30
0.0
 10
113.592472
 20
308.810716
 30
0.0
 10
114.087513
 20
308.524903
 30
0.0
  0
SPLINE
  5
104
100
AcDbEntity
  8
0
 62
7
100
AcDbSpline
 70
8
 71
3
 72
8
 73
4
 74
0
 40
0
 40
0
 40
0
 40
0
 40
1
 40
1
 40
1
 40
1
 10
114.087513
 20
308.524903
 30
0.0
 10
114.582555
 20
308.239091
 30
0.0
 10
115.192471
 20
308.239091
 30
0.0
 10
115.687513
 20
308.524903
 30
0.0
  0
SPLINE
  5
105
100
AcDbEntity
  8
0
 62
7
100
AcDbSpline
 70
8
 71
3
 72
8
 73
4
 74
0
 40
0
 40
0
 40
0
 40
0
 40
1
 40
1
 40
1
 40
1
 10
115.687513
 20
308.524903
 30
0.0
 10
116.182555
 20
308.810716
 30
0.0
 10
116.487513
 20
309.338919
 30
0.0
 10
116.487513
 20
309.910544
 30
0.0
  0
SPLINE
  5
106
100
AcDbEntity
  8
0
 62
7
100
AcDbSpline
 70
8
 71
3
 72
8
 73
4
 74
0
 40
0
 40
0
 40
0
 40
0
 40
1
 40
1
 40
1
 40
1
 10
220.987513
 20
436.910544
 30
0.0
 10
220.987513
 20
437.482169
 30
0.0
 10
220.682555
 20
438.010372
 30
0.0
 10
220.187513
 20
438.296185
 30
0.0
  0
SPLINE
  5
107
100
AcDbEntity
  8
0
 62
7
100
AcDbSpline
 70
8
 71
3
 72
8
 73
4
 74
0
 40
0
 40
0
 40
0
 40
0
 40
1
 40
1
 40
1
 40
1
 10
220.187513
 20
438.296185
 30
0.0
 10
219.692471
 20
438.581997
 30
0.0
 10
219.082555
 20
438.581997
 30
0.0
 10
218.587513
 20
438.296185
 30
0.0
  0
SPLINE
  5
108
100
AcDbEntity
  8
0
 62
7
100
AcDbSpline
 70
8
 71
3
 72
8
 73
4
 74
0
 40
0
 40
0
 40
0
 40
0
 40
1
 40
1
 40
1
 40
1
 10
218.587513
 20
438.296185
 30
0.0
 10
218.092471
 20
438.010372
 30
0.0
 10
217.787513
 20
437.482169
 30
0.0
 10
217.787513
 20
436.910544
 30
0.0
  0
SPLINE
  5
109
100
AcDbEntity
  8
0
 62
7
100
AcDbSpline
 70
8
 71
3
 72
8
 73
4
 74
0
 40
0
 40
0
 40
0
 40
0
 40
1
 40
1
 40
1
 40
1
 10
217.787513
 20
436.910544
 30
0.0
 10
217.787513
 20
436.338919
 30
0.0
 10
218.092471
 20
435.810716
 30
0.0
 10
218.587513
 20
435.524903
 30
0.0
  0
SPLINE
  5
10a
100
AcDbEntity
  8
0
 62
7
100
AcDbSpline
 70
8
 71
3
 72
8
 73
4
 74
0
 40
0
 40
0
 40
0
 40
0
 40
1
 40
1
 40
1
 40
1
 10
218.587513
 20
435.524903
 30
0.0
 10
219.082555
 20
435.239091
 30
0.0
 10
219.692471
 20
435.239091
 30
0.0
 10
220.187513
 20
435.524903
 30
0.0
  0
SPLINE
  5
10b
100
AcDbEntity
  8
0
 62
7
100
AcDbSpline
 70
8
 71
3
 72
8
 73
4
 74
0
 40
0
 40
0
 40
0
 40
0
 40
1
 40
1
 40
1
 40
1
 10
220.187513
 20
435.524903
 30
0.0
 10
220.682555
 20
435.810716
 30
0.0
 10
220.987513
 20
436.338919
 30
0.0
 10
220.987513
 20
436.910544
 30
0.0
  0
LWPOLYLINE
  5
10c
100
AcDbEntity
  8
0
 62
7
100
AcDbPolyline
 90
2
 70
1
 10
116.487513
 20
309.910544
 30
0.0
 10
116.487513
 20
309.910544
 30
0.0
  0
SPLINE
  5
10d
100
AcDbEntity
  8
0
 62
7
100
AcDbSpline
 70
8
 71
3
 72
8
 73
4
 74
0
 40
0
 40
0
 40
0
 40
0
 40
1
 40
1
 40
1
 40
1
 10
320.987513
 20
414.410544
 30
0.0
 10
320.987513
 20
414.982169
 30
0.0
 10
320.682555
 20
415.510372
 30
0.0
 10
320.187513
 20
415.796185
 30
0.0
  0
SPLINE
  5
10e
100
AcDbEntity
  8
0
 62
7
100
AcDbSpline
 70
8
 71
3
 72
8
 73
4
 74
0
 40
0
 40
0
 40
0
 40
0
 40
1
 40
1
 40
1
 40
1
 10
320.187513
 20
415.796185
 30
0.0
 10
319.692471
 20
416.081997
 30
0.0
 10
319.082555
 20
416.081997
 30
0.0
 10
318.587513
 20
415.796185
 30
0.0
  0
SPLINE
  5
10f
100
AcDbEntity
  8
0
 62
7
100
AcDbSpline
 70
8
 71
3
 72
8
 73
4
 74
0
 40
0
 40
0
 40
0
 40
0
 40
1
 40
1
 40
1
 40
1
 10
318.587513
 20
415.796185
 30
0.0
 10
318.092471
 20
415.510372
 30
0.0
 10
317.787513
 20
414.982169
 30
0.0
 10
317.787513
 20
414.410544
 30
0.0
  0
SPLINE
  5
110
100
AcDbEntity
  8
0
 62
7
100
AcDbSpline
 70
8
 71
3
 72
8
 73
4
 74
0
 40
0
 40
0
 40
0
 40
0
 40
1
 40
1
 40
1
 40
1
 10
317.787513
 20
414.410544
 30
0.0
 10
317.787513
 20
413.838919
 30
0.0
 10
318.092472
 20
413.310716
 30
0.0
 10
318.587513
 20
413.024904
 30
0.0
  0
SPLINE
  5
111
100
AcDbEntity
  8
0
 62
7
100
AcDbSpline
 70
8
 71
3
 72
8
 73
4
 74
0
 40
0
 40
0
 40
0
 40
0
 40
1
 40
1
 40
1
 40
1
 10
318.587513
 20
413.024904
 30
0.0
 10
319.082555
 20
412.739091
 30
0.0
 10
319.692471
 20
412.739091
 30
0.0
 10
320.187513
 20
413.024904
 30
0.0
  0
SPLINE
  5
112
100
AcDbEntity
  8
0
 62
7
100
AcDbSpline
 70
8
 71
3
 72
8
 73
4
 74
0
 40
0
 40
0
 40
0
 40
0
 40
1
 40
1
 40
1
 40
1
 10
320.187513
 20
413.024904
 30
0.0
 10
320.682555
 20
413.310716
 30
0.0
 10
320.987513
 20
413.838919
 30
0.0
 10
320.987513
 20
414.410544
 30
0.0
  0
LWPOLYLINE
  5
113
100
AcDbEntity
  8
0
 62
7
100
AcDbPolyline
 90
2
 70
1
 10
220.987513
 20
436.910544
 30
0.0
 10
220.987513
 20
436.910544
 30
0.0
  0
SPLINE
  5
114
100
AcDbEntity
  8
0
 62
7
100
AcDbSpline
 70
8
 71
3
 72
8
 73
4
 74
0
 40
0
 40
0
 40
0
 40
0
 40
1
 40
1
 40
1
 40
1
 10
290.987513
 20
414.410544
 30
0.0
 10
290.987513
 20
414.982169
 30
0.0
 10
290.682555
 20
415.510372
 30
0.0
 10
290.187513
 20
415.796185
 30
0.0
  0
SPLINE
  5
115
100
AcDbEntity
  8
0
 62
7
100
AcDbSpline
 70
8
 71
3
 72
8
 73
4
 74
0
 40
0
 40
0
 40
0
 40
0
 40
1
 40
1
 40
1
 40
1
 10
290.187513
 20
415.796185
 30
0.0
 10
289.692471
 20
416.081997
 30
0.0
 10
289.082555
 20
416.081997
 30
0.0
 10
288.587513
 20
415.796185
 30
0.0
  0
SPLINE
  5
116
100
AcDbEntity
  8
0
 62
7
100
AcDbSpline
 70
8
 71
3
 72
8
 73
4
 74
0
 40
0
 40
0
 40
0
 40
0
 40
1
 40
1
 40
1
 40
1
 10
288.587513
 20
415.796185
 30
0.0
 10
288.092471
 20
415.510372
 30
0.0
 10
287.787513
 20
414.982169
 30
0.0
 10
287.787513
 20
414.410544
 30
0.0
  0
SPLINE
  5
117
100
AcDbEntity
  8
0
 62
7
100
AcDbSpline
 70
8
 71
3
 72
8
 73
4
 74
0
 40
0
 40
0
 40
0
 40
0
 40
1
 40
1
 40
1
 40
1
 10
287.787513
 20
414.410544
 30
0.0
 10
287.787513
 20
413.838919
 30
0.0
 10
288.092471
 20
413.310716
 30
0.0
 10
288.587513
 20
413.024903
 30
0.0
  0
SPLINE
  5
118
100
AcDbEntity
  8
0
 62
7
100
AcDbSpline
 70
8
 71
3
 72
8
 73
4
 74
0
 40
0
 40
0
 40
0
 40
0
 40
1
 40
1
 40
1
 40
1
 10
288.587513
 20
413.024903
 30
0.0
 10
289.082555
 20
412.739091
 30
0.0
 10
289.692471
 20
412.739091
 30
0.0
 10
290.187513
 20
413.024903
 30
0.0
  0
SPLINE
  5
119
100
AcDbEntity
  8
0
 62
7
100
AcDbSpline
 70
8
 71
3
 72
8
 73
4
 74
0
 40
0
 40
0
 40
0
 40
0
 40
1
 40
1
 40
1
 40
1
 10
290.187513
 20
413.024903
 30
0.0
 10
290.682555
 20
413.310716
 30
0.0
 10
290.987513
 20
413.838919
 30
0.0
 10
290.987513
 20
414.410544
 30
0.0
  0
LWPOLYLINE
  5
11a
100
AcDbEntity
  8
0
 62
7
100
AcDbPolyline
 90
2
 70
1
 10
320.987513
 20
414.410544
 30
0.0
 10
320.987513
 20
414.410544
 30
0.0
  0
SPLINE
  5
11b
100
AcDbEntity
  8
0
 62
7
100
AcDbSpline
 70
8
 71
3
 72
8
 73
4
 74
0
 40
0
 40
0
 40
0
 40
0
 40
1
 40
1
 40
1
 40
1
 10
220.987513
 20
391.910544
 30
0.0
 10
220.987513
 20
392.482169
 30
0.0
 10
220.682555
 20
393.010372
 30
0.0
 10
220.187513
 20
393.296185
 30
0.0
  0
SPLINE
  5
11c
100
AcDbEntity
  8
0
 62
7
100
AcDbSpline
 70
8
 71
3
 72
8
 73
4
 74
0
 40
0
 40
0
 40
0
 40
0
 40
1
 40
1
 40
1
 40
1
 10
220.187513
 20
393.296185
 30
0.0
 10
219.692471
 20
393.581997
 30
0.0
 10
219.082555
 20
393.581997
 30
0.0
 10
218.587513
 20
393.296185
 30
0.0
  0
SPLINE
  5
11d
100
AcDbEntity
  8
0
 62
7
100
AcDbSpline
 70
8
 71
3
 72
8
 73
4
 74
0
 40
0
 40
0
 40
0
 40
0
 40
1
 40
1
 40
1
 40
1
 10
218.587513
 20
393.296185
 30
0.0
 10
218.092471
 20
393.010372
 30
0.0
 10
217.787513
 20
392.482169
 30
0.0
 10
217.787513
 20
391.910544
 30
0.0
  0
SPLINE
  5
11e
100
AcDbEntity
  8
0
 62
7
100
AcDbSpline
 70
8
 71
3
 72
8
 73
4
 74
0
 40
0
 40
0
 40
0
 40
0
 40
1
 40
1
 40
1
 40
1
 10
217.787513
 20
391.910544
 30
0.0
 10
217.787513
 20
391.338919
 30
0.0
 10
218.092471
 20
390.810716
 30
0.0
 10
218.587513
 20
390.524904
 30
0.0
  0
SPLINE
  5
11f
100
AcDbEntity
  8
0
 62
7
100
AcDbSpline
 70
8
 71
3
 72
8
 73
4
 74
0
 40
0
 40
0
 40
0
 40
0
 40
1
 40
1
 40
1
 40
1
 10
218.587513
 20
390.524904
 30
0.0
 10
219.082555
 20
390.239091
 30
0.0
 10
219.692471
 20
390.239091
 30
0.0
 10
220.187513
 20
390.524904
 30
0.0
  0
SPLINE
  5
120
100
AcDbEntity
  8
0
 62
7
100
AcDbSpline
 70
8
 71
3
 72
8
 73
4
 74
0
 40
0
 40
0
 40
0
 40
0
 40
1
 40
1
 40
1
 40
1
 10
220.187513
 20
390.524904
 30
0.0
 10
220.682555
 20
390.810716
 30
0.0
 10
220.987513
 20
391.338919
 30
0.0
 10
220.987513
 20
391.910544
 30
0.0
  0
LWPOLYLINE
  5
121
100
AcDbEntity
  8
0
 62
7
100
AcDbPolyline
 90
2
 70
1
 10
290.987513
 20
414.410544
 30
0.0
 10
290.987513
 20
414.410544
 30
0.0
  0
SPLINE
  5
122
100
AcDbEntity
  8
0
 62
7
100
AcDbSpline
 70
8
 71
3
 72
8
 73
4
 74
0
 40
0
 40
0
 40
0
 40
0
 40
1
 40
1
 40
1
 40
1
 10
120.987513
 20
379.410544
 30
0.0
 10
120.987513
 20
379.982169
 30
0.0
 10
120.682555
 20
380.510372
 30
0.0
 10
120.187513
 20
380.796185
 30
0.0
  0
SPLINE
  5
123
100
AcDbEntity
  8
0
 62
7
100
AcDbSpline
 70
8
 71
3
 72
8
 73
4
 74
0
 40
0
 40
0
 40
0
 40
0
 40
1
 40
1
 40
1
 40
1
 10
120.187513
 20
380.796185
 30
0.0
 10
119.692471
 20
381.081997
 30
0.0
 10
119.082555
 20
381.081997
 30
0.0
 10
118.587513
 20
380.796185
 30
0.0
  0
SPLINE
  5
124
100
AcDbEntity
  8
0
 62
7
100
AcDbSpline
 70
8
 71
3
 72
8
 73
4
 74
0
 40
0
 40
0
 40
0
 40
0
 40
1
 40
1
 40
1
 40
1
 10
118.587513
 20
380.796185
 30
0.0
 10
118.092472
 20
380.510372
 30
0.0
 10
117.787513
 20
379.982169
 30
0.0
 10
117.787513
 20
379.410544
 30
0.0
  0
SPLINE
  5
125
100
AcDbEntity
  8
0
 62
7
100
AcDbSpline
 70
8
 71
3
 72
8
 73
4
 74
0
 40
0
 40
0
 40
0
 40
0
 40
1
 40
1
 40
1
 40
1
 10
117.787513
 20
379.410544
 30
0.0
 10
117.787513
 20
378.838919
 30
0.0
 10
118.092472
 20
378.310716
 30
0.0
 10
118.587513
 20
378.024904
 30
0.0
  0
SPLINE
  5
126
100
AcDbEntity
  8
0
 62
7
100
AcDbSpline
 70
8
 71
3
 72
8
 73
4
 74
0
 40
0
 40
0
 40
0
 40
0
 40
1
 40
1
 40
1
 40
1
 10
118.587513
 20
378.024904
 30
0.0
 10
119.082555
 20
377.739091
 30
0.0
 10
119.692472
 20
377.739091
 30
0.0
 10
120.187513
 20
378.024904
 30
0.0
  0
SPLINE
  5
127
100
AcDbEntity
  8
0
 62
7
100
AcDbSpline
 70
8
 71
3
 72
8
 73
4
 74
0
 40
0
 40
0
 40
0
 40
0
 40
1
 40
1
 40
1
 40
1
 10
120.187513
 20
378.024904
 30
0.0
 10
120.682555
 20
378.310716
 30
0.0
 10
120.987513
 20
378.838919
 30
0.0
 10
120.987513
 20
379.410544
 30
0.0
  0
LWPOLYLINE
  5
128
100
AcDbEntity
  8
0
 62
7
100
AcDbPolyline
 90
2
 70
1
 10
220.987513
 20
391.910544
 30
0.0
 10
220.987513
 20
391.910544
 30
0.0
  0
SPLINE
  5
129
100
AcDbEntity
  8
0
 62
7
100
AcDbSpline
 70
8
 71
3
 72
8
 73
4
 74
0
 40
0
 40
0
 40
0
 40
0
 40
1
 40
1
 40
1
 40
1
 10
150.987513
 20
379.410544
 30
0.0
 10
150.987513
 20
379.982169
 30
0.0
 10
150.682555
 20
380.510372
 30
0.0
 10
150.187513
 20
380.796185
 30
0.0
  0
SPLINE
  5
12a
100
AcDbEntity
  8
0
 62
7
100
AcDbSpline
 70
8
 71
3
 72
8
 73
4
 74
0
 40
0
 40
0
 40
0
 40
0
 40
1
 40
1
 40
1
 40
1
 10
150.187513
 20
380.796185
 30
0.0
 10
149.692471
 20
381.081997
 30
0.0
 10
149.082555
 20
381.081997
 30
0.0
 10
148.587513
 20
380.796185
 30
0.0
  0
SPLINE
  5
12b
100
AcDbEntity
  8
0
 62
7
100
AcDbSpline
 70
8
 71
3
 72
8
 73
4
 74
0
 40
0
 40
0
 40
0
 40
0
 40
1
 40
1
 40
1
 40
1
 10
148.587513
 20
380.796185
 30
0.0
 10
148.092471
 20
380.510372
 30
0.0
 10
147.787513
 20
379.982169
 30
0.0
 10
147.787513
 20
379.410544
 30
0.0
  0
SPLINE
  5
12c
100
AcDbEntity
  8
0
 62
7
100
AcDbSpline
 70
8
 71
3
 72
8
 73
4
 74
0
 40
0
 40
0
 40
0
 40
0
 40
1
 40
1
 40
1
 40
1
 10
147.787513
 20
379.410544
 30
0.0
 10
147.787513
 20
378.838919
 30
0.0
 10
148.092471
 20
378.310716
 30
0.0
 10
148.587513
 20
378.024903
 30
0.0
  0
SPLINE
  5
12d
100
AcDbEntity
  8
0
 62
7
100
AcDbSpline
 70
8
 71
3
 72
8
 73
4
 74
0
 40
0
 40
0
 40
0
 40
0
 40
1
 40
1
 40
1
 40
1
 10
148.587513
 20
378.024903
 30
0.0
 10
149.082555
 20
377.739091
 30
0.0
 10
149.692471
 20
377.739091
 30
0.0
 10
150.187513
 20
378.024903
 30
0.0
  0
SPLINE
  5
12e
100
AcDbEntity
  8
0
 62
7
100
AcDbSpline
 70
8
 71
3
 72
8
 73
4
 74
0
 40
0
 40
0
 40
0
 40
0
 40
1
 40
1
 40
1
 40
1
 10
150.187513
 20
378.024903
 30
0.0
 10
150.682555
 20
378.310716
 30
0.0
 10
150.987513
 20
378.838919
 30
0.0
 10
150.987513
 20
379.410544
 30
0.0
  0
LWPOLYLINE
  5
12f
100
AcDbEntity
  8
0
 62
7
100
AcDbPolyline
 90
2
 70
1
 10
120.987513
 20
379.410544
 30
0.0
 10
120.987513
 20
379.410544
 30
0.0
  0
SPLINE
  5
130
100
AcDbEntity
  8
0
 62
7
100
AcDbSpline
 70
8
 71
3
 72
8
 73
4
 74
0
 40
0
 40
0
 40
0
 40
0
 40
1
 40
1
 40
1
 40
1
 10
150.987513
 20
449.410544
 30
0.0
 10
150.987513
 20
449.982169
 30
0.0
 10
150.682555
 20
450.510372
 30
0.0
 10
150.187513
 20
450.796185
 30
0.0
  0
SPLINE
  5
131
100
AcDbEntity
  8
0
 62
7
100
AcDbSpline
 70
8
 71
3
 72
8
 73
4
 74
0
 40
0
 40
0
 40
0
 40
0
 40
1
 40
1
 40
1
 40
1
 10
150.187513
 20
450.796185
 30
0.0
 10
149.692471
 20
451.081997
 30
0.0
 10
149.082555
 20
451.081997
 30
0.0
 10
148.587513
 20
450.796185
 30
0.0
  0
SPLINE
  5
132
100
AcDbEntity
  8
0
 62
7
100
AcDbSpline
 70
8
 71
3
 72
8
 73
4
 74
0
 40
0
 40
0
 40
0
 40
0
 40
1
 40
1
 40
1
 40
1
 10
148.587513
 20
450.796185
 30
0.0
 10
148.092471
 20
450.510372
 30
0.0
 10
147.787513
 20
449.982169
 30
0.0
 10
147.787513
 20
449.410544
 30
0.0
  0
SPLINE
  5
133
100
AcDbEntity
  8
0
 62
7
100
AcDbSpline
 70
8
 71
3
 72
8
 73
4
 74
0
 40
0
 40
0
 40
0
 40
0
 40
1
 40
1
 40
1
 40
1
 10
147.787513
 20
449.410544
 30
0.0
 10
147.787513
 20
448.838919
 30
0.0
 10
148.092471
 20
448.310716
 30
0.0
 10
148.587513
 20
448.024903
 30
0.0
  0
SPLINE
  5
134
100
AcDbEntity
  8
0
 62
7
100
AcDbSpline
 70
8
 71
3
 72
8
 73
4
 74
0
 40
0
 40
0
 40
0
 40
0
 40
1
 40
1
 40
1
 40
1
 10
148.587513
 20
448.024903
 30
0.0
 10
149.082555
 20
447.739091
 30
0.0
 10
149.692471
 20
447.739091
 30
0.0
 10
150.187513
 20
448.024903
 30
0.0
  0
SPLINE
  5
135
100
AcDbEntity
  8
0
 62
7
100
AcDbSpline
 70
8
 71
3
 72
8
 73
4
 74
0
 40
0
 40
0
 40
0
 40
0
 40
1
 40
1
 40
1
 40
1
 10
150.187513
 20
448.024903
 30
0.0
 10
150.682555
 20
448.310716
 30
0.0
 10
150.987513
 20
448.838919
 30
0.0
 10
150.987513
 20
449.410544
 30
0.0
  0
LWPOLYLINE
  5
136
100
AcDbEntity
  8
0
 62
7
100
AcDbPolyline
 90
2
 70
1
 10
150.987513
 20
379.410544
 30
0.0
 10
150.987513
 20
379.410544
 30
0.0
  0
SPLINE
  5
137
100
AcDbEntity
  8
0
 62
7
100
AcDbSpline
 70
8
 71
3
 72
8
 73
4
 74
0
 40
0
 40
0
 40
0
 40
0
 40
1
 40
1
 40
1
 40
1
 10
120.987513
 20
449.410544
 30
0.0
 10
120.987513
 20
449.982169
 30
0.0
 10
120.682555
 20
450.510372
 30
0.0
 10
120.187513
 20
450.796185
 30
0.0
  0
SPLINE
  5
138
100
AcDbEntity
  8
0
 62
7
100
AcDbSpline
 70
8
 71
3
 72
8
 73
4
 74
0
 40
0
 40
0
 40
0
 40
0
 40
1
 40
1
 40
1
 40
1
 10
120.187513
 20
450.796185
 30
0.0
 10
119.692471
 20
451.081997
 30
0.0
 10
119.082555
 20
451.081997
 30
0.0
 10
118.587513
 20
450.796185
 30
0.0
  0
SPLINE
  5
139
100
AcDbEntity
  8
0
 62
7
100
AcDbSpline
 70
8
 71
3
 72
8
 73
4
 74
0
 40
0
 40
0
 40
0
 40
0
 40
1
 40
1
 40
1
 40
1
 10
118.587513
 20
450.796185
 30
0.0
 10
118.092472
 20
450.510372
 30
0.0
 10
117.787513
 20
449.982169
 30
0.0
 10
117.787513
 20
449.410544
 30
0.0
  0
SPLINE
  5
13a
100
AcDbEntity
  8
0
 62
7
100
AcDbSpline
 70
8
 71
3
 72
8
 73
4
 74
0
 40
0
 40
0
 40
0
 40
0
 40
1
 40
1
 40
1
 40
1
 10
117.787513
 20
449.410544
 30
0.0
 10
117.787513
 20
448.838919
 30
0.0
 10
118.092472
 20
448.310716
 30
0.0
 10
118.587513
 20
448.024904
 30
0.0
  0
SPLINE
  5
13b
100
AcDbEntity
  8
0
 62
7
100
AcDbSpline
 70
8
 71
3
 72
8
 73
4
 74
0
 40
0
 40
0
 40
0
 40
0
 40
1
 40
1
 40
1
 40
1
 10
118.587513
 20
448.024904
 30
0.0
 10
119.082555
 20
447.739091
 30
0.0
 10
119.692472
 20
447.739091
 30
0.0
 10
120.187513
 20
448.024904
 30
0.0
  0
SPLINE
  5
13c
100
AcDbEntity
  8
0
 62
7
100
AcDbSpline
 70
8
 71
3
 72
8
 73
4
 74
0
 40
0
 40
0
 40
0
 40
0
 40
1
 40
1
 40
1
 40
1
 10
120.187513
 20
448.024904
 30
0.0
 10
120.682555
 20
448.310716
 30
0.0
 10
120.987513
 20
448.838919
 30
0.0
 10
120.987513
 20
449.410544
 30
0.0
  0
LWPOLYLINE
  5
13d
100
AcDbEntity
  8
0
 62
7
100
AcDbPolyline
 90
2
 70
1
 10
150.987513
 20
449.410544
 30
0.0
 10
150.987513
 20
449.410544
 30
0.0
  0
SPLINE
  5
13e
100
AcDbEntity
  8
0
 62
7
100
AcDbSpline
 70
8
 71
3
 72
8
 73
4
 74
0
 40
0
 40
0
 40
0
 40
0
 40
1
 40
1
 40
1
 40
1
 10
116.487513
 20
518.910544
 30
0.0
 10
116.487513
 20
519.482169
 30
0.0
 10
116.182555
 20
520.010372
 30
0.0
 10
115.687513
 20
520.296185
 30
0.0
  0
SPLINE
  5
13f
100
AcDbEntity
  8
0
 62
7
100
AcDbSpline
 70
8
 71
3
 72
8
 73
4
 74
0
 40
0
 40
0
 40
0
 40
0
 40
1
 40
1
 40
1
 40
1
 10
115.687513
 20
520.296185
 30
0.0
 10
115.192471
 20
520.581997
 30
0.0
 10
114.582555
 20
520.581997
 30
0.0
 10
114.087513
 20
520.296185
 30
0.0
  0
SPLINE
  5
140
100
AcDbEntity
  8
0
 62
7
100
AcDbSpline
 70
8
 71
3
 72
8
 73
4
 74
0
 40
0
 40
0
 40
0
 40
0
 40
1
 40
1
 40
1
 40
1
 10
114.087513
 20
520.296185
 30
0.0
 10
113.592472
 20
520.010372
 30
0.0
 10
113.287513
 20
519.482169
 30
0.0
 10
113.287513
 20
518.910544
 30
0.0
  0
SPLINE
  5
141
100
AcDbEntity
  8
0
 62
7
100
AcDbSpline
 70
8
 71
3
 72
8
 73
4
 74
0
 40
0
 40
0
 40
0
 40
0
 40
1
 40
1
 40
1
 40
1
 10
113.287513
 20
518.910544
 30
0.0
 10
113.287513
 20
518.338919
 30
0.0
 10
113.592472
 20
517.810716
 30
0.0
 10
114.087513
 20
517.524904
 30
0.0
  0
SPLINE
  5
142
100
AcDbEntity
  8
0
 62
7
100
AcDbSpline
 70
8
 71
3
 72
8
 73
4
 74
0
 40
0
 40
0
 40
0
 40
0
 40
1
 40
1
 40
1
 40
1
 10
114.087513
 20
517.524904
 30
0.0
 10
114.582555
 20
517.239091
 30
0.0
 10
115.192471
 20
517.239091
 30
0.0
 10
115.687513
 20
517.524904
 30
0.0
  0
SPLINE
  5
143
100
AcDbEntity
  8
0
 62
7
100
AcDbSpline
 70
8
 71
3
 72
8
 73
4
 74
0
 40
0
 40
0
 40
0
 40
0
 40
1
 40
1
 40
1
 40
1
 10
115.687513
 20
517.524904
 30
0.0
 10
116.182555
 20
517.810716
 30
0.0
 10
116.487513
 20
518.338919
 30
0.0
 10
116.487513
 20
518.910544
 30
0.0
  0
LWPOLYLINE
  5
144
100
AcDbEntity
  8
0
 62
7
100
AcDbPolyline
 90
2
 70
1
 10
120.987513
 20
449.410544
 30
0.0
 10
120.987513
 20
449.410544
 30
0.0
  0
SPLINE
  5
145
100
AcDbEntity
  8
0
 62
7
100
AcDbSpline
 70
8
 71
3
 72
8
 73
4
 74
0
 40
0
 40
0
 40
0
 40
0
 40
1
 40
1
 40
1
 40
1
 10
325.487513
 20
518.910544
 30
0.0
 10
325.487513
 20
519.482169
 30
0.0
 10
325.182555
 20
520.010372
 30
0.0
 10
324.687513
 20
520.296185
 30
0.0
  0
SPLINE
  5
146
100
AcDbEntity
  8
0
 62
7
100
AcDbSpline
 70
8
 71
3
 72
8
 73
4
 74
0
 40
0
 40
0
 40
0
 40
0
 40
1
 40
1
 40
1
 40
1
 10
324.687513
 20
520.296185
 30
0.0
 10
324.192471
 20
520.581997
 30
0.0
 10
323.582555
 20
520.581997
 30
0.0
 10
323.087513
 20
520.296185
 30
0.0
  0
SPLINE
  5
147
100
AcDbEntity
  8
0
 62
7
100
AcDbSpline
 70
8
 71
3
 72
8
 73
4
 74
0
 40
0
 40
0
 40
0
 40
0
 40
1
 40
1
 40
1
 40
1
 10
323.087513
 20
520.296185
 30
0.0
 10
322.592471
 20
520.010372
 30
0.0
 10
322.287513
 20
519.482169
 30
0.0
 10
322.287513
 20
518.910544
 30
0.0
  0
SPLINE
  5
148
100
AcDbEntity
  8
0
 62
7
100
AcDbSpline
 70
8
 71
3
 72
8
 73
4
 74
0
 40
0
 40
0
 40
0
 40
0
 40
1
 40
1
 40
1
 40
1
 10
322.287513
 20
518.910544
 30
0.0
 10
322.287513
 20
518.338919
 30
0.0
 10
322.592472
 20
517.810716
 30
0.0
 10
323.087513
 20
517.524904
 30
0.0
  0
SPLINE
  5
149
100
AcDbEntity
  8
0
 62
7
100
AcDbSpline
 70
8
 71
3
 72
8
 73
4
 74
0
 40
0
 40
0
 40
0
 40
0
 40
1
 40
1
 40
1
 40
1
 10
323.087513
 20
517.524904
 30
0.0
 10
323.582555
 20
517.239091
 30
0.0
 10
324.192471
 20
517.239091
 30
0.0
 10
324.687513
 20
517.524904
 30
0.0
  0
SPLINE
  5
14a
100
AcDbEntity
  8
0
 62
7
100
AcDbSpline
 70
8
 71
3
 72
8
 73
4
 74
0
 40
0
 40
0
 40
0
 40
0
 40
1
 40
1
 40
1
 40
1
 10
324.687513
 20
517.524904
 30
0.0
 10
325.182555
 20
517.810716
 30
0.0
 10
325.487513
 20
518.338919
 30
0.0
 10
325.487513
 20
518.910544
 30
0.0
  0
LWPOLYLINE
  5
14b
100
AcDbEntity
  8
0
 62
7
100
AcDbPolyline
 90
2
 70
1
 10
116.487513
 20
518.910544
 30
0.0
 10
116.487513
 20
518.910544
 30
0.0
  0
SPLINE
  5
14c
100
AcDbEntity
  8
0
 62
7
100
AcDbSpline
 70
8
 71
3
 72
8
 73
4
 74
0
 40
0
 40
0
 40
0
 40
0
 40
1
 40
1
 40
1
 40
1
 10
325.487513
 20
309.910544
 30
0.0
 10
325.487513
 20
310.482169
 30
0.0
 10
325.182555
 20
311.010372
 30
0.0
 10
324.687513
 20
311.296185
 30
0.0
  0
SPLINE
  5
14d
100
AcDbEntity
  8
0
 62
7
100
AcDbSpline
 70
8
 71
3
 72
8
 73
4
 74
0
 40
0
 40
0
 40
0
 40
0
 40
1
 40
1
 40
1
 40
1
 10
324.687513
 20
311.296185
 30
0.0
 10
324.192471
 20
311.581997
 30
0.0
 10
323.582555
 20
311.581997
 30
0.0
 10
323.087513
 20
311.296185
 30
0.0
  0
SPLINE
  5
14e
100
AcDbEntity
  8
0
 62
7
100
AcDbSpline
 70
8
 71
3
 72
8
 73
4
 74
0
 40
0
 40
0
 40
0
 40
0
 40
1
 40
1
 40
1
 40
1
 10
323.087513
 20
311.296185
 30
0.0
 10
322.592471
 20
311.010372
 30
0.0
 10
322.287513
 20
310.482169
 30
0.0
 10
322.287513
 20
309.910544
 30
0.0
  0
SPLINE
  5
14f
100
AcDbEntity
  8
0
 62
7
100
AcDbSpline
 70
8
 71
3
 72
8
 73
4
 74
0
 40
0
 40
0
 40
0
 40
0
 40
1
 40
1
 40
1
 40
1
 10
322.287513
 20
309.910544
 30
0.0
 10
322.287513
 20
309.338919
 30
0.0
 10
322.592472
 20
308.810716
 30
0.0
 10
323.087513
 20
308.524903
 30
0.0
  0
SPLINE
  5
150
100
AcDbEntity
  8
0
 62
7
100
AcDbSpline
 70
8
 71
3
 72
8
 73
4
 74
0
 40
0
 40
0
 40
0
 40
0
 40
1
 40
1
 40
1
 40
1
 10
323.087513
 20
308.524903
 30
0.0
 10
323.582555
 20
308.239091
 30
0.0
 10
324.192471
 20
308.239091
 30
0.0
 10
324.687513
 20
308.524903
 30
0.0
  0
SPLINE
  5
151
100
AcDbEntity
  8
0
 62
7
100
AcDbSpline
 70
8
 71
3
 72
8
 73
4
 74
0
 40
0
 40
0
 40
0
 40
0
 40
1
 40
1
 40
1
 40
1
 10
324.687513
 20
308.524903
 30
0.0
 10
325.182555
 20
308.810716
 30
0.0
 10
325.487513
 20
309.338919
 30
0.0
 10
325.487513
 20
309.910544
 30
0.0
  0
LWPOLYLINE
  5
152
100
AcDbEntity
  8
0
 62
7
100
AcDbPolyline
 90
2
 70
1
 10
325.487513
 20
518.910544
 30
0.0
 10
325.487513
 20
518.910544
 30
0.0
  0
SPLINE
  5
153
100
AcDbEntity
  8
0
 62
7
100
AcDbSpline
 70
8
 71
3
 72
8
 73
4
 74
0
 40
0
 40
0
 40
0
 40
0
 40
1
 40
1
 40
1
 40
1
 10
56.714226
 20
264.075104
 30
0.0
 10
56.714226
 20
264.646729
 30
0.0
 10
56.409267
 20
265.174932
 30
0.0
 10
55.914226
 20
265.460745
 30
0.0
  0
SPLINE
  5
154
100
AcDbEntity
  8
0
 62
7
100
AcDbSpline
 70
8
 71
3
 72
8
 73
4
 74
0
 40
0
 40
0
 40
0
 40
0
 40
1
 40
1
 40
1
 40
1
 10
55.914226
 20
265.460745
 30
0.0
 10
55.419184
 20
265.746557
 30
0.0
 10
54.809267
 20
265.746557
 30
0.0
 10
54.314226
 20
265.460745
 30
0.0
  0
SPLINE
  5
155
100
AcDbEntity
  8
0
 62
7
100
AcDbSpline
 70
8
 71
3
 72
8
 73
4
 74
0
 40
0
 40
0
 40
0
 40
0
 40
1
 40
1
 40
1
 40
1
 10
54.314226
 20
265.460745
 30
0.0
 10
53.819184
 20
265.174932
 30
0.0
 10
53.514226
 20
264.646729
 30
0.0
 10
53.514226
 20
264.075104
 30
0.0
  0
SPLINE
  5
156
100
AcDbEntity
  8
0
 62
7
100
AcDbSpline
 70
8
 71
3
 72
8
 73
4
 74
0
 40
0
 40
0
 40
0
 40
0
 40
1
 40
1
 40
1
 40
1
 10
53.514226
 20
264.075104
 30
0.0
 10
53.514226
 20
263.503479
 30
0.0
 10
53.819184
 20
262.975276
 30
0.0
 10
54.314226
 20
262.689464
 30
0.0
  0
SPLINE
  5
157
100
AcDbEntity
  8
0
 62
7
100
AcDbSpline
 70
8
 71
3
 72
8
 73
4
 74
0
 40
0
 40
0
 40
0
 40
0
 40
1
 40
1
 40
1
 40
1
 10
54.314226
 20
262.689464
 30
0.0
 10
54.809268
 20
262.403651
 30
0.0
 10
55.419184
 20
262.403651
 30
0.0
 10
55.914226
 20
262.689464
 30
0.0
  0
SPLINE
  5
158
100
AcDbEntity
  8
0
 62
7
100
AcDbSpline
 70
8
 71
3
 72
8
 73
4
 74
0
 40
0
 40
0
 40
0
 40
0
 40
1
 40
1
 40
1
 40
1
 10
55.914226
 20
262.689464
 30
0.0
 10
56.409267
 20
262.975276
 30
0.0
 10
56.714226
 20
263.503479
 30
0.0
 10
56.714226
 20
264.075104
 30
0.0
  0
LWPOLYLINE
  5
159
100
AcDbEntity
  8
0
 62
7
100
AcDbPolyline
 90
2
 70
1
 10
325.487513
 20
309.910544
 30
0.0
 10
325.487513
 20
309.910544
 30
0.0
  0
LWPOLYLINE
  5
15a
100
AcDbEntity
  8
0
 62
7
100
AcDbPolyline
 90
2
 70
1
 10
56.714226
 20
264.075104
 30
0.0
 10
56.714226
 20
264.075104
 30
0.0
  0
LWPOLYLINE
  5
15b
100
AcDbEntity
  8
0
 62
7
100
AcDbPolyline
 90
5
 70
0
 10
76.464225
 20
243.400104
 30
0.0
 10
82.814225
 20
243.400104
 30
0.0
 10
82.814225
 20
249.400104
 30
0.0
 10
76.464225
 20
249.400104
 30
0.0
 10
76.464225
 20
243.400104
 30
0.0
  0
LWPOLYLINE
  5
15c
100
AcDbEntity
  8
0
 62
7
100
AcDbPolyline
 90
5
 70
0
 10
82.814225
 20
228.400104
 30
0.0
 10
76.464225
 20
228.400104
 30
0.0
 10
76.464225
 20
222.400104
 30
0.0
 10
82.814225
 20
222.400104
 30
0.0
 10
82.814225
 20
228.400104
 30
0.0
  0
LWPOLYLINE
  5
15d
100
AcDbEntity
  8
0
 62
7
100
AcDbPolyline
 90
5
 70
0
 10
33.764226
 20
222.400104
 30
0.0
 10
33.764226
 20
228.400104
 30
0.0
 10
27.414226
 20
228.400104
 30
0.0
 10
27.414226
 20
222.400104
 30
0.0
 10
33.764226
 20
222.400104
 30
0.0
  0
LWPOLYLINE
  5
15e
100
AcDbEntity
  8
0
 62
7
100
AcDbPolyline
 90
5
 70
0
 10
33.764226
 20
243.400104
 30
0.0
 10
33.764226
 20
249.400104
 30
0.0
 10
27.414226
 20
249.400104
 30
0.0
 10
27.414226
 20
243.400104
 30
0.0
 10
33.764226
 20
243.400104
 30
0.0
  0
LWPOLYLINE
  5
15f
100
AcDbEntity
  8
0
 62
7
100
AcDbPolyline
 90
5
 70
0
 10
62.614226
 20
267.250104
 30
0.0
 10
62.614226
 20
260.900104
 30
0.0
 10
68.614226
 20
260.900104
 30
0.0
 10
68.614226
 20
267.250104
 30
0.0
 10
62.614226
 20
267.250104
 30
0.0
  0
SPLINE
  5
160
100
AcDbEntity
  8
0
 62
7
100
AcDbSpline
 70
8
 71
3
 72
8
 73
4
 74
0
 40
0
 40
0
 40
0
 40
0
 40
1
 40
1
 40
1
 40
1
 10
101.839226
 20
555.900104
 30
0.0
 10
101.839226
 20
556.471729
 30
0.0
 10
101.534267
 20
556.999932
 30
0.0
 10
101.039226
 20
557.285745
 30
0.0
  0
SPLINE
  5
161
100
AcDbEntity
  8
0
 62
7
100
AcDbSpline
 70
8
 71
3
 72
8
 73
4
 74
0
 40
0
 40
0
 40
0
 40
0
 40
1
 40
1
 40
1
 40
1
 10
101.039226
 20
557.285745
 30
0.0
 10
100.544184
 20
557.571557
 30
0.0
 10
99.934267
 20
557.571557
 30
0.0
 10
99.439226
 20
557.285745
 30
0.0
  0
SPLINE
  5
162
100
AcDbEntity
  8
0
 62
7
100
AcDbSpline
 70
8
 71
3
 72
8
 73
4
 74
0
 40
0
 40
0
 40
0
 40
0
 40
1
 40
1
 40
1
 40
1
 10
99.439226
 20
557.285745
 30
0.0
 10
98.944184
 20
556.999932
 30
0.0
 10
98.639226
 20
556.471729
 30
0.0
 10
98.639226
 20
555.900104
 30
0.0
  0
SPLINE
  5
163
100
AcDbEntity
  8
0
 62
7
100
AcDbSpline
 70
8
 71
3
 72
8
 73
4
 74
0
 40
0
 40
0
 40
0
 40
0
 40
1
 40
1
 40
1
 40
1
 10
98.639226
 20
555.900104
 30
0.0
 10
98.639226
 20
555.328479
 30
0.0
 10
98.944184
 20
554.800276
 30
0.0
 10
99.439226
 20
554.514464
 30
0.0
  0
SPLINE
  5
164
100
AcDbEntity
  8
0
 62
7
100
AcDbSpline
 70
8
 71
3
 72
8
 73
4
 74
0
 40
0
 40
0
 40
0
 40
0
 40
1
 40
1
 40
1
 40
1
 10
99.439226
 20
554.514464
 30
0.0
 10
99.934267
 20
554.228651
 30
0.0
 10
100.544184
 20
554.228651
 30
0.0
 10
101.039226
 20
554.514464
 30
0.0
  0
SPLINE
  5
165
100
AcDbEntity
  8
0
 62
7
100
AcDbSpline
 70
8
 71
3
 72
8
 73
4
 74
0
 40
0
 40
0
 40
0
 40
0
 40
1
 40
1
 40
1
 40
1
 10
101.039226
 20
554.514464
 30
0.0
 10
101.534267
 20
554.800276
 30
0.0
 10
101.839226
 20
555.328479
 30
0.0
 10
101.839226
 20
555.900104
 30
0.0
  0
LWPOLYLINE
  5
166
100
AcDbEntity
  8
0
 62
7
100
AcDbPolyline
 90
5
 70
0
 10
41.614226
 20
267.250104
 30
0.0
 10
41.614226
 20
260.900104
 30
0.0
 10
47.614226
 20
260.900104
 30
0.0
 10
47.614226
 20
267.250104
 30
0.0
 10
41.614226
 20
267.250104
 30
0.0
  0
SPLINE
  5
167
100
AcDbEntity
  8
0
 62
7
100
AcDbSpline
 70
8
 71
3
 72
8
 73
4
 74
0
 40
0
 40
0
 40
0
 40
0
 40
1
 40
1
 40
1
 40
1
 10
101.839226
 20
395.900104
 30
0.0
 10
101.839226
 20
396.471729
 30
0.0
 10
101.534267
 20
396.999932
 30
0.0
 10
101.039226
 20
397.285745
 30
0.0
  0
SPLINE
  5
168
100
AcDbEntity
  8
0
 62
7
100
AcDbSpline
 70
8
 71
3
 72
8
 73
4
 74
0
 40
0
 40
0
 40
0
 40
0
 40
1
 40
1
 40
1
 40
1
 10
101.039226
 20
397.285745
 30
0.0
 10
100.544184
 20
397.571557
 30
0.0
 10
99.934267
 20
397.571557
 30
0.0
 10
99.439226
 20
397.285745
 30
0.0
  0
SPLINE
  5
169
100
AcDbEntity
  8
0
 62
7
100
AcDbSpline
 70
8
 71
3
 72
8
 73
4
 74
0
 40
0
 40
0
 40
0
 40
0
 40
1
 40
1
 40
1
 40
1
 10
99.439226
 20
397.285745
 30
0.0
 10
98.944184
 20
396.999932
 30
0.0
 10
98.639226
 20
396.471729
 30
0.0
 10
98.639226
 20
395.900104
 30
0.0
  0
SPLINE
  5
16a
100
AcDbEntity
  8
0
 62
7
100
AcDbSpline
 70
8
 71
3
 72
8
 73
4
 74
0
 40
0
 40
0
 40
0
 40
0
 40
1
 40
1
 40
1
 40
1
 10
98.639226
 20
395.900104
 30
0.0
 10
98.639226
 20
395.328479
 30
0.0
 10
98.944184
 20
394.800276
 30
0.0
 10
99.439226
 20
394.514464
 30
0.0
  0
SPLINE
  5
16b
100
AcDbEntity
  8
0
 62
7
100
AcDbSpline
 70
8
 71
3
 72
8
 73
4
 74
0
 40
0
 40
0
 40
0
 40
0
 40
1
 40
1
 40
1
 40
1
 10
99.439226
 20
394.514464
 30
0.0
 10
99.934267
 20
394.228651
 30
0.0
 10
100.544184
 20
394.228651
 30
0.0
 10
101.039226
 20
394.514464
 30
0.0
  0
SPLINE
  5
16c
100
AcDbEntity
  8
0
 62
7
100
AcDbSpline
 70
8
 71
3
 72
8
 73
4
 74
0
 40
0
 40
0
 40
0
 40
0
 40
1
 40
1
 40
1
 40
1
 10
101.039226
 20
394.514464
 30
0.0
 10
101.534267
 20
394.800276
 30
0.0
 10
101.839226
 20
395.328479
 30
0.0
 10
101.839226
 20
395.900104
 30
0.0
  0
LWPOLYLINE
  5
16d
100
AcDbEntity
  8
0
 62
7
100
AcDbPolyline
 90
2
 70
1
 10
101.839226
 20
555.900104
 30
0.0
 10
101.839226
 20
555.900104
 30
0.0
  0
LWPOLYLINE
  5
16e
100
AcDbEntity
  8
0
 62
7
100
AcDbPolyline
 90
2
 70
1
 10
101.839226
 20
395.900104
 30
0.0
 10
101.839226
 20
395.900104
 30
0.0
  0
SPLINE
  5
16f
100
AcDbEntity
  8
0
 62
7
100
AcDbSpline
 70
8
 71
3
 72
8
 73
4
 74
0
 40
0
 40
0
 40
0
 40
0
 40
1
 40
1
 40
1
 40
1
 10
389.414226
 20
218.900104
 30
0.0
 10
390.843288
 20
218.900104
 30
0.0
 10
392.163796
 20
219.662500
 30
0.0
 10
392.878327
 20
220.900104
 30
0.0
  0
SPLINE
  5
170
100
AcDbEntity
  8
0
 62
7
100
AcDbSpline
 70
8
 71
3
 72
8
 73
4
 74
0
 40
0
 40
0
 40
0
 40
0
 40
1
 40
1
 40
1
 40
1
 10
392.878327
 20
220.900104
 30
0.0
 10
393.592858
 20
222.137708
 30
0.0
 10
393.592858
 20
223.662500
 30
0.0
 10
392.878327
 20
224.900104
 30
0.0
  0
SPLINE
  5
171
100
AcDbEntity
  8
0
 62
7
100
AcDbSpline
 70
8
 71
3
 72
8
 73
4
 74
0
 40
0
 40
0
 40
0
 40
0
 40
1
 40
1
 40
1
 40
1
 10
392.878327
 20
224.900104
 30
0.0
 10
392.163796
 20
226.137708
 30
0.0
 10
390.843288
 20
226.900104
 30
0.0
 10
389.414226
 20
226.900104
 30
0.0
  0
LWPOLYLINE
  5
172
100
AcDbEntity
  8
0
 62
7
100
AcDbPolyline
 90
2
 70
0
 10
381.414226
 20
218.900104
 30
0.0
 10
389.414226
 20
218.900104
 30
0.0
  0
SPLINE
  5
173
100
AcDbEntity
  8
0
 62
7
100
AcDbSpline
 70
8
 71
3
 72
8
 73
4
 74
0
 40
0
 40
0
 40
0
 40
0
 40
1
 40
1
 40
1
 40
1
 10
381.414226
 20
226.900104
 30
0.0
 10
379.985163
 20
226.900104
 30
0.0
 10
378.664655
 20
226.137708
 30
0.0
 10
377.950124
 20
224.900104
 30
0.0
  0
SPLINE
  5
174
100
AcDbEntity
  8
0
 62
7
100
AcDbSpline
 70
8
 71
3
 72
8
 73
4
 74
0
 40
0
 40
0
 40
0
 40
0
 40
1
 40
1
 40
1
 40
1
 10
377.950124
 20
224.900104
 30
0.0
 10
377.235593
 20
223.662500
 30
0.0
 10
377.235593
 20
222.137708
 30
0.0
 10
377.950124
 20
220.900104
 30
0.0
  0
SPLINE
  5
175
100
AcDbEntity
  8
0
 62
7
100
AcDbSpline
 70
8
 71
3
 72
8
 73
4
 74
0
 40
0
 40
0
 40
0
 40
0
 40
1
 40
1
 40
1
 40
1
 10
377.950124
 20
220.900104
 30
0.0
 10
378.664655
 20
219.662500
 30
0.0
 10
379.985163
 20
218.900104
 30
0.0
 10
381.414226
 20
218.900104
 30
0.0
  0
LWPOLYLINE
  5
176
100
AcDbEntity
  8
0
 62
7
100
AcDbPolyline
 90
2
 70
0
 10
389.414226
 20
226.900104
 30
0.0
 10
381.414226
 20
226.900104
 30
0.0
  0
SPLINE
  5
177
100
AcDbEntity
  8
0
 62
7
100
AcDbSpline
 70
8
 71
3
 72
8
 73
4
 74
0
 40
0
 40
0
 40
0
 40
0
 40
1
 40
1
 40
1
 40
1
 10
59.414226
 20
218.900104
 30
0.0
 10
60.843288
 20
218.900104
 30
0.0
 10
62.163796
 20
219.662500
 30
0.0
 10
62.878327
 20
220.900104
 30
0.0
  0
SPLINE
  5
178
100
AcDbEntity
  8
0
 62
7
100
AcDbSpline
 70
8
 71
3
 72
8
 73
4
 74
0
 40
0
 40
0
 40
0
 40
0
 40
1
 40
1
 40
1
 40
1
 10
62.878327
 20
220.900104
 30
0.0
 10
63.592858
 20
222.137708
 30
0.0
 10
63.592858
 20
223.662500
 30
0.0
 10
62.878327
 20
224.900104
 30
0.0
  0
SPLINE
  5
179
100
AcDbEntity
  8
0
 62
7
100
AcDbSpline
 70
8
 71
3
 72
8
 73
4
 74
0
 40
0
 40
0
 40
0
 40
0
 40
1
 40
1
 40
1
 40
1
 10
62.878327
 20
224.900104
 30
0.0
 10
62.163796
 20
226.137708
 30
0.0
 10
60.843288
 20
226.900104
 30
0.0
 10
59.414226
 20
226.900104
 30
0.0
  0
LWPOLYLINE
  5
17a
100
AcDbEntity
  8
0
 62
7
100
AcDbPolyline
 90
2
 70
0
 10
51.414226
 20
218.900104
 30
0.0
 10
59.414226
 20
218.900104
 30
0.0
  0
SPLINE
  5
17b
100
AcDbEntity
  8
0
 62
7
100
AcDbSpline
 70
8
 71
3
 72
8
 73
4
 74
0
 40
0
 40
0
 40
0
 40
0
 40
1
 40
1
 40
1
 40
1
 10
51.414226
 20
226.900104
 30
0.0
 10
49.985163
 20
226.900104
 30
0.0
 10
48.664655
 20
226.137708
 30
0.0
 10
47.950124
 20
224.900104
 30
0.0
  0
SPLINE
  5
17c
100
AcDbEntity
  8
0
 62
7
100
AcDbSpline
 70
8
 71
3
 72
8
 73
4
 74
0
 40
0
 40
0
 40
0
 40
0
 40
1
 40
1
 40
1
 40
1
 10
47.950124
 20
224.900104
 30
0.0
 10
47.235593
 20
223.662500
 30
0.0
 10
47.235593
 20
222.137708
 30
0.0
 10
47.950124
 20
220.900104
 30
0.0
  0
SPLINE
  5
17d
100
AcDbEntity
  8
0
 62
7
100
AcDbSpline
 70
8
 71
3
 72
8
 73
4
 74
0
 40
0
 40
0
 40
0
 40
0
 40
1
 40
1
 40
1
 40
1
 10
47.950124
 20
220.900104
 30
0.0
 10
48.664655
 20
219.662500
 30
0.0
 10
49.985163
 20
218.900104
 30
0.0
 10
51.414226
 20
218.900104
 30
0.0
  0
LWPOLYLINE
  5
17e
100
AcDbEntity
  8
0
 62
7
100
AcDbPolyline
 90
2
 70
0
 10
59.414226
 20
226.900104
 30
0.0
 10
51.414226
 20
226.900104
 30
0.0
  0
LWPOLYLINE
  5
17f
100
AcDbEntity
  8
0
 62
7
100
AcDbPolyline
 90
5
 70
0
 10
103.414225
 20
563.400104
 30
0.0
 10
103.414225
 20
569.400104
 30
0.0
 10
97.064225
 20
569.400104
 30
0.0
 10
97.064225
 20
563.400104
 30
0.0
 10
103.414225
 20
563.400104
 30
0.0
  0
LWPOLYLINE
  5
180
100
AcDbEntity
  8
0
 62
7
100
AcDbPolyline
 90
5
 70
0
 10
97.064225
 20
542.400104
 30
0.0
 10
103.414225
 20
542.400104
 30
0.0
 10
103.414225
 20
548.400104
 30
0.0
 10
97.064225
 20
548.400104
 30
0.0
 10
97.064225
 20
542.400104
 30
0.0
  0
LWPOLYLINE
  5
181
100
AcDbEntity
  8
0
 62
7
100
AcDbPolyline
 90
5
 70
0
 10
103.414225
 20
243.400104
 30
0.0
 10
103.414225
 20
249.400104
 30
0.0
 10
97.064225
 20
249.400104
 30
0.0
 10
97.064225
 20
243.400104
 30
0.0
 10
103.414225
 20
243.400104
 30
0.0
  0
LWPOLYLINE
  5
182
100
AcDbEntity
  8
0
 62
7
100
AcDbPolyline
 90
5
 70
0
 10
103.414225
 20
228.400104
 30
0.0
 10
97.064225
 20
228.400104
 30
0.0
 10
97.064225
 20
222.400104
 30
0.0
 10
103.414225
 20
222.400104
 30
0.0
 10
103.414225
 20
228.400104
 30
0.0
  0
LWPOLYLINE
  5
183
100
AcDbEntity
  8
0
 62
7
100
AcDbPolyline
 90
5
 70
0
 10
103.414225
 20
403.400104
 30
0.0
 10
103.414225
 20
409.400104
 30
0.0
 10
97.064225
 20
409.400104
 30
0.0
 10
97.064225
 20
403.400104
 30
0.0
 10
103.414225
 20
403.400104
 30
0.0
  0
SPLINE
  5
184
100
AcDbEntity
  8
0
 62
7
100
AcDbSpline
 70
8
 71
3
 72
8
 73
4
 74
0
 40
0
 40
0
 40
0
 40
0
 40
1
 40
1
 40
1
 40
1
 10
101.839226
 20
235.900104
 30
0.0
 10
101.839226
 20
236.471729
 30
0.0
 10
101.534267
 20
236.999932
 30
0.0
 10
101.039226
 20
237.285745
 30
0.0
  0
SPLINE
  5
185
100
AcDbEntity
  8
0
 62
7
100
AcDbSpline
 70
8
 71
3
 72
8
 73
4
 74
0
 40
0
 40
0
 40
0
 40
0
 40
1
 40
1
 40
1
 40
1
 10
101.039226
 20
237.285745
 30
0.0
 10
100.544184
 20
237.571557
 30
0.0
 10
99.934267
 20
237.571557
 30
0.0
 10
99.439226
 20
237.285745
 30
0.0
  0
SPLINE
  5
186
100
AcDbEntity
  8
0
 62
7
100
AcDbSpline
 70
8
 71
3
 72
8
 73
4
 74
0
 40
0
 40
0
 40
0
 40
0
 40
1
 40
1
 40
1
 40
1
 10
99.439226
 20
237.285745
 30
0.0
 10
98.944184
 20
236.999932
 30
0.0
 10
98.639226
 20
236.471729
 30
0.0
 10
98.639226
 20
235.900104
 30
0.0
  0
SPLINE
  5
187
100
AcDbEntity
  8
0
 62
7
100
AcDbSpline
 70
8
 71
3
 72
8
 73
4
 74
0
 40
0
 40
0
 40
0
 40
0
 40
1
 40
1
 40
1
 40
1
 10
98.639226
 20
235.900104
 30
0.0
 10
98.639226
 20
235.328479
 30
0.0
 10
98.944184
 20
234.800276
 30
0.0
 10
99.439226
 20
234.514464
 30
0.0
  0
SPLINE
  5
188
100
AcDbEntity
  8
0
 62
7
100
AcDbSpline
 70
8
 71
3
 72
8
 73
4
 74
0
 40
0
 40
0
 40
0
 40
0
 40
1
 40
1
 40
1
 40
1
 10
99.439226
 20
234.514464
 30
0.0
 10
99.934267
 20
234.228651
 30
0.0
 10
100.544184
 20
234.228651
 30
0.0
 10
101.039226
 20
234.514464
 30
0.0
  0
SPLINE
  5
189
100
AcDbEntity
  8
0
 62
7
100
AcDbSpline
 70
8
 71
3
 72
8
 73
4
 74
0
 40
0
 40
0
 40
0
 40
0
 40
1
 40
1
 40
1
 40
1
 10
101.039226
 20
234.514464
 30
0.0
 10
101.534267
 20
234.800276
 30
0.0
 10
101.839226
 20
235.328479
 30
0.0
 10
101.839226
 20
235.900104
 30
0.0
  0
LWPOLYLINE
  5
18a
100
AcDbEntity
  8
0
 62
7
100
AcDbPolyline
 90
5
 70
0
 10
103.414225
 20
388.400104
 30
0.0
 10
97.064225
 20
388.400104
 30
0.0
 10
97.064225
 20
382.400104
 30
0.0
 10
103.414225
 20
382.400104
 30
0.0
 10
103.414225
 20
388.400104
 30
0.0
  0
SPLINE
  5
18b
100
AcDbEntity
  8
0
 62
7
100
AcDbSpline
 70
8
 71
3
 72
8
 73
4
 74
0
 40
0
 40
0
 40
0
 40
0
 40
1
 40
1
 40
1
 40
1
 10
81.239226
 20
235.900104
 30
0.0
 10
81.239226
 20
236.471729
 30
0.0
 10
80.934267
 20
236.999932
 30
0.0
 10
80.439226
 20
237.285745
 30
0.0
  0
SPLINE
  5
18c
100
AcDbEntity
  8
0
 62
7
100
AcDbSpline
 70
8
 71
3
 72
8
 73
4
 74
0
 40
0
 40
0
 40
0
 40
0
 40
1
 40
1
 40
1
 40
1
 10
80.439226
 20
237.285745
 30
0.0
 10
79.944184
 20
237.571557
 30
0.0
 10
79.334267
 20
237.571557
 30
0.0
 10
78.839226
 20
237.285745
 30
0.0
  0
SPLINE
  5
18d
100
AcDbEntity
  8
0
 62
7
100
AcDbSpline
 70
8
 71
3
 72
8
 73
4
 74
0
 40
0
 40
0
 40
0
 40
0
 40
1
 40
1
 40
1
 40
1
 10
78.839226
 20
237.285745
 30
0.0
 10
78.344184
 20
236.999932
 30
0.0
 10
78.039226
 20
236.471729
 30
0.0
 10
78.039226
 20
235.900104
 30
0.0
  0
SPLINE
  5
18e
100
AcDbEntity
  8
0
 62
7
100
AcDbSpline
 70
8
 71
3
 72
8
 73
4
 74
0
 40
0
 40
0
 40
0
 40
0
 40
1
 40
1
 40
1
 40
1
 10
78.039226
 20
235.900104
 30
0.0
 10
78.039226
 20
235.328479
 30
0.0
 10
78.344184
 20
234.800276
 30
0.0
 10
78.839226
 20
234.514464
 30
0.0
  0
SPLINE
  5
18f
100
AcDbEntity
  8
0
 62
7
100
AcDbSpline
 70
8
 71
3
 72
8
 73
4
 74
0
 40
0
 40
0
 40
0
 40
0
 40
1
 40
1
 40
1
 40
1
 10
78.839226
 20
234.514464
 30
0.0
 10
79.334267
 20
234.228651
 30
0.0
 10
79.944184
 20
234.228651
 30
0.0
 10
80.439226
 20
234.514464
 30
0.0
  0
SPLINE
  5
190
100
AcDbEntity
  8
0
 62
7
100
AcDbSpline
 70
8
 71
3
 72
8
 73
4
 74
0
 40
0
 40
0
 40
0
 40
0
 40
1
 40
1
 40
1
 40
1
 10
80.439226
 20
234.514464
 30
0.0
 10
80.934267
 20
234.800276
 30
0.0
 10
81.239226
 20
235.328479
 30
0.0
 10
81.239226
 20
235.900104
 30
0.0
  0
LWPOLYLINE
  5
191
100
AcDbEntity
  8
0
 62
7
100
AcDbPolyline
 90
2
 70
1
 10
101.839226
 20
235.900104
 30
0.0
 10
101.839226
 20
235.900104
 30
0.0
  0
SPLINE
  5
192
100
AcDbEntity
  8
0
 62
7
100
AcDbSpline
 70
8
 71
3
 72
8
 73
4
 74
0
 40
0
 40
0
 40
0
 40
0
 40
1
 40
1
 40
1
 40
1
 10
32.189226
 20
235.900104
 30
0.0
 10
32.189226
 20
236.471729
 30
0.0
 10
31.884267
 20
236.999932
 30
0.0
 10
31.389226
 20
237.285745
 30
0.0
  0
SPLINE
  5
193
100
AcDbEntity
  8
0
 62
7
100
AcDbSpline
 70
8
 71
3
 72
8
 73
4
 74
0
 40
0
 40
0
 40
0
 40
0
 40
1
 40
1
 40
1
 40
1
 10
31.389226
 20
237.285745
 30
0.0
 10
30.894184
 20
237.571557
 30
0.0
 10
30.284267
 20
237.571557
 30
0.0
 10
29.789226
 20
237.285745
 30
0.0
  0
SPLINE
  5
194
100
AcDbEntity
  8
0
 62
7
100
AcDbSpline
 70
8
 71
3
 72
8
 73
4
 74
0
 40
0
 40
0
 40
0
 40
0
 40
1
 40
1
 40
1
 40
1
 10
29.789226
 20
237.285745
 30
0.0
 10
29.294184
 20
236.999932
 30
0.0
 10
28.989226
 20
236.471729
 30
0.0
 10
28.989226
 20
235.900104
 30
0.0
  0
SPLINE
  5
195
100
AcDbEntity
  8
0
 62
7
100
AcDbSpline
 70
8
 71
3
 72
8
 73
4
 74
0
 40
0
 40
0
 40
0
 40
0
 40
1
 40
1
 40
1
 40
1
 10
28.989226
 20
235.900104
 30
0.0
 10
28.989226
 20
235.328479
 30
0.0
 10
29.294184
 20
234.800276
 30
0.0
 10
29.789226
 20
234.514464
 30
0.0
  0
SPLINE
  5
196
100
AcDbEntity
  8
0
 62
7
100
AcDbSpline
 70
8
 71
3
 72
8
 73
4
 74
0
 40
0
 40
0
 40
0
 40
0
 40
1
 40
1
 40
1
 40
1
 10
29.789226
 20
234.514464
 30
0.0
 10
30.284267
 20
234.228651
 30
0.0
 10
30.894184
 20
234.228651
 30
0.0
 10
31.389226
 20
234.514464
 30
0.0
  0
SPLINE
  5
197
100
AcDbEntity
  8
0
 62
7
100
AcDbSpline
 70
8
 71
3
 72
8
 73
4
 74
0
 40
0
 40
0
 40
0
 40
0
 40
1
 40
1
 40
1
 40
1
 10
31.389226
 20
234.514464
 30
0.0
 10
31.884267
 20
234.800276
 30
0.0
 10
32.189226
 20
235.328479
 30
0.0
 10
32.189226
 20
235.900104
 30
0.0
  0
LWPOLYLINE
  5
198
100
AcDbEntity
  8
0
 62
7
100
AcDbPolyline
 90
2
 70
1
 10
81.239226
 20
235.900104
 30
0.0
 10
81.239226
 20
235.900104
 30
0.0
  0
LWPOLYLINE
  5
199
100
AcDbEntity
  8
0
 62
7
100
AcDbPolyline
 90
2
 70
1
 10
32.189226
 20
235.900104
 30
0.0
 10
32.189226
 20
235.900104
 30
0.0
  0
LWPOLYLINE
  5
19a
100
AcDbEntity
  8
0
 62
7
100
AcDbPolyline
 90
2
 70
0
 10
337.414226
 20
388.400104
 30
0.0
 10
343.764226
 20
388.400104
 30
0.0
  0
LWPOLYLINE
  5
19b
100
AcDbEntity
  8
0
 62
7
100
AcDbPolyline
 90
2
 70
0
 10
337.414226
 20
382.400104
 30
0.0
 10
337.414226
 20
388.400104
 30
0.0
  0
LWPOLYLINE
  5
19c
100
AcDbEntity
  8
0
 62
7
100
AcDbPolyline
 90
2
 70
0
 10
343.764226
 20
382.400104
 30
0.0
 10
337.414226
 20
382.400104
 30
0.0
  0
LWPOLYLINE
  5
19d
100
AcDbEntity
  8
0
 62
7
100
AcDbPolyline
 90
2
 70
0
 10
343.764226
 20
388.400104
 30
0.0
 10
343.764226
 20
382.400104
 30
0.0
  0
LWPOLYLINE
  5
19e
100
AcDbEntity
  8
0
 62
7
100
AcDbPolyline
 90
2
 70
0
 10
337.414226
 20
563.400104
 30
0.0
 10
337.414226
 20
569.400104
 30
0.0
  0
LWPOLYLINE
  5
19f
100
AcDbEntity
  8
0
 62
7
100
AcDbPolyline
 90
2
 70
0
 10
343.764226
 20
563.400104
 30
0.0
 10
337.414226
 20
563.400104
 30
0.0
  0
LWPOLYLINE
  5
1a0
100
AcDbEntity
  8
0
 62
7
100
AcDbPolyline
 90
2
 70
0
 10
343.764226
 20
569.400104
 30
0.0
 10
343.764226
 20
563.400104
 30
0.0
  0
LWPOLYLINE
  5
1a1
100
AcDbEntity
  8
0
 62
7
100
AcDbPolyline
 90
2
 70
0
 10
337.414226
 20
569.400104
 30
0.0
 10
343.764226
 20
569.400104
 30
0.0
  0
LWPOLYLINE
  5
1a2
100
AcDbEntity
  8
0
 62
7
100
AcDbPolyline
 90
2
 70
0
 10
343.764226
 20
542.400104
 30
0.0
 10
337.414226
 20
542.400104
 30
0.0
  0
LWPOLYLINE
  5
1a3
100
AcDbEntity
  8
0
 62
7
100
AcDbPolyline
 90
2
 70
0
 10
343.764226
 20
548.400104
 30
0.0
 10
343.764226
 20
542.400104
 30
0.0
  0
LWPOLYLINE
  5
1a4
100
AcDbEntity
  8
0
 62
7
100
AcDbPolyline
 90
2
 70
0
 10
337.414226
 20
548.400104
 30
0.0
 10
343.764226
 20
548.400104
 30
0.0
  0
LWPOLYLINE
  5
1a5
100
AcDbEntity
  8
0
 62
7
100
AcDbPolyline
 90
2
 70
0
 10
337.414226
 20
542.400104
 30
0.0
 10
337.414226
 20
548.400104
 30
0.0
  0
LWPOLYLINE
  5
1a6
100
AcDbEntity
  8
0
 62
7
100
AcDbPolyline
 90
2
 70
0
 10
337.414226
 20
243.400104
 30
0.0
 10
337.414226
 20
249.400104
 30
0.0
  0
LWPOLYLINE
  5
1a7
100
AcDbEntity
  8
0
 62
7
100
AcDbPolyline
 90
2
 70
0
 10
343.764226
 20
243.400104
 30
0.0
 10
337.414226
 20
243.400104
 30
0.0
  0
LWPOLYLINE
  5
1a8
100
AcDbEntity
  8
0
 62
7
100
AcDbPolyline
 90
2
 70
0
 10
343.764226
 20
249.400104
 30
0.0
 10
343.764226
 20
243.400104
 30
0.0
  0
LWPOLYLINE
  5
1a9
100
AcDbEntity
  8
0
 62
7
100
AcDbPolyline
 90
2
 70
0
 10
337.414226
 20
249.400104
 30
0.0
 10
343.764226
 20
249.400104
 30
0.0
  0
LWPOLYLINE
  5
1aa
100
AcDbEntity
  8
0
 62
7
100
AcDbPolyline
 90
2
 70
0
 10
337.414226
 20
228.400104
 30
0.0
 10
343.764226
 20
228.400104
 30
0.0
  0
LWPOLYLINE
  5
1ab
100
AcDbEntity
  8
0
 62
7
100
AcDbPolyline
 90
2
 70
0
 10
337.414226
 20
222.400104
 30
0.0
 10
337.414226
 20
228.400104
 30
0.0
  0
LWPOLYLINE
  5
1ac
100
AcDbEntity
  8
0
 62
7
100
AcDbPolyline
 90
2
 70
0
 10
343.764226
 20
222.400104
 30
0.0
 10
337.414226
 20
222.400104
 30
0.0
  0
LWPOLYLINE
  5
1ad
100
AcDbEntity
  8
0
 62
7
100
AcDbPolyline
 90
2
 70
0
 10
343.764226
 20
228.400104
 30
0.0
 10
343.764226
 20
222.400104
 30
0.0
  0
LWPOLYLINE
  5
1ae
100
AcDbEntity
  8
0
 62
7
100
AcDbPolyline
 90
2
 70
0
 10
337.414226
 20
403.400104
 30
0.0
 10
337.414226
 20
409.400104
 30
0.0
  0
LWPOLYLINE
  5
1af
100
AcDbEntity
  8
0
 62
7
100
AcDbPolyline
 90
2
 70
0
 10
343.764226
 20
403.400104
 30
0.0
 10
337.414226
 20
403.400104
 30
0.0
  0
LWPOLYLINE
  5
1b0
100
AcDbEntity
  8
0
 62
7
100
AcDbPolyline
 90
2
 70
0
 10
343.764226
 20
409.400104
 30
0.0
 10
343.764226
 20
403.400104
 30
0.0
  0
SPLINE
  5
1b1
100
AcDbEntity
  8
0
 62
7
100
AcDbSpline
 70
8
 71
3
 72
8
 73
4
 74
0
 40
0
 40
0
 40
0
 40
0
 40
1
 40
1
 40
1
 40
1
 10
342.189225
 20
555.900104
 30
0.0
 10
342.189225
 20
556.471729
 30
0.0
 10
341.884267
 20
556.999932
 30
0.0
 10
341.389225
 20
557.285745
 30
0.0
  0
SPLINE
  5
1b2
100
AcDbEntity
  8
0
 62
7
100
AcDbSpline
 70
8
 71
3
 72
8
 73
4
 74
0
 40
0
 40
0
 40
0
 40
0
 40
1
 40
1
 40
1
 40
1
 10
341.389225
 20
557.285745
 30
0.0
 10
340.894184
 20
557.571557
 30
0.0
 10
340.284267
 20
557.571557
 30
0.0
 10
339.789226
 20
557.285745
 30
0.0
  0
SPLINE
  5
1b3
100
AcDbEntity
  8
0
 62
7
100
AcDbSpline
 70
8
 71
3
 72
8
 73
4
 74
0
 40
0
 40
0
 40
0
 40
0
 40
1
 40
1
 40
1
 40
1
 10
339.789226
 20
557.285745
 30
0.0
 10
339.294184
 20
556.999932
 30
0.0
 10
338.989226
 20
556.471729
 30
0.0
 10
338.989226
 20
555.900104
 30
0.0
  0
SPLINE
  5
1b4
100
AcDbEntity
  8
0
 62
7
100
AcDbSpline
 70
8
 71
3
 72
8
 73
4
 74
0
 40
0
 40
0
 40
0
 40
0
 40
1
 40
1
 40
1
 40
1
 10
338.989226
 20
555.900104
 30
0.0
 10
338.989226
 20
555.328479
 30
0.0
 10
339.294184
 20
554.800276
 30
0.0
 10
339.789226
 20
554.514464
 30
0.0
  0
SPLINE
  5
1b5
100
AcDbEntity
  8
0
 62
7
100
AcDbSpline
 70
8
 71
3
 72
8
 73
4
 74
0
 40
0
 40
0
 40
0
 40
0
 40
1
 40
1
 40
1
 40
1
 10
339.789226
 20
554.514464
 30
0.0
 10
340.284267
 20
554.228651
 30
0.0
 10
340.894184
 20
554.228651
 30
0.0
 10
341.389226
 20
554.514464
 30
0.0
  0
SPLINE
  5
1b6
100
AcDbEntity
  8
0
 62
7
100
AcDbSpline
 70
8
 71
3
 72
8
 73
4
 74
0
 40
0
 40
0
 40
0
 40
0
 40
1
 40
1
 40
1
 40
1
 10
341.389226
 20
554.514464
 30
0.0
 10
341.884267
 20
554.800276
 30
0.0
 10
342.189226
 20
555.328479
 30
0.0
 10
342.189226
 20
555.900104
 30
0.0
  0
LWPOLYLINE
  5
1b7
100
AcDbEntity
  8
0
 62
7
100
AcDbPolyline
 90
2
 70
0
 10
337.414226
 20
409.400104
 30
0.0
 10
343.764226
 20
409.400104
 30
0.0
  0
SPLINE
  5
1b8
100
AcDbEntity
  8
0
 62
7
100
AcDbSpline
 70
8
 71
3
 72
8
 73
4
 74
0
 40
0
 40
0
 40
0
 40
0
 40
1
 40
1
 40
1
 40
1
 10
342.189225
 20
235.900104
 30
0.0
 10
342.189225
 20
236.471729
 30
0.0
 10
341.884267
 20
236.999932
 30
0.0
 10
341.389225
 20
237.285745
 30
0.0
  0
SPLINE
  5
1b9
100
AcDbEntity
  8
0
 62
7
100
AcDbSpline
 70
8
 71
3
 72
8
 73
4
 74
0
 40
0
 40
0
 40
0
 40
0
 40
1
 40
1
 40
1
 40
1
 10
341.389225
 20
237.285745
 30
0.0
 10
340.894184
 20
237.571557
 30
0.0
 10
340.284267
 20
237.571557
 30
0.0
 10
339.789226
 20
237.285745
 30
0.0
  0
SPLINE
  5
1ba
100
AcDbEntity
  8
0
 62
7
100
AcDbSpline
 70
8
 71
3
 72
8
 73
4
 74
0
 40
0
 40
0
 40
0
 40
0
 40
1
 40
1
 40
1
 40
1
 10
339.789226
 20
237.285745
 30
0.0
 10
339.294184
 20
236.999932
 30
0.0
 10
338.989226
 20
236.471729
 30
0.0
 10
338.989226
 20
235.900104
 30
0.0
  0
SPLINE
  5
1bb
100
AcDbEntity
  8
0
 62
7
100
AcDbSpline
 70
8
 71
3
 72
8
 73
4
 74
0
 40
0
 40
0
 40
0
 40
0
 40
1
 40
1
 40
1
 40
1
 10
338.989226
 20
235.900104
 30
0.0
 10
338.989226
 20
235.328479
 30
0.0
 10
339.294184
 20
234.800276
 30
0.0
 10
339.789226
 20
234.514464
 30
0.0
  0
SPLINE
  5
1bc
100
AcDbEntity
  8
0
 62
7
100
AcDbSpline
 70
8
 71
3
 72
8
 73
4
 74
0
 40
0
 40
0
 40
0
 40
0
 40
1
 40
1
 40
1
 40
1
 10
339.789226
 20
234.514464
 30
0.0
 10
340.284267
 20
234.228651
 30
0.0
 10
340.894184
 20
234.228651
 30
0.0
 10
341.389226
 20
234.514464
 30
0.0
  0
SPLINE
  5
1bd
100
AcDbEntity
  8
0
 62
7
100
AcDbSpline
 70
8
 71
3
 72
8
 73
4
 74
0
 40
0
 40
0
 40
0
 40
0
 40
1
 40
1
 40
1
 40
1
 10
341.389226
 20
234.514464
 30
0.0
 10
341.884267
 20
234.800276
 30
0.0
 10
342.189226
 20
235.328479
 30
0.0
 10
342.189226
 20
235.900104
 30
0.0
  0
LWPOLYLINE
  5
1be
100
AcDbEntity
  8
0
 62
7
100
AcDbPolyline
 90
2
 70
1
 10
342.189226
 20
555.900104
 30
0.0
 10
342.189226
 20
555.900104
 30
0.0
  0
SPLINE
  5
1bf
100
AcDbEntity
  8
0
 62
7
100
AcDbSpline
 70
8
 71
3
 72
8
 73
4
 74
0
 40
0
 40
0
 40
0
 40
0
 40
1
 40
1
 40
1
 40
1
 10
342.189225
 20
395.900104
 30
0.0
 10
342.189225
 20
396.471729
 30
0.0
 10
341.884267
 20
396.999932
 30
0.0
 10
341.389225
 20
397.285745
 30
0.0
  0
SPLINE
  5
1c0
100
AcDbEntity
  8
0
 62
7
100
AcDbSpline
 70
8
 71
3
 72
8
 73
4
 74
0
 40
0
 40
0
 40
0
 40
0
 40
1
 40
1
 40
1
 40
1
 10
341.389225
 20
397.285745
 30
0.0
 10
340.894184
 20
397.571557
 30
0.0
 10
340.284267
 20
397.571557
 30
0.0
 10
339.789226
 20
397.285745
 30
0.0
  0
SPLINE
  5
1c1
100
AcDbEntity
  8
0
 62
7
100
AcDbSpline
 70
8
 71
3
 72
8
 73
4
 74
0
 40
0
 40
0
 40
0
 40
0
 40
1
 40
1
 40
1
 40
1
 10
339.789226
 20
397.285745
 30
0.0
 10
339.294184
 20
396.999932
 30
0.0
 10
338.989226
 20
396.471729
 30
0.0
 10
338.989226
 20
395.900104
 30
0.0
  0
SPLINE
  5
1c2
100
AcDbEntity
  8
0
 62
7
100
AcDbSpline
 70
8
 71
3
 72
8
 73
4
 74
0
 40
0
 40
0
 40
0
 40
0
 40
1
 40
1
 40
1
 40
1
 10
338.989226
 20
395.900104
 30
0.0
 10
338.989226
 20
395.328479
 30
0.0
 10
339.294184
 20
394.800276
 30
0.0
 10
339.789226
 20
394.514464
 30
0.0
  0
SPLINE
  5
1c3
100
AcDbEntity
  8
0
 62
7
100
AcDbSpline
 70
8
 71
3
 72
8
 73
4
 74
0
 40
0
 40
0
 40
0
 40
0
 40
1
 40
1
 40
1
 40
1
 10
339.789226
 20
394.514464
 30
0.0
 10
340.284267
 20
394.228651
 30
0.0
 10
340.894184
 20
394.228651
 30
0.0
 10
341.389226
 20
394.514464
 30
0.0
  0
SPLINE
  5
1c4
100
AcDbEntity
  8
0
 62
7
100
AcDbSpline
 70
8
 71
3
 72
8
 73
4
 74
0
 40
0
 40
0
 40
0
 40
0
 40
1
 40
1
 40
1
 40
1
 10
341.389226
 20
394.514464
 30
0.0
 10
341.884267
 20
394.800276
 30
0.0
 10
342.189226
 20
395.328479
 30
0.0
 10
342.189226
 20
395.900104
 30
0.0
  0
LWPOLYLINE
  5
1c5
100
AcDbEntity
  8
0
 62
7
100
AcDbPolyline
 90
2
 70
1
 10
342.189226
 20
235.900104
 30
0.0
 10
342.189226
 20
235.900104
 30
0.0
  0
LWPOLYLINE
  5
1c6
100
AcDbEntity
  8
0
 62
7
100
AcDbPolyline
 90
2
 70
1
 10
342.189226
 20
395.900104
 30
0.0
 10
342.189226
 20
395.900104
 30
0.0
  0
LWPOLYLINE
  5
1c7
100
AcDbEntity
  8
0
 62
7
100
AcDbPolyline
 90
2
 70
0
 10
378.214226
 20
267.250104
 30
0.0
 10
378.214226
 20
260.900104
 30
0.0
  0
LWPOLYLINE
  5
1c8
100
AcDbEntity
  8
0
 62
7
100
AcDbPolyline
 90
2
 70
0
 10
372.214226
 20
267.250104
 30
0.0
 10
378.214226
 20
267.250104
 30
0.0
  0
LWPOLYLINE
  5
1c9
100
AcDbEntity
  8
0
 62
7
100
AcDbPolyline
 90
2
 70
0
 10
372.214226
 20
260.900104
 30
0.0
 10
372.214226
 20
267.250104
 30
0.0
  0
LWPOLYLINE
  5
1ca
100
AcDbEntity
  8
0
 62
7
100
AcDbPolyline
 90
2
 70
0
 10
378.214226
 20
260.900104
 30
0.0
 10
372.214226
 20
260.900104
 30
0.0
  0
LWPOLYLINE
  5
1cb
100
AcDbEntity
  8
0
 62
7
100
AcDbPolyline
 90
2
 70
0
 10
399.214226
 20
267.250104
 30
0.0
 10
399.214226
 20
260.900104
 30
0.0
  0
LWPOLYLINE
  5
1cc
100
AcDbEntity
  8
0
 62
7
100
AcDbPolyline
 90
2
 70
0
 10
393.214226
 20
267.250104
 30
0.0
 10
399.214226
 20
267.250104
 30
0.0
  0
LWPOLYLINE
  5
1cd
100
AcDbEntity
  8
0
 62
7
100
AcDbPolyline
 90
2
 70
0
 10
393.214226
 20
260.900104
 30
0.0
 10
393.214226
 20
267.250104
 30
0.0
  0
LWPOLYLINE
  5
1ce
100
AcDbEntity
  8
0
 62
7
100
AcDbPolyline
 90
2
 70
0
 10
399.214226
 20
260.900104
 30
0.0
 10
393.214226
 20
260.900104
 30
0.0
  0
LWPOLYLINE
  5
1cf
100
AcDbEntity
  8
0
 62
7
100
AcDbPolyline
 90
2
 70
0
 10
364.364226
 20
243.400104
 30
0.0
 10
358.014226
 20
243.400104
 30
0.0
  0
LWPOLYLINE
  5
1d0
100
AcDbEntity
  8
0
 62
7
100
AcDbPolyline
 90
2
 70
0
 10
364.364226
 20
249.400104
 30
0.0
 10
364.364226
 20
243.400104
 30
0.0
  0
LWPOLYLINE
  5
1d1
100
AcDbEntity
  8
0
 62
7
100
AcDbPolyline
 90
2
 70
0
 10
358.014226
 20
249.400104
 30
0.0
 10
364.364226
 20
249.400104
 30
0.0
  0
LWPOLYLINE
  5
1d2
100
AcDbEntity
  8
0
 62
7
100
AcDbPolyline
 90
2
 70
0
 10
358.014226
 20
243.400104
 30
0.0
 10
358.014226
 20
249.400104
 30
0.0
  0
LWPOLYLINE
  5
1d3
100
AcDbEntity
  8
0
 62
7
100
AcDbPolyline
 90
2
 70
0
 10
407.064226
 20
243.400104
 30
0.0
 10
407.064226
 20
249.400104
 30
0.0
  0
LWPOLYLINE
  5
1d4
100
AcDbEntity
  8
0
 62
7
100
AcDbPolyline
 90
2
 70
0
 10
413.414226
 20
243.400104
 30
0.0
 10
407.064226
 20
243.400104
 30
0.0
  0
LWPOLYLINE
  5
1d5
100
AcDbEntity
  8
0
 62
7
100
AcDbPolyline
 90
2
 70
0
 10
413.414226
 20
249.400104
 30
0.0
 10
413.414226
 20
243.400104
 30
0.0
  0
LWPOLYLINE
  5
1d6
100
AcDbEntity
  8
0
 62
7
100
AcDbPolyline
 90
2
 70
0
 10
407.064226
 20
249.400104
 30
0.0
 10
413.414226
 20
249.400104
 30
0.0
  0
LWPOLYLINE
  5
1d7
100
AcDbEntity
  8
0
 62
7
100
AcDbPolyline
 90
2
 70
0
 10
407.064226
 20
222.400104
 30
0.0
 10
407.064226
 20
228.400104
 30
0.0
  0
LWPOLYLINE
  5
1d8
100
AcDbEntity
  8
0
 62
7
100
AcDbPolyline
 90
2
 70
0
 10
413.414226
 20
222.400104
 30
0.0
 10
407.064226
 20
222.400104
 30
0.0
  0
LWPOLYLINE
  5
1d9
100
AcDbEntity
  8
0
 62
7
100
AcDbPolyline
 90
2
 70
0
 10
413.414226
 20
228.400104
 30
0.0
 10
413.414226
 20
222.400104
 30
0.0
  0
LWPOLYLINE
  5
1da
100
AcDbEntity
  8
0
 62
7
100
AcDbPolyline
 90
2
 70
0
 10
407.064226
 20
228.400104
 30
0.0
 10
413.414226
 20
228.400104
 30
0.0
  0
LWPOLYLINE
  5
1db
100
AcDbEntity
  8
0
 62
7
100
AcDbPolyline
 90
2
 70
0
 10
358.014226
 20
228.400104
 30
0.0
 10
364.364226
 20
228.400104
 30
0.0
  0
LWPOLYLINE
  5
1dc
100
AcDbEntity
  8
0
 62
7
100
AcDbPolyline
 90
2
 70
0
 10
358.014226
 20
222.400104
 30
0.0
 10
358.014226
 20
228.400104
 30
0.0
  0
LWPOLYLINE
  5
1dd
100
AcDbEntity
  8
0
 62
7
100
AcDbPolyline
 90
2
 70
0
 10
364.364226
 20
222.400104
 30
0.0
 10
358.014226
 20
222.400104
 30
0.0
  0
SPLINE
  5
1de
100
AcDbEntity
  8
0
 62
7
100
AcDbSpline
 70
8
 71
3
 72
8
 73
4
 74
0
 40
0
 40
0
 40
0
 40
0
 40
1
 40
1
 40
1
 40
1
 10
411.839226
 20
235.900104
 30
0.0
 10
411.839226
 20
236.471729
 30
0.0
 10
411.534267
 20
236.999932
 30
0.0
 10
411.039226
 20
237.285745
 30
0.0
  0
SPLINE
  5
1df
100
AcDbEntity
  8
0
 62
7
100
AcDbSpline
 70
8
 71
3
 72
8
 73
4
 74
0
 40
0
 40
0
 40
0
 40
0
 40
1
 40
1
 40
1
 40
1
 10
411.039226
 20
237.285745
 30
0.0
 10
410.544184
 20
237.571557
 30
0.0
 10
409.934267
 20
237.571557
 30
0.0
 10
409.439226
 20
237.285745
 30
0.0
  0
SPLINE
  5
1e0
100
AcDbEntity
  8
0
 62
7
100
AcDbSpline
 70
8
 71
3
 72
8
 73
4
 74
0
 40
0
 40
0
 40
0
 40
0
 40
1
 40
1
 40
1
 40
1
 10
409.439226
 20
237.285745
 30
0.0
 10
408.944184
 20
236.999932
 30
0.0
 10
408.639226
 20
236.471729
 30
0.0
 10
408.639226
 20
235.900104
 30
0.0
  0
SPLINE
  5
1e1
100
AcDbEntity
  8
0
 62
7
100
AcDbSpline
 70
8
 71
3
 72
8
 73
4
 74
0
 40
0
 40
0
 40
0
 40
0
 40
1
 40
1
 40
1
 40
1
 10
408.639226
 20
235.900104
 30
0.0
 10
408.639226
 20
235.328479
 30
0.0
 10
408.944184
 20
234.800276
 30
0.0
 10
409.439226
 20
234.514464
 30
0.0
  0
SPLINE
  5
1e2
100
AcDbEntity
  8
0
 62
7
100
AcDbSpline
 70
8
 71
3
 72
8
 73
4
 74
0
 40
0
 40
0
 40
0
 40
0
 40
1
 40
1
 40
1
 40
1
 10
409.439226
 20
234.514464
 30
0.0
 10
409.934267
 20
234.228651
 30
0.0
 10
410.544184
 20
234.228651
 30
0.0
 10
411.039226
 20
234.514464
 30
0.0
  0
SPLINE
  5
1e3
100
AcDbEntity
  8
0
 62
7
100
AcDbSpline
 70
8
 71
3
 72
8
 73
4
 74
0
 40
0
 40
0
 40
0
 40
0
 40
1
 40
1
 40
1
 40
1
 10
411.039226
 20
234.514464
 30
0.0
 10
411.534267
 20
234.800276
 30
0.0
 10
411.839226
 20
235.328479
 30
0.0
 10
411.839226
 20
235.900104
 30
0.0
  0
LWPOLYLINE
  5
1e4
100
AcDbEntity
  8
0
 62
7
100
AcDbPolyline
 90
2
 70
0
 10
364.364226
 20
228.400104
 30
0.0
 10
364.364226
 20
222.400104
 30
0.0
  0
SPLINE
  5
1e5
100
AcDbEntity
  8
0
 62
7
100
AcDbSpline
 70
8
 71
3
 72
8
 73
4
 74
0
 40
0
 40
0
 40
0
 40
0
 40
1
 40
1
 40
1
 40
1
 10
387.314226
 20
264.075104
 30
0.0
 10
387.314226
 20
264.646729
 30
0.0
 10
387.009267
 20
265.174932
 30
0.0
 10
386.514226
 20
265.460745
 30
0.0
  0
SPLINE
  5
1e6
100
AcDbEntity
  8
0
 62
7
100
AcDbSpline
 70
8
 71
3
 72
8
 73
4
 74
0
 40
0
 40
0
 40
0
 40
0
 40
1
 40
1
 40
1
 40
1
 10
386.514226
 20
265.460745
 30
0.0
 10
386.019184
 20
265.746557
 30
0.0
 10
385.409267
 20
265.746557
 30
0.0
 10
384.914226
 20
265.460745
 30
0.0
  0
SPLINE
  5
1e7
100
AcDbEntity
  8
0
 62
7
100
AcDbSpline
 70
8
 71
3
 72
8
 73
4
 74
0
 40
0
 40
0
 40
0
 40
0
 40
1
 40
1
 40
1
 40
1
 10
384.914226
 20
265.460745
 30
0.0
 10
384.419184
 20
265.174932
 30
0.0
 10
384.114226
 20
264.646729
 30
0.0
 10
384.114226
 20
264.075104
 30
0.0
  0
SPLINE
  5
1e8
100
AcDbEntity
  8
0
 62
7
100
AcDbSpline
 70
8
 71
3
 72
8
 73
4
 74
0
 40
0
 40
0
 40
0
 40
0
 40
1
 40
1
 40
1
 40
1
 10
384.114226
 20
264.075104
 30
0.0
 10
384.114226
 20
263.503479
 30
0.0
 10
384.419184
 20
262.975276
 30
0.0
 10
384.914226
 20
262.689463
 30
0.0
  0
SPLINE
  5
1e9
100
AcDbEntity
  8
0
 62
7
100
AcDbSpline
 70
8
 71
3
 72
8
 73
4
 74
0
 40
0
 40
0
 40
0
 40
0
 40
1
 40
1
 40
1
 40
1
 10
384.914226
 20
262.689463
 30
0.0
 10
385.409267
 20
262.403651
 30
0.0
 10
386.019184
 20
262.403651
 30
0.0
 10
386.514226
 20
262.689463
 30
0.0
  0
SPLINE
  5
1ea
100
AcDbEntity
  8
0
 62
7
100
AcDbSpline
 70
8
 71
3
 72
8
 73
4
 74
0
 40
0
 40
0
 40
0
 40
0
 40
1
 40
1
 40
1
 40
1
 10
386.514226
 20
262.689463
 30
0.0
 10
387.009267
 20
262.975276
 30
0.0
 10
387.314226
 20
263.503479
 30
0.0
 10
387.314226
 20
264.075104
 30
0.0
  0
LWPOLYLINE
  5
1eb
100
AcDbEntity
  8
0
 62
7
100
AcDbPolyline
 90
2
 70
1
 10
411.839226
 20
235.900104
 30
0.0
 10
411.839226
 20
235.900104
 30
0.0
  0
SPLINE
  5
1ec
100
AcDbEntity
  8
0
 62
7
100
AcDbSpline
 70
8
 71
3
 72
8
 73
4
 74
0
 40
0
 40
0
 40
0
 40
0
 40
1
 40
1
 40
1
 40
1
 10
362.789225
 20
235.900104
 30
0.0
 10
362.789225
 20
236.471729
 30
0.0
 10
362.484267
 20
236.999932
 30
0.0
 10
361.989226
 20
237.285745
 30
0.0
  0
SPLINE
  5
1ed
100
AcDbEntity
  8
0
 62
7
100
AcDbSpline
 70
8
 71
3
 72
8
 73
4
 74
0
 40
0
 40
0
 40
0
 40
0
 40
1
 40
1
 40
1
 40
1
 10
361.989226
 20
237.285745
 30
0.0
 10
361.494184
 20
237.571557
 30
0.0
 10
360.884267
 20
237.571557
 30
0.0
 10
360.389226
 20
237.285745
 30
0.0
  0
SPLINE
  5
1ee
100
AcDbEntity
  8
0
 62
7
100
AcDbSpline
 70
8
 71
3
 72
8
 73
4
 74
0
 40
0
 40
0
 40
0
 40
0
 40
1
 40
1
 40
1
 40
1
 10
360.389226
 20
237.285745
 30
0.0
 10
359.894184
 20
236.999932
 30
0.0
 10
359.589226
 20
236.471729
 30
0.0
 10
359.589226
 20
235.900104
 30
0.0
  0
SPLINE
  5
1ef
100
AcDbEntity
  8
0
 62
7
100
AcDbSpline
 70
8
 71
3
 72
8
 73
4
 74
0
 40
0
 40
0
 40
0
 40
0
 40
1
 40
1
 40
1
 40
1
 10
359.589226
 20
235.900104
 30
0.0
 10
359.589226
 20
235.328479
 30
0.0
 10
359.894184
 20
234.800276
 30
0.0
 10
360.389226
 20
234.514464
 30
0.0
  0
SPLINE
  5
1f0
100
AcDbEntity
  8
0
 62
7
100
AcDbSpline
 70
8
 71
3
 72
8
 73
4
 74
0
 40
0
 40
0
 40
0
 40
0
 40
1
 40
1
 40
1
 40
1
 10
360.389226
 20
234.514464
 30
0.0
 10
360.884267
 20
234.228651
 30
0.0
 10
361.494184
 20
234.228651
 30
0.0
 10
361.989226
 20
234.514464
 30
0.0
  0
SPLINE
  5
1f1
100
AcDbEntity
  8
0
 62
7
100
AcDbSpline
 70
8
 71
3
 72
8
 73
4
 74
0
 40
0
 40
0
 40
0
 40
0
 40
1
 40
1
 40
1
 40
1
 10
361.989226
 20
234.514464
 30
0.0
 10
362.484267
 20
234.800276
 30
0.0
 10
362.789226
 20
235.328479
 30
0.0
 10
362.789226
 20
235.900104
 30
0.0
  0
LWPOLYLINE
  5
1f2
100
AcDbEntity
  8
0
 62
7
100
AcDbPolyline
 90
2
 70
1
 10
387.314226
 20
264.075104
 30
0.0
 10
387.314226
 20
264.075104
 30
0.0
  0
SPLINE
  5
1f3
100
AcDbEntity
  8
0
 62
7
100
AcDbSpline
 70
8
 71
3
 72
8
 73
4
 74
0
 40
0
 40
0
 40
0
 40
0
 40
1
 40
1
 40
1
 40
1
 10
512.710346
 20
280.900104
 30
0.0
 10
512.710346
 20
281.471729
 30
0.0
 10
512.405388
 20
281.999932
 30
0.0
 10
511.910346
 20
282.285745
 30
0.0
  0
SPLINE
  5
1f4
100
AcDbEntity
  8
0
 62
7
100
AcDbSpline
 70
8
 71
3
 72
8
 73
4
 74
0
 40
0
 40
0
 40
0
 40
0
 40
1
 40
1
 40
1
 40
1
 10
511.910346
 20
282.285745
 30
0.0
 10
511.415305
 20
282.571557
 30
0.0
 10
510.805388
 20
282.571557
 30
0.0
 10
510.310346
 20
282.285745
 30
0.0
  0
SPLINE
  5
1f5
100
AcDbEntity
  8
0
 62
7
100
AcDbSpline
 70
8
 71
3
 72
8
 73
4
 74
0
 40
0
 40
0
 40
0
 40
0
 40
1
 40
1
 40
1
 40
1
 10
510.310346
 20
282.285745
 30
0.0
 10
509.815305
 20
281.999932
 30
0.0
 10
509.510346
 20
281.471729
 30
0.0
 10
509.510346
 20
280.900104
 30
0.0
  0
SPLINE
  5
1f6
100
AcDbEntity
  8
0
 62
7
100
AcDbSpline
 70
8
 71
3
 72
8
 73
4
 74
0
 40
0
 40
0
 40
0
 40
0
 40
1
 40
1
 40
1
 40
1
 10
509.510346
 20
280.900104
 30
0.0
 10
509.510346
 20
280.328479
 30
0.0
 10
509.815304
 20
279.800276
 30
0.0
 10
510.310346
 20
279.514463
 30
0.0
  0
SPLINE
  5
1f7
100
AcDbEntity
  8
0
 62
7
100
AcDbSpline
 70
8
 71
3
 72
8
 73
4
 74
0
 40
0
 40
0
 40
0
 40
0
 40
1
 40
1
 40
1
 40
1
 10
510.310346
 20
279.514463
 30
0.0
 10
510.805388
 20
279.228651
 30
0.0
 10
511.415305
 20
279.228651
 30
0.0
 10
511.910346
 20
279.514463
 30
0.0
  0
SPLINE
  5
1f8
100
AcDbEntity
  8
0
 62
7
100
AcDbSpline
 70
8
 71
3
 72
8
 73
4
 74
0
 40
0
 40
0
 40
0
 40
0
 40
1
 40
1
 40
1
 40
1
 10
511.910346
 20
279.514463
 30
0.0
 10
512.405388
 20
279.800276
 30
0.0
 10
512.710346
 20
280.328479
 30
0.0
 10
512.710346
 20
280.900104
 30
0.0
  0
LWPOLYLINE
  5
1f9
100
AcDbEntity
  8
0
 62
7
100
AcDbPolyline
 90
2
 70
1
 10
362.789226
 20
235.900104
 30
0.0
 10
362.789226
 20
235.900104
 30
0.0
  0
SPLINE
  5
1fa
100
AcDbEntity
  8
0
 62
7
100
AcDbSpline
 70
8
 71
3
 72
8
 73
4
 74
0
 40
0
 40
0
 40
0
 40
0
 40
1
 40
1
 40
1
 40
1
 10
469.530346
 20
280.900104
 30
0.0
 10
469.530346
 20
281.471729
 30
0.0
 10
469.225388
 20
281.999932
 30
0.0
 10
468.730346
 20
282.285745
 30
0.0
  0
SPLINE
  5
1fb
100
AcDbEntity
  8
0
 62
7
100
AcDbSpline
 70
8
 71
3
 72
8
 73
4
 74
0
 40
0
 40
0
 40
0
 40
0
 40
1
 40
1
 40
1
 40
1
 10
468.730346
 20
282.285745
 30
0.0
 10
468.235305
 20
282.571557
 30
0.0
 10
467.625388
 20
282.571557
 30
0.0
 10
467.130346
 20
282.285745
 30
0.0
  0
SPLINE
  5
1fc
100
AcDbEntity
  8
0
 62
7
100
AcDbSpline
 70
8
 71
3
 72
8
 73
4
 74
0
 40
0
 40
0
 40
0
 40
0
 40
1
 40
1
 40
1
 40
1
 10
467.130346
 20
282.285745
 30
0.0
 10
466.635305
 20
281.999932
 30
0.0
 10
466.330346
 20
281.471729
 30
0.0
 10
466.330346
 20
280.900104
 30
0.0
  0
SPLINE
  5
1fd
100
AcDbEntity
  8
0
 62
7
100
AcDbSpline
 70
8
 71
3
 72
8
 73
4
 74
0
 40
0
 40
0
 40
0
 40
0
 40
1
 40
1
 40
1
 40
1
 10
466.330346
 20
280.900104
 30
0.0
 10
466.330346
 20
280.328479
 30
0.0
 10
466.635305
 20
279.800276
 30
0.0
 10
467.130346
 20
279.514464
 30
0.0
  0
SPLINE
  5
1fe
100
AcDbEntity
  8
0
 62
7
100
AcDbSpline
 70
8
 71
3
 72
8
 73
4
 74
0
 40
0
 40
0
 40
0
 40
0
 40
1
 40
1
 40
1
 40
1
 10
467.130346
 20
279.514464
 30
0.0
 10
467.625388
 20
279.228651
 30
0.0
 10
468.235305
 20
279.228651
 30
0.0
 10
468.730346
 20
279.514464
 30
0.0
  0
SPLINE
  5
1ff
100
AcDbEntity
  8
0
 62
7
100
AcDbSpline
 70
8
 71
3
 72
8
 73
4
 74
0
 40
0
 40
0
 40
0
 40
0
 40
1
 40
1
 40
1
 40
1
 10
468.730346
 20
279.514464
 30
0.0
 10
469.225388
 20
279.800276
 30
0.0
 10
469.530346
 20
280.328479
 30
0.0
 10
469.530346
 20
280.900104
 30
0.0
  0
LWPOLYLINE
  5
200
100
AcDbEntity
  8
0
 62
7
100
AcDbPolyline
 90
2
 70
1
 10
512.710346
 20
280.900104
 30
0.0
 10
512.710346
 20
280.900104
 30
0.0
  0
SPLINE
  5
201
100
AcDbEntity
  8
0
 62
7
100
AcDbSpline
 70
8
 71
3
 72
8
 73
4
 74
0
 40
0
 40
0
 40
0
 40
0
 40
1
 40
1
 40
1
 40
1
 10
469.530346
 20
374.880104
 30
0.0
 10
469.530346
 20
375.451729
 30
0.0
 10
469.225388
 20
375.979932
 30
0.0
 10
468.730346
 20
376.265745
 30
0.0
  0
SPLINE
  5
202
100
AcDbEntity
  8
0
 62
7
100
AcDbSpline
 70
8
 71
3
 72
8
 73
4
 74
0
 40
0
 40
0
 40
0
 40
0
 40
1
 40
1
 40
1
 40
1
 10
468.730346
 20
376.265745
 30
0.0
 10
468.235305
 20
376.551557
 30
0.0
 10
467.625388
 20
376.551557
 30
0.0
 10
467.130346
 20
376.265745
 30
0.0
  0
SPLINE
  5
203
100
AcDbEntity
  8
0
 62
7
100
AcDbSpline
 70
8
 71
3
 72
8
 73
4
 74
0
 40
0
 40
0
 40
0
 40
0
 40
1
 40
1
 40
1
 40
1
 10
467.130346
 20
376.265745
 30
0.0
 10
466.635305
 20
375.979932
 30
0.0
 10
466.330346
 20
375.451729
 30
0.0
 10
466.330346
 20
374.880104
 30
0.0
  0
SPLINE
  5
204
100
AcDbEntity
  8
0
 62
7
100
AcDbSpline
 70
8
 71
3
 72
8
 73
4
 74
0
 40
0
 40
0
 40
0
 40
0
 40
1
 40
1
 40
1
 40
1
 10
466.330346
 20
374.880104
 30
0.0
 10
466.330346
 20
374.308479
 30
0.0
 10
466.635305
 20
373.780276
 30
0.0
 10
467.130346
 20
373.494464
 30
0.0
  0
SPLINE
  5
205
100
AcDbEntity
  8
0
 62
7
100
AcDbSpline
 70
8
 71
3
 72
8
 73
4
 74
0
 40
0
 40
0
 40
0
 40
0
 40
1
 40
1
 40
1
 40
1
 10
467.130346
 20
373.494464
 30
0.0
 10
467.625388
 20
373.208651
 30
0.0
 10
468.235305
 20
373.208651
 30
0.0
 10
468.730346
 20
373.494464
 30
0.0
  0
SPLINE
  5
206
100
AcDbEntity
  8
0
 62
7
100
AcDbSpline
 70
8
 71
3
 72
8
 73
4
 74
0
 40
0
 40
0
 40
0
 40
0
 40
1
 40
1
 40
1
 40
1
 10
468.730346
 20
373.494464
 30
0.0
 10
469.225388
 20
373.780276
 30
0.0
 10
469.530346
 20
374.308479
 30
0.0
 10
469.530346
 20
374.880104
 30
0.0
  0
LWPOLYLINE
  5
207
100
AcDbEntity
  8
0
 62
7
100
AcDbPolyline
 90
2
 70
1
 10
469.530346
 20
280.900104
 30
0.0
 10
469.530346
 20
280.900104
 30
0.0
  0
SPLINE
  5
208
100
AcDbEntity
  8
0
 62
7
100
AcDbSpline
 70
8
 71
3
 72
8
 73
4
 74
0
 40
0
 40
0
 40
0
 40
0
 40
1
 40
1
 40
1
 40
1
 10
512.710346
 20
374.880104
 30
0.0
 10
512.710346
 20
375.451729
 30
0.0
 10
512.405388
 20
375.979932
 30
0.0
 10
511.910346
 20
376.265745
 30
0.0
  0
SPLINE
  5
209
100
AcDbEntity
  8
0
 62
7
100
AcDbSpline
 70
8
 71
3
 72
8
 73
4
 74
0
 40
0
 40
0
 40
0
 40
0
 40
1
 40
1
 40
1
 40
1
 10
511.910346
 20
376.265745
 30
0.0
 10
511.415305
 20
376.551557
 30
0.0
 10
510.805388
 20
376.551557
 30
0.0
 10
510.310346
 20
376.265745
 30
0.0
  0
SPLINE
  5
20a
100
AcDbEntity
  8
0
 62
7
100
AcDbSpline
 70
8
 71
3
 72
8
 73
4
 74
0
 40
0
 40
0
 40
0
 40
0
 40
1
 40
1
 40
1
 40
1
 10
510.310346
 20
376.265745
 30
0.0
 10
509.815305
 20
375.979932
 30
0.0
 10
509.510346
 20
375.451729
 30
0.0
 10
509.510346
 20
374.880104
 30
0.0
  0
SPLINE
  5
20b
100
AcDbEntity
  8
0
 62
7
100
AcDbSpline
 70
8
 71
3
 72
8
 73
4
 74
0
 40
0
 40
0
 40
0
 40
0
 40
1
 40
1
 40
1
 40
1
 10
509.510346
 20
374.880104
 30
0.0
 10
509.510346
 20
374.308479
 30
0.0
 10
509.815304
 20
373.780276
 30
0.0
 10
510.310346
 20
373.494463
 30
0.0
  0
SPLINE
  5
20c
100
AcDbEntity
  8
0
 62
7
100
AcDbSpline
 70
8
 71
3
 72
8
 73
4
 74
0
 40
0
 40
0
 40
0
 40
0
 40
1
 40
1
 40
1
 40
1
 10
510.310346
 20
373.494463
 30
0.0
 10
510.805388
 20
373.208651
 30
0.0
 10
511.415305
 20
373.208651
 30
0.0
 10
511.910346
 20
373.494463
 30
0.0
  0
SPLINE
  5
20d
100
AcDbEntity
  8
0
 62
7
100
AcDbSpline
 70
8
 71
3
 72
8
 73
4
 74
0
 40
0
 40
0
 40
0
 40
0
 40
1
 40
1
 40
1
 40
1
 10
511.910346
 20
373.494463
 30
0.0
 10
512.405388
 20
373.780276
 30
0.0
 10
512.710346
 20
374.308479
 30
0.0
 10
512.710346
 20
374.880104
 30
0.0
  0
LWPOLYLINE
  5
20e
100
AcDbEntity
  8
0
 62
7
100
AcDbPolyline
 90
2
 70
1
 10
469.530346
 20
374.880104
 30
0.0
 10
469.530346
 20
374.880104
 30
0.0
  0
LWPOLYLINE
  5
20f
100
AcDbEntity
  8
0
 62
7
100
AcDbPolyline
 90
2
 70
1
 10
512.710346
 20
374.880104
 30
0.0
 10
512.710346
 20
374.880104
 30
0.0
  0
SPLINE
  5
210
100
AcDbEntity
  8
0
 62
7
100
AcDbSpline
 70
8
 71
3
 72
8
 73
4
 74
0
 40
0
 40
0
 40
0
 40
0
 40
1
 40
1
 40
1
 40
1
 10
51.414225
 20
85.749988
 30
0.0
 10
51.414225
 20
87.179050
 30
0.0
 10
50.651830
 20
88.499558
 30
0.0
 10
49.414226
 20
89.214089
 30
0.0
  0
SPLINE
  5
211
100
AcDbEntity
  8
0
 62
7
100
AcDbSpline
 70
8
 71
3
 72
8
 73
4
 74
0
 40
0
 40
0
 40
0
 40
0
 40
1
 40
1
 40
1
 40
1
 10
49.414226
 20
89.214089
 30
0.0
 10
48.176621
 20
89.928620
 30
0.0
 10
46.651830
 20
89.928620
 30
0.0
 10
45.414226
 20
89.214089
 30
0.0
  0
SPLINE
  5
212
100
AcDbEntity
  8
0
 62
7
100
AcDbSpline
 70
8
 71
3
 72
8
 73
4
 74
0
 40
0
 40
0
 40
0
 40
0
 40
1
 40
1
 40
1
 40
1
 10
45.414226
 20
89.214089
 30
0.0
 10
44.176621
 20
88.499558
 30
0.0
 10
43.414226
 20
87.179050
 30
0.0
 10
43.414226
 20
85.749988
 30
0.0
  0
LWPOLYLINE
  5
213
100
AcDbEntity
  8
0
 62
7
100
AcDbPolyline
 90
2
 70
0
 10
51.414226
 20
85.749988
 30
0.0
 10
51.414226
 20
70.749988
 30
0.0
  0
SPLINE
  5
214
100
AcDbEntity
  8
0
 62
7
100
AcDbSpline
 70
8
 71
3
 72
8
 73
4
 74
0
 40
0
 40
0
 40
0
 40
0
 40
1
 40
1
 40
1
 40
1
 10
43.414226
 20
70.749988
 30
0.0
 10
43.414226
 20
69.320925
 30
0.0
 10
44.176621
 20
68.000417
 30
0.0
 10
45.414226
 20
67.285886
 30
0.0
  0
SPLINE
  5
215
100
AcDbEntity
  8
0
 62
7
100
AcDbSpline
 70
8
 71
3
 72
8
 73
4
 74
0
 40
0
 40
0
 40
0
 40
0
 40
1
 40
1
 40
1
 40
1
 10
45.414226
 20
67.285886
 30
0.0
 10
46.651830
 20
66.571355
 30
0.0
 10
48.176621
 20
66.571355
 30
0.0
 10
49.414226
 20
67.285886
 30
0.0
  0
SPLINE
  5
216
100
AcDbEntity
  8
0
 62
7
100
AcDbSpline
 70
8
 71
3
 72
8
 73
4
 74
0
 40
0
 40
0
 40
0
 40
0
 40
1
 40
1
 40
1
 40
1
 10
49.414226
 20
67.285886
 30
0.0
 10
50.651830
 20
68.000417
 30
0.0
 10
51.414225
 20
69.320925
 30
0.0
 10
51.414225
 20
70.749988
 30
0.0
  0
SPLINE
  5
217
100
AcDbEntity
  8
0
 62
7
100
AcDbSpline
 70
8
 71
3
 72
8
 73
4
 74
0
 40
0
 40
0
 40
0
 40
0
 40
1
 40
1
 40
1
 40
1
 10
300.807004
 20
176.774508
 30
0.0
 10
300.807004
 20
177.346133
 30
0.0
 10
300.502046
 20
177.874336
 30
0.0
 10
300.007004
 20
178.160149
 30
0.0
  0
SPLINE
  5
218
100
AcDbEntity
  8
0
 62
7
100
AcDbSpline
 70
8
 71
3
 72
8
 73
4
 74
0
 40
0
 40
0
 40
0
 40
0
 40
1
 40
1
 40
1
 40
1
 10
300.007004
 20
178.160149
 30
0.0
 10
299.511963
 20
178.445961
 30
0.0
 10
298.902046
 20
178.445961
 30
0.0
 10
298.407004
 20
178.160149
 30
0.0
  0
SPLINE
  5
219
100
AcDbEntity
  8
0
 62
7
100
AcDbSpline
 70
8
 71
3
 72
8
 73
4
 74
0
 40
0
 40
0
 40
0
 40
0
 40
1
 40
1
 40
1
 40
1
 10
298.407004
 20
178.160149
 30
0.0
 10
297.911963
 20
177.874336
 30
0.0
 10
297.607004
 20
177.346133
 30
0.0
 10
297.607004
 20
176.774508
 30
0.0
  0
SPLINE
  5
21a
100
AcDbEntity
  8
0
 62
7
100
AcDbSpline
 70
8
 71
3
 72
8
 73
4
 74
0
 40
0
 40
0
 40
0
 40
0
 40
1
 40
1
 40
1
 40
1
 10
297.607004
 20
176.774508
 30
0.0
 10
297.607004
 20
176.202883
 30
0.0
 10
297.911963
 20
175.674680
 30
0.0
 10
298.407004
 20
175.388867
 30
0.0
  0
SPLINE
  5
21b
100
AcDbEntity
  8
0
 62
7
100
AcDbSpline
 70
8
 71
3
 72
8
 73
4
 74
0
 40
0
 40
0
 40
0
 40
0
 40
1
 40
1
 40
1
 40
1
 10
298.407004
 20
175.388867
 30
0.0
 10
298.902046
 20
175.103055
 30
0.0
 10
299.511963
 20
175.103055
 30
0.0
 10
300.007004
 20
175.388867
 30
0.0
  0
SPLINE
  5
21c
100
AcDbEntity
  8
0
 62
7
100
AcDbSpline
 70
8
 71
3
 72
8
 73
4
 74
0
 40
0
 40
0
 40
0
 40
0
 40
1
 40
1
 40
1
 40
1
 10
300.007004
 20
175.388867
 30
0.0
 10
300.502046
 20
175.674680
 30
0.0
 10
300.807004
 20
176.202883
 30
0.0
 10
300.807004
 20
176.774508
 30
0.0
  0
LWPOLYLINE
  5
21d
100
AcDbEntity
  8
0
 62
7
100
AcDbPolyline
 90
2
 70
0
 10
43.414226
 20
70.749988
 30
0.0
 10
43.414226
 20
85.749988
 30
0.0
  0
SPLINE
  5
21e
100
AcDbEntity
  8
0
 62
7
100
AcDbSpline
 70
8
 71
3
 72
8
 73
4
 74
0
 40
0
 40
0
 40
0
 40
0
 40
1
 40
1
 40
1
 40
1
 10
331.807004
 20
176.774508
 30
0.0
 10
331.807004
 20
177.346133
 30
0.0
 10
331.502046
 20
177.874336
 30
0.0
 10
331.007004
 20
178.160149
 30
0.0
  0
SPLINE
  5
21f
100
AcDbEntity
  8
0
 62
7
100
AcDbSpline
 70
8
 71
3
 72
8
 73
4
 74
0
 40
0
 40
0
 40
0
 40
0
 40
1
 40
1
 40
1
 40
1
 10
331.007004
 20
178.160149
 30
0.0
 10
330.511963
 20
178.445961
 30
0.0
 10
329.902046
 20
178.445961
 30
0.0
 10
329.407004
 20
178.160149
 30
0.0
  0
SPLINE
  5
220
100
AcDbEntity
  8
0
 62
7
100
AcDbSpline
 70
8
 71
3
 72
8
 73
4
 74
0
 40
0
 40
0
 40
0
 40
0
 40
1
 40
1
 40
1
 40
1
 10
329.407004
 20
178.160149
 30
0.0
 10
328.911963
 20
177.874336
 30
0.0
 10
328.607004
 20
177.346133
 30
0.0
 10
328.607004
 20
176.774508
 30
0.0
  0
SPLINE
  5
221
100
AcDbEntity
  8
0
 62
7
100
AcDbSpline
 70
8
 71
3
 72
8
 73
4
 74
0
 40
0
 40
0
 40
0
 40
0
 40
1
 40
1
 40
1
 40
1
 10
328.607004
 20
176.774508
 30
0.0
 10
328.607004
 20
176.202883
 30
0.0
 10
328.911963
 20
175.674680
 30
0.0
 10
329.407004
 20
175.388867
 30
0.0
  0
SPLINE
  5
222
100
AcDbEntity
  8
0
 62
7
100
AcDbSpline
 70
8
 71
3
 72
8
 73
4
 74
0
 40
0
 40
0
 40
0
 40
0
 40
1
 40
1
 40
1
 40
1
 10
329.407004
 20
175.388867
 30
0.0
 10
329.902046
 20
175.103055
 30
0.0
 10
330.511963
 20
175.103055
 30
0.0
 10
331.007004
 20
175.388867
 30
0.0
  0
SPLINE
  5
223
100
AcDbEntity
  8
0
 62
7
100
AcDbSpline
 70
8
 71
3
 72
8
 73
4
 74
0
 40
0
 40
0
 40
0
 40
0
 40
1
 40
1
 40
1
 40
1
 10
331.007004
 20
175.388867
 30
0.0
 10
331.502046
 20
175.674680
 30
0.0
 10
331.807004
 20
176.202883
 30
0.0
 10
331.807004
 20
176.774508
 30
0.0
  0
LWPOLYLINE
  5
224
100
AcDbEntity
  8
0
 62
7
100
AcDbPolyline
 90
2
 70
1
 10
300.807004
 20
176.774508
 30
0.0
 10
300.807004
 20
176.774508
 30
0.0
  0
SPLINE
  5
225
100
AcDbEntity
  8
0
 62
7
100
AcDbSpline
 70
8
 71
3
 72
8
 73
4
 74
0
 40
0
 40
0
 40
0
 40
0
 40
1
 40
1
 40
1
 40
1
 10
331.807004
 20
145.774508
 30
0.0
 10
331.807004
 20
146.346133
 30
0.0
 10
331.502046
 20
146.874336
 30
0.0
 10
331.007004
 20
147.160149
 30
0.0
  0
SPLINE
  5
226
100
AcDbEntity
  8
0
 62
7
100
AcDbSpline
 70
8
 71
3
 72
8
 73
4
 74
0
 40
0
 40
0
 40
0
 40
0
 40
1
 40
1
 40
1
 40
1
 10
331.007004
 20
147.160149
 30
0.0
 10
330.511963
 20
147.445961
 30
0.0
 10
329.902046
 20
147.445961
 30
0.0
 10
329.407004
 20
147.160149
 30
0.0
  0
SPLINE
  5
227
100
AcDbEntity
  8
0
 62
7
100
AcDbSpline
 70
8
 71
3
 72
8
 73
4
 74
0
 40
0
 40
0
 40
0
 40
0
 40
1
 40
1
 40
1
 40
1
 10
329.407004
 20
147.160149
 30
0.0
 10
328.911963
 20
146.874336
 30
0.0
 10
328.607004
 20
146.346133
 30
0.0
 10
328.607004
 20
145.774508
 30
0.0
  0
SPLINE
  5
228
100
AcDbEntity
  8
0
 62
7
100
AcDbSpline
 70
8
 71
3
 72
8
 73
4
 74
0
 40
0
 40
0
 40
0
 40
0
 40
1
 40
1
 40
1
 40
1
 10
328.607004
 20
145.774508
 30
0.0
 10
328.607004
 20
145.202883
 30
0.0
 10
328.911963
 20
144.674680
 30
0.0
 10
329.407004
 20
144.388868
 30
0.0
  0
SPLINE
  5
229
100
AcDbEntity
  8
0
 62
7
100
AcDbSpline
 70
8
 71
3
 72
8
 73
4
 74
0
 40
0
 40
0
 40
0
 40
0
 40
1
 40
1
 40
1
 40
1
 10
329.407004
 20
144.388868
 30
0.0
 10
329.902046
 20
144.103055
 30
0.0
 10
330.511963
 20
144.103055
 30
0.0
 10
331.007004
 20
144.388868
 30
0.0
  0
SPLINE
  5
22a
100
AcDbEntity
  8
0
 62
7
100
AcDbSpline
 70
8
 71
3
 72
8
 73
4
 74
0
 40
0
 40
0
 40
0
 40
0
 40
1
 40
1
 40
1
 40
1
 10
331.007004
 20
144.388868
 30
0.0
 10
331.502046
 20
144.674680
 30
0.0
 10
331.807004
 20
145.202883
 30
0.0
 10
331.807004
 20
145.774508
 30
0.0
  0
LWPOLYLINE
  5
22b
100
AcDbEntity
  8
0
 62
7
100
AcDbPolyline
 90
2
 70
1
 10
331.807004
 20
176.774508
 30
0.0
 10
331.807004
 20
176.774508
 30
0.0
  0
SPLINE
  5
22c
100
AcDbEntity
  8
0
 62
7
100
AcDbSpline
 70
8
 71
3
 72
8
 73
4
 74
0
 40
0
 40
0
 40
0
 40
0
 40
1
 40
1
 40
1
 40
1
 10
300.807004
 20
145.774508
 30
0.0
 10
300.807004
 20
146.346133
 30
0.0
 10
300.502046
 20
146.874336
 30
0.0
 10
300.007004
 20
147.160149
 30
0.0
  0
SPLINE
  5
22d
100
AcDbEntity
  8
0
 62
7
100
AcDbSpline
 70
8
 71
3
 72
8
 73
4
 74
0
 40
0
 40
0
 40
0
 40
0
 40
1
 40
1
 40
1
 40
1
 10
300.007004
 20
147.160149
 30
0.0
 10
299.511963
 20
147.445961
 30
0.0
 10
298.902046
 20
147.445961
 30
0.0
 10
298.407004
 20
147.160149
 30
0.0
  0
SPLINE
  5
22e
100
AcDbEntity
  8
0
 62
7
100
AcDbSpline
 70
8
 71
3
 72
8
 73
4
 74
0
 40
0
 40
0
 40
0
 40
0
 40
1
 40
1
 40
1
 40
1
 10
298.407004
 20
147.160149
 30
0.0
 10
297.911963
 20
146.874336
 30
0.0
 10
297.607004
 20
146.346133
 30
0.0
 10
297.607004
 20
145.774508
 30
0.0
  0
SPLINE
  5
22f
100
AcDbEntity
  8
0
 62
7
100
AcDbSpline
 70
8
 71
3
 72
8
 73
4
 74
0
 40
0
 40
0
 40
0
 40
0
 40
1
 40
1
 40
1
 40
1
 10
297.607004
 20
145.774508
 30
0.0
 10
297.607004
 20
145.202883
 30
0.0
 10
297.911963
 20
144.674680
 30
0.0
 10
298.407004
 20
144.388868
 30
0.0
  0
SPLINE
  5
230
100
AcDbEntity
  8
0
 62
7
100
AcDbSpline
 70
8
 71
3
 72
8
 73
4
 74
0
 40
0
 40
0
 40
0
 40
0
 40
1
 40
1
 40
1
 40
1
 10
298.407004
 20
144.388868
 30
0.0
 10
298.902046
 20
144.103055
 30
0.0
 10
299.511963
 20
144.103055
 30
0.0
 10
300.007004
 20
144.388868
 30
0.0
  0
SPLINE
  5
231
100
AcDbEntity
  8
0
 62
7
100
AcDbSpline
 70
8
 71
3
 72
8
 73
4
 74
0
 40
0
 40
0
 40
0
 40
0
 40
1
 40
1
 40
1
 40
1
 10
300.007004
 20
144.388868
 30
0.0
 10
300.502046
 20
144.674680
 30
0.0
 10
300.807004
 20
145.202883
 30
0.0
 10
300.807004
 20
145.774508
 30
0.0
  0
LWPOLYLINE
  5
232
100
AcDbEntity
  8
0
 62
7
100
AcDbPolyline
 90
2
 70
1
 10
331.807004
 20
145.774508
 30
0.0
 10
331.807004
 20
145.774508
 30
0.0
  0
SPLINE
  5
233
100
AcDbEntity
  8
0
 62
7
100
AcDbSpline
 70
8
 71
3
 72
8
 73
4
 74
0
 40
0
 40
0
 40
0
 40
0
 40
1
 40
1
 40
1
 40
1
 10
291.782004
 20
165.574508
 30
0.0
 10
291.782004
 20
166.146133
 30
0.0
 10
291.477046
 20
166.674336
 30
0.0
 10
290.982004
 20
166.960149
 30
0.0
  0
SPLINE
  5
234
100
AcDbEntity
  8
0
 62
7
100
AcDbSpline
 70
8
 71
3
 72
8
 73
4
 74
0
 40
0
 40
0
 40
0
 40
0
 40
1
 40
1
 40
1
 40
1
 10
290.982004
 20
166.960149
 30
0.0
 10
290.486963
 20
167.245961
 30
0.0
 10
289.877046
 20
167.245961
 30
0.0
 10
289.382004
 20
166.960149
 30
0.0
  0
SPLINE
  5
235
100
AcDbEntity
  8
0
 62
7
100
AcDbSpline
 70
8
 71
3
 72
8
 73
4
 74
0
 40
0
 40
0
 40
0
 40
0
 40
1
 40
1
 40
1
 40
1
 10
289.382004
 20
166.960149
 30
0.0
 10
288.886963
 20
166.674336
 30
0.0
 10
288.582004
 20
166.146133
 30
0.0
 10
288.582005
 20
165.574508
 30
0.0
  0
SPLINE
  5
236
100
AcDbEntity
  8
0
 62
7
100
AcDbSpline
 70
8
 71
3
 72
8
 73
4
 74
0
 40
0
 40
0
 40
0
 40
0
 40
1
 40
1
 40
1
 40
1
 10
288.582005
 20
165.574508
 30
0.0
 10
288.582005
 20
165.002883
 30
0.0
 10
288.886963
 20
164.474680
 30
0.0
 10
289.382004
 20
164.188867
 30
0.0
  0
SPLINE
  5
237
100
AcDbEntity
  8
0
 62
7
100
AcDbSpline
 70
8
 71
3
 72
8
 73
4
 74
0
 40
0
 40
0
 40
0
 40
0
 40
1
 40
1
 40
1
 40
1
 10
289.382004
 20
164.188867
 30
0.0
 10
289.877046
 20
163.903055
 30
0.0
 10
290.486963
 20
163.903055
 30
0.0
 10
290.982004
 20
164.188867
 30
0.0
  0
SPLINE
  5
238
100
AcDbEntity
  8
0
 62
7
100
AcDbSpline
 70
8
 71
3
 72
8
 73
4
 74
0
 40
0
 40
0
 40
0
 40
0
 40
1
 40
1
 40
1
 40
1
 10
290.982004
 20
164.188867
 30
0.0
 10
291.477046
 20
164.474680
 30
0.0
 10
291.782004
 20
165.002883
 30
0.0
 10
291.782004
 20
165.574508
 30
0.0
  0
LWPOLYLINE
  5
239
100
AcDbEntity
  8
0
 62
7
100
AcDbPolyline
 90
2
 70
1
 10
300.807004
 20
145.774508
 30
0.0
 10
300.807004
 20
145.774508
 30
0.0
  0
SPLINE
  5
23a
100
AcDbEntity
  8
0
 62
7
100
AcDbSpline
 70
8
 71
3
 72
8
 73
4
 74
0
 40
0
 40
0
 40
0
 40
0
 40
1
 40
1
 40
1
 40
1
 10
326.207004
 20
161.274508
 30
0.0
 10
326.207004
 20
165.383062
 30
0.0
 10
324.015117
 20
169.179523
 30
0.0
 10
320.457004
 20
171.233800
 30
0.0
  0
SPLINE
  5
23b
100
AcDbEntity
  8
0
 62
7
100
AcDbSpline
 70
8
 71
3
 72
8
 73
4
 74
0
 40
0
 40
0
 40
0
 40
0
 40
1
 40
1
 40
1
 40
1
 10
320.457004
 20
171.233800
 30
0.0
 10
316.898892
 20
173.288077
 30
0.0
 10
312.515117
 20
173.288077
 30
0.0
 10
308.957004
 20
171.233800
 30
0.0
  0
SPLINE
  5
23c
100
AcDbEntity
  8
0
 62
7
100
AcDbSpline
 70
8
 71
3
 72
8
 73
4
 74
0
 40
0
 40
0
 40
0
 40
0
 40
1
 40
1
 40
1
 40
1
 10
308.957004
 20
171.233800
 30
0.0
 10
305.398892
 20
169.179523
 30
0.0
 10
303.207004
 20
165.383062
 30
0.0
 10
303.207004
 20
161.274508
 30
0.0
  0
SPLINE
  5
23d
100
AcDbEntity
  8
0
 62
7
100
AcDbSpline
 70
8
 71
3
 72
8
 73
4
 74
0
 40
0
 40
0
 40
0
 40
0
 40
1
 40
1
 40
1
 40
1
 10
303.207004
 20
161.274508
 30
0.0
 10
303.207004
 20
157.165954
 30
0.0
 10
305.398892
 20
153.369493
 30
0.0
 10
308.957004
 20
151.315216
 30
0.0
  0
SPLINE
  5
23e
100
AcDbEntity
  8
0
 62
7
100
AcDbSpline
 70
8
 71
3
 72
8
 73
4
 74
0
 40
0
 40
0
 40
0
 40
0
 40
1
 40
1
 40
1
 40
1
 10
308.957004
 20
151.315216
 30
0.0
 10
312.515117
 20
149.260939
 30
0.0
 10
316.898892
 20
149.260939
 30
0.0
 10
320.457004
 20
151.315216
 30
0.0
  0
SPLINE
  5
23f
100
AcDbEntity
  8
0
 62
7
100
AcDbSpline
 70
8
 71
3
 72
8
 73
4
 74
0
 40
0
 40
0
 40
0
 40
0
 40
1
 40
1
 40
1
 40
1
 10
320.457004
 20
151.315216
 30
0.0
 10
324.015117
 20
153.369493
 30
0.0
 10
326.207004
 20
157.165954
 30
0.0
 10
326.207004
 20
161.274508
 30
0.0
  0
LWPOLYLINE
  5
240
100
AcDbEntity
  8
0
 62
7
100
AcDbPolyline
 90
2
 70
1
 10
291.782004
 20
165.574508
 30
0.0
 10
291.782004
 20
165.574508
 30
0.0
  0
SPLINE
  5
241
100
AcDbEntity
  8
0
 62
7
100
AcDbSpline
 70
8
 71
3
 72
8
 73
4
 74
0
 40
0
 40
0
 40
0
 40
0
 40
1
 40
1
 40
1
 40
1
 10
301.707004
 20
161.274508
 30
0.0
 10
301.707004
 20
162.703570
 30
0.0
 10
300.944609
 20
164.024078
 30
0.0
 10
299.707004
 20
164.738609
 30
0.0
  0
SPLINE
  5
242
100
AcDbEntity
  8
0
 62
7
100
AcDbSpline
 70
8
 71
3
 72
8
 73
4
 74
0
 40
0
 40
0
 40
0
 40
0
 40
1
 40
1
 40
1
 40
1
 10
299.707004
 20
164.738609
 30
0.0
 10
298.469400
 20
165.453141
 30
0.0
 10
296.944609
 20
165.453141
 30
0.0
 10
295.707004
 20
164.738609
 30
0.0
  0
SPLINE
  5
243
100
AcDbEntity
  8
0
 62
7
100
AcDbSpline
 70
8
 71
3
 72
8
 73
4
 74
0
 40
0
 40
0
 40
0
 40
0
 40
1
 40
1
 40
1
 40
1
 10
295.707004
 20
164.738609
 30
0.0
 10
294.469400
 20
164.024078
 30
0.0
 10
293.707004
 20
162.703570
 30
0.0
 10
293.707004
 20
161.274508
 30
0.0
  0
SPLINE
  5
244
100
AcDbEntity
  8
0
 62
7
100
AcDbSpline
 70
8
 71
3
 72
8
 73
4
 74
0
 40
0
 40
0
 40
0
 40
0
 40
1
 40
1
 40
1
 40
1
 10
293.707004
 20
161.274508
 30
0.0
 10
293.707004
 20
159.845446
 30
0.0
 10
294.469400
 20
158.524938
 30
0.0
 10
295.707004
 20
157.810406
 30
0.0
  0
SPLINE
  5
245
100
AcDbEntity
  8
0
 62
7
100
AcDbSpline
 70
8
 71
3
 72
8
 73
4
 74
0
 40
0
 40
0
 40
0
 40
0
 40
1
 40
1
 40
1
 40
1
 10
295.707004
 20
157.810406
 30
0.0
 10
296.944609
 20
157.095875
 30
0.0
 10
298.469400
 20
157.095875
 30
0.0
 10
299.707004
 20
157.810406
 30
0.0
  0
SPLINE
  5
246
100
AcDbEntity
  8
0
 62
7
100
AcDbSpline
 70
8
 71
3
 72
8
 73
4
 74
0
 40
0
 40
0
 40
0
 40
0
 40
1
 40
1
 40
1
 40
1
 10
299.707004
 20
157.810406
 30
0.0
 10
300.944609
 20
158.524938
 30
0.0
 10
301.707004
 20
159.845446
 30
0.0
 10
301.707004
 20
161.274508
 30
0.0
  0
LWPOLYLINE
  5
247
100
AcDbEntity
  8
0
 62
7
100
AcDbPolyline
 90
2
 70
1
 10
326.207004
 20
161.274508
 30
0.0
 10
326.207004
 20
161.274508
 30
0.0
  0
SPLINE
  5
248
100
AcDbEntity
  8
0
 62
7
100
AcDbSpline
 70
8
 71
3
 72
8
 73
4
 74
0
 40
0
 40
0
 40
0
 40
0
 40
1
 40
1
 40
1
 40
1
 10
340.832004
 20
165.574508
 30
0.0
 10
340.832004
 20
166.146133
 30
0.0
 10
340.527046
 20
166.674336
 30
0.0
 10
340.032004
 20
166.960149
 30
0.0
  0
SPLINE
  5
249
100
AcDbEntity
  8
0
 62
7
100
AcDbSpline
 70
8
 71
3
 72
8
 73
4
 74
0
 40
0
 40
0
 40
0
 40
0
 40
1
 40
1
 40
1
 40
1
 10
340.032004
 20
166.960149
 30
0.0
 10
339.536962
 20
167.245961
 30
0.0
 10
338.927046
 20
167.245961
 30
0.0
 10
338.432004
 20
166.960149
 30
0.0
  0
SPLINE
  5
24a
100
AcDbEntity
  8
0
 62
7
100
AcDbSpline
 70
8
 71
3
 72
8
 73
4
 74
0
 40
0
 40
0
 40
0
 40
0
 40
1
 40
1
 40
1
 40
1
 10
338.432004
 20
166.960149
 30
0.0
 10
337.936963
 20
166.674336
 30
0.0
 10
337.632004
 20
166.146133
 30
0.0
 10
337.632004
 20
165.574508
 30
0.0
  0
SPLINE
  5
24b
100
AcDbEntity
  8
0
 62
7
100
AcDbSpline
 70
8
 71
3
 72
8
 73
4
 74
0
 40
0
 40
0
 40
0
 40
0
 40
1
 40
1
 40
1
 40
1
 10
337.632004
 20
165.574508
 30
0.0
 10
337.632004
 20
165.002883
 30
0.0
 10
337.936963
 20
164.474680
 30
0.0
 10
338.432004
 20
164.188867
 30
0.0
  0
SPLINE
  5
24c
100
AcDbEntity
  8
0
 62
7
100
AcDbSpline
 70
8
 71
3
 72
8
 73
4
 74
0
 40
0
 40
0
 40
0
 40
0
 40
1
 40
1
 40
1
 40
1
 10
338.432004
 20
164.188867
 30
0.0
 10
338.927046
 20
163.903055
 30
0.0
 10
339.536963
 20
163.903055
 30
0.0
 10
340.032004
 20
164.188867
 30
0.0
  0
SPLINE
  5
24d
100
AcDbEntity
  8
0
 62
7
100
AcDbSpline
 70
8
 71
3
 72
8
 73
4
 74
0
 40
0
 40
0
 40
0
 40
0
 40
1
 40
1
 40
1
 40
1
 10
340.032004
 20
164.188867
 30
0.0
 10
340.527046
 20
164.474680
 30
0.0
 10
340.832004
 20
165.002883
 30
0.0
 10
340.832004
 20
165.574508
 30
0.0
  0
LWPOLYLINE
  5
24e
100
AcDbEntity
  8
0
 62
7
100
AcDbPolyline
 90
2
 70
1
 10
301.707004
 20
161.274508
 30
0.0
 10
301.707004
 20
161.274508
 30
0.0
  0
SPLINE
  5
24f
100
AcDbEntity
  8
0
 62
7
100
AcDbSpline
 70
8
 71
3
 72
8
 73
4
 74
0
 40
0
 40
0
 40
0
 40
0
 40
1
 40
1
 40
1
 40
1
 10
370.499190
 20
176.774508
 30
0.0
 10
370.499190
 20
177.346133
 30
0.0
 10
370.194232
 20
177.874336
 30
0.0
 10
369.699190
 20
178.160149
 30
0.0
  0
SPLINE
  5
250
100
AcDbEntity
  8
0
 62
7
100
AcDbSpline
 70
8
 71
3
 72
8
 73
4
 74
0
 40
0
 40
0
 40
0
 40
0
 40
1
 40
1
 40
1
 40
1
 10
369.699190
 20
178.160149
 30
0.0
 10
369.204149
 20
178.445961
 30
0.0
 10
368.594232
 20
178.445961
 30
0.0
 10
368.099190
 20
178.160149
 30
0.0
  0
SPLINE
  5
251
100
AcDbEntity
  8
0
 62
7
100
AcDbSpline
 70
8
 71
3
 72
8
 73
4
 74
0
 40
0
 40
0
 40
0
 40
0
 40
1
 40
1
 40
1
 40
1
 10
368.099190
 20
178.160149
 30
0.0
 10
367.604149
 20
177.874336
 30
0.0
 10
367.299190
 20
177.346133
 30
0.0
 10
367.299191
 20
176.774508
 30
0.0
  0
SPLINE
  5
252
100
AcDbEntity
  8
0
 62
7
100
AcDbSpline
 70
8
 71
3
 72
8
 73
4
 74
0
 40
0
 40
0
 40
0
 40
0
 40
1
 40
1
 40
1
 40
1
 10
367.299191
 20
176.774508
 30
0.0
 10
367.299191
 20
176.202883
 30
0.0
 10
367.604149
 20
175.674680
 30
0.0
 10
368.099190
 20
175.388867
 30
0.0
  0
SPLINE
  5
253
100
AcDbEntity
  8
0
 62
7
100
AcDbSpline
 70
8
 71
3
 72
8
 73
4
 74
0
 40
0
 40
0
 40
0
 40
0
 40
1
 40
1
 40
1
 40
1
 10
368.099190
 20
175.388867
 30
0.0
 10
368.594232
 20
175.103055
 30
0.0
 10
369.204149
 20
175.103055
 30
0.0
 10
369.699190
 20
175.388867
 30
0.0
  0
SPLINE
  5
254
100
AcDbEntity
  8
0
 62
7
100
AcDbSpline
 70
8
 71
3
 72
8
 73
4
 74
0
 40
0
 40
0
 40
0
 40
0
 40
1
 40
1
 40
1
 40
1
 10
369.699190
 20
175.388867
 30
0.0
 10
370.194232
 20
175.674680
 30
0.0
 10
370.499190
 20
176.202883
 30
0.0
 10
370.499190
 20
176.774508
 30
0.0
  0
LWPOLYLINE
  5
255
100
AcDbEntity
  8
0
 62
7
100
AcDbPolyline
 90
2
 70
1
 10
340.832004
 20
165.574508
 30
0.0
 10
340.832004
 20
165.574508
 30
0.0
  0
SPLINE
  5
256
100
AcDbEntity
  8
0
 62
7
100
AcDbSpline
 70
8
 71
3
 72
8
 73
4
 74
0
 40
0
 40
0
 40
0
 40
0
 40
1
 40
1
 40
1
 40
1
 10
401.499190
 20
176.774508
 30
0.0
 10
401.499190
 20
177.346133
 30
0.0
 10
401.194232
 20
177.874336
 30
0.0
 10
400.699190
 20
178.160149
 30
0.0
  0
SPLINE
  5
257
100
AcDbEntity
  8
0
 62
7
100
AcDbSpline
 70
8
 71
3
 72
8
 73
4
 74
0
 40
0
 40
0
 40
0
 40
0
 40
1
 40
1
 40
1
 40
1
 10
400.699190
 20
178.160149
 30
0.0
 10
400.204149
 20
178.445961
 30
0.0
 10
399.594232
 20
178.445961
 30
0.0
 10
399.099191
 20
178.160149
 30
0.0
  0
SPLINE
  5
258
100
AcDbEntity
  8
0
 62
7
100
AcDbSpline
 70
8
 71
3
 72
8
 73
4
 74
0
 40
0
 40
0
 40
0
 40
0
 40
1
 40
1
 40
1
 40
1
 10
399.099191
 20
178.160149
 30
0.0
 10
398.604149
 20
177.874336
 30
0.0
 10
398.299191
 20
177.346133
 30
0.0
 10
398.299191
 20
176.774508
 30
0.0
  0
SPLINE
  5
259
100
AcDbEntity
  8
0
 62
7
100
AcDbSpline
 70
8
 71
3
 72
8
 73
4
 74
0
 40
0
 40
0
 40
0
 40
0
 40
1
 40
1
 40
1
 40
1
 10
398.299191
 20
176.774508
 30
0.0
 10
398.299191
 20
176.202883
 30
0.0
 10
398.604149
 20
175.674680
 30
0.0
 10
399.099191
 20
175.388867
 30
0.0
  0
SPLINE
  5
25a
100
AcDbEntity
  8
0
 62
7
100
AcDbSpline
 70
8
 71
3
 72
8
 73
4
 74
0
 40
0
 40
0
 40
0
 40
0
 40
1
 40
1
 40
1
 40
1
 10
399.099191
 20
175.388867
 30
0.0
 10
399.594232
 20
175.103055
 30
0.0
 10
400.204149
 20
175.103055
 30
0.0
 10
400.699190
 20
175.388867
 30
0.0
  0
SPLINE
  5
25b
100
AcDbEntity
  8
0
 62
7
100
AcDbSpline
 70
8
 71
3
 72
8
 73
4
 74
0
 40
0
 40
0
 40
0
 40
0
 40
1
 40
1
 40
1
 40
1
 10
400.699190
 20
175.388867
 30
0.0
 10
401.194232
 20
175.674680
 30
0.0
 10
401.499190
 20
176.202883
 30
0.0
 10
401.499190
 20
176.774508
 30
0.0
  0
LWPOLYLINE
  5
25c
100
AcDbEntity
  8
0
 62
7
100
AcDbPolyline
 90
2
 70
1
 10
370.499190
 20
176.774508
 30
0.0
 10
370.499190
 20
176.774508
 30
0.0
  0
SPLINE
  5
25d
100
AcDbEntity
  8
0
 62
7
100
AcDbSpline
 70
8
 71
3
 72
8
 73
4
 74
0
 40
0
 40
0
 40
0
 40
0
 40
1
 40
1
 40
1
 40
1
 10
401.499190
 20
145.774508
 30
0.0
 10
401.499190
 20
146.346133
 30
0.0
 10
401.194232
 20
146.874336
 30
0.0
 10
400.699190
 20
147.160149
 30
0.0
  0
SPLINE
  5
25e
100
AcDbEntity
  8
0
 62
7
100
AcDbSpline
 70
8
 71
3
 72
8
 73
4
 74
0
 40
0
 40
0
 40
0
 40
0
 40
1
 40
1
 40
1
 40
1
 10
400.699190
 20
147.160149
 30
0.0
 10
400.204149
 20
147.445961
 30
0.0
 10
399.594232
 20
147.445961
 30
0.0
 10
399.099191
 20
147.160149
 30
0.0
  0
SPLINE
  5
25f
100
AcDbEntity
  8
0
 62
7
100
AcDbSpline
 70
8
 71
3
 72
8
 73
4
 74
0
 40
0
 40
0
 40
0
 40
0
 40
1
 40
1
 40
1
 40
1
 10
399.099191
 20
147.160149
 30
0.0
 10
398.604149
 20
146.874336
 30
0.0
 10
398.299191
 20
146.346133
 30
0.0
 10
398.299191
 20
145.774508
 30
0.0
  0
SPLINE
  5
260
100
AcDbEntity
  8
0
 62
7
100
AcDbSpline
 70
8
 71
3
 72
8
 73
4
 74
0
 40
0
 40
0
 40
0
 40
0
 40
1
 40
1
 40
1
 40
1
 10
398.299191
 20
145.774508
 30
0.0
 10
398.299191
 20
145.202883
 30
0.0
 10
398.604149
 20
144.674680
 30
0.0
 10
399.099191
 20
144.388868
 30
0.0
  0
SPLINE
  5
261
100
AcDbEntity
  8
0
 62
7
100
AcDbSpline
 70
8
 71
3
 72
8
 73
4
 74
0
 40
0
 40
0
 40
0
 40
0
 40
1
 40
1
 40
1
 40
1
 10
399.099191
 20
144.388868
 30
0.0
 10
399.594232
 20
144.103055
 30
0.0
 10
400.204149
 20
144.103055
 30
0.0
 10
400.699190
 20
144.388868
 30
0.0
  0
SPLINE
  5
262
100
AcDbEntity
  8
0
 62
7
100
AcDbSpline
 70
8
 71
3
 72
8
 73
4
 74
0
 40
0
 40
0
 40
0
 40
0
 40
1
 40
1
 40
1
 40
1
 10
400.699190
 20
144.388868
 30
0.0
 10
401.194232
 20
144.674680
 30
0.0
 10
401.499190
 20
145.202883
 30
0.0
 10
401.499190
 20
145.774508
 30
0.0
  0
LWPOLYLINE
  5
263
100
AcDbEntity
  8
0
 62
7
100
AcDbPolyline
 90
2
 70
1
 10
401.499190
 20
176.774508
 30
0.0
 10
401.499191
 20
176.774508
 30
0.0
  0
SPLINE
  5
264
100
AcDbEntity
  8
0
 62
7
100
AcDbSpline
 70
8
 71
3
 72
8
 73
4
 74
0
 40
0
 40
0
 40
0
 40
0
 40
1
 40
1
 40
1
 40
1
 10
370.499190
 20
145.774508
 30
0.0
 10
370.499190
 20
146.346133
 30
0.0
 10
370.194232
 20
146.874336
 30
0.0
 10
369.699190
 20
147.160149
 30
0.0
  0
SPLINE
  5
265
100
AcDbEntity
  8
0
 62
7
100
AcDbSpline
 70
8
 71
3
 72
8
 73
4
 74
0
 40
0
 40
0
 40
0
 40
0
 40
1
 40
1
 40
1
 40
1
 10
369.699190
 20
147.160149
 30
0.0
 10
369.204149
 20
147.445961
 30
0.0
 10
368.594232
 20
147.445961
 30
0.0
 10
368.099190
 20
147.160149
 30
0.0
  0
SPLINE
  5
266
100
AcDbEntity
  8
0
 62
7
100
AcDbSpline
 70
8
 71
3
 72
8
 73
4
 74
0
 40
0
 40
0
 40
0
 40
0
 40
1
 40
1
 40
1
 40
1
 10
368.099190
 20
147.160149
 30
0.0
 10
367.604149
 20
146.874336
 30
0.0
 10
367.299190
 20
146.346133
 30
0.0
 10
367.299191
 20
145.774508
 30
0.0
  0
SPLINE
  5
267
100
AcDbEntity
  8
0
 62
7
100
AcDbSpline
 70
8
 71
3
 72
8
 73
4
 74
0
 40
0
 40
0
 40
0
 40
0
 40
1
 40
1
 40
1
 40
1
 10
367.299191
 20
145.774508
 30
0.0
 10
367.299191
 20
145.202883
 30
0.0
 10
367.604149
 20
144.674680
 30
0.0
 10
368.099190
 20
144.388868
 30
0.0
  0
SPLINE
  5
268
100
AcDbEntity
  8
0
 62
7
100
AcDbSpline
 70
8
 71
3
 72
8
 73
4
 74
0
 40
0
 40
0
 40
0
 40
0
 40
1
 40
1
 40
1
 40
1
 10
368.099190
 20
144.388868
 30
0.0
 10
368.594232
 20
144.103055
 30
0.0
 10
369.204149
 20
144.103055
 30
0.0
 10
369.699190
 20
144.388868
 30
0.0
  0
SPLINE
  5
269
100
AcDbEntity
  8
0
 62
7
100
AcDbSpline
 70
8
 71
3
 72
8
 73
4
 74
0
 40
0
 40
0
 40
0
 40
0
 40
1
 40
1
 40
1
 40
1
 10
369.699190
 20
144.388868
 30
0.0
 10
370.194232
 20
144.674680
 30
0.0
 10
370.499190
 20
145.202883
 30
0.0
 10
370.499190
 20
145.774508
 30
0.0
  0
LWPOLYLINE
  5
26a
100
AcDbEntity
  8
0
 62
7
100
AcDbPolyline
 90
2
 70
1
 10
401.499190
 20
145.774508
 30
0.0
 10
401.499191
 20
145.774508
 30
0.0
  0
SPLINE
  5
26b
100
AcDbEntity
  8
0
 62
7
100
AcDbSpline
 70
8
 71
3
 72
8
 73
4
 74
0
 40
0
 40
0
 40
0
 40
0
 40
1
 40
1
 40
1
 40
1
 10
361.474190
 20
165.574508
 30
0.0
 10
361.474190
 20
166.146133
 30
0.0
 10
361.169232
 20
166.674336
 30
0.0
 10
360.674190
 20
166.960149
 30
0.0
  0
SPLINE
  5
26c
100
AcDbEntity
  8
0
 62
7
100
AcDbSpline
 70
8
 71
3
 72
8
 73
4
 74
0
 40
0
 40
0
 40
0
 40
0
 40
1
 40
1
 40
1
 40
1
 10
360.674190
 20
166.960149
 30
0.0
 10
360.179149
 20
167.245961
 30
0.0
 10
359.569232
 20
167.245961
 30
0.0
 10
359.074191
 20
166.960149
 30
0.0
  0
SPLINE
  5
26d
100
AcDbEntity
  8
0
 62
7
100
AcDbSpline
 70
8
 71
3
 72
8
 73
4
 74
0
 40
0
 40
0
 40
0
 40
0
 40
1
 40
1
 40
1
 40
1
 10
359.074191
 20
166.960149
 30
0.0
 10
358.579149
 20
166.674336
 30
0.0
 10
358.274191
 20
166.146133
 30
0.0
 10
358.274191
 20
165.574508
 30
0.0
  0
SPLINE
  5
26e
100
AcDbEntity
  8
0
 62
7
100
AcDbSpline
 70
8
 71
3
 72
8
 73
4
 74
0
 40
0
 40
0
 40
0
 40
0
 40
1
 40
1
 40
1
 40
1
 10
358.274191
 20
165.574508
 30
0.0
 10
358.274191
 20
165.002883
 30
0.0
 10
358.579149
 20
164.474680
 30
0.0
 10
359.074191
 20
164.188867
 30
0.0
  0
SPLINE
  5
26f
100
AcDbEntity
  8
0
 62
7
100
AcDbSpline
 70
8
 71
3
 72
8
 73
4
 74
0
 40
0
 40
0
 40
0
 40
0
 40
1
 40
1
 40
1
 40
1
 10
359.074191
 20
164.188867
 30
0.0
 10
359.569232
 20
163.903055
 30
0.0
 10
360.179149
 20
163.903055
 30
0.0
 10
360.674191
 20
164.188867
 30
0.0
  0
SPLINE
  5
270
100
AcDbEntity
  8
0
 62
7
100
AcDbSpline
 70
8
 71
3
 72
8
 73
4
 74
0
 40
0
 40
0
 40
0
 40
0
 40
1
 40
1
 40
1
 40
1
 10
360.674191
 20
164.188867
 30
0.0
 10
361.169232
 20
164.474680
 30
0.0
 10
361.474190
 20
165.002883
 30
0.0
 10
361.474190
 20
165.574508
 30
0.0
  0
LWPOLYLINE
  5
271
100
AcDbEntity
  8
0
 62
7
100
AcDbPolyline
 90
2
 70
1
 10
370.499190
 20
145.774508
 30
0.0
 10
370.499190
 20
145.774508
 30
0.0
  0
SPLINE
  5
272
100
AcDbEntity
  8
0
 62
7
100
AcDbSpline
 70
8
 71
3
 72
8
 73
4
 74
0
 40
0
 40
0
 40
0
 40
0
 40
1
 40
1
 40
1
 40
1
 10
395.899190
 20
161.274508
 30
0.0
 10
395.899190
 20
165.383062
 30
0.0
 10
393.707303
 20
169.179523
 30
0.0
 10
390.149190
 20
171.233800
 30
0.0
  0
SPLINE
  5
273
100
AcDbEntity
  8
0
 62
7
100
AcDbSpline
 70
8
 71
3
 72
8
 73
4
 74
0
 40
0
 40
0
 40
0
 40
0
 40
1
 40
1
 40
1
 40
1
 10
390.149190
 20
171.233800
 30
0.0
 10
386.591078
 20
173.288077
 30
0.0
 10
382.207303
 20
173.288077
 30
0.0
 10
378.649190
 20
171.233800
 30
0.0
  0
SPLINE
  5
274
100
AcDbEntity
  8
0
 62
7
100
AcDbSpline
 70
8
 71
3
 72
8
 73
4
 74
0
 40
0
 40
0
 40
0
 40
0
 40
1
 40
1
 40
1
 40
1
 10
378.649190
 20
171.233800
 30
0.0
 10
375.091078
 20
169.179523
 30
0.0
 10
372.899191
 20
165.383062
 30
0.0
 10
372.899191
 20
161.274508
 30
0.0
  0
SPLINE
  5
275
100
AcDbEntity
  8
0
 62
7
100
AcDbSpline
 70
8
 71
3
 72
8
 73
4
 74
0
 40
0
 40
0
 40
0
 40
0
 40
1
 40
1
 40
1
 40
1
 10
372.899191
 20
161.274508
 30
0.0
 10
372.899191
 20
157.165954
 30
0.0
 10
375.091078
 20
153.369493
 30
0.0
 10
378.649191
 20
151.315216
 30
0.0
  0
SPLINE
  5
276
100
AcDbEntity
  8
0
 62
7
100
AcDbSpline
 70
8
 71
3
 72
8
 73
4
 74
0
 40
0
 40
0
 40
0
 40
0
 40
1
 40
1
 40
1
 40
1
 10
378.649191
 20
151.315216
 30
0.0
 10
382.207303
 20
149.260939
 30
0.0
 10
386.591078
 20
149.260939
 30
0.0
 10
390.149190
 20
151.315216
 30
0.0
  0
SPLINE
  5
277
100
AcDbEntity
  8
0
 62
7
100
AcDbSpline
 70
8
 71
3
 72
8
 73
4
 74
0
 40
0
 40
0
 40
0
 40
0
 40
1
 40
1
 40
1
 40
1
 10
390.149190
 20
151.315216
 30
0.0
 10
393.707303
 20
153.369493
 30
0.0
 10
395.899190
 20
157.165954
 30
0.0
 10
395.899190
 20
161.274508
 30
0.0
  0
LWPOLYLINE
  5
278
100
AcDbEntity
  8
0
 62
7
100
AcDbPolyline
 90
2
 70
1
 10
361.474190
 20
165.574508
 30
0.0
 10
361.474191
 20
165.574508
 30
0.0
  0
SPLINE
  5
279
100
AcDbEntity
  8
0
 62
7
100
AcDbSpline
 70
8
 71
3
 72
8
 73
4
 74
0
 40
0
 40
0
 40
0
 40
0
 40
1
 40
1
 40
1
 40
1
 10
371.399190
 20
161.274508
 30
0.0
 10
371.399190
 20
162.703570
 30
0.0
 10
370.636795
 20
164.024078
 30
0.0
 10
369.399190
 20
164.738609
 30
0.0
  0
SPLINE
  5
27a
100
AcDbEntity
  8
0
 62
7
100
AcDbSpline
 70
8
 71
3
 72
8
 73
4
 74
0
 40
0
 40
0
 40
0
 40
0
 40
1
 40
1
 40
1
 40
1
 10
369.399190
 20
164.738609
 30
0.0
 10
368.161586
 20
165.453141
 30
0.0
 10
366.636795
 20
165.453141
 30
0.0
 10
365.399190
 20
164.738609
 30
0.0
  0
SPLINE
  5
27b
100
AcDbEntity
  8
0
 62
7
100
AcDbSpline
 70
8
 71
3
 72
8
 73
4
 74
0
 40
0
 40
0
 40
0
 40
0
 40
1
 40
1
 40
1
 40
1
 10
365.399190
 20
164.738609
 30
0.0
 10
364.161586
 20
164.024078
 30
0.0
 10
363.399191
 20
162.703570
 30
0.0
 10
363.399191
 20
161.274508
 30
0.0
  0
SPLINE
  5
27c
100
AcDbEntity
  8
0
 62
7
100
AcDbSpline
 70
8
 71
3
 72
8
 73
4
 74
0
 40
0
 40
0
 40
0
 40
0
 40
1
 40
1
 40
1
 40
1
 10
363.399191
 20
161.274508
 30
0.0
 10
363.399191
 20
159.845446
 30
0.0
 10
364.161586
 20
158.524938
 30
0.0
 10
365.399190
 20
157.810406
 30
0.0
  0
SPLINE
  5
27d
100
AcDbEntity
  8
0
 62
7
100
AcDbSpline
 70
8
 71
3
 72
8
 73
4
 74
0
 40
0
 40
0
 40
0
 40
0
 40
1
 40
1
 40
1
 40
1
 10
365.399190
 20
157.810406
 30
0.0
 10
366.636795
 20
157.095875
 30
0.0
 10
368.161586
 20
157.095875
 30
0.0
 10
369.399190
 20
157.810406
 30
0.0
  0
SPLINE
  5
27e
100
AcDbEntity
  8
0
 62
7
100
AcDbSpline
 70
8
 71
3
 72
8
 73
4
 74
0
 40
0
 40
0
 40
0
 40
0
 40
1
 40
1
 40
1
 40
1
 10
369.399190
 20
157.810406
 30
0.0
 10
370.636795
 20
158.524938
 30
0.0
 10
371.399190
 20
159.845446
 30
0.0
 10
371.399190
 20
161.274508
 30
0.0
  0
LWPOLYLINE
  5
27f
100
AcDbEntity
  8
0
 62
7
100
AcDbPolyline
 90
2
 70
1
 10
395.899190
 20
161.274508
 30
0.0
 10
395.899190
 20
161.274508
 30
0.0
  0
SPLINE
  5
280
100
AcDbEntity
  8
0
 62
7
100
AcDbSpline
 70
8
 71
3
 72
8
 73
4
 74
0
 40
0
 40
0
 40
0
 40
0
 40
1
 40
1
 40
1
 40
1
 10
410.524190
 20
165.574508
 30
0.0
 10
410.524190
 20
166.146133
 30
0.0
 10
410.219232
 20
166.674336
 30
0.0
 10
409.724190
 20
166.960149
 30
0.0
  0
SPLINE
  5
281
100
AcDbEntity
  8
0
 62
7
100
AcDbSpline
 70
8
 71
3
 72
8
 73
4
 74
0
 40
0
 40
0
 40
0
 40
0
 40
1
 40
1
 40
1
 40
1
 10
409.724190
 20
166.960149
 30
0.0
 10
409.229149
 20
167.245961
 30
0.0
 10
408.619232
 20
167.245961
 30
0.0
 10
408.124190
 20
166.960149
 30
0.0
  0
SPLINE
  5
282
100
AcDbEntity
  8
0
 62
7
100
AcDbSpline
 70
8
 71
3
 72
8
 73
4
 74
0
 40
0
 40
0
 40
0
 40
0
 40
1
 40
1
 40
1
 40
1
 10
408.124190
 20
166.960149
 30
0.0
 10
407.629149
 20
166.674336
 30
0.0
 10
407.324190
 20
166.146133
 30
0.0
 10
407.324191
 20
165.574508
 30
0.0
  0
SPLINE
  5
283
100
AcDbEntity
  8
0
 62
7
100
AcDbSpline
 70
8
 71
3
 72
8
 73
4
 74
0
 40
0
 40
0
 40
0
 40
0
 40
1
 40
1
 40
1
 40
1
 10
407.324191
 20
165.574508
 30
0.0
 10
407.324191
 20
165.002883
 30
0.0
 10
407.629149
 20
164.474680
 30
0.0
 10
408.124190
 20
164.188867
 30
0.0
  0
SPLINE
  5
284
100
AcDbEntity
  8
0
 62
7
100
AcDbSpline
 70
8
 71
3
 72
8
 73
4
 74
0
 40
0
 40
0
 40
0
 40
0
 40
1
 40
1
 40
1
 40
1
 10
408.124190
 20
164.188867
 30
0.0
 10
408.619232
 20
163.903055
 30
0.0
 10
409.229149
 20
163.903055
 30
0.0
 10
409.724190
 20
164.188867
 30
0.0
  0
SPLINE
  5
285
100
AcDbEntity
  8
0
 62
7
100
AcDbSpline
 70
8
 71
3
 72
8
 73
4
 74
0
 40
0
 40
0
 40
0
 40
0
 40
1
 40
1
 40
1
 40
1
 10
409.724190
 20
164.188867
 30
0.0
 10
410.219232
 20
164.474680
 30
0.0
 10
410.524190
 20
165.002883
 30
0.0
 10
410.524190
 20
165.574508
 30
0.0
  0
LWPOLYLINE
  5
286
100
AcDbEntity
  8
0
 62
7
100
AcDbPolyline
 90
2
 70
1
 10
371.399190
 20
161.274508
 30
0.0
 10
371.399190
 20
161.274508
 30
0.0
  0
SPLINE
  5
287
100
AcDbEntity
  8
0
 62
7
100
AcDbSpline
 70
8
 71
3
 72
8
 73
4
 74
0
 40
0
 40
0
 40
0
 40
0
 40
1
 40
1
 40
1
 40
1
 10
559.199051
 20
127.207423
 30
0.0
 10
559.199051
 20
127.779048
 30
0.0
 10
558.894093
 20
128.307251
 30
0.0
 10
558.399051
 20
128.593064
 30
0.0
  0
SPLINE
  5
288
100
AcDbEntity
  8
0
 62
7
100
AcDbSpline
 70
8
 71
3
 72
8
 73
4
 74
0
 40
0
 40
0
 40
0
 40
0
 40
1
 40
1
 40
1
 40
1
 10
558.399051
 20
128.593064
 30
0.0
 10
557.904010
 20
128.878877
 30
0.0
 10
557.294093
 20
128.878877
 30
0.0
 10
556.799051
 20
128.593064
 30
0.0
  0
SPLINE
  5
289
100
AcDbEntity
  8
0
 62
7
100
AcDbSpline
 70
8
 71
3
 72
8
 73
4
 74
0
 40
0
 40
0
 40
0
 40
0
 40
1
 40
1
 40
1
 40
1
 10
556.799051
 20
128.593064
 30
0.0
 10
556.304009
 20
128.307251
 30
0.0
 10
555.999051
 20
127.779048
 30
0.0
 10
555.999051
 20
127.207423
 30
0.0
  0
SPLINE
  5
28a
100
AcDbEntity
  8
0
 62
7
100
AcDbSpline
 70
8
 71
3
 72
8
 73
4
 74
0
 40
0
 40
0
 40
0
 40
0
 40
1
 40
1
 40
1
 40
1
 10
555.999051
 20
127.207423
 30
0.0
 10
555.999051
 20
126.635798
 30
0.0
 10
556.304009
 20
126.107595
 30
0.0
 10
556.799051
 20
125.821782
 30
0.0
  0
SPLINE
  5
28b
100
AcDbEntity
  8
0
 62
7
100
AcDbSpline
 70
8
 71
3
 72
8
 73
4
 74
0
 40
0
 40
0
 40
0
 40
0
 40
1
 40
1
 40
1
 40
1
 10
556.799051
 20
125.821782
 30
0.0
 10
557.294093
 20
125.535970
 30
0.0
 10
557.904010
 20
125.535970
 30
0.0
 10
558.399051
 20
125.821782
 30
0.0
  0
SPLINE
  5
28c
100
AcDbEntity
  8
0
 62
7
100
AcDbSpline
 70
8
 71
3
 72
8
 73
4
 74
0
 40
0
 40
0
 40
0
 40
0
 40
1
 40
1
 40
1
 40
1
 10
558.399051
 20
125.821782
 30
0.0
 10
558.894093
 20
126.107595
 30
0.0
 10
559.199051
 20
126.635798
 30
0.0
 10
559.199051
 20
127.207423
 30
0.0
  0
LWPOLYLINE
  5
28d
100
AcDbEntity
  8
0
 62
7
100
AcDbPolyline
 90
2
 70
1
 10
410.524190
 20
165.574508
 30
0.0
 10
410.524190
 20
165.574508
 30
0.0
  0
SPLINE
  5
28e
100
AcDbEntity
  8
0
 62
7
100
AcDbSpline
 70
8
 71
3
 72
8
 73
4
 74
0
 40
0
 40
0
 40
0
 40
0
 40
1
 40
1
 40
1
 40
1
 10
516.199051
 20
151.032423
 30
0.0
 10
516.199051
 20
151.604048
 30
0.0
 10
515.894093
 20
152.132251
 30
0.0
 10
515.399051
 20
152.418064
 30
0.0
  0
SPLINE
  5
28f
100
AcDbEntity
  8
0
 62
7
100
AcDbSpline
 70
8
 71
3
 72
8
 73
4
 74
0
 40
0
 40
0
 40
0
 40
0
 40
1
 40
1
 40
1
 40
1
 10
515.399051
 20
152.418064
 30
0.0
 10
514.904010
 20
152.703876
 30
0.0
 10
514.294093
 20
152.703876
 30
0.0
 10
513.799051
 20
152.418064
 30
0.0
  0
SPLINE
  5
290
100
AcDbEntity
  8
0
 62
7
100
AcDbSpline
 70
8
 71
3
 72
8
 73
4
 74
0
 40
0
 40
0
 40
0
 40
0
 40
1
 40
1
 40
1
 40
1
 10
513.799051
 20
152.418064
 30
0.0
 10
513.304010
 20
152.132251
 30
0.0
 10
512.999051
 20
151.604048
 30
0.0
 10
512.999052
 20
151.032423
 30
0.0
  0
SPLINE
  5
291
100
AcDbEntity
  8
0
 62
7
100
AcDbSpline
 70
8
 71
3
 72
8
 73
4
 74
0
 40
0
 40
0
 40
0
 40
0
 40
1
 40
1
 40
1
 40
1
 10
512.999052
 20
151.032423
 30
0.0
 10
512.999052
 20
150.460798
 30
0.0
 10
513.304010
 20
149.932595
 30
0.0
 10
513.799051
 20
149.646782
 30
0.0
  0
SPLINE
  5
292
100
AcDbEntity
  8
0
 62
7
100
AcDbSpline
 70
8
 71
3
 72
8
 73
4
 74
0
 40
0
 40
0
 40
0
 40
0
 40
1
 40
1
 40
1
 40
1
 10
513.799051
 20
149.646782
 30
0.0
 10
514.294093
 20
149.360970
 30
0.0
 10
514.904010
 20
149.360970
 30
0.0
 10
515.399051
 20
149.646782
 30
0.0
  0
SPLINE
  5
293
100
AcDbEntity
  8
0
 62
7
100
AcDbSpline
 70
8
 71
3
 72
8
 73
4
 74
0
 40
0
 40
0
 40
0
 40
0
 40
1
 40
1
 40
1
 40
1
 10
515.399051
 20
149.646782
 30
0.0
 10
515.894093
 20
149.932595
 30
0.0
 10
516.199051
 20
150.460798
 30
0.0
 10
516.199051
 20
151.032423
 30
0.0
  0
LWPOLYLINE
  5
294
100
AcDbEntity
  8
0
 62
7
100
AcDbPolyline
 90
2
 70
1
 10
559.199051
 20
127.207423
 30
0.0
 10
559.199051
 20
127.207423
 30
0.0
  0
SPLINE
  5
295
100
AcDbEntity
  8
0
 62
7
100
AcDbSpline
 70
8
 71
3
 72
8
 73
4
 74
0
 40
0
 40
0
 40
0
 40
0
 40
1
 40
1
 40
1
 40
1
 10
499.474051
 20
183.507423
 30
0.0
 10
499.474051
 20
184.936485
 30
0.0
 10
498.711656
 20
186.256993
 30
0.0
 10
497.474051
 20
186.971525
 30
0.0
  0
SPLINE
  5
296
100
AcDbEntity
  8
0
 62
7
100
AcDbSpline
 70
8
 71
3
 72
8
 73
4
 74
0
 40
0
 40
0
 40
0
 40
0
 40
1
 40
1
 40
1
 40
1
 10
497.474051
 20
186.971525
 30
0.0
 10
496.236447
 20
187.686056
 30
0.0
 10
494.711656
 20
187.686056
 30
0.0
 10
493.474051
 20
186.971525
 30
0.0
  0
SPLINE
  5
297
100
AcDbEntity
  8
0
 62
7
100
AcDbSpline
 70
8
 71
3
 72
8
 73
4
 74
0
 40
0
 40
0
 40
0
 40
0
 40
1
 40
1
 40
1
 40
1
 10
493.474051
 20
186.971525
 30
0.0
 10
492.236447
 20
186.256993
 30
0.0
 10
491.474051
 20
184.936485
 30
0.0
 10
491.474052
 20
183.507423
 30
0.0
  0
SPLINE
  5
298
100
AcDbEntity
  8
0
 62
7
100
AcDbSpline
 70
8
 71
3
 72
8
 73
4
 74
0
 40
0
 40
0
 40
0
 40
0
 40
1
 40
1
 40
1
 40
1
 10
491.474052
 20
183.507423
 30
0.0
 10
491.474052
 20
182.078361
 30
0.0
 10
492.236447
 20
180.757853
 30
0.0
 10
493.474052
 20
180.043322
 30
0.0
  0
SPLINE
  5
299
100
AcDbEntity
  8
0
 62
7
100
AcDbSpline
 70
8
 71
3
 72
8
 73
4
 74
0
 40
0
 40
0
 40
0
 40
0
 40
1
 40
1
 40
1
 40
1
 10
493.474052
 20
180.043322
 30
0.0
 10
494.711656
 20
179.328790
 30
0.0
 10
496.236447
 20
179.328790
 30
0.0
 10
497.474051
 20
180.043322
 30
0.0
  0
SPLINE
  5
29a
100
AcDbEntity
  8
0
 62
7
100
AcDbSpline
 70
8
 71
3
 72
8
 73
4
 74
0
 40
0
 40
0
 40
0
 40
0
 40
1
 40
1
 40
1
 40
1
 10
497.474051
 20
180.043322
 30
0.0
 10
498.711656
 20
180.757853
 30
0.0
 10
499.474051
 20
182.078361
 30
0.0
 10
499.474051
 20
183.507423
 30
0.0
  0
LWPOLYLINE
  5
29b
100
AcDbEntity
  8
0
 62
7
100
AcDbPolyline
 90
2
 70
1
 10
516.199051
 20
151.032423
 30
0.0
 10
516.199051
 20
151.032423
 30
0.0
  0
SPLINE
  5
29c
100
AcDbEntity
  8
0
 62
7
100
AcDbSpline
 70
8
 71
3
 72
8
 73
4
 74
0
 40
0
 40
0
 40
0
 40
0
 40
1
 40
1
 40
1
 40
1
 10
517.474051
 20
183.507423
 30
0.0
 10
517.474051
 20
185.293751
 30
0.0
 10
516.521057
 20
186.944386
 30
0.0
 10
514.974051
 20
187.837550
 30
0.0
  0
SPLINE
  5
29d
100
AcDbEntity
  8
0
 62
7
100
AcDbSpline
 70
8
 71
3
 72
8
 73
4
 74
0
 40
0
 40
0
 40
0
 40
0
 40
1
 40
1
 40
1
 40
1
 10
514.974051
 20
187.837550
 30
0.0
 10
513.427046
 20
188.730714
 30
0.0
 10
511.521057
 20
188.730714
 30
0.0
 10
509.974051
 20
187.837550
 30
0.0
  0
SPLINE
  5
29e
100
AcDbEntity
  8
0
 62
7
100
AcDbSpline
 70
8
 71
3
 72
8
 73
4
 74
0
 40
0
 40
0
 40
0
 40
0
 40
1
 40
1
 40
1
 40
1
 10
509.974051
 20
187.837550
 30
0.0
 10
508.427046
 20
186.944386
 30
0.0
 10
507.474051
 20
185.293751
 30
0.0
 10
507.474051
 20
183.507423
 30
0.0
  0
SPLINE
  5
29f
100
AcDbEntity
  8
0
 62
7
100
AcDbSpline
 70
8
 71
3
 72
8
 73
4
 74
0
 40
0
 40
0
 40
0
 40
0
 40
1
 40
1
 40
1
 40
1
 10
507.474051
 20
183.507423
 30
0.0
 10
507.474051
 20
181.721095
 30
0.0
 10
508.427046
 20
180.070460
 30
0.0
 10
509.974051
 20
179.177296
 30
0.0
  0
SPLINE
  5
2a0
100
AcDbEntity
  8
0
 62
7
100
AcDbSpline
 70
8
 71
3
 72
8
 73
4
 74
0
 40
0
 40
0
 40
0
 40
0
 40
1
 40
1
 40
1
 40
1
 10
509.974051
 20
179.177296
 30
0.0
 10
511.521057
 20
178.284132
 30
0.0
 10
513.427046
 20
178.284132
 30
0.0
 10
514.974051
 20
179.177296
 30
0.0
  0
SPLINE
  5
2a1
100
AcDbEntity
  8
0
 62
7
100
AcDbSpline
 70
8
 71
3
 72
8
 73
4
 74
0
 40
0
 40
0
 40
0
 40
0
 40
1
 40
1
 40
1
 40
1
 10
514.974051
 20
179.177296
 30
0.0
 10
516.521057
 20
180.070460
 30
0.0
 10
517.474051
 20
181.721095
 30
0.0
 10
517.474051
 20
183.507423
 30
0.0
  0
LWPOLYLINE
  5
2a2
100
AcDbEntity
  8
0
 62
7
100
AcDbPolyline
 90
2
 70
1
 10
499.474051
 20
183.507423
 30
0.0
 10
499.474051
 20
183.507423
 30
0.0
  0
SPLINE
  5
2a3
100
AcDbEntity
  8
0
 62
7
100
AcDbSpline
 70
8
 71
3
 72
8
 73
4
 74
0
 40
0
 40
0
 40
0
 40
0
 40
1
 40
1
 40
1
 40
1
 10
493.774923
 20
111.110254
 30
0.0
 10
493.774923
 20
111.681879
 30
0.0
 10
493.469965
 20
112.210082
 30
0.0
 10
492.974923
 20
112.495895
 30
0.0
  0
SPLINE
  5
2a4
100
AcDbEntity
  8
0
 62
7
100
AcDbSpline
 70
8
 71
3
 72
8
 73
4
 74
0
 40
0
 40
0
 40
0
 40
0
 40
1
 40
1
 40
1
 40
1
 10
492.974923
 20
112.495895
 30
0.0
 10
492.479882
 20
112.781707
 30
0.0
 10
491.869965
 20
112.781707
 30
0.0
 10
491.374923
 20
112.495895
 30
0.0
  0
SPLINE
  5
2a5
100
AcDbEntity
  8
0
 62
7
100
AcDbSpline
 70
8
 71
3
 72
8
 73
4
 74
0
 40
0
 40
0
 40
0
 40
0
 40
1
 40
1
 40
1
 40
1
 10
491.374923
 20
112.495895
 30
0.0
 10
490.879882
 20
112.210082
 30
0.0
 10
490.574923
 20
111.681879
 30
0.0
 10
490.574923
 20
111.110254
 30
0.0
  0
SPLINE
  5
2a6
100
AcDbEntity
  8
0
 62
7
100
AcDbSpline
 70
8
 71
3
 72
8
 73
4
 74
0
 40
0
 40
0
 40
0
 40
0
 40
1
 40
1
 40
1
 40
1
 10
490.574923
 20
111.110254
 30
0.0
 10
490.574923
 20
110.538629
 30
0.0
 10
490.879882
 20
110.010426
 30
0.0
 10
491.374923
 20
109.724614
 30
0.0
  0
SPLINE
  5
2a7
100
AcDbEntity
  8
0
 62
7
100
AcDbSpline
 70
8
 71
3
 72
8
 73
4
 74
0
 40
0
 40
0
 40
0
 40
0
 40
1
 40
1
 40
1
 40
1
 10
491.374923
 20
109.724614
 30
0.0
 10
491.869965
 20
109.438801
 30
0.0
 10
492.479882
 20
109.438801
 30
0.0
 10
492.974923
 20
109.724614
 30
0.0
  0
SPLINE
  5
2a8
100
AcDbEntity
  8
0
 62
7
100
AcDbSpline
 70
8
 71
3
 72
8
 73
4
 74
0
 40
0
 40
0
 40
0
 40
0
 40
1
 40
1
 40
1
 40
1
 10
492.974923
 20
109.724614
 30
0.0
 10
493.469965
 20
110.010426
 30
0.0
 10
493.774923
 20
110.538629
 30
0.0
 10
493.774923
 20
111.110254
 30
0.0
  0
LWPOLYLINE
  5
2a9
100
AcDbEntity
  8
0
 62
7
100
AcDbPolyline
 90
2
 70
1
 10
517.474051
 20
183.507423
 30
0.0
 10
517.474051
 20
183.507423
 30
0.0
  0
SPLINE
  5
2aa
100
AcDbEntity
  8
0
 62
7
100
AcDbSpline
 70
8
 71
3
 72
8
 73
4
 74
0
 40
0
 40
0
 40
0
 40
0
 40
1
 40
1
 40
1
 40
1
 10
450.774923
 20
87.285254
 30
0.0
 10
450.774923
 20
87.856879
 30
0.0
 10
450.469965
 20
88.385082
 30
0.0
 10
449.974923
 20
88.670895
 30
0.0
  0
SPLINE
  5
2ab
100
AcDbEntity
  8
0
 62
7
100
AcDbSpline
 70
8
 71
3
 72
8
 73
4
 74
0
 40
0
 40
0
 40
0
 40
0
 40
1
 40
1
 40
1
 40
1
 10
449.974923
 20
88.670895
 30
0.0
 10
449.479882
 20
88.956707
 30
0.0
 10
448.869965
 20
88.956707
 30
0.0
 10
448.374923
 20
88.670895
 30
0.0
  0
SPLINE
  5
2ac
100
AcDbEntity
  8
0
 62
7
100
AcDbSpline
 70
8
 71
3
 72
8
 73
4
 74
0
 40
0
 40
0
 40
0
 40
0
 40
1
 40
1
 40
1
 40
1
 10
448.374923
 20
88.670895
 30
0.0
 10
447.879882
 20
88.385082
 30
0.0
 10
447.574923
 20
87.856879
 30
0.0
 10
447.574923
 20
87.285254
 30
0.0
  0
SPLINE
  5
2ad
100
AcDbEntity
  8
0
 62
7
100
AcDbSpline
 70
8
 71
3
 72
8
 73
4
 74
0
 40
0
 40
0
 40
0
 40
0
 40
1
 40
1
 40
1
 40
1
 10
447.574923
 20
87.285254
 30
0.0
 10
447.574923
 20
86.713629
 30
0.0
 10
447.879882
 20
86.185426
 30
0.0
 10
448.374923
 20
85.899614
 30
0.0
  0
SPLINE
  5
2ae
100
AcDbEntity
  8
0
 62
7
100
AcDbSpline
 70
8
 71
3
 72
8
 73
4
 74
0
 40
0
 40
0
 40
0
 40
0
 40
1
 40
1
 40
1
 40
1
 10
448.374923
 20
85.899614
 30
0.0
 10
448.869965
 20
85.613801
 30
0.0
 10
449.479882
 20
85.613801
 30
0.0
 10
449.974923
 20
85.899614
 30
0.0
  0
SPLINE
  5
2af
100
AcDbEntity
  8
0
 62
7
100
AcDbSpline
 70
8
 71
3
 72
8
 73
4
 74
0
 40
0
 40
0
 40
0
 40
0
 40
1
 40
1
 40
1
 40
1
 10
449.974923
 20
85.899614
 30
0.0
 10
450.469965
 20
86.185426
 30
0.0
 10
450.774923
 20
86.713629
 30
0.0
 10
450.774923
 20
87.285254
 30
0.0
  0
LWPOLYLINE
  5
2b0
100
AcDbEntity
  8
0
 62
7
100
AcDbPolyline
 90
2
 70
1
 10
493.774923
 20
111.110254
 30
0.0
 10
493.774923
 20
111.110254
 30
0.0
  0
SPLINE
  5
2b1
100
AcDbEntity
  8
0
 62
7
100
AcDbSpline
 70
8
 71
3
 72
8
 73
4
 74
0
 40
0
 40
0
 40
0
 40
0
 40
1
 40
1
 40
1
 40
1
 10
434.049923
 20
54.810254
 30
0.0
 10
434.049923
 20
56.239317
 30
0.0
 10
433.287528
 20
57.559825
 30
0.0
 10
432.049923
 20
58.274356
 30
0.0
  0
SPLINE
  5
2b2
100
AcDbEntity
  8
0
 62
7
100
AcDbSpline
 70
8
 71
3
 72
8
 73
4
 74
0
 40
0
 40
0
 40
0
 40
0
 40
1
 40
1
 40
1
 40
1
 10
432.049923
 20
58.274356
 30
0.0
 10
430.812319
 20
58.988887
 30
0.0
 10
429.287528
 20
58.988887
 30
0.0
 10
428.049923
 20
58.274356
 30
0.0
  0
SPLINE
  5
2b3
100
AcDbEntity
  8
0
 62
7
100
AcDbSpline
 70
8
 71
3
 72
8
 73
4
 74
0
 40
0
 40
0
 40
0
 40
0
 40
1
 40
1
 40
1
 40
1
 10
428.049923
 20
58.274356
 30
0.0
 10
426.812319
 20
57.559825
 30
0.0
 10
426.049923
 20
56.239317
 30
0.0
 10
426.049923
 20
54.810254
 30
0.0
  0
SPLINE
  5
2b4
100
AcDbEntity
  8
0
 62
7
100
AcDbSpline
 70
8
 71
3
 72
8
 73
4
 74
0
 40
0
 40
0
 40
0
 40
0
 40
1
 40
1
 40
1
 40
1
 10
426.049923
 20
54.810254
 30
0.0
 10
426.049923
 20
53.381192
 30
0.0
 10
426.812319
 20
52.060684
 30
0.0
 10
428.049923
 20
51.346153
 30
0.0
  0
SPLINE
  5
2b5
100
AcDbEntity
  8
0
 62
7
100
AcDbSpline
 70
8
 71
3
 72
8
 73
4
 74
0
 40
0
 40
0
 40
0
 40
0
 40
1
 40
1
 40
1
 40
1
 10
428.049923
 20
51.346153
 30
0.0
 10
429.287528
 20
50.631622
 30
0.0
 10
430.812319
 20
50.631622
 30
0.0
 10
432.049923
 20
51.346153
 30
0.0
  0
SPLINE
  5
2b6
100
AcDbEntity
  8
0
 62
7
100
AcDbSpline
 70
8
 71
3
 72
8
 73
4
 74
0
 40
0
 40
0
 40
0
 40
0
 40
1
 40
1
 40
1
 40
1
 10
432.049923
 20
51.346153
 30
0.0
 10
433.287528
 20
52.060684
 30
0.0
 10
434.049923
 20
53.381192
 30
0.0
 10
434.049923
 20
54.810254
 30
0.0
  0
LWPOLYLINE
  5
2b7
100
AcDbEntity
  8
0
 62
7
100
AcDbPolyline
 90
2
 70
1
 10
450.774923
 20
87.285254
 30
0.0
 10
450.774923
 20
87.285254
 30
0.0
  0
SPLINE
  5
2b8
100
AcDbEntity
  8
0
 62
7
100
AcDbSpline
 70
8
 71
3
 72
8
 73
4
 74
0
 40
0
 40
0
 40
0
 40
0
 40
1
 40
1
 40
1
 40
1
 10
452.049923
 20
54.810254
 30
0.0
 10
452.049923
 20
56.596582
 30
0.0
 10
451.096929
 20
58.247217
 30
0.0
 10
449.549923
 20
59.140381
 30
0.0
  0
SPLINE
  5
2b9
100
AcDbEntity
  8
0
 62
7
100
AcDbSpline
 70
8
 71
3
 72
8
 73
4
 74
0
 40
0
 40
0
 40
0
 40
0
 40
1
 40
1
 40
1
 40
1
 10
449.549923
 20
59.140381
 30
0.0
 10
448.002918
 20
60.033545
 30
0.0
 10
446.096929
 20
60.033545
 30
0.0
 10
444.549923
 20
59.140381
 30
0.0
  0
SPLINE
  5
2ba
100
AcDbEntity
  8
0
 62
7
100
AcDbSpline
 70
8
 71
3
 72
8
 73
4
 74
0
 40
0
 40
0
 40
0
 40
0
 40
1
 40
1
 40
1
 40
1
 10
444.549923
 20
59.140381
 30
0.0
 10
443.002918
 20
58.247217
 30
0.0
 10
442.049923
 20
56.596582
 30
0.0
 10
442.049924
 20
54.810254
 30
0.0
  0
SPLINE
  5
2bb
100
AcDbEntity
  8
0
 62
7
100
AcDbSpline
 70
8
 71
3
 72
8
 73
4
 74
0
 40
0
 40
0
 40
0
 40
0
 40
1
 40
1
 40
1
 40
1
 10
442.049924
 20
54.810254
 30
0.0
 10
442.049924
 20
53.023926
 30
0.0
 10
443.002918
 20
51.373291
 30
0.0
 10
444.549923
 20
50.480127
 30
0.0
  0
SPLINE
  5
2bc
100
AcDbEntity
  8
0
 62
7
100
AcDbSpline
 70
8
 71
3
 72
8
 73
4
 74
0
 40
0
 40
0
 40
0
 40
0
 40
1
 40
1
 40
1
 40
1
 10
444.549923
 20
50.480127
 30
0.0
 10
446.096929
 20
49.586964
 30
0.0
 10
448.002918
 20
49.586964
 30
0.0
 10
449.549923
 20
50.480127
 30
0.0
  0
SPLINE
  5
2bd
100
AcDbEntity
  8
0
 62
7
100
AcDbSpline
 70
8
 71
3
 72
8
 73
4
 74
0
 40
0
 40
0
 40
0
 40
0
 40
1
 40
1
 40
1
 40
1
 10
449.549923
 20
50.480127
 30
0.0
 10
451.096929
 20
51.373291
 30
0.0
 10
452.049923
 20
53.023926
 30
0.0
 10
452.049923
 20
54.810254
 30
0.0
  0
LWPOLYLINE
  5
2be
100
AcDbEntity
  8
0
 62
7
100
AcDbPolyline
 90
2
 70
1
 10
434.049923
 20
54.810254
 30
0.0
 10
434.049923
 20
54.810254
 30
0.0
  0
LWPOLYLINE
  5
2bf
100
AcDbEntity
  8
0
 62
7
100
AcDbPolyline
 90
2
 70
1
 10
452.049923
 20
54.810254
 30
0.0
 10
452.049923
 20
54.810254
 30
0.0
  0
SPLINE
  5
2c0
100
AcDbEntity
  8
0
 62
7
100
AcDbSpline
 70
8
 71
3
 72
8
 73
4
 74
0
 40
0
 40
0
 40
0
 40
0
 40
1
 40
1
 40
1
 40
1
 10
415.414226
 20
580.900104
 30
0.0
 10
415.414226
 20
580.900104
 30
0.0
 10
415.414226
 20
565.900104
 30
0.0
 10
415.414226
 20
565.900104
 30
0.0
  0
SPLINE
  5
2c1
100
AcDbEntity
  8
0
 62
7
100
AcDbSpline
 70
8
 71
3
 72
8
 73
4
 74
0
 40
0
 40
0
 40
0
 40
0
 40
1
 40
1
 40
1
 40
1
 10
415.414226
 20
565.900104
 30
0.0
 10
411.882078
 20
564.988107
 30
0.0
 10
409.414226
 20
561.802124
 30
0.0
 10
409.414226
 20
558.154137
 30
0.0
  0
SPLINE
  5
2c2
100
AcDbEntity
  8
0
 62
7
100
AcDbSpline
 70
8
 71
3
 72
8
 73
4
 74
0
 40
0
 40
0
 40
0
 40
0
 40
1
 40
1
 40
1
 40
1
 10
409.414226
 20
558.154137
 30
0.0
 10
409.414226
 20
558.154137
 30
0.0
 10
409.414226
 20
274.996071
 30
0.0
 10
409.414226
 20
274.996071
 30
0.0
  0
SPLINE
  5
2c3
100
AcDbEntity
  8
0
 62
7
100
AcDbSpline
 70
8
 71
3
 72
8
 73
4
 74
0
 40
0
 40
0
 40
0
 40
0
 40
1
 40
1
 40
1
 40
1
 10
409.414226
 20
274.996071
 30
0.0
 10
409.414226
 20
271.348085
 30
0.0
 10
411.882078
 20
268.162101
 30
0.0
 10
415.414226
 20
267.250104
 30
0.0
  0
SPLINE
  5
2c4
100
AcDbEntity
  8
0
 62
7
100
AcDbSpline
 70
8
 71
3
 72
8
 73
4
 74
0
 40
0
 40
0
 40
0
 40
0
 40
1
 40
1
 40
1
 40
1
 10
415.414226
 20
267.250104
 30
0.0
 10
415.414226
 20
267.250104
 30
0.0
 10
415.414226
 20
215.900104
 30
0.0
 10
415.414226
 20
215.900104
 30
0.0
  0
SPLINE
  5
2c5
100
AcDbEntity
  8
0
 62
7
100
AcDbSpline
 70
8
 71
3
 72
8
 73
4
 74
0
 40
0
 40
0
 40
0
 40
0
 40
1
 40
1
 40
1
 40
1
 10
415.414226
 20
215.900104
 30
0.0
 10
415.414226
 20
214.574022
 30
0.0
 10
414.887442
 20
213.302252
 30
0.0
 10
413.949760
 20
212.364570
 30
0.0
  0
SPLINE
  5
2c6
100
AcDbEntity
  8
0
 62
7
100
AcDbSpline
 70
8
 71
3
 72
8
 73
4
 74
0
 40
0
 40
0
 40
0
 40
0
 40
1
 40
1
 40
1
 40
1
 10
413.949760
 20
212.364570
 30
0.0
 10
413.012078
 20
211.426888
 30
0.0
 10
411.740308
 20
210.900104
 30
0.0
 10
410.414226
 20
210.900104
 30
0.0
  0
LWPOLYLINE
  5
2c7
100
AcDbEntity
  8
0
 62
7
100
AcDbPolyline
 90
23
 70
1
 10
59.989226
 20
566.550104
 30
0.0
 10
59.989226
 20
568.550104
 30
0.0
 10
58.739226
 20
568.550104
 30
0.0
 10
58.739226
 20
574.550104
 30
0.0
 10
79.064226
 20
574.550104
 30
0.0
 10
79.064226
 20
580.900104
 30
0.0
 10
361.764226
 20
580.900104
 30
0.0
 10
361.764226
 20
574.550104
 30
0.0
 10
382.089226
 20
574.550104
 30
0.0
 10
382.089226
 20
568.550104
 30
0.0
 10
380.839226
 20
568.550104
 30
0.0
 10
380.839226
 20
566.550104
 30
0.0
 10
382.089226
 20
566.550104
 30
0.0
 10
382.089226
 20
563.900104
 30
0.0
 10
385.089226
 20
563.900104
 30
0.0
 10
385.089226
 20
566.550104
 30
0.0
 10
386.339226
 20
566.550104
 30
0.0
 10
386.339226
 20
568.550104
 30
0.0
 10
385.089226
 20
568.550104
 30
0.0
 10
385.089226
 20
574.550104
 30
0.0
 10
405.414226
 20
574.550104
 30
0.0
 10
405.414226
 20
580.900104
 30
0.0
 10
415.414226
 20
580.900104
 30
0.0
  0
SPLINE
  5
2c8
100
AcDbEntity
  8
0
 62
7
100
AcDbSpline
 70
8
 71
3
 72
8
 73
4
 74
0
 40
0
 40
0
 40
0
 40
0
 40
1
 40
1
 40
1
 40
1
 10
30.414226
 20
210.900104
 30
0.0
 10
29.088143
 20
210.900104
 30
0.0
 10
27.816374
 20
211.426888
 30
0.0
 10
26.878692
 20
212.364570
 30
0.0
  0
SPLINE
  5
2c9
100
AcDbEntity
  8
0
 62
7
100
AcDbSpline
 70
8
 71
3
 72
8
 73
4
 74
0
 40
0
 40
0
 40
0
 40
0
 40
1
 40
1
 40
1
 40
1
 10
26.878692
 20
212.364570
 30
0.0
 10
25.941010
 20
213.302252
 30
0.0
 10
25.414226
 20
214.574022
 30
0.0
 10
25.414226
 20
215.900104
 30
0.0
  0
LWPOLYLINE
  5
2ca
100
AcDbEntity
  8
0
 62
7
100
AcDbPolyline
 90
6
 70
1
 10
410.414226
 20
210.900104
 30
0.0
 10
390.414226
 20
210.900104
 30
0.0
 10
388.414226
 20
212.900104
 30
0.0
 10
52.414226
 20
212.900104
 30
0.0
 10
50.414226
 20
210.900104
 30
0.0
 10
30.414226
 20
210.900104
 30
0.0
  0
SPLINE
  5
2cb
100
AcDbEntity
  8
0
 62
7
100
AcDbSpline
 70
8
 71
3
 72
8
 73
4
 74
0
 40
0
 40
0
 40
0
 40
0
 40
1
 40
1
 40
1
 40
1
 10
25.414226
 20
267.250104
 30
0.0
 10
28.946373
 20
268.162101
 30
0.0
 10
31.414226
 20
271.348085
 30
0.0
 10
31.414226
 20
274.996071
 30
0.0
  0
SPLINE
  5
2cc
100
AcDbEntity
  8
0
 62
7
100
AcDbSpline
 70
8
 71
3
 72
8
 73
4
 74
0
 40
0
 40
0
 40
0
 40
0
 40
1
 40
1
 40
1
 40
1
 10
31.414226
 20
274.996071
 30
0.0
 10
31.414226
 20
274.996071
 30
0.0
 10
31.414226
 20
558.154137
 30
0.0
 10
31.414226
 20
558.154137
 30
0.0
  0
SPLINE
  5
2cd
100
AcDbEntity
  8
0
 62
7
100
AcDbSpline
 70
8
 71
3
 72
8
 73
4
 74
0
 40
0
 40
0
 40
0
 40
0
 40
1
 40
1
 40
1
 40
1
 10
31.414226
 20
558.154137
 30
0.0
 10
31.414225
 20
561.802124
 30
0.0
 10
28.946373
 20
564.988107
 30
0.0
 10
25.414226
 20
565.900104
 30
0.0
  0
LWPOLYLINE
  5
2ce
100
AcDbEntity
  8
0
 62
7
100
AcDbPolyline
 90
2
 70
1
 10
25.414226
 20
215.900104
 30
0.0
 10
25.414226
 20
267.250104
 30
0.0
  0
LWPOLYLINE
  5
2cf
100
AcDbEntity
  8
0
 62
7
100
AcDbPolyline
 90
14
 70
1
 10
25.414226
 20
565.900104
 30
0.0
 10
25.414226
 20
580.900104
 30
0.0
 10
35.414226
 20
580.900104
 30
0.0
 10
35.414226
 20
574.550104
 30
0.0
 10
55.739226
 20
574.550104
 30
0.0
 10
55.739226
 20
568.550104
 30
0.0
 10
54.489226
 20
568.550104
 30
0.0
 10
54.489226
 20
566.550104
 30
0.0
 10
55.739226
 20
566.550104
 30
0.0
 10
55.739226
 20
563.900104
 30
0.0
 10
58.739226
 20
563.900104
 30
0.0
 10
58.739226
 20
566.550104
 30
0.0
 10
59.989226
 20
566.550104
 30
0.0
 10
59.989226
 20
566.550104
 30
0.0
  0
SPLINE
  5
2d0
100
AcDbEntity
  8
0
 62
7
100
AcDbSpline
 70
8
 71
3
 72
8
 73
4
 74
0
 40
0
 40
0
 40
0
 40
0
 40
1
 40
1
 40
1
 40
1
 10
571.930346
 20
232.800104
 30
0.0
 10
571.930346
 20
233.860970
 30
0.0
 10
571.508919
 20
234.878386
 30
0.0
 10
570.758773
 20
235.628531
 30
0.0
  0
SPLINE
  5
2d1
100
AcDbEntity
  8
0
 62
7
100
AcDbSpline
 70
8
 71
3
 72
8
 73
4
 74
0
 40
0
 40
0
 40
0
 40
0
 40
1
 40
1
 40
1
 40
1
 10
570.758773
 20
235.628531
 30
0.0
 10
570.008628
 20
236.378677
 30
0.0
 10
568.991212
 20
236.800104
 30
0.0
 10
567.930346
 20
236.800104
 30
0.0
  0
LWPOLYLINE
  5
2d2
100
AcDbEntity
  8
0
 62
7
100
AcDbPolyline
 90
5
 70
1
 10
437.930346
 20
212.900104
 30
0.0
 10
539.930346
 20
212.900104
 30
0.0
 10
541.930346
 20
210.900104
 30
0.0
 10
571.930346
 20
210.900104
 30
0.0
 10
571.930346
 20
232.800104
 30
0.0
  0
SPLINE
  5
2d3
100
AcDbEntity
  8
0
 62
7
100
AcDbSpline
 70
8
 71
3
 72
8
 73
4
 74
0
 40
0
 40
0
 40
0
 40
0
 40
1
 40
1
 40
1
 40
1
 10
516.930346
 20
236.800104
 30
0.0
 10
515.465557
 20
236.800104
 30
0.0
 10
514.112036
 20
237.581560
 30
0.0
 10
513.379642
 20
238.850104
 30
0.0
  0
SPLINE
  5
2d4
100
AcDbEntity
  8
0
 62
7
100
AcDbSpline
 70
8
 71
3
 72
8
 73
4
 74
0
 40
0
 40
0
 40
0
 40
0
 40
1
 40
1
 40
1
 40
1
 10
513.379642
 20
238.850104
 30
0.0
 10
512.647247
 20
240.118648
 30
0.0
 10
512.647247
 20
241.681560
 30
0.0
 10
513.379642
 20
242.950104
 30
0.0
  0
SPLINE
  5
2d5
100
AcDbEntity
  8
0
 62
7
100
AcDbSpline
 70
8
 71
3
 72
8
 73
4
 74
0
 40
0
 40
0
 40
0
 40
0
 40
1
 40
1
 40
1
 40
1
 10
513.379642
 20
242.950104
 30
0.0
 10
514.112036
 20
244.218648
 30
0.0
 10
515.465557
 20
245.000104
 30
0.0
 10
516.930346
 20
245.000104
 30
0.0
  0
SPLINE
  5
2d6
100
AcDbEntity
  8
0
 62
7
100
AcDbSpline
 70
8
 71
3
 72
8
 73
4
 74
0
 40
0
 40
0
 40
0
 40
0
 40
1
 40
1
 40
1
 40
1
 10
516.930346
 20
245.000104
 30
0.0
 10
516.930346
 20
245.000104
 30
0.0
 10
567.930346
 20
245.000104
 30
0.0
 10
567.930346
 20
245.000104
 30
0.0
  0
SPLINE
  5
2d7
100
AcDbEntity
  8
0
 62
7
100
AcDbSpline
 70
8
 71
3
 72
8
 73
4
 74
0
 40
0
 40
0
 40
0
 40
0
 40
1
 40
1
 40
1
 40
1
 10
567.930346
 20
245.000104
 30
0.0
 10
568.991212
 20
245.000104
 30
0.0
 10
570.008628
 20
245.421531
 30
0.0
 10
570.758774
 20
246.171677
 30
0.0
  0
SPLINE
  5
2d8
100
AcDbEntity
  8
0
 62
7
100
AcDbSpline
 70
8
 71
3
 72
8
 73
4
 74
0
 40
0
 40
0
 40
0
 40
0
 40
1
 40
1
 40
1
 40
1
 10
570.758774
 20
246.171677
 30
0.0
 10
571.508919
 20
246.921823
 30
0.0
 10
571.930346
 20
247.939238
 30
0.0
 10
571.930346
 20
249.000104
 30
0.0
  0
SPLINE
  5
2d9
100
AcDbEntity
  8
0
 62
7
100
AcDbSpline
 70
8
 71
3
 72
8
 73
4
 74
0
 40
0
 40
0
 40
0
 40
0
 40
1
 40
1
 40
1
 40
1
 10
571.930346
 20
249.000104
 30
0.0
 10
571.930346
 20
249.000104
 30
0.0
 10
571.930346
 20
257.272019
 30
0.0
 10
571.930346
 20
257.272019
 30
0.0
  0
SPLINE
  5
2da
100
AcDbEntity
  8
0
 62
7
100
AcDbSpline
 70
8
 71
3
 72
8
 73
4
 74
0
 40
0
 40
0
 40
0
 40
0
 40
1
 40
1
 40
1
 40
1
 10
571.930346
 20
257.272019
 30
0.0
 10
571.930346
 20
257.688193
 30
0.0
 10
571.865398
 20
258.101817
 30
0.0
 10
571.737847
 20
258.497963
 30
0.0
  0
LWPOLYLINE
  5
2db
100
AcDbEntity
  8
0
 62
7
100
AcDbPolyline
 90
2
 70
1
 10
567.930346
 20
236.800104
 30
0.0
 10
516.930346
 20
236.800104
 30
0.0
  0
SPLINE
  5
2dc
100
AcDbEntity
  8
0
 62
7
100
AcDbSpline
 70
8
 71
3
 72
8
 73
4
 74
0
 40
0
 40
0
 40
0
 40
0
 40
1
 40
1
 40
1
 40
1
 10
455.930346
 20
218.900104
 30
0.0
 10
455.930346
 20
218.900104
 30
0.0
 10
470.930346
 20
218.900104
 30
0.0
 10
470.930346
 20
218.900104
 30
0.0
  0
SPLINE
  5
2dd
100
AcDbEntity
  8
0
 62
7
100
AcDbSpline
 70
8
 71
3
 72
8
 73
4
 74
0
 40
0
 40
0
 40
0
 40
0
 40
1
 40
1
 40
1
 40
1
 10
470.930346
 20
218.900104
 30
0.0
 10
472.359409
 20
218.900104
 30
0.0
 10
473.679917
 20
219.662500
 30
0.0
 10
474.394448
 20
220.900104
 30
0.0
  0
SPLINE
  5
2de
100
AcDbEntity
  8
0
 62
7
100
AcDbSpline
 70
8
 71
3
 72
8
 73
4
 74
0
 40
0
 40
0
 40
0
 40
0
 40
1
 40
1
 40
1
 40
1
 10
474.394448
 20
220.900104
 30
0.0
 10
475.108979
 20
222.137708
 30
0.0
 10
475.108979
 20
223.662500
 30
0.0
 10
474.394448
 20
224.900104
 30
0.0
  0
SPLINE
  5
2df
100
AcDbEntity
  8
0
 62
7
100
AcDbSpline
 70
8
 71
3
 72
8
 73
4
 74
0
 40
0
 40
0
 40
0
 40
0
 40
1
 40
1
 40
1
 40
1
 10
474.394448
 20
224.900104
 30
0.0
 10
473.679917
 20
226.137708
 30
0.0
 10
472.359409
 20
226.900104
 30
0.0
 10
470.930346
 20
226.900104
 30
0.0
  0
SPLINE
  5
2e0
100
AcDbEntity
  8
0
 62
7
100
AcDbSpline
 70
8
 71
3
 72
8
 73
4
 74
0
 40
0
 40
0
 40
0
 40
0
 40
1
 40
1
 40
1
 40
1
 10
470.930346
 20
226.900104
 30
0.0
 10
470.930346
 20
226.900104
 30
0.0
 10
455.930346
 20
226.900104
 30
0.0
 10
455.930346
 20
226.900104
 30
0.0
  0
SPLINE
  5
2e1
100
AcDbEntity
  8
0
 62
7
100
AcDbSpline
 70
8
 71
3
 72
8
 73
4
 74
0
 40
0
 40
0
 40
0
 40
0
 40
1
 40
1
 40
1
 40
1
 10
455.930346
 20
226.900104
 30
0.0
 10
454.501284
 20
226.900104
 30
0.0
 10
453.180776
 20
226.137708
 30
0.0
 10
452.466245
 20
224.900104
 30
0.0
  0
SPLINE
  5
2e2
100
AcDbEntity
  8
0
 62
7
100
AcDbSpline
 70
8
 71
3
 72
8
 73
4
 74
0
 40
0
 40
0
 40
0
 40
0
 40
1
 40
1
 40
1
 40
1
 10
452.466245
 20
224.900104
 30
0.0
 10
451.751714
 20
223.662500
 30
0.0
 10
451.751714
 20
222.137708
 30
0.0
 10
452.466245
 20
220.900104
 30
0.0
  0
SPLINE
  5
2e3
100
AcDbEntity
  8
0
 62
7
100
AcDbSpline
 70
8
 71
3
 72
8
 73
4
 74
0
 40
0
 40
0
 40
0
 40
0
 40
1
 40
1
 40
1
 40
1
 10
452.466245
 20
220.900104
 30
0.0
 10
453.180776
 20
219.662500
 30
0.0
 10
454.501284
 20
218.900104
 30
0.0
 10
455.930346
 20
218.900104
 30
0.0
  0
LWPOLYLINE
  5
2e4
100
AcDbEntity
  8
0
 62
7
100
AcDbPolyline
 90
79
 70
1
 10
571.737847
 20
258.497963
 30
0.0
 10
469.974928
 20
574.550104
 30
0.0
 10
460.080346
 20
574.550104
 30
0.0
 10
460.080346
 20
568.550104
 30
0.0
 10
461.330346
 20
568.550104
 30
0.0
 10
461.330346
 20
566.550104
 30
0.0
 10
460.080346
 20
566.550104
 30
0.0
 10
460.080346
 20
563.900104
 30
0.0
 10
457.080346
 20
563.900104
 30
0.0
 10
457.080346
 20
566.550104
 30
0.0
 10
455.830346
 20
566.550104
 30
0.0
 10
455.830346
 20
568.550104
 30
0.0
 10
457.080346
 20
568.550104
 30
0.0
 10
457.080346
 20
574.550104
 30
0.0
 10
448.580346
 20
574.550104
 30
0.0
 10
448.580346
 20
580.900104
 30
0.0
 10
437.930346
 20
580.900104
 30
0.0
 10
437.930346
 20
569.300104
 30
0.0
 10
431.580346
 20
569.300104
 30
0.0
 10
431.580346
 20
563.500104
 30
0.0
 10
437.930346
 20
563.500104
 30
0.0
 10
437.930346
 20
557.400104
 30
0.0
 10
443.930346
 20
557.400104
 30
0.0
 10
443.930346
 20
558.650104
 30
0.0
 10
445.930346
 20
558.650104
 30
0.0
 10
445.930346
 20
557.400104
 30
0.0
 10
448.580346
 20
557.400104
 30
0.0
 10
448.580346
 20
554.400104
 30
0.0
 10
445.930346
 20
554.400104
 30
0.0
 10
445.930346
 20
553.150104
 30
0.0
 10
443.930346
 20
553.150104
 30
0.0
 10
443.930346
 20
554.400104
 30
0.0
 10
437.930346
 20
554.400104
 30
0.0
 10
437.930346
 20
548.300104
 30
0.0
 10
431.580346
 20
548.300104
 30
0.0
 10
431.580346
 20
542.500104
 30
0.0
 10
437.930346
 20
542.500104
 30
0.0
 10
437.930346
 20
409.300104
 30
0.0
 10
431.580346
 20
409.300104
 30
0.0
 10
431.580346
 20
403.500104
 30
0.0
 10
437.930346
 20
403.500104
 30
0.0
 10
437.930346
 20
397.400104
 30
0.0
 10
443.930346
 20
397.400104
 30
0.0
 10
443.930346
 20
398.650104
 30
0.0
 10
445.930346
 20
398.650104
 30
0.0
 10
445.930346
 20
397.400104
 30
0.0
 10
448.580346
 20
397.400104
 30
0.0
 10
448.580346
 20
394.400104
 30
0.0
 10
445.930346
 20
394.400104
 30
0.0
 10
445.930346
 20
393.150104
 30
0.0
 10
443.930346
 20
393.150104
 30
0.0
 10
443.930346
 20
394.400104
 30
0.0
 10
437.930346
 20
394.400104
 30
0.0
 10
437.930346
 20
388.300104
 30
0.0
 10
431.580346
 20
388.300104
 30
0.0
 10
431.580346
 20
382.500104
 30
0.0
 10
437.930346
 20
382.500104
 30
0.0
 10
437.930346
 20
249.300104
 30
0.0
 10
431.580346
 20
249.300104
 30
0.0
 10
431.580346
 20
243.500104
 30
0.0
 10
437.930346
 20
243.500104
 30
0.0
 10
437.930346
 20
237.400104
 30
0.0
 10
443.930346
 20
237.400104
 30
0.0
 10
443.930346
 20
238.650104
 30
0.0
 10
445.930346
 20
238.650104
 30
0.0
 10
445.930346
 20
237.400104
 30
0.0
 10
448.580346
 20
237.400104
 30
0.0
 10
448.580346
 20
234.400104
 30
0.0
 10
445.930346
 20
234.400104
 30
0.0
 10
445.930346
 20
233.150104
 30
0.0
 10
443.930346
 20
233.150104
 30
0.0
 10
443.930346
 20
234.400104
 30
0.0
 10
437.930346
 20
234.400104
 30
0.0
 10
437.930346
 20
228.300104
 30
0.0
 10
431.580346
 20
228.300104
 30
0.0
 10
431.580346
 20
222.500104
 30
0.0
 10
437.930346
 20
222.500104
 30
0.0
 10
437.930346
 20
212.900104
 30
0.0
 10
437.930346
 20
212.900104
 30
0.0
  0
LWPOLYLINE
  5
2e5
100
AcDbEntity
  8
0
 62
7
100
AcDbPolyline
 90
2
 70
1
 10
455.930346
 20
218.900104
 30
0.0
 10
455.930346
 20
218.900104
 30
0.0
  0
SPLINE
  5
2e6
100
AcDbEntity
  8
0
 62
7
100
AcDbSpline
 70
8
 71
3
 72
8
 73
4
 74
0
 40
0
 40
0
 40
0
 40
0
 40
1
 40
1
 40
1
 40
1
 10
570.774051
 20
147.857423
 30
0.0
 10
570.774051
 20
147.857423
 30
0.0
 10
570.774051
 20
139.873447
 30
0.0
 10
570.774051
 20
139.873447
 30
0.0
  0
SPLINE
  5
2e7
100
AcDbEntity
  8
0
 62
7
100
AcDbSpline
 70
8
 71
3
 72
8
 73
4
 74
0
 40
0
 40
0
 40
0
 40
0
 40
1
 40
1
 40
1
 40
1
 10
570.774051
 20
139.873447
 30
0.0
 10
570.774051
 20
138.117504
 30
0.0
 10
570.388689
 20
136.382957
 30
0.0
 10
569.645159
 20
134.792204
 30
0.0
  0
LWPOLYLINE
  5
2e8
100
AcDbEntity
  8
0
 62
7
100
AcDbPolyline
 90
6
 70
1
 10
536.424051
 20
147.857423
 30
0.0
 10
554.424051
 20
147.857423
 30
0.0
 10
554.424051
 20
137.207423
 30
0.0
 10
560.774051
 20
137.207423
 30
0.0
 10
560.774051
 20
147.857423
 30
0.0
 10
570.774051
 20
147.857423
 30
0.0
  0
SPLINE
  5
2e9
100
AcDbEntity
  8
0
 62
7
100
AcDbSpline
 70
8
 71
3
 72
8
 73
4
 74
0
 40
0
 40
0
 40
0
 40
0
 40
1
 40
1
 40
1
 40
1
 10
554.424051
 20
115.812841
 30
0.0
 10
554.424051
 20
115.812841
 30
0.0
 10
491.340664
 20
134.649445
 30
0.0
 10
491.340664
 20
134.649445
 30
0.0
  0
SPLINE
  5
2ea
100
AcDbEntity
  8
0
 62
7
100
AcDbSpline
 70
8
 71
3
 72
8
 73
4
 74
0
 40
0
 40
0
 40
0
 40
0
 40
1
 40
1
 40
1
 40
1
 10
491.340664
 20
134.649445
 30
0.0
 10
486.257431
 20
136.167291
 30
0.0
 10
482.774051
 20
140.842778
 30
0.0
 10
482.774051
 20
146.147787
 30
0.0
  0
LWPOLYLINE
  5
2eb
100
AcDbEntity
  8
0
 62
7
100
AcDbPolyline
 90
3
 70
1
 10
569.645159
 20
134.792204
 30
0.0
 10
560.774051
 20
115.812841
 30
0.0
 10
554.424051
 20
115.812841
 30
0.0
  0
SPLINE
  5
2ec
100
AcDbEntity
  8
0
 62
7
100
AcDbSpline
 70
8
 71
3
 72
8
 73
4
 74
0
 40
0
 40
0
 40
0
 40
0
 40
1
 40
1
 40
1
 40
1
 10
482.774051
 20
183.207423
 30
0.0
 10
482.774051
 20
189.834840
 30
0.0
 10
488.146634
 20
195.207423
 30
0.0
 10
494.774051
 20
195.207423
 30
0.0
  0
SPLINE
  5
2ed
100
AcDbEntity
  8
0
 62
7
100
AcDbSpline
 70
8
 71
3
 72
8
 73
4
 74
0
 40
0
 40
0
 40
0
 40
0
 40
1
 40
1
 40
1
 40
1
 10
494.774051
 20
195.207423
 30
0.0
 10
494.774051
 20
195.207423
 30
0.0
 10
514.918304
 20
195.207423
 30
0.0
 10
514.918304
 20
195.207423
 30
0.0
  0
SPLINE
  5
2ee
100
AcDbEntity
  8
0
 62
7
100
AcDbSpline
 70
8
 71
3
 72
8
 73
4
 74
0
 40
0
 40
0
 40
0
 40
0
 40
1
 40
1
 40
1
 40
1
 10
514.918304
 20
195.207423
 30
0.0
 10
520.182943
 20
195.207423
 30
0.0
 10
524.832792
 20
191.775933
 30
0.0
 10
526.384927
 20
186.745296
 30
0.0
  0
LWPOLYLINE
  5
2ef
100
AcDbEntity
  8
0
 62
7
100
AcDbPolyline
 90
6
 70
1
 10
482.774051
 20
146.147787
 30
0.0
 10
482.774051
 20
147.857423
 30
0.0
 10
492.774051
 20
147.857423
 30
0.0
 10
492.774051
 20
154.207423
 30
0.0
 10
482.774051
 20
154.207423
 30
0.0
 10
482.774051
 20
183.207423
 30
0.0
  0
SPLINE
  5
2f0
100
AcDbEntity
  8
0
 62
7
100
AcDbSpline
 70
8
 71
3
 72
8
 73
4
 74
0
 40
0
 40
0
 40
0
 40
0
 40
1
 40
1
 40
1
 40
1
 10
429.349923
 20
43.110254
 30
0.0
 10
426.167325
 20
43.110254
 30
0.0
 10
423.115079
 20
44.374536
 30
0.0
 10
420.864642
 20
46.624973
 30
0.0
  0
SPLINE
  5
2f1
100
AcDbEntity
  8
0
 62
7
100
AcDbSpline
 70
8
 71
3
 72
8
 73
4
 74
0
 40
0
 40
0
 40
0
 40
0
 40
1
 40
1
 40
1
 40
1
 10
420.864642
 20
46.624973
 30
0.0
 10
418.614205
 20
48.875410
 30
0.0
 10
417.349923
 20
51.927656
 30
0.0
 10
417.349923
 20
55.110254
 30
0.0
  0
LWPOLYLINE
  5
2f2
100
AcDbEntity
  8
0
 62
7
100
AcDbPolyline
 90
4
 70
1
 10
526.384927
 20
186.745296
 30
0.0
 10
536.424051
 20
154.207423
 30
0.0
 10
536.424051
 20
147.857423
 30
0.0
 10
536.424051
 20
147.857423
 30
0.0
  0
SPLINE
  5
2f3
100
AcDbEntity
  8
0
 62
7
100
AcDbSpline
 70
8
 71
3
 72
8
 73
4
 74
0
 40
0
 40
0
 40
0
 40
0
 40
1
 40
1
 40
1
 40
1
 10
417.349923
 20
90.460254
 30
0.0
 10
417.349923
 20
90.460254
 30
0.0
 10
417.349923
 20
92.169891
 30
0.0
 10
417.349923
 20
92.169891
 30
0.0
  0
SPLINE
  5
2f4
100
AcDbEntity
  8
0
 62
7
100
AcDbSpline
 70
8
 71
3
 72
8
 73
4
 74
0
 40
0
 40
0
 40
0
 40
0
 40
1
 40
1
 40
1
 40
1
 10
417.349923
 20
92.169891
 30
0.0
 10
417.349923
 20
97.474899
 30
0.0
 10
420.833303
 20
102.150386
 30
0.0
 10
425.916536
 20
103.668232
 30
0.0
  0
LWPOLYLINE
  5
2f5
100
AcDbEntity
  8
0
 62
7
100
AcDbPolyline
 90
5
 70
1
 10
417.349923
 20
55.110254
 30
0.0
 10
417.349923
 20
84.110254
 30
0.0
 10
427.349923
 20
84.110254
 30
0.0
 10
427.349923
 20
90.460254
 30
0.0
 10
417.349923
 20
90.460254
 30
0.0
  0
SPLINE
  5
2f6
100
AcDbEntity
  8
0
 62
7
100
AcDbSpline
 70
8
 71
3
 72
8
 73
4
 74
0
 40
0
 40
0
 40
0
 40
0
 40
1
 40
1
 40
1
 40
1
 10
504.221030
 20
103.525473
 30
0.0
 10
504.964561
 20
101.934720
 30
0.0
 10
505.349923
 20
100.200173
 30
0.0
 10
505.349923
 20
98.444231
 30
0.0
  0
LWPOLYLINE
  5
2f7
100
AcDbEntity
  8
0
 62
7
100
AcDbPolyline
 90
4
 70
1
 10
425.916536
 20
103.668232
 30
0.0
 10
488.999923
 20
122.504836
 30
0.0
 10
495.349923
 20
122.504836
 30
0.0
 10
504.221030
 20
103.525473
 30
0.0
  0
SPLINE
  5
2f8
100
AcDbEntity
  8
0
 62
7
100
AcDbSpline
 70
8
 71
3
 72
8
 73
4
 74
0
 40
0
 40
0
 40
0
 40
0
 40
1
 40
1
 40
1
 40
1
 10
460.960799
 20
51.572381
 30
0.0
 10
459.408664
 20
46.541745
 30
0.0
 10
454.758815
 20
43.110254
 30
0.0
 10
449.494176
 20
43.110254
 30
0.0
  0
LWPOLYLINE
  5
2f9
100
AcDbEntity
  8
0
 62
7
100
AcDbPolyline
 90
9
 70
1
 10
505.349923
 20
98.444231
 30
0.0
 10
505.349923
 20
90.460254
 30
0.0
 10
495.349923
 20
90.460254
 30
0.0
 10
495.349923
 20
101.110254
 30
0.0
 10
488.999923
 20
101.110254
 30
0.0
 10
488.999923
 20
90.460254
 30
0.0
 10
470.999923
 20
90.460254
 30
0.0
 10
470.999923
 20
84.110254
 30
0.0
 10
460.960799
 20
51.572381
 30
0.0
  0
LWPOLYLINE
  5
2fa
100
AcDbEntity
  8
0
 62
7
100
AcDbPolyline
 90
3
 70
1
 10
449.494176
 20
43.110254
 30
0.0
 10
429.349923
 20
43.110254
 30
0.0
 10
429.349923
 20
43.110254
 30
0.0
  0
SPLINE
  5
2fb
100
AcDbEntity
  8
0
 62
7
100
AcDbSpline
 70
8
 71
3
 72
8
 73
4
 74
0
 40
0
 40
0
 40
0
 40
0
 40
1
 40
1
 40
1
 40
1
 10
57.314226
 20
186.749988
 30
0.0
 10
58.375092
 20
186.749988
 30
0.0
 10
59.392507
 20
186.328560
 30
0.0
 10
60.142653
 20
185.578415
 30
0.0
  0
SPLINE
  5
2fc
100
AcDbEntity
  8
0
 62
7
100
AcDbSpline
 70
8
 71
3
 72
8
 73
4
 74
0
 40
0
 40
0
 40
0
 40
0
 40
1
 40
1
 40
1
 40
1
 10
60.142653
 20
185.578415
 30
0.0
 10
60.892798
 20
184.828269
 30
0.0
 10
61.314226
 20
183.810853
 30
0.0
 10
61.314226
 20
182.749987
 30
0.0
  0
SPLINE
  5
2fd
100
AcDbEntity
  8
0
 62
7
100
AcDbSpline
 70
8
 71
3
 72
8
 73
4
 74
0
 40
0
 40
0
 40
0
 40
0
 40
1
 40
1
 40
1
 40
1
 10
61.314226
 20
182.749987
 30
0.0
 10
61.314226
 20
182.749987
 30
0.0
 10
61.314226
 20
131.749988
 30
0.0
 10
61.314226
 20
131.749988
 30
0.0
  0
SPLINE
  5
2fe
100
AcDbEntity
  8
0
 62
7
100
AcDbSpline
 70
8
 71
3
 72
8
 73
4
 74
0
 40
0
 40
0
 40
0
 40
0
 40
1
 40
1
 40
1
 40
1
 10
61.314226
 20
131.749988
 30
0.0
 10
61.314226
 20
129.485620
 30
0.0
 10
63.149858
 20
127.649988
 30
0.0
 10
65.414226
 20
127.649988
 30
0.0
  0
SPLINE
  5
2ff
100
AcDbEntity
  8
0
 62
7
100
AcDbSpline
 70
8
 71
3
 72
8
 73
4
 74
0
 40
0
 40
0
 40
0
 40
0
 40
1
 40
1
 40
1
 40
1
 10
65.414226
 20
127.649988
 30
0.0
 10
67.678593
 20
127.649988
 30
0.0
 10
69.514225
 20
129.485620
 30
0.0
 10
69.514226
 20
131.749988
 30
0.0
  0
SPLINE
  5
300
100
AcDbEntity
  8
0
 62
7
100
AcDbSpline
 70
8
 71
3
 72
8
 73
4
 74
0
 40
0
 40
0
 40
0
 40
0
 40
1
 40
1
 40
1
 40
1
 10
69.514226
 20
131.749988
 30
0.0
 10
69.514226
 20
131.749988
 30
0.0
 10
69.514226
 20
182.749987
 30
0.0
 10
69.514226
 20
182.749987
 30
0.0
  0
SPLINE
  5
301
100
AcDbEntity
  8
0
 62
7
100
AcDbSpline
 70
8
 71
3
 72
8
 73
4
 74
0
 40
0
 40
0
 40
0
 40
0
 40
1
 40
1
 40
1
 40
1
 10
69.514226
 20
182.749987
 30
0.0
 10
69.514225
 20
183.810854
 30
0.0
 10
69.935653
 20
184.828269
 30
0.0
 10
70.685798
 20
185.578415
 30
0.0
  0
SPLINE
  5
302
100
AcDbEntity
  8
0
 62
7
100
AcDbSpline
 70
8
 71
3
 72
8
 73
4
 74
0
 40
0
 40
0
 40
0
 40
0
 40
1
 40
1
 40
1
 40
1
 10
70.685798
 20
185.578415
 30
0.0
 10
71.435944
 20
186.328560
 30
0.0
 10
72.453360
 20
186.749988
 30
0.0
 10
73.514226
 20
186.749988
 30
0.0
  0
LWPOLYLINE
  5
303
100
AcDbEntity
  8
0
 62
7
100
AcDbPolyline
 90
5
 70
1
 10
37.414226
 20
52.749988
 30
0.0
 10
37.414226
 20
154.749988
 30
0.0
 10
35.414226
 20
156.749988
 30
0.0
 10
35.414226
 20
186.749988
 30
0.0
 10
57.314226
 20
186.749988
 30
0.0
  0
SPLINE
  5
304
100
AcDbEntity
  8
0
 62
7
100
AcDbSpline
 70
8
 71
3
 72
8
 73
4
 74
0
 40
0
 40
0
 40
0
 40
0
 40
1
 40
1
 40
1
 40
1
 10
81.786140
 20
186.749988
 30
0.0
 10
82.202314
 20
186.749988
 30
0.0
 10
82.615939
 20
186.685040
 30
0.0
 10
83.012085
 20
186.557488
 30
0.0
  0
LWPOLYLINE
  5
305
100
AcDbEntity
  8
0
 62
7
100
AcDbPolyline
 90
2
 70
1
 10
73.514226
 20
186.749988
 30
0.0
 10
81.786140
 20
186.749988
 30
0.0
  0
LWPOLYLINE
  5
306
100
AcDbEntity
  8
0
 62
7
100
AcDbPolyline
 90
79
 70
1
 10
83.012085
 20
186.557488
 30
0.0
 10
399.064226
 20
84.794570
 30
0.0
 10
399.064226
 20
74.899988
 30
0.0
 10
393.064226
 20
74.899988
 30
0.0
 10
393.064226
 20
76.149988
 30
0.0
 10
391.064226
 20
76.149988
 30
0.0
 10
391.064226
 20
74.899988
 30
0.0
 10
388.414226
 20
74.899988
 30
0.0
 10
388.414226
 20
71.899988
 30
0.0
 10
391.064226
 20
71.899988
 30
0.0
 10
391.064226
 20
70.649988
 30
0.0
 10
393.064226
 20
70.649988
 30
0.0
 10
393.064226
 20
71.899988
 30
0.0
 10
399.064226
 20
71.899988
 30
0.0
 10
399.064226
 20
63.399987
 30
0.0
 10
405.414226
 20
63.399987
 30
0.0
 10
405.414226
 20
52.749988
 30
0.0
 10
393.814225
 20
52.749988
 30
0.0
 10
393.814225
 20
46.399988
 30
0.0
 10
388.014226
 20
46.399988
 30
0.0
 10
388.014226
 20
52.749988
 30
0.0
 10
381.914226
 20
52.749988
 30
0.0
 10
381.914226
 20
58.749987
 30
0.0
 10
383.164226
 20
58.749987
 30
0.0
 10
383.164226
 20
60.749988
 30
0.0
 10
381.914226
 20
60.749988
 30
0.0
 10
381.914226
 20
63.399987
 30
0.0
 10
378.914226
 20
63.399987
 30
0.0
 10
378.914226
 20
60.749988
 30
0.0
 10
377.664226
 20
60.749988
 30
0.0
 10
377.664226
 20
58.749987
 30
0.0
 10
378.914226
 20
58.749987
 30
0.0
 10
378.914226
 20
52.749988
 30
0.0
 10
372.814226
 20
52.749988
 30
0.0
 10
372.814226
 20
46.399988
 30
0.0
 10
367.014226
 20
46.399988
 30
0.0
 10
367.014226
 20
52.749988
 30
0.0
 10
233.814226
 20
52.749988
 30
0.0
 10
233.814226
 20
46.399988
 30
0.0
 10
228.014225
 20
46.399988
 30
0.0
 10
228.014225
 20
52.749988
 30
0.0
 10
221.914226
 20
52.749988
 30
0.0
 10
221.914226
 20
58.749987
 30
0.0
 10
223.164226
 20
58.749987
 30
0.0
 10
223.164226
 20
60.749988
 30
0.0
 10
221.914226
 20
60.749988
 30
0.0
 10
221.914226
 20
63.399987
 30
0.0
 10
218.914226
 20
63.399987
 30
0.0
 10
218.914226
 20
60.749988
 30
0.0
 10
217.664226
 20
60.749988
 30
0.0
 10
217.664226
 20
58.749987
 30
0.0
 10
218.914226
 20
58.749987
 30
0.0
 10
218.914226
 20
52.749988
 30
0.0
 10
212.814226
 20
52.749988
 30
0.0
 10
212.814226
 20
46.399988
 30
0.0
 10
207.014226
 20
46.399988
 30
0.0
 10
207.014226
 20
52.749988
 30
0.0
 10
73.814226
 20
52.749988
 30
0.0
 10
73.814226
 20
46.399988
 30
0.0
 10
68.014226
 20
46.399988
 30
0.0
 10
68.014226
 20
52.749988
 30
0.0
 10
61.914226
 20
52.749988
 30
0.0
 10
61.914226
 20
58.749987
 30
0.0
 10
63.164226
 20
58.749987
 30
0.0
 10
63.164226
 20
60.749988
 30
0.0
 10
61.914226
 20
60.749988
 30
0.0
 10
61.914226
 20
63.399987
 30
0.0
 10
58.914226
 20
63.399987
 30
0.0
 10
58.914226
 20
60.749988
 30
0.0
 10
57.664226
 20
60.749988
 30
0.0
 10
57.664226
 20
58.749987
 30
0.0
 10
58.914226
 20
58.749987
 30
0.0
 10
58.914226
 20
52.749988
 30
0.0
 10
52.814226
 20
52.749988
 30
0.0
 10
52.814226
 20
46.399988
 30
0.0
 10
47.014226
 20
46.399988
 30
0.0
 10
47.014226
 20
52.749988
 30
0.0
 10
37.414226
 20
52.749988
 30
0.0
 10
37.414226
 20
52.749988
 30
0.0
  0
SPLINE
  5
307
100
AcDbEntity
  8
0
 62
7
100
AcDbSpline
 70
8
 71
3
 72
8
 73
4
 74
0
 40
0
 40
0
 40
0
 40
0
 40
1
 40
1
 40
1
 40
1
 10
354.699190
 20
145.574508
 30
0.0
 10
354.699190
 20
144.248426
 30
0.0
 10
355.225975
 20
142.976656
 30
0.0
 10
356.163656
 20
142.038974
 30
0.0
  0
SPLINE
  5
308
100
AcDbEntity
  8
0
 62
7
100
AcDbSpline
 70
8
 71
3
 72
8
 73
4
 74
0
 40
0
 40
0
 40
0
 40
0
 40
1
 40
1
 40
1
 40
1
 10
356.163656
 20
142.038974
 30
0.0
 10
357.101338
 20
141.101292
 30
0.0
 10
358.373108
 20
140.574508
 30
0.0
 10
359.699190
 20
140.574508
 30
0.0
  0
SPLINE
  5
309
100
AcDbEntity
  8
0
 62
7
100
AcDbSpline
 70
8
 71
3
 72
8
 73
4
 74
0
 40
0
 40
0
 40
0
 40
0
 40
1
 40
1
 40
1
 40
1
 10
359.699190
 20
140.574508
 30
0.0
 10
359.699190
 20
140.574508
 30
0.0
 10
409.699190
 20
140.574508
 30
0.0
 10
409.699190
 20
140.574508
 30
0.0
  0
SPLINE
  5
30a
100
AcDbEntity
  8
0
 62
7
100
AcDbSpline
 70
8
 71
3
 72
8
 73
4
 74
0
 40
0
 40
0
 40
0
 40
0
 40
1
 40
1
 40
1
 40
1
 10
409.699190
 20
140.574508
 30
0.0
 10
411.025273
 20
140.574508
 30
0.0
 10
412.297042
 20
141.101292
 30
0.0
 10
413.234724
 20
142.038974
 30
0.0
  0
SPLINE
  5
30b
100
AcDbEntity
  8
0
 62
7
100
AcDbSpline
 70
8
 71
3
 72
8
 73
4
 74
0
 40
0
 40
0
 40
0
 40
0
 40
1
 40
1
 40
1
 40
1
 10
413.234724
 20
142.038974
 30
0.0
 10
414.172406
 20
142.976656
 30
0.0
 10
414.699190
 20
144.248426
 30
0.0
 10
414.699190
 20
145.574508
 30
0.0
  0
LWPOLYLINE
  5
30c
100
AcDbEntity
  8
0
 62
7
100
AcDbPolyline
 90
22
 70
1
 10
397.899190
 20
190.574508
 30
0.0
 10
397.899190
 20
196.924508
 30
0.0
 10
391.899191
 20
196.924508
 30
0.0
 10
391.899191
 20
190.574508
 30
0.0
 10
385.899190
 20
190.574508
 30
0.0
 10
385.899190
 20
184.574508
 30
0.0
 10
387.149190
 20
184.574508
 30
0.0
 10
387.149190
 20
182.574508
 30
0.0
 10
385.899190
 20
182.574508
 30
0.0
 10
385.899190
 20
179.924508
 30
0.0
 10
382.899190
 20
179.924508
 30
0.0
 10
382.899190
 20
182.574508
 30
0.0
 10
381.649190
 20
182.574508
 30
0.0
 10
381.649190
 20
184.574508
 30
0.0
 10
382.899190
 20
184.574508
 30
0.0
 10
382.899190
 20
190.574508
 30
0.0
 10
376.899190
 20
190.574508
 30
0.0
 10
376.899190
 20
196.924508
 30
0.0
 10
370.899190
 20
196.924508
 30
0.0
 10
370.899190
 20
190.574508
 30
0.0
 10
354.699190
 20
190.574508
 30
0.0
 10
354.699190
 20
145.574508
 30
0.0
  0
LWPOLYLINE
  5
30d
100
AcDbEntity
  8
0
 62
7
100
AcDbPolyline
 90
4
 70
1
 10
414.699190
 20
145.574508
 30
0.0
 10
414.699190
 20
190.574508
 30
0.0
 10
397.899190
 20
190.574508
 30
0.0
 10
397.899190
 20
190.574508
 30
0.0
  0
LWPOLYLINE
  5
30e
100
AcDbEntity
  8
0
 62
7
100
AcDbPolyline
 90
6
 70
1
 10
356.699190
 20
173.074508
 30
0.0
 10
363.049190
 20
173.074508
 30
0.0
 10
363.049190
 20
179.074508
 30
0.0
 10
356.699190
 20
179.074508
 30
0.0
 10
356.699190
 20
173.074508
 30
0.0
 10
356.699190
 20
173.074508
 30
0.0
  0
LWPOLYLINE
  5
30f
100
AcDbEntity
  8
0
 62
7
100
AcDbPolyline
 90
6
 70
1
 10
363.049190
 20
152.074508
 30
0.0
 10
363.049190
 20
158.074508
 30
0.0
 10
356.699190
 20
158.074508
 30
0.0
 10
356.699190
 20
152.074508
 30
0.0
 10
363.049190
 20
152.074508
 30
0.0
 10
363.049190
 20
152.074508
 30
0.0
  0
LWPOLYLINE
  5
310
100
AcDbEntity
  8
0
 62
7
100
AcDbPolyline
 90
6
 70
1
 10
405.749190
 20
179.074508
 30
0.0
 10
405.749190
 20
173.074508
 30
0.0
 10
412.099190
 20
173.074508
 30
0.0
 10
412.099190
 20
179.074508
 30
0.0
 10
405.749190
 20
179.074508
 30
0.0
 10
405.749190
 20
179.074508
 30
0.0
  0
LWPOLYLINE
  5
311
100
AcDbEntity
  8
0
 62
7
100
AcDbPolyline
 90
6
 70
1
 10
405.749190
 20
152.074508
 30
0.0
 10
412.099190
 20
152.074508
 30
0.0
 10
412.099190
 20
158.074508
 30
0.0
 10
405.749190
 20
158.074508
 30
0.0
 10
405.749190
 20
152.074508
 30
0.0
 10
405.749190
 20
152.074508
 30
0.0
  0
LWPOLYLINE
  5
312
100
AcDbEntity
  8
0
 62
7
100
AcDbPolyline
 90
6
 70
1
 10
293.357004
 20
173.074508
 30
0.0
 10
293.357004
 20
179.074508
 30
0.0
 10
287.007004
 20
179.074508
 30
0.0
 10
287.007004
 20
173.074508
 30
0.0
 10
293.357004
 20
173.074508
 30
0.0
 10
293.357004
 20
173.074508
 30
0.0
  0
LWPOLYLINE
  5
313
100
AcDbEntity
  8
0
 62
7
100
AcDbPolyline
 90
6
 70
1
 10
293.357004
 20
152.074508
 30
0.0
 10
293.357004
 20
158.074508
 30
0.0
 10
287.007004
 20
158.074508
 30
0.0
 10
287.007004
 20
152.074508
 30
0.0
 10
293.357004
 20
152.074508
 30
0.0
 10
293.357004
 20
152.074508
 30
0.0
  0
LWPOLYLINE
  5
314
100
AcDbEntity
  8
0
 62
7
100
AcDbPolyline
 90
6
 70
1
 10
342.407004
 20
179.074508
 30
0.0
 10
336.057004
 20
179.074508
 30
0.0
 10
336.057004
 20
173.074508
 30
0.0
 10
342.407004
 20
173.074508
 30
0.0
 10
342.407004
 20
179.074508
 30
0.0
 10
342.407004
 20
179.074508
 30
0.0
  0
LWPOLYLINE
  5
315
100
AcDbEntity
  8
0
 62
7
100
AcDbPolyline
 90
6
 70
1
 10
336.057004
 20
152.074508
 30
0.0
 10
342.407004
 20
152.074508
 30
0.0
 10
342.407004
 20
158.074508
 30
0.0
 10
336.057004
 20
158.074508
 30
0.0
 10
336.057004
 20
152.074508
 30
0.0
 10
336.057004
 20
152.074508
 30
0.0
  0
SPLINE
  5
316
100
AcDbEntity
  8
0
 62
7
100
AcDbSpline
 70
8
 71
3
 72
8
 73
4
 74
0
 40
0
 40
0
 40
0
 40
0
 40
1
 40
1
 40
1
 40
1
 10
212.679265
 20
194.212664
 30
0.0
 10
212.679265
 20
194.212664
 30
0.0
 10
212.679265
 20
193.526372
 30
0.0
 10
212.679265
 20
193.526372
 30
0.0
  0
SPLINE
  5
317
100
AcDbEntity
  8
0
 62
7
100
AcDbSpline
 70
8
 71
3
 72
8
 73
4
 74
0
 40
0
 40
0
 40
0
 40
0
 40
1
 40
1
 40
1
 40
1
 10
212.679265
 20
193.526372
 30
0.0
 10
212.679265
 20
191.404640
 30
0.0
 10
213.522120
 20
189.369809
 30
0.0
 10
215.022411
 20
187.869518
 30
0.0
  0
SPLINE
  5
318
100
AcDbEntity
  8
0
 62
7
100
AcDbSpline
 70
8
 71
3
 72
8
 73
4
 74
0
 40
0
 40
0
 40
0
 40
0
 40
1
 40
1
 40
1
 40
1
 10
215.022411
 20
187.869518
 30
0.0
 10
215.022411
 20
187.869518
 30
0.0
 10
254.336120
 20
148.555810
 30
0.0
 10
254.336120
 20
148.555810
 30
0.0
  0
SPLINE
  5
319
100
AcDbEntity
  8
0
 62
7
100
AcDbSpline
 70
8
 71
3
 72
8
 73
4
 74
0
 40
0
 40
0
 40
0
 40
0
 40
1
 40
1
 40
1
 40
1
 10
254.336120
 20
148.555810
 30
0.0
 10
255.836411
 20
147.055519
 30
0.0
 10
257.871242
 20
146.212664
 30
0.0
 10
259.992974
 20
146.212664
 30
0.0
  0
LWPOLYLINE
  5
31a
100
AcDbEntity
  8
0
 62
7
100
AcDbPolyline
 90
19
 70
1
 10
243.179266
 20
200.562664
 30
0.0
 10
243.179266
 20
194.212664
 30
0.0
 10
237.179265
 20
194.212664
 30
0.0
 10
237.179265
 20
188.212664
 30
0.0
 10
238.429265
 20
188.212664
 30
0.0
 10
238.429265
 20
186.212664
 30
0.0
 10
237.179265
 20
186.212664
 30
0.0
 10
237.179265
 20
183.562664
 30
0.0
 10
234.179266
 20
183.562664
 30
0.0
 10
234.179266
 20
186.212664
 30
0.0
 10
232.929265
 20
186.212664
 30
0.0
 10
232.929265
 20
188.212664
 30
0.0
 10
234.179266
 20
188.212664
 30
0.0
 10
234.179266
 20
194.212664
 30
0.0
 10
228.179265
 20
194.212664
 30
0.0
 10
228.179265
 20
200.562664
 30
0.0
 10
222.179266
 20
200.562664
 30
0.0
 10
222.179266
 20
194.212664
 30
0.0
 10
212.679265
 20
194.212664
 30
0.0
  0
LWPOLYLINE
  5
31b
100
AcDbEntity
  8
0
 62
7
100
AcDbPolyline
 90
27
 70
1
 10
259.992974
 20
146.212664
 30
0.0
 10
260.679266
 20
146.212664
 30
0.0
 10
260.679266
 20
155.712664
 30
0.0
 10
267.029266
 20
155.712664
 30
0.0
 10
267.029266
 20
161.712664
 30
0.0
 10
260.679266
 20
161.712664
 30
0.0
 10
260.679266
 20
167.712664
 30
0.0
 10
254.679265
 20
167.712664
 30
0.0
 10
254.679265
 20
166.462664
 30
0.0
 10
252.679265
 20
166.462664
 30
0.0
 10
252.679265
 20
167.712664
 30
0.0
 10
250.029265
 20
167.712664
 30
0.0
 10
250.029265
 20
170.712664
 30
0.0
 10
252.679265
 20
170.712664
 30
0.0
 10
252.679265
 20
171.962664
 30
0.0
 10
254.679265
 20
171.962664
 30
0.0
 10
254.679265
 20
170.712664
 30
0.0
 10
260.679266
 20
170.712664
 30
0.0
 10
260.679266
 20
176.712664
 30
0.0
 10
267.029266
 20
176.712664
 30
0.0
 10
267.029266
 20
182.712664
 30
0.0
 10
260.679266
 20
182.712664
 30
0.0
 10
260.679266
 20
194.212664
 30
0.0
 10
249.179265
 20
194.212664
 30
0.0
 10
249.179265
 20
200.562664
 30
0.0
 10
243.179266
 20
200.562664
 30
0.0
 10
243.179266
 20
200.562664
 30
0.0
  0
SPLINE
  5
31c
100
AcDbEntity
  8
0
 62
7
100
AcDbSpline
 70
8
 71
3
 72
8
 73
4
 74
0
 40
0
 40
0
 40
0
 40
0
 40
1
 40
1
 40
1
 40
1
 10
134.174994
 20
311.836244
 30
0.0
 10
134.174994
 20
311.836244
 30
0.0
 10
134.174994
 20
311.149953
 30
0.0
 10
134.174994
 20
311.149953
 30
0.0
  0
SPLINE
  5
31d
100
AcDbEntity
  8
0
 62
7
100
AcDbSpline
 70
8
 71
3
 72
8
 73
4
 74
0
 40
0
 40
0
 40
0
 40
0
 40
1
 40
1
 40
1
 40
1
 10
134.174994
 20
311.149953
 30
0.0
 10
134.174994
 20
309.028221
 30
0.0
 10
135.017849
 20
306.993389
 30
0.0
 10
136.518140
 20
305.493098
 30
0.0
  0
LWPOLYLINE
  5
31e
100
AcDbEntity
  8
0
 62
7
100
AcDbPolyline
 90
4
 70
1
 10
149.674994
 20
318.186244
 30
0.0
 10
143.674994
 20
318.186244
 30
0.0
 10
143.674994
 20
311.836244
 30
0.0
 10
134.174994
 20
311.836244
 30
0.0
  0
SPLINE
  5
31f
100
AcDbEntity
  8
0
 62
7
100
AcDbSpline
 70
8
 71
3
 72
8
 73
4
 74
0
 40
0
 40
0
 40
0
 40
0
 40
1
 40
1
 40
1
 40
1
 10
175.831848
 20
266.179390
 30
0.0
 10
177.332139
 20
264.679099
 30
0.0
 10
179.366970
 20
263.836244
 30
0.0
 10
181.488702
 20
263.836244
 30
0.0
  0
LWPOLYLINE
  5
320
100
AcDbEntity
  8
0
 62
7
100
AcDbPolyline
 90
2
 70
1
 10
136.518140
 20
305.493098
 30
0.0
 10
175.831848
 20
266.179390
 30
0.0
  0
LWPOLYLINE
  5
321
100
AcDbEntity
  8
0
 62
7
100
AcDbPolyline
 90
42
 70
1
 10
181.488702
 20
263.836244
 30
0.0
 10
182.174994
 20
263.836244
 30
0.0
 10
182.174994
 20
273.336244
 30
0.0
 10
188.524994
 20
273.336244
 30
0.0
 10
188.524994
 20
279.336244
 30
0.0
 10
182.174994
 20
279.336244
 30
0.0
 10
182.174994
 20
285.336244
 30
0.0
 10
176.174994
 20
285.336244
 30
0.0
 10
176.174994
 20
284.086244
 30
0.0
 10
174.174994
 20
284.086244
 30
0.0
 10
174.174994
 20
285.336244
 30
0.0
 10
171.524994
 20
285.336244
 30
0.0
 10
171.524994
 20
288.336244
 30
0.0
 10
174.174994
 20
288.336244
 30
0.0
 10
174.174994
 20
289.586244
 30
0.0
 10
176.174994
 20
289.586244
 30
0.0
 10
176.174994
 20
288.336244
 30
0.0
 10
182.174994
 20
288.336244
 30
0.0
 10
182.174994
 20
294.336244
 30
0.0
 10
188.524994
 20
294.336244
 30
0.0
 10
188.524994
 20
300.336244
 30
0.0
 10
182.174994
 20
300.336244
 30
0.0
 10
182.174994
 20
311.836244
 30
0.0
 10
170.674994
 20
311.836244
 30
0.0
 10
170.674994
 20
318.186244
 30
0.0
 10
164.674994
 20
318.186244
 30
0.0
 10
164.674994
 20
311.836244
 30
0.0
 10
158.674994
 20
311.836244
 30
0.0
 10
158.674994
 20
305.836244
 30
0.0
 10
159.924994
 20
305.836244
 30
0.0
 10
159.924994
 20
303.836244
 30
0.0
 10
158.674994
 20
303.836244
 30
0.0
 10
158.674994
 20
301.186244
 30
0.0
 10
155.674994
 20
301.186244
 30
0.0
 10
155.674994
 20
303.836244
 30
0.0
 10
154.424994
 20
303.836244
 30
0.0
 10
154.424994
 20
305.836244
 30
0.0
 10
155.674994
 20
305.836244
 30
0.0
 10
155.674994
 20
311.836244
 30
0.0
 10
149.674994
 20
311.836244
 30
0.0
 10
149.674994
 20
318.186244
 30
0.0
 10
149.674994
 20
318.186244
 30
0.0
  0
SPLINE
  5
322
100
AcDbEntity
  8
0
 62
7
100
AcDbSpline
 70
8
 71
3
 72
8
 73
4
 74
0
 40
0
 40
0
 40
0
 40
0
 40
1
 40
1
 40
1
 40
1
 10
192.045678
 20
311.836244
 30
0.0
 10
192.045678
 20
311.836244
 30
0.0
 10
192.045678
 20
311.149953
 30
0.0
 10
192.045678
 20
311.149953
 30
0.0
  0
SPLINE
  5
323
100
AcDbEntity
  8
0
 62
7
100
AcDbSpline
 70
8
 71
3
 72
8
 73
4
 74
0
 40
0
 40
0
 40
0
 40
0
 40
1
 40
1
 40
1
 40
1
 10
192.045678
 20
311.149953
 30
0.0
 10
192.045678
 20
309.028221
 30
0.0
 10
192.888533
 20
306.993389
 30
0.0
 10
194.388824
 20
305.493098
 30
0.0
  0
SPLINE
  5
324
100
AcDbEntity
  8
0
 62
7
100
AcDbSpline
 70
8
 71
3
 72
8
 73
4
 74
0
 40
0
 40
0
 40
0
 40
0
 40
1
 40
1
 40
1
 40
1
 10
194.388824
 20
305.493098
 30
0.0
 10
194.388824
 20
305.493098
 30
0.0
 10
233.702533
 20
266.179390
 30
0.0
 10
233.702533
 20
266.179390
 30
0.0
  0
SPLINE
  5
325
100
AcDbEntity
  8
0
 62
7
100
AcDbSpline
 70
8
 71
3
 72
8
 73
4
 74
0
 40
0
 40
0
 40
0
 40
0
 40
1
 40
1
 40
1
 40
1
 10
233.702533
 20
266.179390
 30
0.0
 10
235.202824
 20
264.679099
 30
0.0
 10
237.237655
 20
263.836244
 30
0.0
 10
239.359387
 20
263.836244
 30
0.0
  0
LWPOLYLINE
  5
326
100
AcDbEntity
  8
0
 62
7
100
AcDbPolyline
 90
3
 70
1
 10
201.545678
 20
318.186244
 30
0.0
 10
201.545678
 20
311.836244
 30
0.0
 10
192.045678
 20
311.836244
 30
0.0
  0
LWPOLYLINE
  5
327
100
AcDbEntity
  8
0
 62
7
100
AcDbPolyline
 90
43
 70
1
 10
239.359387
 20
263.836244
 30
0.0
 10
240.045678
 20
263.836244
 30
0.0
 10
240.045678
 20
273.336244
 30
0.0
 10
246.395678
 20
273.336244
 30
0.0
 10
246.395678
 20
279.336244
 30
0.0
 10
240.045678
 20
279.336244
 30
0.0
 10
240.045678
 20
285.336244
 30
0.0
 10
234.045678
 20
285.336244
 30
0.0
 10
234.045678
 20
284.086244
 30
0.0
 10
232.045678
 20
284.086244
 30
0.0
 10
232.045678
 20
285.336244
 30
0.0
 10
229.395678
 20
285.336244
 30
0.0
 10
229.395678
 20
288.336244
 30
0.0
 10
232.045678
 20
288.336244
 30
0.0
 10
232.045678
 20
289.586244
 30
0.0
 10
234.045678
 20
289.586244
 30
0.0
 10
234.045678
 20
288.336244
 30
0.0
 10
240.045678
 20
288.336244
 30
0.0
 10
240.045678
 20
294.336244
 30
0.0
 10
246.395678
 20
294.336244
 30
0.0
 10
246.395678
 20
300.336244
 30
0.0
 10
240.045678
 20
300.336244
 30
0.0
 10
240.045678
 20
311.836244
 30
0.0
 10
228.545678
 20
311.836244
 30
0.0
 10
228.545678
 20
318.186244
 30
0.0
 10
222.545678
 20
318.186244
 30
0.0
 10
222.545678
 20
311.836244
 30
0.0
 10
216.545678
 20
311.836244
 30
0.0
 10
216.545678
 20
305.836244
 30
0.0
 10
217.795678
 20
305.836244
 30
0.0
 10
217.795678
 20
303.836244
 30
0.0
 10
216.545678
 20
303.836244
 30
0.0
 10
216.545678
 20
301.186244
 30
0.0
 10
213.545678
 20
301.186244
 30
0.0
 10
213.545678
 20
303.836244
 30
0.0
 10
212.295678
 20
303.836244
 30
0.0
 10
212.295678
 20
305.836244
 30
0.0
 10
213.545678
 20
305.836244
 30
0.0
 10
213.545678
 20
311.836244
 30
0.0
 10
207.545678
 20
311.836244
 30
0.0
 10
207.545678
 20
318.186244
 30
0.0
 10
201.545678
 20
318.186244
 30
0.0
 10
201.545678
 20
318.186244
 30
0.0
  0
SPLINE
  5
328
100
AcDbEntity
  8
0
 62
7
100
AcDbSpline
 70
8
 71
3
 72
8
 73
4
 74
0
 40
0
 40
0
 40
0
 40
0
 40
1
 40
1
 40
1
 40
1
 10
249.916363
 20
311.836244
 30
0.0
 10
249.916363
 20
311.836244
 30
0.0
 10
249.916363
 20
311.149953
 30
0.0
 10
249.916363
 20
311.149953
 30
0.0
  0
SPLINE
  5
329
100
AcDbEntity
  8
0
 62
7
100
AcDbSpline
 70
8
 71
3
 72
8
 73
4
 74
0
 40
0
 40
0
 40
0
 40
0
 40
1
 40
1
 40
1
 40
1
 10
249.916363
 20
311.149953
 30
0.0
 10
249.916363
 20
309.028221
 30
0.0
 10
250.759217
 20
306.993389
 30
0.0
 10
252.259508
 20
305.493098
 30
0.0
  0
SPLINE
  5
32a
100
AcDbEntity
  8
0
 62
7
100
AcDbSpline
 70
8
 71
3
 72
8
 73
4
 74
0
 40
0
 40
0
 40
0
 40
0
 40
1
 40
1
 40
1
 40
1
 10
252.259508
 20
305.493098
 30
0.0
 10
252.259508
 20
305.493098
 30
0.0
 10
291.573217
 20
266.179390
 30
0.0
 10
291.573217
 20
266.179390
 30
0.0
  0
SPLINE
  5
32b
100
AcDbEntity
  8
0
 62
7
100
AcDbSpline
 70
8
 71
3
 72
8
 73
4
 74
0
 40
0
 40
0
 40
0
 40
0
 40
1
 40
1
 40
1
 40
1
 10
291.573217
 20
266.179390
 30
0.0
 10
293.073508
 20
264.679099
 30
0.0
 10
295.108339
 20
263.836244
 30
0.0
 10
297.230071
 20
263.836244
 30
0.0
  0
LWPOLYLINE
  5
32c
100
AcDbEntity
  8
0
 62
7
100
AcDbPolyline
 90
19
 70
1
 10
280.416363
 20
318.186244
 30
0.0
 10
280.416363
 20
311.836244
 30
0.0
 10
274.416363
 20
311.836244
 30
0.0
 10
274.416363
 20
305.836244
 30
0.0
 10
275.666363
 20
305.836244
 30
0.0
 10
275.666363
 20
303.836244
 30
0.0
 10
274.416363
 20
303.836244
 30
0.0
 10
274.416363
 20
301.186244
 30
0.0
 10
271.416363
 20
301.186244
 30
0.0
 10
271.416363
 20
303.836244
 30
0.0
 10
270.166363
 20
303.836244
 30
0.0
 10
270.166363
 20
305.836244
 30
0.0
 10
271.416363
 20
305.836244
 30
0.0
 10
271.416363
 20
311.836244
 30
0.0
 10
265.416362
 20
311.836244
 30
0.0
 10
265.416362
 20
318.186244
 30
0.0
 10
259.416363
 20
318.186244
 30
0.0
 10
259.416363
 20
311.836244
 30
0.0
 10
249.916363
 20
311.836244
 30
0.0
  0
SPLINE
  5
32d
100
AcDbEntity
  8
0
 62
7
100
AcDbSpline
 70
8
 71
3
 72
8
 73
4
 74
0
 40
0
 40
0
 40
0
 40
0
 40
1
 40
1
 40
1
 40
1
 10
325.630154
 20
400.653185
 30
0.0
 10
326.755372
 20
401.778403
 30
0.0
 10
327.387513
 20
403.304527
 30
0.0
 10
327.387513
 20
404.895825
 30
0.0
  0
SPLINE
  5
32e
100
AcDbEntity
  8
0
 62
7
100
AcDbSpline
 70
8
 71
3
 72
8
 73
4
 74
0
 40
0
 40
0
 40
0
 40
0
 40
1
 40
1
 40
1
 40
1
 10
327.387513
 20
404.895825
 30
0.0
 10
327.387513
 20
404.895825
 30
0.0
 10
327.387513
 20
423.925263
 30
0.0
 10
327.387513
 20
423.925263
 30
0.0
  0
SPLINE
  5
32f
100
AcDbEntity
  8
0
 62
7
100
AcDbSpline
 70
8
 71
3
 72
8
 73
4
 74
0
 40
0
 40
0
 40
0
 40
0
 40
1
 40
1
 40
1
 40
1
 10
327.387513
 20
423.925263
 30
0.0
 10
327.387513
 20
425.516562
 30
0.0
 10
326.755372
 20
427.042685
 30
0.0
 10
325.630154
 20
428.167903
 30
0.0
  0
LWPOLYLINE
  5
330
100
AcDbEntity
  8
0
 62
7
100
AcDbPolyline
 90
27
 70
1
 10
297.230071
 20
263.836244
 30
0.0
 10
297.916363
 20
263.836244
 30
0.0
 10
297.916363
 20
273.336244
 30
0.0
 10
304.266363
 20
273.336244
 30
0.0
 10
304.266363
 20
279.336244
 30
0.0
 10
297.916363
 20
279.336244
 30
0.0
 10
297.916363
 20
285.336244
 30
0.0
 10
291.916363
 20
285.336244
 30
0.0
 10
291.916363
 20
284.086244
 30
0.0
 10
289.916363
 20
284.086244
 30
0.0
 10
289.916363
 20
285.336244
 30
0.0
 10
287.266363
 20
285.336244
 30
0.0
 10
287.266363
 20
288.336244
 30
0.0
 10
289.916363
 20
288.336244
 30
0.0
 10
289.916363
 20
289.586244
 30
0.0
 10
291.916363
 20
289.586244
 30
0.0
 10
291.916363
 20
288.336244
 30
0.0
 10
297.916363
 20
288.336244
 30
0.0
 10
297.916363
 20
294.336244
 30
0.0
 10
304.266363
 20
294.336244
 30
0.0
 10
304.266363
 20
300.336244
 30
0.0
 10
297.916363
 20
300.336244
 30
0.0
 10
297.916363
 20
311.836244
 30
0.0
 10
286.416363
 20
311.836244
 30
0.0
 10
286.416363
 20
318.186244
 30
0.0
 10
280.416363
 20
318.186244
 30
0.0
 10
280.416363
 20
318.186244
 30
0.0
  0
SPLINE
  5
331
100
AcDbEntity
  8
0
 62
7
100
AcDbSpline
 70
8
 71
3
 72
8
 73
4
 74
0
 40
0
 40
0
 40
0
 40
0
 40
1
 40
1
 40
1
 40
1
 10
291.144873
 20
462.653185
 30
0.0
 10
290.019654
 20
463.778403
 30
0.0
 10
289.387513
 20
465.304527
 30
0.0
 10
289.387513
 20
466.895825
 30
0.0
  0
SPLINE
  5
332
100
AcDbEntity
  8
0
 62
7
100
AcDbSpline
 70
8
 71
3
 72
8
 73
4
 74
0
 40
0
 40
0
 40
0
 40
0
 40
1
 40
1
 40
1
 40
1
 10
289.387513
 20
466.895825
 30
0.0
 10
289.387513
 20
466.895825
 30
0.0
 10
289.387513
 20
474.925263
 30
0.0
 10
289.387513
 20
474.925263
 30
0.0
  0
SPLINE
  5
333
100
AcDbEntity
  8
0
 62
7
100
AcDbSpline
 70
8
 71
3
 72
8
 73
4
 74
0
 40
0
 40
0
 40
0
 40
0
 40
1
 40
1
 40
1
 40
1
 10
289.387513
 20
474.925263
 30
0.0
 10
289.387513
 20
476.516562
 30
0.0
 10
290.019654
 20
478.042685
 30
0.0
 10
291.144873
 20
479.167903
 30
0.0
  0
SPLINE
  5
334
100
AcDbEntity
  8
0
 62
7
100
AcDbSpline
 70
8
 71
3
 72
8
 73
4
 74
0
 40
0
 40
0
 40
0
 40
0
 40
1
 40
1
 40
1
 40
1
 10
291.144873
 20
479.167903
 30
0.0
 10
291.144873
 20
479.167903
 30
0.0
 10
327.387513
 20
515.410544
 30
0.0
 10
327.387513
 20
515.410544
 30
0.0
  0
SPLINE
  5
335
100
AcDbEntity
  8
0
 62
7
100
AcDbSpline
 70
8
 71
3
 72
8
 73
4
 74
0
 40
0
 40
0
 40
0
 40
0
 40
1
 40
1
 40
1
 40
1
 10
327.387513
 20
515.410544
 30
0.0
 10
329.320082
 20
517.343614
 30
0.0
 10
329.319879
 20
520.477271
 30
0.0
 10
327.387059
 20
522.410090
 30
0.0
  0
SPLINE
  5
336
100
AcDbEntity
  8
0
 62
7
100
AcDbSpline
 70
8
 71
3
 72
8
 73
4
 74
0
 40
0
 40
0
 40
0
 40
0
 40
1
 40
1
 40
1
 40
1
 10
327.387059
 20
522.410090
 30
0.0
 10
325.454240
 20
524.342910
 30
0.0
 10
322.320583
 20
524.343113
 30
0.0
 10
320.387513
 20
522.410544
 30
0.0
  0
LWPOLYLINE
  5
337
100
AcDbEntity
  8
0
 62
7
100
AcDbPolyline
 90
2
 70
1
 10
325.630154
 20
428.167903
 30
0.0
 10
291.144873
 20
462.653185
 30
0.0
  0
SPLINE
  5
338
100
AcDbEntity
  8
0
 62
7
100
AcDbSpline
 70
8
 71
3
 72
8
 73
4
 74
0
 40
0
 40
0
 40
0
 40
0
 40
1
 40
1
 40
1
 40
1
 10
299.144873
 20
501.167903
 30
0.0
 10
298.019654
 20
500.042685
 30
0.0
 10
296.493531
 20
499.410544
 30
0.0
 10
294.902232
 20
499.410544
 30
0.0
  0
SPLINE
  5
339
100
AcDbEntity
  8
0
 62
7
100
AcDbSpline
 70
8
 71
3
 72
8
 73
4
 74
0
 40
0
 40
0
 40
0
 40
0
 40
1
 40
1
 40
1
 40
1
 10
294.902232
 20
499.410544
 30
0.0
 10
294.902232
 20
499.410544
 30
0.0
 10
143.872794
 20
499.410544
 30
0.0
 10
143.872794
 20
499.410544
 30
0.0
  0
SPLINE
  5
33a
100
AcDbEntity
  8
0
 62
7
100
AcDbSpline
 70
8
 71
3
 72
8
 73
4
 74
0
 40
0
 40
0
 40
0
 40
0
 40
1
 40
1
 40
1
 40
1
 10
143.872794
 20
499.410544
 30
0.0
 10
142.281496
 20
499.410544
 30
0.0
 10
140.755372
 20
500.042685
 30
0.0
 10
139.630154
 20
501.167903
 30
0.0
  0
LWPOLYLINE
  5
33b
100
AcDbEntity
  8
0
 62
7
100
AcDbPolyline
 90
2
 70
1
 10
320.387513
 20
522.410544
 30
0.0
 10
299.144873
 20
501.167903
 30
0.0
  0
SPLINE
  5
33c
100
AcDbEntity
  8
0
 62
7
100
AcDbSpline
 70
8
 71
3
 72
8
 73
4
 74
0
 40
0
 40
0
 40
0
 40
0
 40
1
 40
1
 40
1
 40
1
 10
118.387513
 20
522.410544
 30
0.0
 10
116.454443
 20
524.343113
 30
0.0
 10
113.320786
 20
524.342910
 30
0.0
 10
111.387967
 20
522.410090
 30
0.0
  0
SPLINE
  5
33d
100
AcDbEntity
  8
0
 62
7
100
AcDbSpline
 70
8
 71
3
 72
8
 73
4
 74
0
 40
0
 40
0
 40
0
 40
0
 40
1
 40
1
 40
1
 40
1
 10
111.387967
 20
522.410090
 30
0.0
 10
109.455147
 20
520.477271
 30
0.0
 10
109.454944
 20
517.343614
 30
0.0
 10
111.387513
 20
515.410544
 30
0.0
  0
SPLINE
  5
33e
100
AcDbEntity
  8
0
 62
7
100
AcDbSpline
 70
8
 71
3
 72
8
 73
4
 74
0
 40
0
 40
0
 40
0
 40
0
 40
1
 40
1
 40
1
 40
1
 10
111.387513
 20
515.410544
 30
0.0
 10
111.387513
 20
515.410544
 30
0.0
 10
127.630154
 20
499.167903
 30
0.0
 10
127.630154
 20
499.167903
 30
0.0
  0
SPLINE
  5
33f
100
AcDbEntity
  8
0
 62
7
100
AcDbSpline
 70
8
 71
3
 72
8
 73
4
 74
0
 40
0
 40
0
 40
0
 40
0
 40
1
 40
1
 40
1
 40
1
 10
127.630154
 20
499.167903
 30
0.0
 10
128.755372
 20
498.042685
 30
0.0
 10
129.387513
 20
496.516562
 30
0.0
 10
129.387513
 20
494.925263
 30
0.0
  0
SPLINE
  5
340
100
AcDbEntity
  8
0
 62
7
100
AcDbSpline
 70
8
 71
3
 72
8
 73
4
 74
0
 40
0
 40
0
 40
0
 40
0
 40
1
 40
1
 40
1
 40
1
 10
129.387513
 20
494.925263
 30
0.0
 10
129.387513
 20
494.925263
 30
0.0
 10
129.387513
 20
479.895826
 30
0.0
 10
129.387513
 20
479.895826
 30
0.0
  0
SPLINE
  5
341
100
AcDbEntity
  8
0
 62
7
100
AcDbSpline
 70
8
 71
3
 72
8
 73
4
 74
0
 40
0
 40
0
 40
0
 40
0
 40
1
 40
1
 40
1
 40
1
 10
129.387513
 20
479.895826
 30
0.0
 10
129.387513
 20
478.304527
 30
0.0
 10
128.755372
 20
476.778403
 30
0.0
 10
127.630154
 20
475.653185
 30
0.0
  0
SPLINE
  5
342
100
AcDbEntity
  8
0
 62
7
100
AcDbSpline
 70
8
 71
3
 72
8
 73
4
 74
0
 40
0
 40
0
 40
0
 40
0
 40
1
 40
1
 40
1
 40
1
 10
127.630154
 20
475.653185
 30
0.0
 10
127.630154
 20
475.653185
 30
0.0
 10
113.144872
 20
461.167904
 30
0.0
 10
113.144872
 20
461.167904
 30
0.0
  0
SPLINE
  5
343
100
AcDbEntity
  8
0
 62
7
100
AcDbSpline
 70
8
 71
3
 72
8
 73
4
 74
0
 40
0
 40
0
 40
0
 40
0
 40
1
 40
1
 40
1
 40
1
 10
113.144872
 20
461.167904
 30
0.0
 10
112.019654
 20
460.042685
 30
0.0
 10
111.387513
 20
458.516562
 30
0.0
 10
111.387513
 20
456.925263
 30
0.0
  0
SPLINE
  5
344
100
AcDbEntity
  8
0
 62
7
100
AcDbSpline
 70
8
 71
3
 72
8
 73
4
 74
0
 40
0
 40
0
 40
0
 40
0
 40
1
 40
1
 40
1
 40
1
 10
111.387513
 20
456.925263
 30
0.0
 10
111.387513
 20
456.925263
 30
0.0
 10
111.387513
 20
439.895825
 30
0.0
 10
111.387513
 20
439.895825
 30
0.0
  0
SPLINE
  5
345
100
AcDbEntity
  8
0
 62
7
100
AcDbSpline
 70
8
 71
3
 72
8
 73
4
 74
0
 40
0
 40
0
 40
0
 40
0
 40
1
 40
1
 40
1
 40
1
 10
111.387513
 20
439.895825
 30
0.0
 10
111.387513
 20
438.304527
 30
0.0
 10
112.019654
 20
436.778403
 30
0.0
 10
113.144872
 20
435.653185
 30
0.0
  0
SPLINE
  5
346
100
AcDbEntity
  8
0
 62
7
100
AcDbSpline
 70
8
 71
3
 72
8
 73
4
 74
0
 40
0
 40
0
 40
0
 40
0
 40
1
 40
1
 40
1
 40
1
 10
113.144872
 20
435.653185
 30
0.0
 10
113.144872
 20
435.653185
 30
0.0
 10
127.630154
 20
421.167903
 30
0.0
 10
127.630154
 20
421.167903
 30
0.0
  0
SPLINE
  5
347
100
AcDbEntity
  8
0
 62
7
100
AcDbSpline
 70
8
 71
3
 72
8
 73
4
 74
0
 40
0
 40
0
 40
0
 40
0
 40
1
 40
1
 40
1
 40
1
 10
127.630154
 20
421.167903
 30
0.0
 10
128.755372
 20
420.042685
 30
0.0
 10
129.387513
 20
418.516562
 30
0.0
 10
129.387513
 20
416.925263
 30
0.0
  0
SPLINE
  5
348
100
AcDbEntity
  8
0
 62
7
100
AcDbSpline
 70
8
 71
3
 72
8
 73
4
 74
0
 40
0
 40
0
 40
0
 40
0
 40
1
 40
1
 40
1
 40
1
 10
129.387513
 20
416.925263
 30
0.0
 10
129.387513
 20
416.925263
 30
0.0
 10
129.387513
 20
411.895826
 30
0.0
 10
129.387513
 20
411.895826
 30
0.0
  0
SPLINE
  5
349
100
AcDbEntity
  8
0
 62
7
100
AcDbSpline
 70
8
 71
3
 72
8
 73
4
 74
0
 40
0
 40
0
 40
0
 40
0
 40
1
 40
1
 40
1
 40
1
 10
129.387513
 20
411.895826
 30
0.0
 10
129.387513
 20
410.304527
 30
0.0
 10
128.755372
 20
408.778403
 30
0.0
 10
127.630154
 20
407.653185
 30
0.0
  0
SPLINE
  5
34a
100
AcDbEntity
  8
0
 62
7
100
AcDbSpline
 70
8
 71
3
 72
8
 73
4
 74
0
 40
0
 40
0
 40
0
 40
0
 40
1
 40
1
 40
1
 40
1
 10
127.630154
 20
407.653185
 30
0.0
 10
127.630154
 20
407.653185
 30
0.0
 10
113.144872
 20
393.167904
 30
0.0
 10
113.144872
 20
393.167904
 30
0.0
  0
SPLINE
  5
34b
100
AcDbEntity
  8
0
 62
7
100
AcDbSpline
 70
8
 71
3
 72
8
 73
4
 74
0
 40
0
 40
0
 40
0
 40
0
 40
1
 40
1
 40
1
 40
1
 10
113.144872
 20
393.167904
 30
0.0
 10
112.019654
 20
392.042685
 30
0.0
 10
111.387513
 20
390.516562
 30
0.0
 10
111.387513
 20
388.925263
 30
0.0
  0
SPLINE
  5
34c
100
AcDbEntity
  8
0
 62
7
100
AcDbSpline
 70
8
 71
3
 72
8
 73
4
 74
0
 40
0
 40
0
 40
0
 40
0
 40
1
 40
1
 40
1
 40
1
 10
111.387513
 20
388.925263
 30
0.0
 10
111.387513
 20
388.925263
 30
0.0
 10
111.387513
 20
371.895825
 30
0.0
 10
111.387513
 20
371.895825
 30
0.0
  0
SPLINE
  5
34d
100
AcDbEntity
  8
0
 62
7
100
AcDbSpline
 70
8
 71
3
 72
8
 73
4
 74
0
 40
0
 40
0
 40
0
 40
0
 40
1
 40
1
 40
1
 40
1
 10
111.387513
 20
371.895825
 30
0.0
 10
111.387513
 20
370.304527
 30
0.0
 10
112.019654
 20
368.778403
 30
0.0
 10
113.144872
 20
367.653185
 30
0.0
  0
SPLINE
  5
34e
100
AcDbEntity
  8
0
 62
7
100
AcDbSpline
 70
8
 71
3
 72
8
 73
4
 74
0
 40
0
 40
0
 40
0
 40
0
 40
1
 40
1
 40
1
 40
1
 10
113.144872
 20
367.653185
 30
0.0
 10
113.144872
 20
367.653185
 30
0.0
 10
127.630154
 20
353.167903
 30
0.0
 10
127.630154
 20
353.167903
 30
0.0
  0
SPLINE
  5
34f
100
AcDbEntity
  8
0
 62
7
100
AcDbSpline
 70
8
 71
3
 72
8
 73
4
 74
0
 40
0
 40
0
 40
0
 40
0
 40
1
 40
1
 40
1
 40
1
 10
127.630154
 20
353.167903
 30
0.0
 10
128.755372
 20
352.042685
 30
0.0
 10
129.387513
 20
350.516562
 30
0.0
 10
129.387513
 20
348.925263
 30
0.0
  0
SPLINE
  5
350
100
AcDbEntity
  8
0
 62
7
100
AcDbSpline
 70
8
 71
3
 72
8
 73
4
 74
0
 40
0
 40
0
 40
0
 40
0
 40
1
 40
1
 40
1
 40
1
 10
129.387513
 20
348.925263
 30
0.0
 10
129.387513
 20
348.925263
 30
0.0
 10
129.387513
 20
333.895826
 30
0.0
 10
129.387513
 20
333.895825
 30
0.0
  0
SPLINE
  5
351
100
AcDbEntity
  8
0
 62
7
100
AcDbSpline
 70
8
 71
3
 72
8
 73
4
 74
0
 40
0
 40
0
 40
0
 40
0
 40
1
 40
1
 40
1
 40
1
 10
129.387513
 20
333.895825
 30
0.0
 10
129.387513
 20
332.304527
 30
0.0
 10
128.755372
 20
330.778403
 30
0.0
 10
127.630154
 20
329.653185
 30
0.0
  0
LWPOLYLINE
  5
352
100
AcDbEntity
  8
0
 62
7
100
AcDbPolyline
 90
2
 70
1
 10
139.630154
 20
501.167903
 30
0.0
 10
118.387513
 20
522.410544
 30
0.0
  0
SPLINE
  5
353
100
AcDbEntity
  8
0
 62
7
100
AcDbSpline
 70
8
 71
3
 72
8
 73
4
 74
0
 40
0
 40
0
 40
0
 40
0
 40
1
 40
1
 40
1
 40
1
 10
111.387513
 20
313.410544
 30
0.0
 10
109.454944
 20
311.477474
 30
0.0
 10
109.455147
 20
308.343817
 30
0.0
 10
111.387967
 20
306.410998
 30
0.0
  0
SPLINE
  5
354
100
AcDbEntity
  8
0
 62
7
100
AcDbSpline
 70
8
 71
3
 72
8
 73
4
 74
0
 40
0
 40
0
 40
0
 40
0
 40
1
 40
1
 40
1
 40
1
 10
111.387967
 20
306.410998
 30
0.0
 10
113.320786
 20
304.478178
 30
0.0
 10
116.454443
 20
304.477975
 30
0.0
 10
118.387513
 20
306.410544
 30
0.0
  0
SPLINE
  5
355
100
AcDbEntity
  8
0
 62
7
100
AcDbSpline
 70
8
 71
3
 72
8
 73
4
 74
0
 40
0
 40
0
 40
0
 40
0
 40
1
 40
1
 40
1
 40
1
 10
118.387513
 20
306.410544
 30
0.0
 10
118.387513
 20
306.410544
 30
0.0
 10
139.630154
 20
327.653185
 30
0.0
 10
139.630154
 20
327.653185
 30
0.0
  0
SPLINE
  5
356
100
AcDbEntity
  8
0
 62
7
100
AcDbSpline
 70
8
 71
3
 72
8
 73
4
 74
0
 40
0
 40
0
 40
0
 40
0
 40
1
 40
1
 40
1
 40
1
 10
139.630154
 20
327.653185
 30
0.0
 10
140.755372
 20
328.778403
 30
0.0
 10
142.281496
 20
329.410544
 30
0.0
 10
143.872794
 20
329.410544
 30
0.0
  0
LWPOLYLINE
  5
357
100
AcDbEntity
  8
0
 62
7
100
AcDbPolyline
 90
2
 70
1
 10
127.630154
 20
329.653185
 30
0.0
 10
111.387513
 20
313.410544
 30
0.0
  0
SPLINE
  5
358
100
AcDbEntity
  8
0
 62
7
100
AcDbSpline
 70
8
 71
3
 72
8
 73
4
 74
0
 40
0
 40
0
 40
0
 40
0
 40
1
 40
1
 40
1
 40
1
 10
294.902232
 20
329.410544
 30
0.0
 10
296.493531
 20
329.410544
 30
0.0
 10
298.019654
 20
328.778403
 30
0.0
 10
299.144873
 20
327.653185
 30
0.0
  0
LWPOLYLINE
  5
359
100
AcDbEntity
  8
0
 62
7
100
AcDbPolyline
 90
2
 70
1
 10
143.872794
 20
329.410544
 30
0.0
 10
294.902232
 20
329.410544
 30
0.0
  0
SPLINE
  5
35a
100
AcDbEntity
  8
0
 62
7
100
AcDbSpline
 70
8
 71
3
 72
8
 73
4
 74
0
 40
0
 40
0
 40
0
 40
0
 40
1
 40
1
 40
1
 40
1
 10
320.387513
 20
306.410544
 30
0.0
 10
322.320583
 20
304.477975
 30
0.0
 10
325.454240
 20
304.478178
 30
0.0
 10
327.387059
 20
306.410998
 30
0.0
  0
SPLINE
  5
35b
100
AcDbEntity
  8
0
 62
7
100
AcDbSpline
 70
8
 71
3
 72
8
 73
4
 74
0
 40
0
 40
0
 40
0
 40
0
 40
1
 40
1
 40
1
 40
1
 10
327.387059
 20
306.410998
 30
0.0
 10
329.319879
 20
308.343817
 30
0.0
 10
329.320082
 20
311.477474
 30
0.0
 10
327.387513
 20
313.410544
 30
0.0
  0
LWPOLYLINE
  5
35c
100
AcDbEntity
  8
0
 62
7
100
AcDbPolyline
 90
2
 70
1
 10
299.144873
 20
327.653185
 30
0.0
 10
320.387513
 20
306.410544
 30
0.0
  0
SPLINE
  5
35d
100
AcDbEntity
  8
0
 62
7
100
AcDbSpline
 70
8
 71
3
 72
8
 73
4
 74
0
 40
0
 40
0
 40
0
 40
0
 40
1
 40
1
 40
1
 40
1
 10
291.144873
 20
349.653185
 30
0.0
 10
290.019654
 20
350.778403
 30
0.0
 10
289.387513
 20
352.304527
 30
0.0
 10
289.387513
 20
353.895826
 30
0.0
  0
SPLINE
  5
35e
100
AcDbEntity
  8
0
 62
7
100
AcDbSpline
 70
8
 71
3
 72
8
 73
4
 74
0
 40
0
 40
0
 40
0
 40
0
 40
1
 40
1
 40
1
 40
1
 10
289.387513
 20
353.895826
 30
0.0
 10
289.387513
 20
353.895826
 30
0.0
 10
289.387513
 20
361.925263
 30
0.0
 10
289.387513
 20
361.925263
 30
0.0
  0
SPLINE
  5
35f
100
AcDbEntity
  8
0
 62
7
100
AcDbSpline
 70
8
 71
3
 72
8
 73
4
 74
0
 40
0
 40
0
 40
0
 40
0
 40
1
 40
1
 40
1
 40
1
 10
289.387513
 20
361.925263
 30
0.0
 10
289.387513
 20
363.516562
 30
0.0
 10
290.019654
 20
365.042685
 30
0.0
 10
291.144873
 20
366.167903
 30
0.0
  0
LWPOLYLINE
  5
360
100
AcDbEntity
  8
0
 62
7
100
AcDbPolyline
 90
2
 70
1
 10
327.387513
 20
313.410544
 30
0.0
 10
291.144873
 20
349.653185
 30
0.0
  0
SPLINE
  5
361
100
AcDbEntity
  8
0
 62
7
100
AcDbSpline
 70
8
 71
3
 72
8
 73
4
 74
0
 40
0
 40
0
 40
0
 40
0
 40
1
 40
1
 40
1
 40
1
 10
244.902232
 20
449.410544
 30
0.0
 10
246.493531
 20
449.410544
 30
0.0
 10
248.019654
 20
450.042685
 30
0.0
 10
249.144872
 20
451.167903
 30
0.0
  0
LWPOLYLINE
  5
362
100
AcDbEntity
  8
0
 62
7
100
AcDbPolyline
 90
3
 70
1
 10
291.144873
 20
366.167903
 30
0.0
 10
325.630154
 20
400.653185
 30
0.0
 10
325.630154
 20
400.653185
 30
0.0
  0
SPLINE
  5
363
100
AcDbEntity
  8
0
 62
7
100
AcDbSpline
 70
8
 71
3
 72
8
 73
4
 74
0
 40
0
 40
0
 40
0
 40
0
 40
1
 40
1
 40
1
 40
1
 10
277.144873
 20
479.167903
 30
0.0
 10
278.860861
 20
480.883891
 30
0.0
 10
279.374195
 20
483.464598
 30
0.0
 10
278.445509
 20
485.706645
 30
0.0
  0
SPLINE
  5
364
100
AcDbEntity
  8
0
 62
7
100
AcDbSpline
 70
8
 71
3
 72
8
 73
4
 74
0
 40
0
 40
0
 40
0
 40
0
 40
1
 40
1
 40
1
 40
1
 10
278.445509
 20
485.706645
 30
0.0
 10
277.516823
 20
487.948691
 30
0.0
 10
275.329005
 20
489.410544
 30
0.0
 10
272.902232
 20
489.410544
 30
0.0
  0
LWPOLYLINE
  5
365
100
AcDbEntity
  8
0
 62
7
100
AcDbPolyline
 90
2
 70
1
 10
249.144872
 20
451.167903
 30
0.0
 10
277.144873
 20
479.167903
 30
0.0
  0
SPLINE
  5
366
100
AcDbEntity
  8
0
 62
7
100
AcDbSpline
 70
8
 71
3
 72
8
 73
4
 74
0
 40
0
 40
0
 40
0
 40
0
 40
1
 40
1
 40
1
 40
1
 10
165.872794
 20
489.410544
 30
0.0
 10
163.446021
 20
489.410544
 30
0.0
 10
161.258203
 20
487.948691
 30
0.0
 10
160.329517
 20
485.706645
 30
0.0
  0
SPLINE
  5
367
100
AcDbEntity
  8
0
 62
7
100
AcDbSpline
 70
8
 71
3
 72
8
 73
4
 74
0
 40
0
 40
0
 40
0
 40
0
 40
1
 40
1
 40
1
 40
1
 10
160.329517
 20
485.706645
 30
0.0
 10
159.400831
 20
483.464598
 30
0.0
 10
159.914166
 20
480.883891
 30
0.0
 10
161.630154
 20
479.167903
 30
0.0
  0
LWPOLYLINE
  5
368
100
AcDbEntity
  8
0
 62
7
100
AcDbPolyline
 90
2
 70
1
 10
272.902232
 20
489.410544
 30
0.0
 10
165.872794
 20
489.410544
 30
0.0
  0
SPLINE
  5
369
100
AcDbEntity
  8
0
 62
7
100
AcDbSpline
 70
8
 71
3
 72
8
 73
4
 74
0
 40
0
 40
0
 40
0
 40
0
 40
1
 40
1
 40
1
 40
1
 10
189.630154
 20
451.167903
 30
0.0
 10
190.755372
 20
450.042685
 30
0.0
 10
192.281496
 20
449.410544
 30
0.0
 10
193.872795
 20
449.410544
 30
0.0
  0
LWPOLYLINE
  5
36a
100
AcDbEntity
  8
0
 62
7
100
AcDbPolyline
 90
2
 70
1
 10
161.630154
 20
479.167903
 30
0.0
 10
189.630154
 20
451.167903
 30
0.0
  0
SPLINE
  5
36b
100
AcDbEntity
  8
0
 62
7
100
AcDbSpline
 70
8
 71
3
 72
8
 73
4
 74
0
 40
0
 40
0
 40
0
 40
0
 40
1
 40
1
 40
1
 40
1
 10
199.387513
 20
416.925263
 30
0.0
 10
199.387513
 20
418.516562
 30
0.0
 10
198.755372
 20
420.042685
 30
0.0
 10
197.630154
 20
421.167903
 30
0.0
  0
SPLINE
  5
36c
100
AcDbEntity
  8
0
 62
7
100
AcDbSpline
 70
8
 71
3
 72
8
 73
4
 74
0
 40
0
 40
0
 40
0
 40
0
 40
1
 40
1
 40
1
 40
1
 10
197.630154
 20
421.167903
 30
0.0
 10
197.630154
 20
421.167903
 30
0.0
 10
181.144872
 20
437.653185
 30
0.0
 10
181.144872
 20
437.653185
 30
0.0
  0
SPLINE
  5
36d
100
AcDbEntity
  8
0
 62
7
100
AcDbSpline
 70
8
 71
3
 72
8
 73
4
 74
0
 40
0
 40
0
 40
0
 40
0
 40
1
 40
1
 40
1
 40
1
 10
181.144872
 20
437.653185
 30
0.0
 10
180.019654
 20
438.778403
 30
0.0
 10
178.493531
 20
439.410544
 30
0.0
 10
176.902232
 20
439.410544
 30
0.0
  0
LWPOLYLINE
  5
36e
100
AcDbEntity
  8
0
 62
7
100
AcDbPolyline
 90
3
 70
1
 10
193.872795
 20
449.410544
 30
0.0
 10
244.902232
 20
449.410544
 30
0.0
 10
244.902232
 20
449.410544
 30
0.0
  0
SPLINE
  5
36f
100
AcDbEntity
  8
0
 62
7
100
AcDbSpline
 70
8
 71
3
 72
8
 73
4
 74
0
 40
0
 40
0
 40
0
 40
0
 40
1
 40
1
 40
1
 40
1
 10
161.872795
 20
439.410544
 30
0.0
 10
160.281496
 20
439.410544
 30
0.0
 10
158.755372
 20
438.778403
 30
0.0
 10
157.630154
 20
437.653185
 30
0.0
  0
LWPOLYLINE
  5
370
100
AcDbEntity
  8
0
 62
7
100
AcDbPolyline
 90
2
 70
1
 10
176.902232
 20
439.410544
 30
0.0
 10
161.872795
 20
439.410544
 30
0.0
  0
SPLINE
  5
371
100
AcDbEntity
  8
0
 62
7
100
AcDbSpline
 70
8
 71
3
 72
8
 73
4
 74
0
 40
0
 40
0
 40
0
 40
0
 40
1
 40
1
 40
1
 40
1
 10
141.144873
 20
421.167903
 30
0.0
 10
140.019654
 20
420.042685
 30
0.0
 10
139.387513
 20
418.516562
 30
0.0
 10
139.387513
 20
416.925263
 30
0.0
  0
SPLINE
  5
372
100
AcDbEntity
  8
0
 62
7
100
AcDbSpline
 70
8
 71
3
 72
8
 73
4
 74
0
 40
0
 40
0
 40
0
 40
0
 40
1
 40
1
 40
1
 40
1
 10
139.387513
 20
416.925263
 30
0.0
 10
139.387513
 20
416.925263
 30
0.0
 10
139.387513
 20
411.895826
 30
0.0
 10
139.387513
 20
411.895826
 30
0.0
  0
SPLINE
  5
373
100
AcDbEntity
  8
0
 62
7
100
AcDbSpline
 70
8
 71
3
 72
8
 73
4
 74
0
 40
0
 40
0
 40
0
 40
0
 40
1
 40
1
 40
1
 40
1
 10
139.387513
 20
411.895826
 30
0.0
 10
139.387513
 20
410.304527
 30
0.0
 10
140.019654
 20
408.778403
 30
0.0
 10
141.144873
 20
407.653185
 30
0.0
  0
LWPOLYLINE
  5
374
100
AcDbEntity
  8
0
 62
7
100
AcDbPolyline
 90
2
 70
1
 10
157.630154
 20
437.653185
 30
0.0
 10
141.144873
 20
421.167903
 30
0.0
  0
SPLINE
  5
375
100
AcDbEntity
  8
0
 62
7
100
AcDbSpline
 70
8
 71
3
 72
8
 73
4
 74
0
 40
0
 40
0
 40
0
 40
0
 40
1
 40
1
 40
1
 40
1
 10
157.630154
 20
391.167904
 30
0.0
 10
158.755372
 20
390.042685
 30
0.0
 10
160.281496
 20
389.410544
 30
0.0
 10
161.872795
 20
389.410544
 30
0.0
  0
SPLINE
  5
376
100
AcDbEntity
  8
0
 62
7
100
AcDbSpline
 70
8
 71
3
 72
8
 73
4
 74
0
 40
0
 40
0
 40
0
 40
0
 40
1
 40
1
 40
1
 40
1
 10
161.872795
 20
389.410544
 30
0.0
 10
161.872795
 20
389.410544
 30
0.0
 10
176.902232
 20
389.410544
 30
0.0
 10
176.902232
 20
389.410544
 30
0.0
  0
SPLINE
  5
377
100
AcDbEntity
  8
0
 62
7
100
AcDbSpline
 70
8
 71
3
 72
8
 73
4
 74
0
 40
0
 40
0
 40
0
 40
0
 40
1
 40
1
 40
1
 40
1
 10
176.902232
 20
389.410544
 30
0.0
 10
178.493531
 20
389.410544
 30
0.0
 10
180.019654
 20
390.042685
 30
0.0
 10
181.144872
 20
391.167904
 30
0.0
  0
SPLINE
  5
378
100
AcDbEntity
  8
0
 62
7
100
AcDbSpline
 70
8
 71
3
 72
8
 73
4
 74
0
 40
0
 40
0
 40
0
 40
0
 40
1
 40
1
 40
1
 40
1
 10
181.144872
 20
391.167904
 30
0.0
 10
181.144872
 20
391.167904
 30
0.0
 10
197.630154
 20
407.653185
 30
0.0
 10
197.630154
 20
407.653185
 30
0.0
  0
SPLINE
  5
379
100
AcDbEntity
  8
0
 62
7
100
AcDbSpline
 70
8
 71
3
 72
8
 73
4
 74
0
 40
0
 40
0
 40
0
 40
0
 40
1
 40
1
 40
1
 40
1
 10
197.630154
 20
407.653185
 30
0.0
 10
198.755372
 20
408.778403
 30
0.0
 10
199.387513
 20
410.304527
 30
0.0
 10
199.387513
 20
411.895826
 30
0.0
  0
LWPOLYLINE
  5
37a
100
AcDbEntity
  8
0
 62
7
100
AcDbPolyline
 90
2
 70
1
 10
141.144873
 20
407.653185
 30
0.0
 10
157.630154
 20
391.167904
 30
0.0
  0
SPLINE
  5
37b
100
AcDbEntity
  8
0
 62
7
100
AcDbSpline
 70
8
 71
3
 72
8
 73
4
 74
0
 40
0
 40
0
 40
0
 40
0
 40
1
 40
1
 40
1
 40
1
 10
266.902232
 20
389.410544
 30
0.0
 10
268.493531
 20
389.410544
 30
0.0
 10
270.019654
 20
390.042685
 30
0.0
 10
271.144872
 20
391.167904
 30
0.0
  0
LWPOLYLINE
  5
37c
100
AcDbEntity
  8
0
 62
7
100
AcDbPolyline
 90
3
 70
1
 10
199.387513
 20
411.895826
 30
0.0
 10
199.387513
 20
416.925263
 30
0.0
 10
199.387513
 20
416.925263
 30
0.0
  0
SPLINE
  5
37d
100
AcDbEntity
  8
0
 62
7
100
AcDbSpline
 70
8
 71
3
 72
8
 73
4
 74
0
 40
0
 40
0
 40
0
 40
0
 40
1
 40
1
 40
1
 40
1
 10
277.630154
 20
397.653185
 30
0.0
 10
278.755372
 20
398.778403
 30
0.0
 10
279.387513
 20
400.304527
 30
0.0
 10
279.387513
 20
401.895826
 30
0.0
  0
SPLINE
  5
37e
100
AcDbEntity
  8
0
 62
7
100
AcDbSpline
 70
8
 71
3
 72
8
 73
4
 74
0
 40
0
 40
0
 40
0
 40
0
 40
1
 40
1
 40
1
 40
1
 10
279.387513
 20
401.895826
 30
0.0
 10
279.387513
 20
401.895826
 30
0.0
 10
279.387513
 20
426.925263
 30
0.0
 10
279.387513
 20
426.925263
 30
0.0
  0
SPLINE
  5
37f
100
AcDbEntity
  8
0
 62
7
100
AcDbSpline
 70
8
 71
3
 72
8
 73
4
 74
0
 40
0
 40
0
 40
0
 40
0
 40
1
 40
1
 40
1
 40
1
 10
279.387513
 20
426.925263
 30
0.0
 10
279.387513
 20
428.516562
 30
0.0
 10
278.755372
 20
430.042685
 30
0.0
 10
277.630154
 20
431.167903
 30
0.0
  0
LWPOLYLINE
  5
380
100
AcDbEntity
  8
0
 62
7
100
AcDbPolyline
 90
2
 70
1
 10
271.144872
 20
391.167904
 30
0.0
 10
277.630154
 20
397.653185
 30
0.0
  0
SPLINE
  5
381
100
AcDbEntity
  8
0
 62
7
100
AcDbSpline
 70
8
 71
3
 72
8
 73
4
 74
0
 40
0
 40
0
 40
0
 40
0
 40
1
 40
1
 40
1
 40
1
 10
271.144872
 20
437.653185
 30
0.0
 10
270.019654
 20
438.778403
 30
0.0
 10
268.493531
 20
439.410544
 30
0.0
 10
266.902232
 20
439.410544
 30
0.0
  0
LWPOLYLINE
  5
382
100
AcDbEntity
  8
0
 62
7
100
AcDbPolyline
 90
2
 70
1
 10
277.630154
 20
431.167903
 30
0.0
 10
271.144872
 20
437.653185
 30
0.0
  0
SPLINE
  5
383
100
AcDbEntity
  8
0
 62
7
100
AcDbSpline
 70
8
 71
3
 72
8
 73
4
 74
0
 40
0
 40
0
 40
0
 40
0
 40
1
 40
1
 40
1
 40
1
 10
261.872795
 20
439.410544
 30
0.0
 10
260.281496
 20
439.410544
 30
0.0
 10
258.755372
 20
438.778403
 30
0.0
 10
257.630154
 20
437.653185
 30
0.0
  0
LWPOLYLINE
  5
384
100
AcDbEntity
  8
0
 62
7
100
AcDbPolyline
 90
2
 70
1
 10
266.902232
 20
439.410544
 30
0.0
 10
261.872795
 20
439.410544
 30
0.0
  0
SPLINE
  5
385
100
AcDbEntity
  8
0
 62
7
100
AcDbSpline
 70
8
 71
3
 72
8
 73
4
 74
0
 40
0
 40
0
 40
0
 40
0
 40
1
 40
1
 40
1
 40
1
 10
241.144872
 20
421.167903
 30
0.0
 10
240.019654
 20
420.042685
 30
0.0
 10
239.387513
 20
418.516562
 30
0.0
 10
239.387513
 20
416.925263
 30
0.0
  0
SPLINE
  5
386
100
AcDbEntity
  8
0
 62
7
100
AcDbSpline
 70
8
 71
3
 72
8
 73
4
 74
0
 40
0
 40
0
 40
0
 40
0
 40
1
 40
1
 40
1
 40
1
 10
239.387513
 20
416.925263
 30
0.0
 10
239.387513
 20
416.925263
 30
0.0
 10
239.387513
 20
411.895826
 30
0.0
 10
239.387513
 20
411.895826
 30
0.0
  0
SPLINE
  5
387
100
AcDbEntity
  8
0
 62
7
100
AcDbSpline
 70
8
 71
3
 72
8
 73
4
 74
0
 40
0
 40
0
 40
0
 40
0
 40
1
 40
1
 40
1
 40
1
 10
239.387513
 20
411.895826
 30
0.0
 10
239.387513
 20
410.304527
 30
0.0
 10
240.019654
 20
408.778403
 30
0.0
 10
241.144872
 20
407.653185
 30
0.0
  0
LWPOLYLINE
  5
388
100
AcDbEntity
  8
0
 62
7
100
AcDbPolyline
 90
2
 70
1
 10
257.630154
 20
437.653185
 30
0.0
 10
241.144872
 20
421.167903
 30
0.0
  0
SPLINE
  5
389
100
AcDbEntity
  8
0
 62
7
100
AcDbSpline
 70
8
 71
3
 72
8
 73
4
 74
0
 40
0
 40
0
 40
0
 40
0
 40
1
 40
1
 40
1
 40
1
 10
257.630154
 20
391.167904
 30
0.0
 10
258.755372
 20
390.042685
 30
0.0
 10
260.281496
 20
389.410544
 30
0.0
 10
261.872795
 20
389.410544
 30
0.0
  0
LWPOLYLINE
  5
38a
100
AcDbEntity
  8
0
 62
7
100
AcDbPolyline
 90
2
 70
1
 10
241.144872
 20
407.653185
 30
0.0
 10
257.630154
 20
391.167904
 30
0.0
  0
SPLINE
  5
38b
100
AcDbEntity
  8
0
 62
7
100
AcDbSpline
 70
8
 71
3
 72
8
 73
4
 74
0
 40
0
 40
0
 40
0
 40
0
 40
1
 40
1
 40
1
 40
1
 10
249.144872
 20
377.653185
 30
0.0
 10
248.019654
 20
378.778403
 30
0.0
 10
246.493531
 20
379.410544
 30
0.0
 10
244.902232
 20
379.410544
 30
0.0
  0
SPLINE
  5
38c
100
AcDbEntity
  8
0
 62
7
100
AcDbSpline
 70
8
 71
3
 72
8
 73
4
 74
0
 40
0
 40
0
 40
0
 40
0
 40
1
 40
1
 40
1
 40
1
 10
244.902232
 20
379.410544
 30
0.0
 10
244.902232
 20
379.410544
 30
0.0
 10
193.872795
 20
379.410544
 30
0.0
 10
193.872795
 20
379.410544
 30
0.0
  0
SPLINE
  5
38d
100
AcDbEntity
  8
0
 62
7
100
AcDbSpline
 70
8
 71
3
 72
8
 73
4
 74
0
 40
0
 40
0
 40
0
 40
0
 40
1
 40
1
 40
1
 40
1
 10
193.872795
 20
379.410544
 30
0.0
 10
192.281496
 20
379.410544
 30
0.0
 10
190.755372
 20
378.778403
 30
0.0
 10
189.630154
 20
377.653185
 30
0.0
  0
LWPOLYLINE
  5
38e
100
AcDbEntity
  8
0
 62
7
100
AcDbPolyline
 90
3
 70
1
 10
261.872795
 20
389.410544
 30
0.0
 10
266.902232
 20
389.410544
 30
0.0
 10
266.902232
 20
389.410544
 30
0.0
  0
SPLINE
  5
38f
100
AcDbEntity
  8
0
 62
7
100
AcDbSpline
 70
8
 71
3
 72
8
 73
4
 74
0
 40
0
 40
0
 40
0
 40
0
 40
1
 40
1
 40
1
 40
1
 10
161.630154
 20
349.653185
 30
0.0
 10
159.914166
 20
347.937197
 30
0.0
 10
159.400832
 20
345.356490
 30
0.0
 10
160.329518
 20
343.114444
 30
0.0
  0
SPLINE
  5
390
100
AcDbEntity
  8
0
 62
7
100
AcDbSpline
 70
8
 71
3
 72
8
 73
4
 74
0
 40
0
 40
0
 40
0
 40
0
 40
1
 40
1
 40
1
 40
1
 10
160.329518
 20
343.114444
 30
0.0
 10
161.258203
 20
340.872397
 30
0.0
 10
163.446021
 20
339.410544
 30
0.0
 10
165.872794
 20
339.410544
 30
0.0
  0
LWPOLYLINE
  5
391
100
AcDbEntity
  8
0
 62
7
100
AcDbPolyline
 90
2
 70
1
 10
189.630154
 20
377.653185
 30
0.0
 10
161.630154
 20
349.653185
 30
0.0
  0
SPLINE
  5
392
100
AcDbEntity
  8
0
 62
7
100
AcDbSpline
 70
8
 71
3
 72
8
 73
4
 74
0
 40
0
 40
0
 40
0
 40
0
 40
1
 40
1
 40
1
 40
1
 10
272.902232
 20
339.410544
 30
0.0
 10
275.329005
 20
339.410544
 30
0.0
 10
277.516823
 20
340.872397
 30
0.0
 10
278.445509
 20
343.114444
 30
0.0
  0
SPLINE
  5
393
100
AcDbEntity
  8
0
 62
7
100
AcDbSpline
 70
8
 71
3
 72
8
 73
4
 74
0
 40
0
 40
0
 40
0
 40
0
 40
1
 40
1
 40
1
 40
1
 10
278.445509
 20
343.114444
 30
0.0
 10
279.374195
 20
345.356490
 30
0.0
 10
278.860860
 20
347.937197
 30
0.0
 10
277.144873
 20
349.653185
 30
0.0
  0
LWPOLYLINE
  5
394
100
AcDbEntity
  8
0
 62
7
100
AcDbPolyline
 90
2
 70
1
 10
165.872794
 20
339.410544
 30
0.0
 10
272.902232
 20
339.410544
 30
0.0
  0
LWPOLYLINE
  5
395
100
AcDbEntity
  8
0
 62
7
100
AcDbPolyline
 90
3
 70
1
 10
277.144873
 20
349.653185
 30
0.0
 10
249.144872
 20
377.653185
 30
0.0
 10
249.144872
 20
377.653185
 30
0.0
  0
SPLINE
  5
396
100
AcDbEntity
  8
0
 62
7
100
AcDbSpline
 70
8
 71
3
 72
8
 73
4
 74
0
 40
0
 40
0
 40
0
 40
0
 40
1
 40
1
 40
1
 40
1
 10
139.414226
 20
243.900104
 30
0.0
 10
142.721260
 20
245.069318
 30
0.0
 10
145.351167
 20
247.626934
 30
0.0
 10
146.612079
 20
250.900104
 30
0.0
  0
LWPOLYLINE
  5
397
100
AcDbEntity
  8
0
 62
7
100
AcDbPolyline
 90
2
 70
1
 10
139.414226
 20
230.900104
 30
0.0
 10
139.414226
 20
243.900104
 30
0.0
  0
SPLINE
  5
398
100
AcDbEntity
  8
0
 62
7
100
AcDbSpline
 70
8
 71
3
 72
8
 73
4
 74
0
 40
0
 40
0
 40
0
 40
0
 40
1
 40
1
 40
1
 40
1
 10
294.216372
 20
250.900104
 30
0.0
 10
295.477284
 20
247.626934
 30
0.0
 10
298.107191
 20
245.069318
 30
0.0
 10
301.414226
 20
243.900104
 30
0.0
  0
LWPOLYLINE
  5
399
100
AcDbEntity
  8
0
 62
7
100
AcDbPolyline
 90
6
 70
1
 10
146.612079
 20
250.900104
 30
0.0
 10
190.414226
 20
250.900104
 30
0.0
 10
212.414226
 20
228.900104
 30
0.0
 10
228.414226
 20
228.900104
 30
0.0
 10
250.414226
 20
250.900104
 30
0.0
 10
294.216372
 20
250.900104
 30
0.0
  0
SPLINE
  5
39a
100
AcDbEntity
  8
0
 62
7
100
AcDbSpline
 70
8
 71
3
 72
8
 73
4
 74
0
 40
0
 40
0
 40
0
 40
0
 40
1
 40
1
 40
1
 40
1
 10
301.414226
 20
230.900104
 30
0.0
 10
301.414226
 20
229.471042
 30
0.0
 10
302.176621
 20
228.150534
 30
0.0
 10
303.414226
 20
227.436002
 30
0.0
  0
SPLINE
  5
39b
100
AcDbEntity
  8
0
 62
7
100
AcDbSpline
 70
8
 71
3
 72
8
 73
4
 74
0
 40
0
 40
0
 40
0
 40
0
 40
1
 40
1
 40
1
 40
1
 10
303.414226
 20
227.436002
 30
0.0
 10
304.651830
 20
226.721471
 30
0.0
 10
306.176621
 20
226.721471
 30
0.0
 10
307.414226
 20
227.436002
 30
0.0
  0
SPLINE
  5
39c
100
AcDbEntity
  8
0
 62
7
100
AcDbSpline
 70
8
 71
3
 72
8
 73
4
 74
0
 40
0
 40
0
 40
0
 40
0
 40
1
 40
1
 40
1
 40
1
 10
307.414226
 20
227.436002
 30
0.0
 10
308.651830
 20
228.150534
 30
0.0
 10
309.414226
 20
229.471042
 30
0.0
 10
309.414226
 20
230.900104
 30
0.0
  0
LWPOLYLINE
  5
39d
100
AcDbEntity
  8
0
 62
7
100
AcDbPolyline
 90
2
 70
1
 10
301.414226
 20
243.900104
 30
0.0
 10
301.414226
 20
230.900104
 30
0.0
  0
SPLINE
  5
39e
100
AcDbEntity
  8
0
 62
7
100
AcDbSpline
 70
8
 71
3
 72
8
 73
4
 74
0
 40
0
 40
0
 40
0
 40
0
 40
1
 40
1
 40
1
 40
1
 10
309.414226
 20
243.900104
 30
0.0
 10
314.208783
 20
245.595236
 30
0.0
 10
317.414226
 20
250.128417
 30
0.0
 10
317.414226
 20
255.213813
 30
0.0
  0
LWPOLYLINE
  5
39f
100
AcDbEntity
  8
0
 62
7
100
AcDbPolyline
 90
2
 70
1
 10
309.414226
 20
230.900104
 30
0.0
 10
309.414226
 20
243.900104
 30
0.0
  0
SPLINE
  5
3a0
100
AcDbEntity
  8
0
 62
7
100
AcDbSpline
 70
8
 71
3
 72
8
 73
4
 74
0
 40
0
 40
0
 40
0
 40
0
 40
1
 40
1
 40
1
 40
1
 10
317.414226
 20
257.900104
 30
0.0
 10
317.414226
 20
257.900104
 30
0.0
 10
327.414226
 20
257.900104
 30
0.0
 10
327.414226
 20
257.900104
 30
0.0
  0
SPLINE
  5
3a1
100
AcDbEntity
  8
0
 62
7
100
AcDbSpline
 70
8
 71
3
 72
8
 73
4
 74
0
 40
0
 40
0
 40
0
 40
0
 40
1
 40
1
 40
1
 40
1
 10
327.414226
 20
257.900104
 30
0.0
 10
329.535958
 20
257.900104
 30
0.0
 10
331.570789
 20
258.742959
 30
0.0
 10
333.071080
 20
260.243250
 30
0.0
  0
SPLINE
  5
3a2
100
AcDbEntity
  8
0
 62
7
100
AcDbSpline
 70
8
 71
3
 72
8
 73
4
 74
0
 40
0
 40
0
 40
0
 40
0
 40
1
 40
1
 40
1
 40
1
 10
333.071080
 20
260.243250
 30
0.0
 10
334.571371
 20
261.743541
 30
0.0
 10
335.414226
 20
263.778372
 30
0.0
 10
335.414226
 20
265.900104
 30
0.0
  0
SPLINE
  5
3a3
100
AcDbEntity
  8
0
 62
7
100
AcDbSpline
 70
8
 71
3
 72
8
 73
4
 74
0
 40
0
 40
0
 40
0
 40
0
 40
1
 40
1
 40
1
 40
1
 10
335.414226
 20
265.900104
 30
0.0
 10
335.414226
 20
265.900104
 30
0.0
 10
335.414226
 20
522.900104
 30
0.0
 10
335.414226
 20
522.900104
 30
0.0
  0
SPLINE
  5
3a4
100
AcDbEntity
  8
0
 62
7
100
AcDbSpline
 70
8
 71
3
 72
8
 73
4
 74
0
 40
0
 40
0
 40
0
 40
0
 40
1
 40
1
 40
1
 40
1
 10
335.414226
 20
522.900104
 30
0.0
 10
335.414226
 20
527.318382
 30
0.0
 10
331.832504
 20
530.900104
 30
0.0
 10
327.414226
 20
530.900104
 30
0.0
  0
LWPOLYLINE
  5
3a5
100
AcDbEntity
  8
0
 62
7
100
AcDbPolyline
 90
2
 70
1
 10
317.414226
 20
255.213813
 30
0.0
 10
317.414226
 20
257.900104
 30
0.0
  0
SPLINE
  5
3a6
100
AcDbEntity
  8
0
 62
7
100
AcDbSpline
 70
8
 71
3
 72
8
 73
4
 74
0
 40
0
 40
0
 40
0
 40
0
 40
1
 40
1
 40
1
 40
1
 10
113.414226
 20
530.900104
 30
0.0
 10
108.995948
 20
530.900104
 30
0.0
 10
105.414226
 20
527.318382
 30
0.0
 10
105.414226
 20
522.900104
 30
0.0
  0
SPLINE
  5
3a7
100
AcDbEntity
  8
0
 62
7
100
AcDbSpline
 70
8
 71
3
 72
8
 73
4
 74
0
 40
0
 40
0
 40
0
 40
0
 40
1
 40
1
 40
1
 40
1
 10
105.414226
 20
522.900104
 30
0.0
 10
105.414226
 20
522.900104
 30
0.0
 10
105.414226
 20
265.900104
 30
0.0
 10
105.414226
 20
265.900104
 30
0.0
  0
SPLINE
  5
3a8
100
AcDbEntity
  8
0
 62
7
100
AcDbSpline
 70
8
 71
3
 72
8
 73
4
 74
0
 40
0
 40
0
 40
0
 40
0
 40
1
 40
1
 40
1
 40
1
 10
105.414226
 20
265.900104
 30
0.0
 10
105.414226
 20
261.481826
 30
0.0
 10
108.995948
 20
257.900104
 30
0.0
 10
113.414226
 20
257.900104
 30
0.0
  0
LWPOLYLINE
  5
3a9
100
AcDbEntity
  8
0
 62
7
100
AcDbPolyline
 90
2
 70
1
 10
327.414226
 20
530.900104
 30
0.0
 10
113.414226
 20
530.900104
 30
0.0
  0
SPLINE
  5
3aa
100
AcDbEntity
  8
0
 62
7
100
AcDbSpline
 70
8
 71
3
 72
8
 73
4
 74
0
 40
0
 40
0
 40
0
 40
0
 40
1
 40
1
 40
1
 40
1
 10
123.414226
 20
257.900104
 30
0.0
 10
123.414226
 20
257.900104
 30
0.0
 10
123.414226
 20
255.213813
 30
0.0
 10
123.414226
 20
255.213813
 30
0.0
  0
SPLINE
  5
3ab
100
AcDbEntity
  8
0
 62
7
100
AcDbSpline
 70
8
 71
3
 72
8
 73
4
 74
0
 40
0
 40
0
 40
0
 40
0
 40
1
 40
1
 40
1
 40
1
 10
123.414226
 20
255.213813
 30
0.0
 10
123.414226
 20
250.128417
 30
0.0
 10
126.619668
 20
245.595236
 30
0.0
 10
131.414226
 20
243.900104
 30
0.0
  0
SPLINE
  5
3ac
100
AcDbEntity
  8
0
 62
7
100
AcDbSpline
 70
8
 71
3
 72
8
 73
4
 74
0
 40
0
 40
0
 40
0
 40
0
 40
1
 40
1
 40
1
 40
1
 10
131.414226
 20
243.900104
 30
0.0
 10
131.414226
 20
243.900104
 30
0.0
 10
131.414226
 20
230.900104
 30
0.0
 10
131.414226
 20
230.900104
 30
0.0
  0
SPLINE
  5
3ad
100
AcDbEntity
  8
0
 62
7
100
AcDbSpline
 70
8
 71
3
 72
8
 73
4
 74
0
 40
0
 40
0
 40
0
 40
0
 40
1
 40
1
 40
1
 40
1
 10
131.414226
 20
230.900104
 30
0.0
 10
131.414226
 20
229.471042
 30
0.0
 10
132.176621
 20
228.150534
 30
0.0
 10
133.414226
 20
227.436002
 30
0.0
  0
SPLINE
  5
3ae
100
AcDbEntity
  8
0
 62
7
100
AcDbSpline
 70
8
 71
3
 72
8
 73
4
 74
0
 40
0
 40
0
 40
0
 40
0
 40
1
 40
1
 40
1
 40
1
 10
133.414226
 20
227.436002
 30
0.0
 10
134.651830
 20
226.721471
 30
0.0
 10
136.176621
 20
226.721471
 30
0.0
 10
137.414226
 20
227.436002
 30
0.0
  0
SPLINE
  5
3af
100
AcDbEntity
  8
0
 62
7
100
AcDbSpline
 70
8
 71
3
 72
8
 73
4
 74
0
 40
0
 40
0
 40
0
 40
0
 40
1
 40
1
 40
1
 40
1
 10
137.414226
 20
227.436002
 30
0.0
 10
138.651830
 20
228.150534
 30
0.0
 10
139.414226
 20
229.471042
 30
0.0
 10
139.414226
 20
230.900104
 30
0.0
  0
LWPOLYLINE
  5
3b0
100
AcDbEntity
  8
0
 62
7
100
AcDbPolyline
 90
2
 70
1
 10
113.414226
 20
257.900104
 30
0.0
 10
123.414226
 20
257.900104
 30
0.0
  0
LWPOLYLINE
  5
3b1
100
AcDbEntity
  8
0
 62
7
100
AcDbPolyline
 90
2
 70
1
 10
139.414226
 20
230.900104
 30
0.0
 10
139.414226
 20
230.900104
 30
0.0
  0
SPLINE
  5
3b2
100
AcDbEntity
  8
0
 62
7
100
AcDbSpline
 70
8
 71
3
 72
8
 73
4
 74
0
 40
0
 40
0
 40
0
 40
0
 40
1
 40
1
 40
1
 40
1
 10
285.007004
 20
145.574508
 30
0.0
 10
285.007004
 20
144.248426
 30
0.0
 10
285.533788
 20
142.976656
 30
0.0
 10
286.471470
 20
142.038974
 30
0.0
  0
SPLINE
  5
3b3
100
AcDbEntity
  8
0
 62
7
100
AcDbSpline
 70
8
 71
3
 72
8
 73
4
 74
0
 40
0
 40
0
 40
0
 40
0
 40
1
 40
1
 40
1
 40
1
 10
286.471470
 20
142.038974
 30
0.0
 10
287.409152
 20
141.101292
 30
0.0
 10
288.680922
 20
140.574508
 30
0.0
 10
290.007004
 20
140.574508
 30
0.0
  0
LWPOLYLINE
  5
3b4
100
AcDbEntity
  8
0
 62
7
100
AcDbPolyline
 90
22
 70
1
 10
328.207004
 20
190.574508
 30
0.0
 10
328.207004
 20
196.924508
 30
0.0
 10
322.207004
 20
196.924508
 30
0.0
 10
322.207004
 20
190.574508
 30
0.0
 10
316.207004
 20
190.574508
 30
0.0
 10
316.207004
 20
184.574508
 30
0.0
 10
317.457004
 20
184.574508
 30
0.0
 10
317.457004
 20
182.574508
 30
0.0
 10
316.207004
 20
182.574508
 30
0.0
 10
316.207004
 20
179.924508
 30
0.0
 10
313.207004
 20
179.924508
 30
0.0
 10
313.207004
 20
182.574508
 30
0.0
 10
311.957004
 20
182.574508
 30
0.0
 10
311.957004
 20
184.574508
 30
0.0
 10
313.207004
 20
184.574508
 30
0.0
 10
313.207004
 20
190.574508
 30
0.0
 10
307.207004
 20
190.574508
 30
0.0
 10
307.207004
 20
196.924508
 30
0.0
 10
301.207004
 20
196.924508
 30
0.0
 10
301.207004
 20
190.574508
 30
0.0
 10
285.007004
 20
190.574508
 30
0.0
 10
285.007004
 20
145.574508
 30
0.0
  0
SPLINE
  5
3b5
100
AcDbEntity
  8
0
 62
7
100
AcDbSpline
 70
8
 71
3
 72
8
 73
4
 74
0
 40
0
 40
0
 40
0
 40
0
 40
1
 40
1
 40
1
 40
1
 10
340.007004
 20
140.574508
 30
0.0
 10
341.333087
 20
140.574508
 30
0.0
 10
342.604856
 20
141.101292
 30
0.0
 10
343.542538
 20
142.038974
 30
0.0
  0
SPLINE
  5
3b6
100
AcDbEntity
  8
0
 62
7
100
AcDbSpline
 70
8
 71
3
 72
8
 73
4
 74
0
 40
0
 40
0
 40
0
 40
0
 40
1
 40
1
 40
1
 40
1
 10
343.542538
 20
142.038974
 30
0.0
 10
344.480220
 20
142.976656
 30
0.0
 10
345.007004
 20
144.248426
 30
0.0
 10
345.007004
 20
145.574508
 30
0.0
  0
LWPOLYLINE
  5
3b7
100
AcDbEntity
  8
0
 62
7
100
AcDbPolyline
 90
2
 70
1
 10
290.007004
 20
140.574508
 30
0.0
 10
340.007004
 20
140.574508
 30
0.0
  0
LWPOLYLINE
  5
3b8
100
AcDbEntity
  8
0
 62
7
100
AcDbPolyline
 90
4
 70
1
 10
345.007004
 20
145.574508
 30
0.0
 10
345.007004
 20
190.574508
 30
0.0
 10
328.207004
 20
190.574508
 30
0.0
 10
328.207004
 20
190.574508
 30
0.0
  0
ENDSEC
  0
SECTION
  2
OBJECTS
  0
DICTIONARY
  5
C
330
0
100
AcDbDictionary
  3
ACAD_GROUP
350
D
  3
ACAD_MLINESTYLE
350
17
  0
DICTIONARY
  5
D
330
C
100
AcDbDictionary
  0
DICTIONARY
  5
1A
330
C
100
AcDbDictionary
  0
DICTIONARY
  5
17
330
C
100
AcDbDictionary
  3
STANDARD
350
18
  0
DICTIONARY
  5
19
330
C
100
AcDbDictionary
  0
ENDSEC
  0
EOF
