<?xml version="1.0" encoding="UTF-8" standalone="no"?>
<svg
   xmlns:dc="http://purl.org/dc/elements/1.1/"
   xmlns:cc="http://creativecommons.org/ns#"
   xmlns:rdf="http://www.w3.org/1999/02/22-rdf-syntax-ns#"
   xmlns:svg="http://www.w3.org/2000/svg"
   xmlns="http://www.w3.org/2000/svg"
   version="1.1"
   id="svg3363"
   height="1052.36220472"
   width="744.094488189">
  <metadata
     id="metadata3764">
    <rdf:RDF>
      <cc:Work
         rdf:about="">
        <dc:format>image/svg+xml</dc:format>
        <dc:type
           rdf:resource="http://purl.org/dc/dcmitype/StillImage" />
        <dc:title></dc:title>
      </cc:Work>
    </rdf:RDF>
  </metadata>
  <desc
     id="desc3365">/home/m3rcury/Belgeler/kalkodon/prusa_i3/Prusa-i3/Prusa_i3_Frame_V2_Laser_Cut_Parts.dxf - scale = 1.000000, origin = (0.000000, 0.000000), auto = False</desc>
  <defs
     id="defs3367">
    <marker
       style="overflow:visible"
       refY="0.0"
       refX="0.0"
       orient="auto"
       id="DistanceX">
      <path
         id="path3370"
         style="stroke:#000000; stroke-width:0.5"
         d="M 3,-3 L -3,3 M 0,-5 L  0,5" />
    </marker>
    <pattern
       y="0"
       x="0"
       width="8"
       patternUnits="userSpaceOnUse"
       id="Hatch"
       height="8">
      <path
         id="path3373"
         stroke-width="0.25"
         stroke="#000000"
         linecap="square"
         d="M8 4 l-4,4" />
      <path
         id="path3375"
         stroke-width="0.25"
         stroke="#000000"
         linecap="square"
         d="M6 2 l-4,4" />
      <path
         id="path3377"
         stroke-width="0.25"
         stroke="#000000"
         linecap="square"
         d="M4 0 l-4,4" />
    </pattern>
    <symbol
       id="*Model_Space" />
    <symbol
       id="*Paper_Space" />
    <symbol
       id="*Paper_Space0" />
  </defs>
  <g
     id="g3382">
    <path
       id="path3384"
       style="stroke:#000000;stroke-width:0.5;fill:none;stroke-linecap: round"
       d="M 412.751031,-45.746022 A 5.669291,5.669291 -0.000000 1 0 401.412448,-45.746022 5.669291,5.669291 -0.000000 1 0 412.751031,-45.746022 z" />
    <path
       id="path3386"
       style="stroke:#000000;stroke-width:0.5;fill:none;stroke-linecap: round"
       d="M 783.026621,-495.746022 A 5.669291,5.669291 -0.000000 1 0 771.688039,-495.746022 5.669291,5.669291 -0.000000 1 0 783.026621,-495.746022 z" />
    <path
       id="path3388"
       style="stroke:#000000;stroke-width:0.5;fill:none;stroke-linecap: round"
       d="M 1137.357330,-416.021613 A 5.669291,5.669291 -0.000000 1 0 1126.018747,-416.021613 5.669291,5.669291 -0.000000 1 0 1137.357330,-416.021613 z" />
    <path
       id="path3390"
       style="stroke:#000000;stroke-width:0.5;fill:none;stroke-linecap: round"
       d="M 1031.058117,-416.021613 A 5.669291,5.669291 -0.000000 1 0 1019.719535,-416.021613 5.669291,5.669291 -0.000000 1 0 1031.058117,-416.021613 z" />
    <path
       id="path3392"
       style="stroke:#000000;stroke-width:0.5;fill:none;stroke-linecap: round"
       d="M 783.026621,-336.297204 A 5.669291,5.669291 -0.000000 1 0 771.688039,-336.297204 5.669291,5.669291 -0.000000 1 0 783.026621,-336.297204 z" />
    <path
       id="path3394"
       style="stroke:#000000;stroke-width:0.5;fill:none;stroke-linecap: round"
       d="M 428.695913,-292.005865 A 5.669291,5.669291 -0.000000 1 0 417.357330,-292.005865 5.669291,5.669291 -0.000000 1 0 428.695913,-292.005865 z" />
    <path
       id="path3396"
       style="stroke:#000000;stroke-width:0.5;fill:none;stroke-linecap: round"
       d="M 534.995125,-292.005865 A 5.669291,5.669291 -0.000000 1 0 523.656543,-292.005865 5.669291,5.669291 -0.000000 1 0 534.995125,-292.005865 z" />
    <path
       id="path3398"
       style="stroke:#000000;stroke-width:0.5;fill:none;stroke-linecap: round"
       d="M 534.995125,-540.037361 A 5.669291,5.669291 -0.000000 1 0 523.656543,-540.037361 5.669291,5.669291 -0.000000 1 0 534.995125,-540.037361 z" />
    <path
       id="path3400"
       style="stroke:#000000;stroke-width:0.5;fill:none;stroke-linecap: round"
       d="M 428.695913,-540.037361 A 5.669291,5.669291 -0.000000 1 0 417.357330,-540.037361 5.669291,5.669291 -0.000000 1 0 428.695913,-540.037361 z" />
    <path
       id="path3402"
       style="stroke:#000000;stroke-width:0.5;fill:none;stroke-linecap: round"
       d="M 412.751031,-786.297204 A 5.669291,5.669291 -0.000000 1 0 401.412448,-786.297204 5.669291,5.669291 -0.000000 1 0 412.751031,-786.297204 z" />
    <path
       id="path3404"
       style="stroke:#000000;stroke-width:0.5;fill:none;stroke-linecap: round"
       d="M 1153.302212,-786.297204 A 5.669291,5.669291 -0.000000 1 0 1141.963629,-786.297204 5.669291,5.669291 -0.000000 1 0 1153.302212,-786.297204 z" />
    <path
       id="path3406"
       style="stroke:#000000;stroke-width:0.5;fill:none;stroke-linecap: round"
       d="M 1153.302212,-45.746022 A 5.669291,5.669291 -0.000000 1 0 1141.963629,-45.746022 5.669291,5.669291 -0.000000 1 0 1153.302212,-45.746022 z" />
    <path
       id="path3408"
       style="stroke:#000000;stroke-width:0.5;fill:none;stroke-linecap: round"
       d="M 200.955918,116.663017 A 5.669291,5.669291 -0.000000 1 0 189.617335,116.663017 5.669291,5.669291 -0.000000 1 0 200.955918,116.663017 z" />
    <path
       id="path3410"
       style="stroke:#000000;stroke-width:0.5;fill:none;stroke-linecap: round"
       d="M 270.936232,189.920891 293.436232,189.920891" />
    <path
       id="path3412"
       style="stroke:#000000;stroke-width:0.5;fill:none;stroke-linecap: round"
       d="M 293.436232,189.920891 293.436232,168.661048" />
    <path
       id="path3414"
       style="stroke:#000000;stroke-width:0.5;fill:none;stroke-linecap: round"
       d="M 293.436232,168.661048 270.936232,168.661048" />
    <path
       id="path3416"
       style="stroke:#000000;stroke-width:0.5;fill:none;stroke-linecap: round"
       d="M 270.936232,168.661048 270.936232,189.920891" />
    <path
       id="path3418"
       style="stroke:#000000;stroke-width:0.5;fill:none;stroke-linecap: round"
       d="M 293.436232,243.070497 270.936232,243.070497" />
    <path
       id="path3420"
       style="stroke:#000000;stroke-width:0.5;fill:none;stroke-linecap: round"
       d="M 270.936232,243.070497 270.936232,264.330340" />
    <path
       id="path3422"
       style="stroke:#000000;stroke-width:0.5;fill:none;stroke-linecap: round"
       d="M 270.936232,264.330340 293.436232,264.330340" />
    <path
       id="path3424"
       style="stroke:#000000;stroke-width:0.5;fill:none;stroke-linecap: round"
       d="M 293.436232,264.330340 293.436232,243.070497" />
    <path
       id="path3426"
       style="stroke:#000000;stroke-width:0.5;fill:none;stroke-linecap: round"
       d="M 119.637020,264.330340 119.637020,243.070497" />
    <path
       id="path3428"
       style="stroke:#000000;stroke-width:0.5;fill:none;stroke-linecap: round"
       d="M 119.637020,243.070497 97.137020,243.070497" />
    <path
       id="path3430"
       style="stroke:#000000;stroke-width:0.5;fill:none;stroke-linecap: round"
       d="M 97.137020,243.070497 97.137020,264.330340" />
    <path
       id="path3432"
       style="stroke:#000000;stroke-width:0.5;fill:none;stroke-linecap: round"
       d="M 97.137020,264.330340 119.637020,264.330340" />
    <path
       id="path3434"
       style="stroke:#000000;stroke-width:0.5;fill:none;stroke-linecap: round"
       d="M 119.637020,189.920891 119.637020,168.661048" />
    <path
       id="path3436"
       style="stroke:#000000;stroke-width:0.5;fill:none;stroke-linecap: round"
       d="M 119.637020,168.661048 97.137020,168.661048" />
    <path
       id="path3438"
       style="stroke:#000000;stroke-width:0.5;fill:none;stroke-linecap: round"
       d="M 97.137020,168.661048 97.137020,189.920891" />
    <path
       id="path3440"
       style="stroke:#000000;stroke-width:0.5;fill:none;stroke-linecap: round"
       d="M 97.137020,189.920891 119.637020,189.920891" />
    <path
       id="path3442"
       style="stroke:#000000;stroke-width:0.5;fill:none;stroke-linecap: round"
       d="M 221.861429,105.413017 221.861429,127.913017" />
    <path
       id="path3444"
       style="stroke:#000000;stroke-width:0.5;fill:none;stroke-linecap: round"
       d="M 221.861429,127.913017 243.121272,127.913017" />
    <path
       id="path3446"
       style="stroke:#000000;stroke-width:0.5;fill:none;stroke-linecap: round"
       d="M 243.121272,127.913017 243.121272,105.413017" />
    <path
       id="path3448"
       style="stroke:#000000;stroke-width:0.5;fill:none;stroke-linecap: round"
       d="M 243.121272,105.413017 221.861429,105.413017" />
    <path
       id="path3450"
       style="stroke:#000000;stroke-width:0.5;fill:none;stroke-linecap: round"
       d="M 147.451981,105.413017 147.451981,127.913017" />
    <path
       id="path3452"
       style="stroke:#000000;stroke-width:0.5;fill:none;stroke-linecap: round"
       d="M 147.451981,127.913017 168.711823,127.913017" />
    <path
       id="path3454"
       style="stroke:#000000;stroke-width:0.5;fill:none;stroke-linecap: round"
       d="M 168.711823,127.913017 168.711823,105.413017" />
    <path
       id="path3456"
       style="stroke:#000000;stroke-width:0.5;fill:none;stroke-linecap: round"
       d="M 168.711823,105.413017 147.451981,105.413017" />
    <path
       id="path3458"
       style="stroke:#000000;stroke-width:0.5;fill:none;stroke-linecap: round"
       d="M 360.847650,-917.362574 A 5.669291,5.669291 -0.000000 1 0 349.509067,-917.362574 5.669291,5.669291 -0.000000 1 0 360.847650,-917.362574 z" />
    <path
       id="path3460"
       style="stroke:#000000;stroke-width:0.5;fill:none;stroke-linecap: round"
       d="M 360.847650,-350.433440 A 5.669291,5.669291 -0.000000 1 0 349.509067,-350.433440 5.669291,5.669291 -0.000000 1 0 360.847650,-350.433440 z" />
    <path
       id="path3462"
       style="stroke:#000000;stroke-width:0.5;fill:none;stroke-linecap: round"
       d="M 1351.467729,276.731915 1379.814185,276.731915" />
    <path
       id="path3464"
       style="stroke:#000000;stroke-width:0.5;fill:none;stroke-linecap: round"
       d="M 1379.814185,276.731915 A 14.173228,14.173228 -0.000000 0 0 1379.814185,248.385458" />
    <path
       id="path3466"
       style="stroke:#000000;stroke-width:0.5;fill:none;stroke-linecap: round"
       d="M 1379.814185,248.385458 1351.467729,248.385458" />
    <path
       id="path3468"
       style="stroke:#000000;stroke-width:0.5;fill:none;stroke-linecap: round"
       d="M 1351.467729,248.385458 A 14.173228,14.173228 -0.000000 1 0 1351.467729,276.731915" />
    <path
       id="path3470"
       style="stroke:#000000;stroke-width:0.5;fill:none;stroke-linecap: round"
       d="M 182.176390,276.731915 210.522847,276.731915" />
    <path
       id="path3472"
       style="stroke:#000000;stroke-width:0.5;fill:none;stroke-linecap: round"
       d="M 210.522847,276.731915 A 14.173228,14.173228 -0.000000 0 0 210.522847,248.385458" />
    <path
       id="path3474"
       style="stroke:#000000;stroke-width:0.5;fill:none;stroke-linecap: round"
       d="M 210.522847,248.385458 182.176390,248.385458" />
    <path
       id="path3476"
       style="stroke:#000000;stroke-width:0.5;fill:none;stroke-linecap: round"
       d="M 182.176390,248.385458 A 14.173228,14.173228 -0.000000 1 0 182.176390,276.731915" />
    <path
       id="path3478"
       style="stroke:#000000;stroke-width:0.5;fill:none;stroke-linecap: round"
       d="M 366.428358,-943.937377 366.428358,-965.197219" />
    <path
       id="path3480"
       style="stroke:#000000;stroke-width:0.5;fill:none;stroke-linecap: round"
       d="M 366.428358,-965.197219 343.928358,-965.197219" />
    <path
       id="path3482"
       style="stroke:#000000;stroke-width:0.5;fill:none;stroke-linecap: round"
       d="M 343.928358,-965.197219 343.928358,-943.937377" />
    <path
       id="path3484"
       style="stroke:#000000;stroke-width:0.5;fill:none;stroke-linecap: round"
       d="M 343.928358,-943.937377 366.428358,-943.937377" />
    <path
       id="path3486"
       style="stroke:#000000;stroke-width:0.5;fill:none;stroke-linecap: round"
       d="M 343.928358,-869.527928 366.428358,-869.527928" />
    <path
       id="path3488"
       style="stroke:#000000;stroke-width:0.5;fill:none;stroke-linecap: round"
       d="M 366.428358,-869.527928 366.428358,-890.787770" />
    <path
       id="path3490"
       style="stroke:#000000;stroke-width:0.5;fill:none;stroke-linecap: round"
       d="M 366.428358,-890.787770 343.928358,-890.787770" />
    <path
       id="path3492"
       style="stroke:#000000;stroke-width:0.5;fill:none;stroke-linecap: round"
       d="M 343.928358,-890.787770 343.928358,-869.527928" />
    <path
       id="path3494"
       style="stroke:#000000;stroke-width:0.5;fill:none;stroke-linecap: round"
       d="M 366.428358,189.920891 366.428358,168.661048" />
    <path
       id="path3496"
       style="stroke:#000000;stroke-width:0.5;fill:none;stroke-linecap: round"
       d="M 366.428358,168.661048 343.928358,168.661048" />
    <path
       id="path3498"
       style="stroke:#000000;stroke-width:0.5;fill:none;stroke-linecap: round"
       d="M 343.928358,168.661048 343.928358,189.920891" />
    <path
       id="path3500"
       style="stroke:#000000;stroke-width:0.5;fill:none;stroke-linecap: round"
       d="M 343.928358,189.920891 366.428358,189.920891" />
    <path
       id="path3502"
       style="stroke:#000000;stroke-width:0.5;fill:none;stroke-linecap: round"
       d="M 366.428358,243.070497 343.928358,243.070497" />
    <path
       id="path3504"
       style="stroke:#000000;stroke-width:0.5;fill:none;stroke-linecap: round"
       d="M 343.928358,243.070497 343.928358,264.330340" />
    <path
       id="path3506"
       style="stroke:#000000;stroke-width:0.5;fill:none;stroke-linecap: round"
       d="M 343.928358,264.330340 366.428358,264.330340" />
    <path
       id="path3508"
       style="stroke:#000000;stroke-width:0.5;fill:none;stroke-linecap: round"
       d="M 366.428358,264.330340 366.428358,243.070497" />
    <path
       id="path3510"
       style="stroke:#000000;stroke-width:0.5;fill:none;stroke-linecap: round"
       d="M 366.428358,-377.008243 366.428358,-398.268085" />
    <path
       id="path3512"
       style="stroke:#000000;stroke-width:0.5;fill:none;stroke-linecap: round"
       d="M 366.428358,-398.268085 343.928358,-398.268085" />
    <path
       id="path3514"
       style="stroke:#000000;stroke-width:0.5;fill:none;stroke-linecap: round"
       d="M 343.928358,-398.268085 343.928358,-377.008243" />
    <path
       id="path3516"
       style="stroke:#000000;stroke-width:0.5;fill:none;stroke-linecap: round"
       d="M 343.928358,-377.008243 366.428358,-377.008243" />
    <path
       id="path3518"
       style="stroke:#000000;stroke-width:0.5;fill:none;stroke-linecap: round"
       d="M 366.428358,-323.858637 343.928358,-323.858637" />
    <path
       id="path3520"
       style="stroke:#000000;stroke-width:0.5;fill:none;stroke-linecap: round"
       d="M 343.928358,-323.858637 343.928358,-302.598794" />
    <path
       id="path3522"
       style="stroke:#000000;stroke-width:0.5;fill:none;stroke-linecap: round"
       d="M 343.928358,-302.598794 366.428358,-302.598794" />
    <path
       id="path3524"
       style="stroke:#000000;stroke-width:0.5;fill:none;stroke-linecap: round"
       d="M 366.428358,-302.598794 366.428358,-323.858637" />
    <path
       id="path3526"
       style="stroke:#000000;stroke-width:0.5;fill:none;stroke-linecap: round"
       d="M 360.847650,216.495694 A 5.669291,5.669291 -0.000000 1 0 349.509067,216.495694 5.669291,5.669291 -0.000000 1 0 360.847650,216.495694 z" />
    <path
       id="path3528"
       style="stroke:#000000;stroke-width:0.5;fill:none;stroke-linecap: round"
       d="M 287.855524,216.495694 A 5.669291,5.669291 -0.000000 1 0 276.516941,216.495694 5.669291,5.669291 -0.000000 1 0 287.855524,216.495694 z" />
    <path
       id="path3530"
       style="stroke:#000000;stroke-width:0.5;fill:none;stroke-linecap: round"
       d="M 114.056311,216.495694 A 5.669291,5.669291 -0.000000 1 0 102.717729,216.495694 5.669291,5.669291 -0.000000 1 0 114.056311,216.495694 z" />
    <path
       id="path3532"
       style="stroke:#000000;stroke-width:0.5;fill:none;stroke-linecap: round"
       d="M 1195.562217,-323.858637 1218.062217,-323.858637" />
    <path
       id="path3534"
       style="stroke:#000000;stroke-width:0.5;fill:none;stroke-linecap: round"
       d="M 1195.562217,-302.598794 1195.562217,-323.858637" />
    <path
       id="path3536"
       style="stroke:#000000;stroke-width:0.5;fill:none;stroke-linecap: round"
       d="M 1218.062217,-302.598794 1195.562217,-302.598794" />
    <path
       id="path3538"
       style="stroke:#000000;stroke-width:0.5;fill:none;stroke-linecap: round"
       d="M 1218.062217,-323.858637 1218.062217,-302.598794" />
    <path
       id="path3540"
       style="stroke:#000000;stroke-width:0.5;fill:none;stroke-linecap: round"
       d="M 1195.562217,-943.937377 1195.562217,-965.197219" />
    <path
       id="path3542"
       style="stroke:#000000;stroke-width:0.5;fill:none;stroke-linecap: round"
       d="M 1218.062217,-943.937377 1195.562217,-943.937377" />
    <path
       id="path3544"
       style="stroke:#000000;stroke-width:0.5;fill:none;stroke-linecap: round"
       d="M 1218.062217,-965.197219 1218.062217,-943.937377" />
    <path
       id="path3546"
       style="stroke:#000000;stroke-width:0.5;fill:none;stroke-linecap: round"
       d="M 1195.562217,-965.197219 1218.062217,-965.197219" />
    <path
       id="path3548"
       style="stroke:#000000;stroke-width:0.5;fill:none;stroke-linecap: round"
       d="M 1218.062217,-869.527928 1195.562217,-869.527928" />
    <path
       id="path3550"
       style="stroke:#000000;stroke-width:0.5;fill:none;stroke-linecap: round"
       d="M 1218.062217,-890.787770 1218.062217,-869.527928" />
    <path
       id="path3552"
       style="stroke:#000000;stroke-width:0.5;fill:none;stroke-linecap: round"
       d="M 1195.562217,-890.787770 1218.062217,-890.787770" />
    <path
       id="path3554"
       style="stroke:#000000;stroke-width:0.5;fill:none;stroke-linecap: round"
       d="M 1195.562217,-869.527928 1195.562217,-890.787770" />
    <path
       id="path3556"
       style="stroke:#000000;stroke-width:0.5;fill:none;stroke-linecap: round"
       d="M 1195.562217,189.920891 1195.562217,168.661048" />
    <path
       id="path3558"
       style="stroke:#000000;stroke-width:0.5;fill:none;stroke-linecap: round"
       d="M 1218.062217,189.920891 1195.562217,189.920891" />
    <path
       id="path3560"
       style="stroke:#000000;stroke-width:0.5;fill:none;stroke-linecap: round"
       d="M 1218.062217,168.661048 1218.062217,189.920891" />
    <path
       id="path3562"
       style="stroke:#000000;stroke-width:0.5;fill:none;stroke-linecap: round"
       d="M 1195.562217,168.661048 1218.062217,168.661048" />
    <path
       id="path3564"
       style="stroke:#000000;stroke-width:0.5;fill:none;stroke-linecap: round"
       d="M 1195.562217,243.070497 1218.062217,243.070497" />
    <path
       id="path3566"
       style="stroke:#000000;stroke-width:0.5;fill:none;stroke-linecap: round"
       d="M 1195.562217,264.330340 1195.562217,243.070497" />
    <path
       id="path3568"
       style="stroke:#000000;stroke-width:0.5;fill:none;stroke-linecap: round"
       d="M 1218.062217,264.330340 1195.562217,264.330340" />
    <path
       id="path3570"
       style="stroke:#000000;stroke-width:0.5;fill:none;stroke-linecap: round"
       d="M 1218.062217,243.070497 1218.062217,264.330340" />
    <path
       id="path3572"
       style="stroke:#000000;stroke-width:0.5;fill:none;stroke-linecap: round"
       d="M 1195.562217,-377.008243 1195.562217,-398.268085" />
    <path
       id="path3574"
       style="stroke:#000000;stroke-width:0.5;fill:none;stroke-linecap: round"
       d="M 1218.062217,-377.008243 1195.562217,-377.008243" />
    <path
       id="path3576"
       style="stroke:#000000;stroke-width:0.5;fill:none;stroke-linecap: round"
       d="M 1218.062217,-398.268085 1218.062217,-377.008243" />
    <path
       id="path3578"
       style="stroke:#000000;stroke-width:0.5;fill:none;stroke-linecap: round"
       d="M 1195.562217,-398.268085 1218.062217,-398.268085" />
    <path
       id="path3580"
       style="stroke:#000000;stroke-width:0.5;fill:none;stroke-linecap: round"
       d="M 1212.481508,-917.362574 A 5.669291,5.669291 -0.000000 1 0 1201.142925,-917.362574 5.669291,5.669291 -0.000000 1 0 1212.481508,-917.362574 z" />
    <path
       id="path3582"
       style="stroke:#000000;stroke-width:0.5;fill:none;stroke-linecap: round"
       d="M 1212.481508,216.495694 A 5.669291,5.669291 -0.000000 1 0 1201.142925,216.495694 5.669291,5.669291 -0.000000 1 0 1212.481508,216.495694 z" />
    <path
       id="path3584"
       style="stroke:#000000;stroke-width:0.5;fill:none;stroke-linecap: round"
       d="M 1212.481508,-350.433440 A 5.669291,5.669291 -0.000000 1 0 1201.142925,-350.433440 5.669291,5.669291 -0.000000 1 0 1212.481508,-350.433440 z" />
    <path
       id="path3586"
       style="stroke:#000000;stroke-width:0.5;fill:none;stroke-linecap: round"
       d="M 1340.129146,105.413017 1340.129146,127.913017" />
    <path
       id="path3588"
       style="stroke:#000000;stroke-width:0.5;fill:none;stroke-linecap: round"
       d="M 1318.869303,105.413017 1340.129146,105.413017" />
    <path
       id="path3590"
       style="stroke:#000000;stroke-width:0.5;fill:none;stroke-linecap: round"
       d="M 1318.869303,127.913017 1318.869303,105.413017" />
    <path
       id="path3592"
       style="stroke:#000000;stroke-width:0.5;fill:none;stroke-linecap: round"
       d="M 1340.129146,127.913017 1318.869303,127.913017" />
    <path
       id="path3594"
       style="stroke:#000000;stroke-width:0.5;fill:none;stroke-linecap: round"
       d="M 1414.538595,105.413017 1414.538595,127.913017" />
    <path
       id="path3596"
       style="stroke:#000000;stroke-width:0.5;fill:none;stroke-linecap: round"
       d="M 1393.278752,105.413017 1414.538595,105.413017" />
    <path
       id="path3598"
       style="stroke:#000000;stroke-width:0.5;fill:none;stroke-linecap: round"
       d="M 1393.278752,127.913017 1393.278752,105.413017" />
    <path
       id="path3600"
       style="stroke:#000000;stroke-width:0.5;fill:none;stroke-linecap: round"
       d="M 1414.538595,127.913017 1393.278752,127.913017" />
    <path
       id="path3602"
       style="stroke:#000000;stroke-width:0.5;fill:none;stroke-linecap: round"
       d="M 1291.054343,189.920891 1268.554343,189.920891" />
    <path
       id="path3604"
       style="stroke:#000000;stroke-width:0.5;fill:none;stroke-linecap: round"
       d="M 1291.054343,168.661048 1291.054343,189.920891" />
    <path
       id="path3606"
       style="stroke:#000000;stroke-width:0.5;fill:none;stroke-linecap: round"
       d="M 1268.554343,168.661048 1291.054343,168.661048" />
    <path
       id="path3608"
       style="stroke:#000000;stroke-width:0.5;fill:none;stroke-linecap: round"
       d="M 1268.554343,189.920891 1268.554343,168.661048" />
    <path
       id="path3610"
       style="stroke:#000000;stroke-width:0.5;fill:none;stroke-linecap: round"
       d="M 1442.353555,189.920891 1442.353555,168.661048" />
    <path
       id="path3612"
       style="stroke:#000000;stroke-width:0.5;fill:none;stroke-linecap: round"
       d="M 1464.853555,189.920891 1442.353555,189.920891" />
    <path
       id="path3614"
       style="stroke:#000000;stroke-width:0.5;fill:none;stroke-linecap: round"
       d="M 1464.853555,168.661048 1464.853555,189.920891" />
    <path
       id="path3616"
       style="stroke:#000000;stroke-width:0.5;fill:none;stroke-linecap: round"
       d="M 1442.353555,168.661048 1464.853555,168.661048" />
    <path
       id="path3618"
       style="stroke:#000000;stroke-width:0.5;fill:none;stroke-linecap: round"
       d="M 1442.353555,264.330340 1442.353555,243.070497" />
    <path
       id="path3620"
       style="stroke:#000000;stroke-width:0.5;fill:none;stroke-linecap: round"
       d="M 1464.853555,264.330340 1442.353555,264.330340" />
    <path
       id="path3622"
       style="stroke:#000000;stroke-width:0.5;fill:none;stroke-linecap: round"
       d="M 1464.853555,243.070497 1464.853555,264.330340" />
    <path
       id="path3624"
       style="stroke:#000000;stroke-width:0.5;fill:none;stroke-linecap: round"
       d="M 1442.353555,243.070497 1464.853555,243.070497" />
    <path
       id="path3626"
       style="stroke:#000000;stroke-width:0.5;fill:none;stroke-linecap: round"
       d="M 1268.554343,243.070497 1291.054343,243.070497" />
    <path
       id="path3628"
       style="stroke:#000000;stroke-width:0.5;fill:none;stroke-linecap: round"
       d="M 1268.554343,264.330340 1268.554343,243.070497" />
    <path
       id="path3630"
       style="stroke:#000000;stroke-width:0.5;fill:none;stroke-linecap: round"
       d="M 1291.054343,264.330340 1268.554343,264.330340" />
    <path
       id="path3632"
       style="stroke:#000000;stroke-width:0.5;fill:none;stroke-linecap: round"
       d="M 1291.054343,243.070497 1291.054343,264.330340" />
    <path
       id="path3634"
       style="stroke:#000000;stroke-width:0.5;fill:none;stroke-linecap: round"
       d="M 1459.272847,216.495694 A 5.669291,5.669291 -0.000000 1 0 1447.934264,216.495694 5.669291,5.669291 -0.000000 1 0 1459.272847,216.495694 z" />
    <path
       id="path3636"
       style="stroke:#000000;stroke-width:0.5;fill:none;stroke-linecap: round"
       d="M 1372.373240,116.663017 A 5.669291,5.669291 -0.000000 1 0 1361.034658,116.663017 5.669291,5.669291 -0.000000 1 0 1372.373240,116.663017 z" />
    <path
       id="path3638"
       style="stroke:#000000;stroke-width:0.5;fill:none;stroke-linecap: round"
       d="M 1285.473634,216.495694 A 5.669291,5.669291 -0.000000 1 0 1274.135051,216.495694 5.669291,5.669291 -0.000000 1 0 1285.473634,216.495694 z" />
    <path
       id="path3640"
       style="stroke:#000000;stroke-width:0.5;fill:none;stroke-linecap: round"
       d="M 1816.690203,57.046875 A 5.669291,5.669291 -0.000000 1 0 1805.351621,57.046875 5.669291,5.669291 -0.000000 1 0 1816.690203,57.046875 z" />
    <path
       id="path3642"
       style="stroke:#000000;stroke-width:0.5;fill:none;stroke-linecap: round"
       d="M 1663.690203,57.046875 A 5.669291,5.669291 -0.000000 1 0 1652.351621,57.046875 5.669291,5.669291 -0.000000 1 0 1663.690203,57.046875 z" />
    <path
       id="path3644"
       style="stroke:#000000;stroke-width:0.5;fill:none;stroke-linecap: round"
       d="M 1663.690203,-275.953125 A 5.669291,5.669291 -0.000000 1 0 1652.351621,-275.953125 5.669291,5.669291 -0.000000 1 0 1663.690203,-275.953125 z" />
    <path
       id="path3646"
       style="stroke:#000000;stroke-width:0.5;fill:none;stroke-linecap: round"
       d="M 1816.690203,-275.953125 A 5.669291,5.669291 -0.000000 1 0 1805.351621,-275.953125 5.669291,5.669291 -0.000000 1 0 1816.690203,-275.953125 z" />
    <path
       id="path3648"
       style="stroke:#000000;stroke-width:0.5;fill:none;stroke-linecap: round"
       d="M 182.176390,748.523666 182.176390,801.673272" />
    <path
       id="path3650"
       style="stroke:#000000;stroke-width:0.5;fill:none;stroke-linecap: round"
       d="M 182.176390,748.523666 A 14.173228,14.173228 -0.000000 1 0 153.829933,748.523666" />
    <path
       id="path3652"
       style="stroke:#000000;stroke-width:0.5;fill:none;stroke-linecap: round"
       d="M 153.829933,801.673272 153.829933,748.523666" />
    <path
       id="path3654"
       style="stroke:#000000;stroke-width:0.5;fill:none;stroke-linecap: round"
       d="M 153.829933,801.673272 A 14.173228,14.173228 -0.000000 0 0 182.176390,801.673272" />
    <path
       id="path3656"
       style="stroke:#000000;stroke-width:0.5;fill:none;stroke-linecap: round"
       d="M 1065.851590,425.995838 A 5.669291,5.669291 -0.000000 1 0 1054.513007,425.995838 5.669291,5.669291 -0.000000 1 0 1065.851590,425.995838 z" />
    <path
       id="path3658"
       style="stroke:#000000;stroke-width:0.5;fill:none;stroke-linecap: round"
       d="M 1175.694110,425.995838 A 5.669291,5.669291 -0.000000 1 0 1164.355527,425.995838 5.669291,5.669291 -0.000000 1 0 1175.694110,425.995838 z" />
    <path
       id="path3660"
       style="stroke:#000000;stroke-width:0.5;fill:none;stroke-linecap: round"
       d="M 1175.694110,535.838357 A 5.669291,5.669291 -0.000000 1 0 1164.355527,535.838357 5.669291,5.669291 -0.000000 1 0 1175.694110,535.838357 z" />
    <path
       id="path3662"
       style="stroke:#000000;stroke-width:0.5;fill:none;stroke-linecap: round"
       d="M 1065.851590,535.838357 A 5.669291,5.669291 -0.000000 1 0 1054.513007,535.838357 5.669291,5.669291 -0.000000 1 0 1065.851590,535.838357 z" />
    <path
       id="path3664"
       style="stroke:#000000;stroke-width:0.5;fill:none;stroke-linecap: round"
       d="M 1033.873244,465.680877 A 5.669291,5.669291 -0.000000 1 0 1022.534661,465.680877 5.669291,5.669291 -0.000000 1 0 1033.873244,465.680877 z" />
    <path
       id="path3666"
       style="stroke:#000000;stroke-width:0.5;fill:none;stroke-linecap: round"
       d="M 1155.851590,480.917098 A 40.748031,40.748031 -0.000000 1 0 1074.355527,480.917098 40.748031,40.748031 -0.000000 1 0 1155.851590,480.917098 z" />
    <path
       id="path3668"
       style="stroke:#000000;stroke-width:0.5;fill:none;stroke-linecap: round"
       d="M 1069.040566,480.917098 A 14.173228,14.173228 -0.000000 1 0 1040.694110,480.917098 14.173228,14.173228 -0.000000 1 0 1069.040566,480.917098 z" />
    <path
       id="path3670"
       style="stroke:#000000;stroke-width:0.5;fill:none;stroke-linecap: round"
       d="M 1207.672456,465.680877 A 5.669291,5.669291 -0.000000 1 0 1196.333873,465.680877 5.669291,5.669291 -0.000000 1 0 1207.672456,465.680877 z" />
    <path
       id="path3672"
       style="stroke:#000000;stroke-width:0.5;fill:none;stroke-linecap: round"
       d="M 1312.792407,425.995838 A 5.669291,5.669291 -0.000000 1 0 1301.453824,425.995838 5.669291,5.669291 -0.000000 1 0 1312.792407,425.995838 z" />
    <path
       id="path3674"
       style="stroke:#000000;stroke-width:0.5;fill:none;stroke-linecap: round"
       d="M 1422.634927,425.995838 A 5.669291,5.669291 -0.000000 1 0 1411.296344,425.995838 5.669291,5.669291 -0.000000 1 0 1422.634927,425.995838 z" />
    <path
       id="path3676"
       style="stroke:#000000;stroke-width:0.5;fill:none;stroke-linecap: round"
       d="M 1422.634927,535.838357 A 5.669291,5.669291 -0.000000 1 0 1411.296344,535.838357 5.669291,5.669291 -0.000000 1 0 1422.634927,535.838357 z" />
    <path
       id="path3678"
       style="stroke:#000000;stroke-width:0.5;fill:none;stroke-linecap: round"
       d="M 1312.792407,535.838357 A 5.669291,5.669291 -0.000000 1 0 1301.453824,535.838357 5.669291,5.669291 -0.000000 1 0 1312.792407,535.838357 z" />
    <path
       id="path3680"
       style="stroke:#000000;stroke-width:0.5;fill:none;stroke-linecap: round"
       d="M 1280.814061,465.680877 A 5.669291,5.669291 -0.000000 1 0 1269.475478,465.680877 5.669291,5.669291 -0.000000 1 0 1280.814061,465.680877 z" />
    <path
       id="path3682"
       style="stroke:#000000;stroke-width:0.5;fill:none;stroke-linecap: round"
       d="M 1402.792407,480.917098 A 40.748031,40.748031 -0.000000 1 0 1321.296344,480.917098 40.748031,40.748031 -0.000000 1 0 1402.792407,480.917098 z" />
    <path
       id="path3684"
       style="stroke:#000000;stroke-width:0.5;fill:none;stroke-linecap: round"
       d="M 1315.981383,480.917098 A 14.173228,14.173228 -0.000000 1 0 1287.634927,480.917098 14.173228,14.173228 -0.000000 1 0 1315.981383,480.917098 z" />
    <path
       id="path3686"
       style="stroke:#000000;stroke-width:0.5;fill:none;stroke-linecap: round"
       d="M 1454.613273,465.680877 A 5.669291,5.669291 -0.000000 1 0 1443.274690,465.680877 5.669291,5.669291 -0.000000 1 0 1454.613273,465.680877 z" />
    <path
       id="path3688"
       style="stroke:#000000;stroke-width:0.5;fill:none;stroke-linecap: round"
       d="M 1981.413961,601.627241 A 5.669291,5.669291 -0.000000 1 0 1970.075379,601.627241 5.669291,5.669291 -0.000000 1 0 1981.413961,601.627241 z" />
    <path
       id="path3690"
       style="stroke:#000000;stroke-width:0.5;fill:none;stroke-linecap: round"
       d="M 1829.051757,517.207950 A 5.669291,5.669291 -0.000000 1 0 1817.713174,517.207950 5.669291,5.669291 -0.000000 1 0 1829.051757,517.207950 z" />
    <path
       id="path3692"
       style="stroke:#000000;stroke-width:0.5;fill:none;stroke-linecap: round"
       d="M 1769.789946,402.139052 A 14.173228,14.173228 -0.000000 1 0 1741.443489,402.139052 14.173228,14.173228 -0.000000 1 0 1769.789946,402.139052 z" />
    <path
       id="path3694"
       style="stroke:#000000;stroke-width:0.5;fill:none;stroke-linecap: round"
       d="M 1833.569473,402.139052 A 17.716535,17.716535 -0.000000 1 0 1798.136402,402.139052 17.716535,17.716535 -0.000000 1 0 1833.569473,402.139052 z" />
    <path
       id="path3696"
       style="stroke:#000000;stroke-width:0.5;fill:none;stroke-linecap: round"
       d="M 1749.596185,658.664453 A 5.669291,5.669291 -0.000000 1 0 1738.257602,658.664453 5.669291,5.669291 -0.000000 1 0 1749.596185,658.664453 z" />
    <path
       id="path3698"
       style="stroke:#000000;stroke-width:0.5;fill:none;stroke-linecap: round"
       d="M 1597.233980,743.083745 A 5.669291,5.669291 -0.000000 1 0 1585.895398,743.083745 5.669291,5.669291 -0.000000 1 0 1597.233980,743.083745 z" />
    <path
       id="path3700"
       style="stroke:#000000;stroke-width:0.5;fill:none;stroke-linecap: round"
       d="M 1537.972169,858.152642 A 14.173228,14.173228 -0.000000 1 0 1509.625713,858.152642 14.173228,14.173228 -0.000000 1 0 1537.972169,858.152642 z" />
    <path
       id="path3702"
       style="stroke:#000000;stroke-width:0.5;fill:none;stroke-linecap: round"
       d="M 1601.751697,858.152642 A 17.716535,17.716535 -0.000000 1 0 1566.318626,858.152642 17.716535,17.716535 -0.000000 1 0 1601.751697,858.152642 z" />
    <path
       id="path3704"
       style="stroke:#000000;stroke-width:0.5;fill:none;stroke-linecap: round"
       d="M 212.560248,-955.098794 L 212.560248,-962.185408 L 208.131114,-962.185408 L 208.131114,-983.445251 L 280.148831,-983.445251 L 280.148831,-1005.945251 L 1281.841744,-1005.945251 L 1281.841744,-983.445251 L 1353.859461,-983.445251 L 1353.859461,-962.185408 L 1349.430327,-962.185408 L 1349.430327,-955.098794 L 1353.859461,-955.098794 L 1353.859461,-945.709030 L 1364.489382,-945.709030 L 1364.489382,-955.098794 L 1368.918516,-955.098794 L 1368.918516,-962.185408 L 1364.489382,-962.185408 L 1364.489382,-983.445251 L 1436.507099,-983.445251 L 1436.507099,-1005.945251 L 1471.940170,-1005.945251 L 1471.940170,-952.795644 A 28.346457,28.346457 0.0 0 0 1450.680327,-925.349306 L 1450.680327,77.966678 A 28.346457,28.346457 0.0 0 0 1471.940170,105.413017 L 1471.940170,287.361836 A 17.716535,17.716535 0.0 0 1 1454.223634,305.078371 L 1383.357492,305.078371 L 1376.270878,297.991757 L 185.719697,297.991757 L 178.633083,305.078371 L 107.766941,305.078371 A 17.716535,17.716535 0.0 0 1 90.050406,287.361836 L 90.050406,105.413017 A 28.346457,28.346457 0.0 0 0 111.310248,77.966678 L 111.310248,-925.349306 A 28.346457,28.346457 0.0 0 0 90.050406,-952.795644 L 90.050406,-1005.945251 L 125.483477,-1005.945251 L 125.483477,-983.445251 L 197.501193,-983.445251 L 197.501193,-962.185408 L 193.072059,-962.185408 L 193.072059,-955.098794 L 197.501193,-955.098794 L 197.501193,-945.709030 L 208.131114,-945.709030 L 208.131114,-955.098794 L 212.560248,-955.098794 z" />
    <path
       id="path3706"
       style="stroke:#000000;stroke-width:0.5;fill:none;stroke-linecap: round"
       d="M 1551.721699,297.991757 L 1913.139022,297.991757 L 1920.225636,305.078371 L 2026.524849,305.078371 L 2026.524849,227.479946 A 14.173228,14.173228 0.0 0 0 2012.351621,213.306718 L 1831.642959,213.306718 A 14.527559,14.527559 0.0 1 1 1831.642959,184.251600 L 2012.351621,184.251600 A 14.173228,14.173228 0.0 0 0 2026.524849,170.078371 L 2026.524849,140.768438 A 14.173228,14.173228 0.0 0 0 2025.842764,136.424540 L 1665.265494,-983.445251 L 1630.205951,-983.445251 L 1630.205951,-962.185408 L 1634.635085,-962.185408 L 1634.635085,-955.098794 L 1630.205951,-955.098794 L 1630.205951,-945.709030 L 1619.576030,-945.709030 L 1619.576030,-955.098794 L 1615.146896,-955.098794 L 1615.146896,-962.185408 L 1619.576030,-962.185408 L 1619.576030,-983.445251 L 1589.457920,-983.445251 L 1589.457920,-1005.945251 L 1551.721699,-1005.945251 L 1551.721699,-964.842889 L 1529.221699,-964.842889 L 1529.221699,-944.291707 L 1551.721699,-944.291707 L 1551.721699,-922.677534 L 1572.981542,-922.677534 L 1572.981542,-927.106668 L 1580.068156,-927.106668 L 1580.068156,-922.677534 L 1589.457920,-922.677534 L 1589.457920,-912.047613 L 1580.068156,-912.047613 L 1580.068156,-907.618479 L 1572.981542,-907.618479 L 1572.981542,-912.047613 L 1551.721699,-912.047613 L 1551.721699,-890.433440 L 1529.221699,-890.433440 L 1529.221699,-869.882259 L 1551.721699,-869.882259 L 1551.721699,-397.913755 L 1529.221699,-397.913755 L 1529.221699,-377.362574 L 1551.721699,-377.362574 L 1551.721699,-355.748400 L 1572.981542,-355.748400 L 1572.981542,-360.177534 L 1580.068156,-360.177534 L 1580.068156,-355.748400 L 1589.457920,-355.748400 L 1589.457920,-345.118479 L 1580.068156,-345.118479 L 1580.068156,-340.689345 L 1572.981542,-340.689345 L 1572.981542,-345.118479 L 1551.721699,-345.118479 L 1551.721699,-323.504306 L 1529.221699,-323.504306 L 1529.221699,-302.953125 L 1551.721699,-302.953125 L 1551.721699,169.015379 L 1529.221699,169.015379 L 1529.221699,189.566560 L 1551.721699,189.566560 L 1551.721699,211.180733 L 1572.981542,211.180733 L 1572.981542,206.751600 L 1580.068156,206.751600 L 1580.068156,211.180733 L 1589.457920,211.180733 L 1589.457920,221.810655 L 1580.068156,221.810655 L 1580.068156,226.239789 L 1572.981542,226.239789 L 1572.981542,221.810655 L 1551.721699,221.810655 L 1551.721699,243.424828 L 1529.221699,243.424828 L 1529.221699,263.976009 L 1551.721699,263.976009 L 1551.721699,297.991757 z" />
    <path
       id="path3708"
       style="stroke:#000000;stroke-width:0.5;fill:none;stroke-linecap: round"
       d="M 1615.501227,276.731915 L 1668.650833,276.731915 A 14.173228,14.173228 0.0 0 0 1668.650833,248.385458 L 1615.501227,248.385458 A 14.173228,14.173228 0.0 1 0 1615.501227,276.731915 z" />
    <path
       id="path3710"
       style="stroke:#000000;stroke-width:0.5;fill:none;stroke-linecap: round"
       d="M 1900.715142,528.457950 L 1964.494670,528.457950 L 1964.494670,566.194170 L 1986.994670,566.194170 L 1986.994670,528.457950 L 2022.427741,528.457950 L 2022.427741,556.747629 A 42.519685,42.519685 0.0 0 1 2018.427727,574.752034 L 1986.994670,642.001744 L 1964.494670,642.001744 L 1740.970857,575.257871 A 42.519685,42.519685 0.0 0 1 1710.616717,534.515717 L 1710.616717,528.457950 L 1746.049788,528.457950 L 1746.049788,505.957950 L 1710.616717,505.957950 L 1710.616717,403.202044 A 42.519685,42.519685 0.0 0 1 1753.136402,360.682359 L 1824.513674,360.682359 A 42.519685,42.519685 0.0 0 1 1865.143443,390.666274 L 1900.715142,505.957950 L 1900.715142,528.457950 z" />
    <path
       id="path3712"
       style="stroke:#000000;stroke-width:0.5;fill:none;stroke-linecap: round"
       d="M 1521.318626,899.609335 A 42.519685,42.519685 0.0 0 1 1478.798941,857.089650 L 1478.798941,754.333745 L 1514.232012,754.333745 L 1514.232012,731.833745 L 1478.798941,731.833745 L 1478.798941,725.775978 A 42.519685,42.519685 0.0 0 1 1509.153080,685.033824 L 1732.676894,618.289950 L 1755.176894,618.289950 L 1786.609950,685.539661 A 42.519685,42.519685 0.0 0 1 1790.609965,703.544065 L 1790.609965,731.833745 L 1755.176894,731.833745 L 1755.176894,694.097524 L 1732.676894,694.097524 L 1732.676894,731.833745 L 1668.897366,731.833745 L 1668.897366,754.333745 L 1633.325666,869.625420 A 42.519685,42.519685 0.0 0 1 1592.695898,899.609335 L 1521.318626,899.609335 z" />
    <path
       id="path3714"
       style="stroke:#000000;stroke-width:0.5;fill:none;stroke-linecap: round"
       d="M 132.570091,865.452800 L 132.570091,504.035477 L 125.483477,496.948863 L 125.483477,390.649650 L 203.081902,390.649650 A 14.173228,14.173228 0.0 0 1 217.255130,404.822879 L 217.255130,585.531540 A 14.527559,14.527559 0.0 0 0 246.310248,585.531540 L 246.310248,404.822879 A 14.173228,14.173228 0.0 0 1 260.483477,390.649650 L 289.793410,390.649650 A 14.173228,14.173228 0.0 0 1 294.137308,391.331735 L 1414.007099,751.909005 L 1414.007099,786.968548 L 1392.747256,786.968548 L 1392.747256,782.539414 L 1385.660642,782.539414 L 1385.660642,786.968548 L 1376.270878,786.968548 L 1376.270878,797.598469 L 1385.660642,797.598469 L 1385.660642,802.027603 L 1392.747256,802.027603 L 1392.747256,797.598469 L 1414.007099,797.598469 L 1414.007099,827.716580 L 1436.507099,827.716580 L 1436.507099,865.452800 L 1395.404736,865.452800 L 1395.404736,887.952800 L 1374.853555,887.952800 L 1374.853555,865.452800 L 1353.239382,865.452800 L 1353.239382,844.192958 L 1357.668516,844.192958 L 1357.668516,837.106343 L 1353.239382,837.106343 L 1353.239382,827.716580 L 1342.609461,827.716580 L 1342.609461,837.106343 L 1338.180327,837.106343 L 1338.180327,844.192958 L 1342.609461,844.192958 L 1342.609461,865.452800 L 1320.995288,865.452800 L 1320.995288,887.952800 L 1300.444107,887.952800 L 1300.444107,865.452800 L 828.475603,865.452800 L 828.475603,887.952800 L 807.924421,887.952800 L 807.924421,865.452800 L 786.310248,865.452800 L 786.310248,844.192958 L 790.739382,844.192958 L 790.739382,837.106343 L 786.310248,837.106343 L 786.310248,827.716580 L 775.680327,827.716580 L 775.680327,837.106343 L 771.251193,837.106343 L 771.251193,844.192958 L 775.680327,844.192958 L 775.680327,865.452800 L 754.066154,865.452800 L 754.066154,887.952800 L 733.514973,887.952800 L 733.514973,865.452800 L 261.546469,865.452800 L 261.546469,887.952800 L 240.995288,887.952800 L 240.995288,865.452800 L 219.381114,865.452800 L 219.381114,844.192958 L 223.810248,844.192958 L 223.810248,837.106343 L 219.381114,837.106343 L 219.381114,827.716580 L 208.751193,827.716580 L 208.751193,837.106343 L 204.322059,837.106343 L 204.322059,844.192958 L 208.751193,844.192958 L 208.751193,865.452800 L 187.137020,865.452800 L 187.137020,887.952800 L 166.585839,887.952800 L 166.585839,865.452800 L 132.570091,865.452800 z" />
    <path
       id="path3716"
       style="stroke:#000000;stroke-width:0.5;fill:none;stroke-linecap: round"
       d="M 1409.879021,377.098200 L 1409.879021,354.598200 L 1388.619179,354.598200 L 1388.619179,377.098200 L 1367.359336,377.098200 L 1367.359336,398.358042 L 1371.788470,398.358042 L 1371.788470,405.444657 L 1367.359336,405.444657 L 1367.359336,414.834420 L 1356.729415,414.834420 L 1356.729415,405.444657 L 1352.300281,405.444657 L 1352.300281,398.358042 L 1356.729415,398.358042 L 1356.729415,377.098200 L 1335.469572,377.098200 L 1335.469572,354.598200 L 1314.209730,354.598200 L 1314.209730,377.098200 L 1256.808155,377.098200 L 1256.808155,536.547019 A 17.716535,17.716535 0.0 0 0 1274.524690,554.263554 L 1451.690045,554.263554 A 17.716535,17.716535 0.0 0 0 1469.406580,536.547019 L 1469.406580,377.098200 L 1409.879021,377.098200 z" />
    <path
       id="path3718"
       style="stroke:#000000;stroke-width:0.5;fill:none;stroke-linecap: round"
       d="M 1263.894769,439.106074 L 1286.394769,439.106074 L 1286.394769,417.846231 L 1263.894769,417.846231 L 1263.894769,439.106074 z" />
    <path
       id="path3720"
       style="stroke:#000000;stroke-width:0.5;fill:none;stroke-linecap: round"
       d="M 1286.394769,513.515523 L 1286.394769,492.255680 L 1263.894769,492.255680 L 1263.894769,513.515523 L 1286.394769,513.515523 z" />
    <path
       id="path3722"
       style="stroke:#000000;stroke-width:0.5;fill:none;stroke-linecap: round"
       d="M 1437.693982,417.846231 L 1437.693982,439.106074 L 1460.193982,439.106074 L 1460.193982,417.846231 L 1437.693982,417.846231 z" />
    <path
       id="path3724"
       style="stroke:#000000;stroke-width:0.5;fill:none;stroke-linecap: round"
       d="M 1437.693982,513.515523 L 1460.193982,513.515523 L 1460.193982,492.255680 L 1437.693982,492.255680 L 1437.693982,513.515523 z" />
    <path
       id="path3726"
       style="stroke:#000000;stroke-width:0.5;fill:none;stroke-linecap: round"
       d="M 1039.453952,439.106074 L 1039.453952,417.846231 L 1016.953952,417.846231 L 1016.953952,439.106074 L 1039.453952,439.106074 z" />
    <path
       id="path3728"
       style="stroke:#000000;stroke-width:0.5;fill:none;stroke-linecap: round"
       d="M 1039.453952,513.515523 L 1039.453952,492.255680 L 1016.953952,492.255680 L 1016.953952,513.515523 L 1039.453952,513.515523 z" />
    <path
       id="path3730"
       style="stroke:#000000;stroke-width:0.5;fill:none;stroke-linecap: round"
       d="M 1213.253165,417.846231 L 1190.753165,417.846231 L 1190.753165,439.106074 L 1213.253165,439.106074 L 1213.253165,417.846231 z" />
    <path
       id="path3732"
       style="stroke:#000000;stroke-width:0.5;fill:none;stroke-linecap: round"
       d="M 1190.753165,513.515523 L 1213.253165,513.515523 L 1213.253165,492.255680 L 1190.753165,492.255680 L 1190.753165,513.515523 z" />
    <path
       id="path3734"
       style="stroke:#000000;stroke-width:0.5;fill:none;stroke-linecap: round"
       d="M 861.658815,341.707097 L 861.658815,364.207097 L 840.398972,364.207097 L 840.398972,385.466939 L 844.828106,385.466939 L 844.828106,392.553554 L 840.398972,392.553554 L 840.398972,401.943317 L 829.769051,401.943317 L 829.769051,392.553554 L 825.339917,392.553554 L 825.339917,385.466939 L 829.769051,385.466939 L 829.769051,364.207097 L 808.509208,364.207097 L 808.509208,341.707097 L 787.249366,341.707097 L 787.249366,364.207097 L 753.587948,364.207097 L 753.587948,366.638838 A 28.346457,28.346457 0.0 0 0 761.890433,386.682810 L 901.190975,525.983352 A 28.346457,28.346457 0.0 0 0 921.234947,534.285837 L 923.666689,534.285837 L 923.666689,500.624420 L 946.166689,500.624420 L 946.166689,479.364577 L 923.666689,479.364577 L 923.666689,458.104735 L 902.406846,458.104735 L 902.406846,462.533868 L 895.320232,462.533868 L 895.320232,458.104735 L 885.930468,458.104735 L 885.930468,447.474813 L 895.320232,447.474813 L 895.320232,443.045680 L 902.406846,443.045680 L 902.406846,447.474813 L 923.666689,447.474813 L 923.666689,426.214971 L 946.166689,426.214971 L 946.166689,404.955128 L 923.666689,404.955128 L 923.666689,364.207097 L 882.918657,364.207097 L 882.918657,341.707097 L 861.658815,341.707097 z" />
    <path
       id="path3736"
       style="stroke:#000000;stroke-width:0.5;fill:none;stroke-linecap: round"
       d="M 530.344467,-75.069369 L 509.084624,-75.069369 L 509.084624,-52.569369 L 475.423207,-52.569369 L 475.423207,-50.137627 A 28.346457,28.346457 0.0 0 0 483.725692,-30.093656 L 623.026234,109.206886 A 28.346457,28.346457 0.0 0 0 643.070205,117.509371 L 645.501947,117.509371 L 645.501947,83.847954 L 668.001947,83.847954 L 668.001947,62.588111 L 645.501947,62.588111 L 645.501947,41.328269 L 624.242104,41.328269 L 624.242104,45.757403 L 617.155490,45.757403 L 617.155490,41.328269 L 607.765726,41.328269 L 607.765726,30.698348 L 617.155490,30.698348 L 617.155490,26.269214 L 624.242104,26.269214 L 624.242104,30.698348 L 645.501947,30.698348 L 645.501947,9.438505 L 668.001947,9.438505 L 668.001947,-11.821337 L 645.501947,-11.821337 L 645.501947,-52.569369 L 604.753915,-52.569369 L 604.753915,-75.069369 L 583.494073,-75.069369 L 583.494073,-52.569369 L 562.234230,-52.569369 L 562.234230,-31.309526 L 566.663364,-31.309526 L 566.663364,-24.222912 L 562.234230,-24.222912 L 562.234230,-14.833148 L 551.604309,-14.833148 L 551.604309,-24.222912 L 547.175175,-24.222912 L 547.175175,-31.309526 L 551.604309,-31.309526 L 551.604309,-52.569369 L 530.344467,-52.569369 L 530.344467,-75.069369 z" />
    <path
       id="path3738"
       style="stroke:#000000;stroke-width:0.5;fill:none;stroke-linecap: round"
       d="M 714.138230,-75.069369 L 714.138230,-52.569369 L 680.476813,-52.569369 L 680.476813,-50.137627 A 28.346457,28.346457 0.0 0 0 688.779298,-30.093656 L 828.079840,109.206886 A 28.346457,28.346457 0.0 0 0 848.123811,117.509371 L 850.555553,117.509371 L 850.555553,83.847954 L 873.055553,83.847954 L 873.055553,62.588111 L 850.555553,62.588111 L 850.555553,41.328269 L 829.295710,41.328269 L 829.295710,45.757403 L 822.209096,45.757403 L 822.209096,41.328269 L 812.819332,41.328269 L 812.819332,30.698348 L 822.209096,30.698348 L 822.209096,26.269214 L 829.295710,26.269214 L 829.295710,30.698348 L 850.555553,30.698348 L 850.555553,9.438505 L 873.055553,9.438505 L 873.055553,-11.821337 L 850.555553,-11.821337 L 850.555553,-52.569369 L 809.807521,-52.569369 L 809.807521,-75.069369 L 788.547679,-75.069369 L 788.547679,-52.569369 L 767.287836,-52.569369 L 767.287836,-31.309526 L 771.716970,-31.309526 L 771.716970,-24.222912 L 767.287836,-24.222912 L 767.287836,-14.833148 L 756.657915,-14.833148 L 756.657915,-24.222912 L 752.228781,-24.222912 L 752.228781,-31.309526 L 756.657915,-31.309526 L 756.657915,-52.569369 L 735.398073,-52.569369 L 735.398073,-75.069369 L 714.138230,-75.069369 z" />
    <path
       id="path3740"
       style="stroke:#000000;stroke-width:0.5;fill:none;stroke-linecap: round"
       d="M 993.601285,-75.069369 L 993.601285,-52.569369 L 972.341442,-52.569369 L 972.341442,-31.309526 L 976.770576,-31.309526 L 976.770576,-24.222912 L 972.341442,-24.222912 L 972.341442,-14.833148 L 961.711521,-14.833148 L 961.711521,-24.222912 L 957.282387,-24.222912 L 957.282387,-31.309526 L 961.711521,-31.309526 L 961.711521,-52.569369 L 940.451678,-52.569369 L 940.451678,-75.069369 L 919.191836,-75.069369 L 919.191836,-52.569369 L 885.530419,-52.569369 L 885.530419,-50.137627 A 28.346457,28.346457 0.0 0 0 893.832904,-30.093656 L 1033.133445,109.206886 A 28.346457,28.346457 0.0 0 0 1053.177417,117.509371 L 1055.609159,117.509371 L 1055.609159,83.847954 L 1078.109159,83.847954 L 1078.109159,62.588111 L 1055.609159,62.588111 L 1055.609159,41.328269 L 1034.349316,41.328269 L 1034.349316,45.757403 L 1027.262702,45.757403 L 1027.262702,41.328269 L 1017.872938,41.328269 L 1017.872938,30.698348 L 1027.262702,30.698348 L 1027.262702,26.269214 L 1034.349316,26.269214 L 1034.349316,30.698348 L 1055.609159,30.698348 L 1055.609159,9.438505 L 1078.109159,9.438505 L 1078.109159,-11.821337 L 1055.609159,-11.821337 L 1055.609159,-52.569369 L 1014.861127,-52.569369 L 1014.861127,-75.069369 L 993.601285,-75.069369 z" />
    <path
       id="path3742"
       style="stroke:#000000;stroke-width:0.5;fill:none;stroke-linecap: round"
       d="M 1153.807632,-367.275064 A 21.259843,21.259843 0.0 0 0 1160.034495,-382.308043 L 1160.034495,-449.735183 A 21.259843,21.259843 0.0 0 0 1153.807632,-464.768162 L 1031.615690,-586.960104 A 21.259843,21.259843 0.0 0 1 1025.388826,-601.993082 L 1025.388826,-630.443844 A 21.259843,21.259843 0.0 0 1 1031.615690,-645.476823 L 1160.034495,-773.895629 A 17.538475,17.538475 0.0 0 0 1135.231346,-798.698778 L 1059.962147,-723.429579 A 21.259843,21.259843 0.0 0 1 1044.929168,-717.202715 L 509.785492,-717.202715 A 21.259843,21.259843 0.0 0 1 494.752514,-723.429579 L 419.483314,-798.698778 A 17.538475,17.538475 0.0 0 0 394.680165,-773.895629 L 452.232829,-716.342965 A 21.259843,21.259843 0.0 0 1 458.459692,-701.309986 L 458.459692,-648.056075 A 21.259843,21.259843 0.0 0 1 452.232829,-633.023096 L 400.907028,-581.697296 A 21.259843,21.259843 0.0 0 0 394.680165,-566.664317 L 394.680165,-506.323791 A 21.259843,21.259843 0.0 0 0 400.907028,-491.290812 L 452.232829,-439.965012 A 21.259843,21.259843 0.0 0 1 458.459692,-424.932033 L 458.459692,-407.111193 A 21.259843,21.259843 0.0 0 1 452.232829,-392.078214 L 400.907028,-340.752414 A 21.259843,21.259843 0.0 0 0 394.680165,-325.719435 L 394.680165,-265.378909 A 21.259843,21.259843 0.0 0 0 400.907028,-250.345930 L 452.232829,-199.020130 A 21.259843,21.259843 0.0 0 1 458.459692,-183.987151 L 458.459692,-130.733240 A 21.259843,21.259843 0.0 0 1 452.232829,-115.700261 L 394.680165,-58.147597 A 17.538475,17.538475 0.0 0 0 419.483314,-33.344448 L 494.752514,-108.613647 A 21.259843,21.259843 0.0 0 1 509.785492,-114.840511 L 1044.929168,-114.840511 A 21.259843,21.259843 0.0 0 1 1059.962147,-108.613647 L 1135.231346,-33.344448 A 17.538475,17.538475 0.0 0 0 1160.034495,-58.147597 L 1031.615690,-186.566403 A 21.259843,21.259843 0.0 0 1 1025.388826,-201.599382 L 1025.388826,-230.050144 A 21.259843,21.259843 0.0 0 1 1031.615690,-245.083122 L 1153.807632,-367.275064 z" />
    <path
       id="path3744"
       style="stroke:#000000;stroke-width:0.5;fill:none;stroke-linecap: round"
       d="M 867.763813,-540.037361 A 21.259843,21.259843 0.0 0 0 882.796792,-546.264225 L 982.009391,-645.476823 A 21.259843,21.259843 0.0 0 0 966.976412,-681.769645 L 587.738248,-681.769645 A 21.259843,21.259843 0.0 0 0 572.705269,-645.476823 L 671.917868,-546.264225 A 21.259843,21.259843 0.0 0 0 686.950847,-540.037361 L 867.763813,-540.037361 z" />
    <path
       id="path3746"
       style="stroke:#000000;stroke-width:0.5;fill:none;stroke-linecap: round"
       d="M 706.491188,-424.932033 A 21.259843,21.259843 0.0 0 0 700.264325,-439.965012 L 641.851910,-498.377427 A 21.259843,21.259843 0.0 0 0 626.818931,-504.604290 L 573.565020,-504.604290 A 21.259843,21.259843 0.0 0 0 558.532041,-498.377427 L 500.119627,-439.965012 A 21.259843,21.259843 0.0 0 0 493.892763,-424.932033 L 493.892763,-407.111193 A 21.259843,21.259843 0.0 0 0 500.119627,-392.078214 L 558.532041,-333.665800 A 21.259843,21.259843 0.0 0 0 573.565020,-327.438936 L 626.818931,-327.438936 A 21.259843,21.259843 0.0 0 0 641.851910,-333.665800 L 700.264325,-392.078214 A 21.259843,21.259843 0.0 0 0 706.491188,-407.111193 L 706.491188,-424.932033 z" />
    <path
       id="path3748"
       style="stroke:#000000;stroke-width:0.5;fill:none;stroke-linecap: round"
       d="M 945.716569,-327.438936 A 21.259843,21.259843 0.0 0 0 960.749548,-333.665800 L 983.728892,-356.645143 A 21.259843,21.259843 0.0 0 0 989.955755,-371.678122 L 989.955755,-460.365104 A 21.259843,21.259843 0.0 0 0 983.728892,-475.398083 L 960.749548,-498.377427 A 21.259843,21.259843 0.0 0 0 945.716569,-504.604290 L 927.895729,-504.604290 A 21.259843,21.259843 0.0 0 0 912.862750,-498.377427 L 854.450335,-439.965012 A 21.259843,21.259843 0.0 0 0 848.223472,-424.932033 L 848.223472,-407.111193 A 21.259843,21.259843 0.0 0 0 854.450335,-392.078214 L 912.862750,-333.665800 A 21.259843,21.259843 0.0 0 0 927.895729,-327.438936 L 945.716569,-327.438936 z" />
    <path
       id="path3750"
       style="stroke:#000000;stroke-width:0.5;fill:none;stroke-linecap: round"
       d="M 882.796792,-285.779001 A 21.259843,21.259843 0.0 0 0 867.763813,-292.005865 L 686.950847,-292.005865 A 21.259843,21.259843 0.0 0 0 671.917868,-285.779001 L 572.705269,-186.566403 A 21.259843,21.259843 0.0 0 0 587.738248,-150.273582 L 966.976412,-150.273582 A 21.259843,21.259843 0.0 0 0 982.009391,-186.566403 L 882.796792,-285.779001 z" />
    <path
       id="path3752"
       style="stroke:#000000;stroke-width:0.5;fill:none;stroke-linecap: round"
       d="M 493.987414,234.212230 L 493.987414,188.149237 A 42.519685,42.519685 0.0 0 0 519.491618,163.346088 L 674.696075,163.346088 L 752.648831,241.298844 L 809.341744,241.298844 L 887.294500,163.346088 L 1042.498957,163.346088 A 42.519685,42.519685 0.0 0 0 1068.003162,188.149237 L 1068.003162,234.212230 A 14.173228,14.173228 0.0 0 0 1096.349618,234.212230 L 1096.349618,188.149237 A 42.519685,42.519685 0.0 0 0 1124.696075,148.061294 L 1124.696075,138.542938 L 1160.129146,138.542938 A 28.346457,28.346457 0.0 0 0 1188.475603,110.196481 L 1188.475603,-800.433440 A 28.346457,28.346457 0.0 0 0 1160.129146,-828.779896 L 401.861429,-828.779896 A 28.346457,28.346457 0.0 0 0 373.514973,-800.433440 L 373.514973,110.196481 A 28.346457,28.346457 0.0 0 0 401.861429,138.542938 L 437.294500,138.542938 L 437.294500,148.061294 A 42.519685,42.519685 0.0 0 0 465.640957,188.149237 L 465.640957,234.212230 A 14.173228,14.173228 0.0 0 0 493.987414,234.212230 z" />
    <path
       id="path3754"
       style="stroke:#000000;stroke-width:0.5;fill:none;stroke-linecap: round"
       d="M 1162.938204,377.098200 L 1162.938204,354.598200 L 1141.678362,354.598200 L 1141.678362,377.098200 L 1120.418519,377.098200 L 1120.418519,398.358042 L 1124.847653,398.358042 L 1124.847653,405.444657 L 1120.418519,405.444657 L 1120.418519,414.834420 L 1109.788598,414.834420 L 1109.788598,405.444657 L 1105.359464,405.444657 L 1105.359464,398.358042 L 1109.788598,398.358042 L 1109.788598,377.098200 L 1088.528755,377.098200 L 1088.528755,354.598200 L 1067.268913,354.598200 L 1067.268913,377.098200 L 1009.867338,377.098200 L 1009.867338,536.547019 A 17.716535,17.716535 0.0 0 0 1027.583873,554.263554 L 1204.749228,554.263554 A 17.716535,17.716535 0.0 0 0 1222.465763,536.547019 L 1222.465763,377.098200 L 1162.938204,377.098200 z" />
    <g
       id="g4610">
      <text
         style="font-size:98.98957062px;line-height:125%;font-family:'Source Code Pro';fill:none;stroke:#000000;stroke-opacity:1"
         x="463.16992"
         y="-890.95056"
         id="text3756"
         transform="scale(1.0011591,0.99884224)">
        <tspan
           id="tspan3758"
           x="463.16992"
           y="-890.95056">kalkodon();</tspan>
      </text>
    </g>
    <flowRoot
       style="fill:black;stroke:none;stroke-opacity:1;stroke-width:1px;stroke-linejoin:miter;stroke-linecap:butt;fill-opacity:1;font-family:sans-serif;font-style:normal;font-weight:normal;font-size:40px;line-height:125%;letter-spacing:0px;word-spacing:0px"
       id="flowRoot3766"
       xml:space="preserve"><flowRegion
         id="flowRegion3768"><rect
           y="-1206.0038"
           x="1181.2229"
           height="150.33745"
           width="627.78278"
           id="rect3770" /></flowRegion><flowPara
         id="flowPara3772"></flowPara></flowRoot>    <text
       id="text4584"
       y="-797.29248"
       x="274.15829"
       style="font-style:normal;font-weight:normal;font-size:40px;line-height:125%;font-family:sans-serif;letter-spacing:0px;word-spacing:0px;fill:#000000;fill-opacity:1;stroke:none;stroke-width:1px;stroke-linecap:butt;stroke-linejoin:miter;stroke-opacity:1"
       xml:space="preserve"><tspan
         y="-797.29248"
         x="274.15829"
         id="tspan4586" /></text>
    <text
       id="text4588"
       y="-785.46173"
       x="1320.011"
       style="font-style:normal;font-weight:normal;font-size:40px;line-height:125%;font-family:sans-serif;letter-spacing:0px;word-spacing:0px;fill:none;fill-opacity:1;stroke:#000000;stroke-width:1px;stroke-linecap:butt;stroke-linejoin:miter;stroke-opacity:1;"
       xml:space="preserve"><tspan
         y="-785.46173"
         x="1320.011"
         style="font-style:normal;font-variant:normal;font-weight:300;font-stretch:normal;font-size:41.25px;line-height:125%;font-family:'Helvetica Neue';-inkscape-font-specification:'Helvetica Neue, Light';text-align:center;writing-mode:lr-tb;text-anchor:middle;fill:none;fill-opacity:1;stroke:#000000;stroke-opacity:1;"
         id="tspan4592">Prusa i3</tspan><tspan
         y="-752.64532"
         x="1323.1311"
         style="font-style:normal;font-variant:normal;font-weight:300;font-stretch:normal;font-size:22.5px;line-height:125%;font-family:'Helvetica Neue';-inkscape-font-specification:'Helvetica Neue, Light';text-align:center;writing-mode:lr-tb;text-anchor:middle;stroke:#000000;stroke-opacity:1;fill:none;"
         id="tspan4594">Main frame designed </tspan><tspan
         y="-724.52032"
         x="1323.1311"
         style="font-style:normal;font-variant:normal;font-weight:300;font-stretch:normal;font-size:22.5px;line-height:125%;font-family:'Helvetica Neue';-inkscape-font-specification:'Helvetica Neue, Light';text-align:center;writing-mode:lr-tb;text-anchor:middle;stroke:#000000;stroke-opacity:1;fill:none;"
         id="tspan4596">by Twelvepro under </tspan><tspan
         id="tspan4608"
         y="-696.39532"
         x="1323.1311"
         style="font-style:normal;font-variant:normal;font-weight:300;font-stretch:normal;font-size:22.5px;line-height:125%;font-family:'Helvetica Neue';-inkscape-font-specification:'Helvetica Neue, Light';text-align:center;writing-mode:lr-tb;text-anchor:middle;stroke:#000000;stroke-opacity:1;fill:none;">GNU GPL v2  </tspan><tspan
         y="-668.27032"
         x="1320.011"
         style="font-style:normal;font-variant:normal;font-weight:300;font-stretch:normal;font-size:22.5px;line-height:125%;font-family:'Helvetica Neue';-inkscape-font-specification:'Helvetica Neue, Light';text-align:center;writing-mode:lr-tb;text-anchor:middle;stroke:#000000;stroke-opacity:1;fill:none;"
         id="tspan4598">Thingiverse #39889</tspan><tspan
         y="-640.14532"
         x="1320.011"
         style="font-style:normal;font-variant:normal;font-weight:300;font-stretch:normal;font-size:22.5px;line-height:125%;font-family:'Helvetica Neue';-inkscape-font-specification:'Helvetica Neue, Light';text-align:center;writing-mode:lr-tb;text-anchor:middle;stroke:#000000;stroke-opacity:1;fill:none;"
         id="tspan4600" /><tspan
         y="-612.02032"
         x="1320.011"
         style="font-style:normal;font-variant:normal;font-weight:300;font-stretch:normal;font-size:22.5px;line-height:125%;font-family:'Helvetica Neue';-inkscape-font-specification:'Helvetica Neue, Light';text-align:center;writing-mode:lr-tb;text-anchor:middle;stroke:#000000;stroke-opacity:1;fill:none;"
         id="tspan4602">Assembled in Yeldeirmeni</tspan></text>
  </g>
  <g
     id="g3760" />
</svg>
